<?xml version="1.0" encoding="UTF-8"?>
<svg version="1.1" viewBox="0 0 800 800" width="200" height="200" xmlns="http://www.w3.org/2000/svg">
<path transform="translate(393,52)" d="m0 0h21l6 3 9 3 6 3 5 10h2l2 4v10l-3 4-1 36-1 3h-2v14l8 9 11 7 11 11 1 5-5 2-9 1-5 4-1 2 8 2 3 2 9 3 10 2 2 2 1 5 5 5 6 7 4 8v22l-1 3h-2v10l6 11 2 13 3 7 1 6 4-2 17-17 5-9 14-14 5-9 12-12 4-8 14-14 1-2h2l1-14 7-8 11-6h9l2 4-8 10-2 5-2 3v28l3 7 2 7 2 5 4 14 1 12 2 1 1 3v70l-2 7-1 1-1 12-3 4-2 6-2 3-1 8-3 4-1 8-11 11-2 6-4 5-2 1-2 6-10 10-2 6-6 11-2 5-7 3-7 6-5 2-21 21-8 4-4 4-8 4-5 4-9 6-4 4-1 13-3 3-1 12-3 4-1 16-1 3h-2v23l2 1 1 6v16l-11 11v46l2 2 2 9 9 10 7 6 10 3 9 4 4 6v7l-9 5-10 1h-24l-5-6v-2h-22l-6-5-4-5v-15l3-6v-41h-2l-1-2-1-16-5-5-6-2v-13l2-3v-3l-7-4-8-7-11-11-10-2-7 3-13 13-1 2v8l3 5v15l-5 5-7 3-3 3-3 7-3 12-2 1-1 13-3 3-1 12-3 4v37l3 7v12l-8 10-2 1h-22l-5-2-7-3v-20l3-6 1-14 3-6 1-15 3-6v-55l-7-7-3-7-3-6-9-10-5-6-4-7-5-5-8-1-7 2-10 10h-7l-8-7-3-3-2-10-6-10-3-2h-9l-5 3-10 10-1 13-3 4-1 10-4-1-4-5v-23l7-13 1-8 4-7 6-8h2l5-10 5-6 4-4h2l2-4 8-8 8-7 5-4 6-4 9-9 6-5 6-7 4-4h2l2-4h2l2-4 5-5 2-5 6-7v-6l-3-1-1-17-3-4-2-13-3-8-3-7-1-24-3-4v-16l3-5 4-13 1-13 3-5 1-27 3-5 2-10 2-3v-7l-6-7-9-5-9-9-5-4-6-3-17-17-5-4-6-3-5-5-5-1h-12l-4-3-5-2-5-4-7-8-5-5-2-10-2-2v-5l5-1 7 3 9 3 10 6 7 7 2 1-4-6-5-4v-2l-4-2-3-4-2-9-2-3v-5h3l2 2 9 1 3 6 11 5-2-6-7-3-3-2-1-14-3-4v-6l4 1 4 5 11 3 9 4-4-7-1-12-3-4v-6h6l12 7 5 3 4 6 8 9 5 9 3 7 3 6 9 10 3 6 10 10v2l4 2 4 6 4 7 4 1-1-9-5-9-9-10-7-14-6-8-3-5-2-3-10-1-4-8-9-10-4-8-1-12-3-5v-13l4 1 1 2 6 2 5 6 1 5 7 1 4 6 3 5 5 8 2 7 2 3 1 8 9 17 9 10 9 19 3 5 5 5 4 1 1-3h2l-8-18-10-19-8-16-2-6-10-1-3-7-8-16-2-3-1-20-3-5v-5l12 6 4 3v2l6 1 2 2 3 7 9 19 1 18 10 19 8 16 5 11 2 3 3-10 6-7 2-5 9-10 7-4 5-3 10-1-3-7-5-11v-39l7-8 8-8 3-2 9-2zm12 60-1 3h4l-1-3zm-177 16 1 3 5 2 2-1-2-4zm8 8 2 4 5 6v7l5 6 8 7 7 7 5 6 5 5 3 1 2 4 9 9 3 2h5l1-1v-5l-7-9-3-5-12-13-3-7-5-5-6-5-6-6-8-1-3-1v-2l-5-4zm-15 12-1 3h4l-1-3zm15 12 1 7 5 8 8 5 36 36h2v-6l-50-50zm-10 15-2 2v5l11 11 5 6 8 7 8 5 5 4 6 3 10 9 7 1-2-4-40-40-6-3-8-6zm355 33-4 8-12 12-3 6-13 14-10 14-10 10-10 14-11 11-2 6-2 4 6 5 5 7 4 7 4 5 1 8 3 1 1 23 3 4 8 16 1 12 3 1 1 11 7 2 2 7 5-3 6-7 3-6 6-9 8-16 3-7 11-33 1-5 1-19 3-6v-19l-1-6h-2l-1-15-3-8-2-12-3-9-3-10-1-18zm-255 87-2 3-2 9-4 8-6 6v25l2 2 1 13-2 7-1 5v23l4-1 4-6 4-7 3-7 3-10 5-10 5-11 1-10 3-4v-7l-4-11-7-14-4-3zm130 17 1 11 4 12 6 13v7l-3 2v9l3 6 2 8 2 6 1 8 3 5 1 7 6 8 2 5h2l2 4 17 17 6 7 3 5h8l2-2-1-10-2-3-1-14-8-16-7-9-4-5-3-5-3-4h-2l-2-4-14-14-4-8-2-14-2-5h2l-2-5-2-9-4-8-4-5zm24 108v68l5-2 8-5 8-7v-2l4-2 5-5 6-3-3-4-1-6-8-7-18-18-3-7z" fill="#0A030B"/>
<path transform="translate(393,52)" d="m0 0h21l6 3 9 3 6 3 5 10h2l2 4v10l-3 4-1 36-1 3h-2v14l8 9 11 7 11 11 1 5-5 2-9 1-5 4-1 2 8 2 3 2 9 3 10 2 2 2 1 5 5 5 6 7 4 8v22l-1 3h-2v10l6 11 2 13 3 7 1 6 4-2 17-17 5-9 14-14 5-9 12-12 4-8 14-14 1-2h2l1-14 7-8 11-6h9l2 4-8 10-2 5-2 3v28l3 7 2 7 2 5 4 14 1 12 2 1 1 3v70l-2 7-1 1-1 12-3 4-2 6-2 3-1 8-3 4-1 8-11 11-2 6-4 5-2 1-2 6-10 10-2 6-6 11-2 5-7 3-7 6-5 2-7 7-8-4-4 1-4 4h-2v2l-9 5-5 1 1-4h2l2-4 5-2 7-5h3l1-5-6 1-13 9h-2l-2 4-5 6-4 2h-3l1-4 11-9 11-11 5-2-3-4v-6l-4-2-23-23-2-4v-3h-3l-1-3-3-2v-5l5 3 2 5 3 1 7 8 12 12 7 8 2 4h8l1-1-1-10-2-3-1-14-8-16-7-9-4-5-3-5-9-10-12-12-4-8-2-14-1-5h2l-3-5-2-9-4-8-3-4-3-1v5l-2-4-4 5h-2l-1 3-4 1v2l4-2 5 1-1 7-3 5-12 6v4l4 6-1 7-7 8-7 2h-8l-8-6-5-6v-6l6-7 2-1v-5h-5l-2 4-8-1v-3l-7 1-2-2h4l-1-6-9-3h-3l1 5-3 1-2-1-1 4-2-5-3-2-2-5v-5l2-1-2-5 3-3 6 2 1 3h6 3l-7-6-5-1-2-5-4-2v-8l3-2h7l2-6 5-5 4-6 4-1h-10l1 4-4 4h-5l-2 2 1-4 8-9 2-13-4 1-12-6-6-4-1-2-8-3-3-13-1 12-1 6-1 7-4 4h-2v2h-3v2l-7 2v11l-3 7-1 8-4 6-2 9-1 2h-2l-1 6-5 5 1 27 2 2 1 13-2 7-5 4-26 1v2l-9 3-5 2-1-2-1-24-3-4v-16l3-5 4-13 1-13 3-5 1-27 3-5 2-10 2-3v-7l-6-7-9-5-9-9-5-4-6-3-17-17-5-4-6-3-5-5-5-1h-12l-4-3-5-2-5-4-7-8-5-5-2-10-2-2v-5l5-1 7 3 9 3 10 6 7 7 2 1-4-6-5-4v-2l-4-2-3-4-2-9-2-3v-5h3l2 2 9 1 3 6 11 5-2-6-7-3-3-2-1-14-3-4v-6l4 1 4 5 11 3 9 4-4-7-1-12-3-4v-6h6l12 7 5 3 4 6 8 9 5 9 3 7 3 6 9 10 3 6 10 10v2l4 2 4 6 4 7 4 1-1-9-5-9-9-10-7-14-6-8-3-5-2-3-10-1-4-8-9-10-4-8-1-12-3-5v-13l4 1 1 2 6 2 5 6 1 5 7 1 4 6 3 5 5 8 2 7 2 3 1 8 9 17 9 10 9 19 3 5 5 5 4 1 1-3h2l-8-18-10-19-8-16-2-6-10-1-3-7-8-16-2-3-1-20-3-5v-5l12 6 4 3v2l6 1 2 2 3 7 9 19 1 18 10 19 8 16 5 11 2 3 3-10 6-7 2-5 9-10 7-4 5-3 10-1-3-7-5-11v-39l7-8 8-8 3-2 9-2zm12 60-1 3h4l-1-3zm-177 16 1 3 5 2 2-1-2-4zm8 8 2 4 5 6v7l5 6 8 7 7 7 5 6 5 5 3 1 2 4 9 9 3 2h5l1-1v-5l-7-9-3-5-12-13-3-7-5-5-6-5-6-6-8-1-3-1v-2l-5-4zm-15 12-1 3h4l-1-3zm15 12 1 7 5 8 8 5 36 36h2v-6l-50-50zm-10 15-2 2v5l11 11 5 6 8 7 8 5 5 4 6 3 10 9 7 1-2-4-40-40-6-3-8-6zm355 33-4 8-12 12-3 6-13 14-10 14-10 10-10 14-11 11-2 6-2 4 6 5 5 7 4 7 4 5 1 8 3 1 1 23 3 4 8 16 1 12 3 1 1 11 7 2 2 7 5-3 6-7 3-6 6-9 8-16 3-7 11-33 1-5 1-19 3-6v-19l-1-6h-2l-1-15-3-8-2-12-3-9-3-10-1-18z" fill="#120E2A"/>
<path transform="translate(353,363)" d="m0 0 9 1 21 1 11 2 1 5-6 10-5 8h-2l-2 4-4 7 7-6 2-1 9 1 1 1h6l1-2-4 1-12-2 1-5 6-8 3-2 9-1 6-1 2 4v2h2v-4h3l1-2h5l2 3 2-3h4l1-2 5-1 3 1 1 7 5 3 1 7h3l2 5 2 8-1 3 3 1 5 7 5 11 4 8 1 3 3-1 1-15v-6l4 2v71l6-4 2 1-1 3 7-3 7-9 15-10 6-1 1 2-2 4-7 4-3 2-5 2-2 3h-2l-1 4 9-4 5-2v-2h2l1-3 4-3 4 1 5 2v4l-12 12-8 4-4 4-8 4-5 4-9 6-4 4-1 13-3 3-1 12-3 4-1 16-1 3h-2v23l2 1 1 6v16l-11 11v46l2 2 2 9 9 10 7 6 10 3 9 4 4 6v7l-9 5-10 1h-24l-5-6v-2h-22l-6-5-4-5v-15l3-6v-41h-2l-1-2-1-16-5-5-6-2v-13l7-2 6 2 13 1h14l6-3 2-3-10 3h-16l-10-1-5-2v-2l-4-1 1-12 2-13 1-2v-17l-1-14-4-12v-16l-4-17-3-14-2-16 3-21 2-2h12l1-3h-2v-3l7-6 3-6-10 6-7 6h-2v-7l2-15h-1l-2 11-5 5-5 1-2-4-6-3 4 5-1 3h-2l-1 3h-7-3l10 5v5l-3 5-2 6-4 8h-2v3l3-1 3 1-2 8v7l-2 4-1 5v7l1 2h-2l-2 9-4 16-1 9-8 14-3 5-10 17-5 5-6 3-4-1-5-4v-2h-2v-3h-2v-4h-2l-3-8-2-10v-35l4-13 3-9 1-5h2v-6l3-8 3-12 3-7 2-5h2v-2l2-1 3-5h2l1-5h2l2-4 3-5 2-6 4-3 3-5 5-6-8 6-7 8-8 8-8 7-9 11-6 1-1-3 5-13 7-19 3-6 1-4-5-1 2-16 5-11 4-2z" fill="#0A060E"/>
<path transform="translate(602,176)" d="m0 0h9l2 4-8 10-2 5-2 3v28l3 7 2 7 2 5 4 14 1 12 2 1 1 3v70l-2 7-1 1-1 12-3 4-2 6-2 3-1 8-3 4-1 8-11 11-2 6-4 5-2 1-2 6-10 10-2 6-6 11-2 5-7 3-7 6-5 2-7 7-8-4-4 1-4 4h-2v2l-9 5-5 1 1-4h2l2-4 5-2 7-5h3l1-5-6 1-13 9h-2l-2 4-5 6-4 2h-3l1-4 11-9 11-11 5-2-3-4v-6l-4-2-23-23-2-4v-3h-3l-1-3-3-2v-5l5 3 2 5 3 1 7 8 12 12 7 8 2 4h8l1-1-1-10-2-3-1-14-8-16-7-9-4-5-3-5-9-10-12-12-4-8-2-14-1-5h2l-3-5-2-9-4-8-3-5 1-32h2l1-5 9-21 2-6 4-1 1-5-6-2-2-13-8-22-3-7v-8l4-2 7 3 7 1 2 2 1 5 5 5 6 7 4 8v22l-1 3h-2v10l6 11 2 13 3 7 1 6 4-2 17-17 5-9 14-14 5-9 12-12 4-8 14-14 1-2h2l1-14 7-8zm-21 32-4 8-12 12-3 6-13 14-10 14-10 10-10 14-11 11-2 6-2 4 6 5 5 7 4 7 4 5 1 8 3 1 1 23 3 4 8 16 1 12 3 1 1 11 7 2 2 7 5-3 6-7 3-6 6-9 8-16 3-7 11-33 1-5 1-19 3-6v-19l-1-6h-2l-1-15-3-8-2-12-3-9-3-10-1-18z" fill="#120E2A"/>
<path transform="translate(268,64)" d="m0 0 12 6 4 3v2l6 1 2 2 3 7 9 19 1 18 10 19 8 16 5 11 2 3 3-10 6-7 2-5 9-10 7-4 5-3 10-1-3-7-1-6 7 6 2 3-2 19-3 4-3 9h2l4 9 6 5 7 8 1 3 4 2 7 8 2 5 5 5 2 6v2l4 2 4 4 4-2 2-5 2 3 4-6 7-7 9 3-3 7-7 8-6 10-5 6-6 8-7 3-6-2 1 3-4-2-3-1 1-5 5-6 4-1 1-3h2l-1 4 4-1 1-5h-2l1-4-5-1-5-4v-2l-6-1-8-9-20-12-6-3-8-2h-9l-6 3-1 6 3 3 1 6h-2l-5-7-5-5-5-3-2-4-12 1-5 2v-3h-5l1 6-1 3-6 4-8 17-3 12v15l1 7 3 3 3 4 5 2 1 3-9-3-4-4-4 1v8l-3 3-1 29-4 4v17l-4 3v9l-3 2v16l3 4v22l-1 2h-2l-1-23-3-4v-16l3-5 4-13 1-13 3-5 1-27 3-5 2-10 2-3v-7l-6-7-9-5-9-9-5-4-6-3-17-17-5-4-6-3-5-5-5-1h-12l-4-3-5-2-5-4-7-8-5-5-2-10-2-2v-5l5-1 7 3 9 3 10 6 7 7 2 1-4-6-5-4v-2l-4-2-3-4-2-9-2-3v-5h3l2 2 9 1 3 6 11 5-2-6-7-3-3-2-1-14-3-4v-6l4 1 4 5 11 3 9 4-4-7-1-12-3-4v-6h6l12 7 5 3 4 6 8 9 5 9 3 7 3 6 9 10 3 6 10 10v2l4 2 4 6 4 7 4 1-1-9-5-9-9-10-7-14-6-8-3-5-2-3-10-1-4-8-9-10-4-8-1-12-3-5v-13l4 1 1 2 6 2 5 6 1 5 7 1 4 6 3 5 5 8 2 7 2 3 1 8 9 17 9 10 9 19 3 5 5 5 4 1 1-3h2l-8-18-10-19-8-16-2-6-10-1-3-7-8-16-2-3-1-20-3-5zm-40 64 1 3 5 2 2-1-2-4zm8 8 2 4 5 6v7l5 6 8 7 7 7 5 6 5 5 3 1 2 4 9 9 3 2h5l1-1v-5l-7-9-3-5-12-13-3-7-5-5-6-5-6-6-8-1-3-1v-2l-5-4zm-15 12-1 3h4l-1-3zm15 12 1 7 5 8 8 5 36 36h2v-6l-50-50zm-10 15-2 2v5l11 11 5 6 8 7 8 5 5 4 6 3 10 9 7 1-2-4-40-40-6-3-8-6z" fill="#120911"/>
<path transform="translate(299,424)" d="m0 0h11l7 6 4 7 4 9 2 3 1 5v8l-3 7-3 3-1-13-2-3-3-1 1 14 3 6v8l-1 1h-14l3 5 5 3v9l-3 27-1 2-2 18-7 24-8 28h-7l-9-9-5-9-4-4-3-6-4-2-11 2-6 7-7 5h-5l-4-4-4-2 1-9-5-3-2-8h-2v-3l-4-2h-8l-8-4 2-5 4-1 1-5 7-9 8-7 7-8 5-5 5-2 2 1 2-4 7-7h2l2-4h2l2-4h2l1-6-6 5-5 2-4 2-2 4-6 3-10 9-13 13-9 11-6 8-3 7-2 8-6 11-3 7-5 18h-3l-1-1v-23l7-13 1-8 4-7 6-8h2l5-10 5-6 4-4h2l2-4 8-8 8-7 5-4 6-4 9-9 6-5 6-7 4-4h2l2-4h2l2-4 5-5 2-5 4-4 6-3 2-5z" fill="#440223"/>
<path transform="translate(353,363)" d="m0 0 9 1 21 1 11 2 1 5-6 10-5 8h-2l-2 4-4 7 7-6 2-1 9 1 1 1h6l1-2-4 1-12-2 1-5 6-8 3-2 9-1 6-1 2 4v2h2v-4h3l1-2h5l2 3 2-3h4l1-2 5-1 3 1 1 7 5 3 1 7h3l2 5 2 8-4 4-5 2-2 4-6 3-6 4h-5l-3-1-5 5h-6l1-11h-1l-2 11-5 5-5 1-2-4-6-3 4 5-1 3h-2l-1 3h-7-3l10 5v5l-3 5-2 6-4 8h-2v3l3-1 3 1-2 8v7l-2 4-1 5v7l1 2h-2l-2 9-4 16-1 9-8 14-3 5-10 17-5 5-6 3-4-1-5-4v-2h-2v-3h-2v-4h-2l-3-8-2-10v-35l4-13 3-9 1-5h2v-6l3-8 3-12 3-7 2-5h2v-2l2-1 3-5h2l1-5h2l2-4 3-5 2-6 4-3 3-5 5-6-8 6-7 8-8 8-8 7-9 11-6 1-1-3 5-13 7-19 3-6 1-4-5-1 2-16 5-11 4-2z" fill="#26273D"/>
<path transform="translate(413,408)" d="m0 0h1l1 8-2 13-1 7 6-4 4-4 7-4h2l-2 6-4 2-2 4h-2v3h2v2l2 1-7 1h-8l-2 5-2 21 2 12 3 14 4 17v16l4 12 1 14v17l-2 7-2 14v6l3 1v2l5 1 14 1h12l5-2h5l-2 4-6 3h-18l-9-1-7-2-5 1 1-6-7-4-8-7-11-11-10-2-7 3-13 13-1 2v8l3 5v15l-5 5-7 3-3 3-3 7-3 12-2 1-1 13-3 3-1 12-3 4v37l3 7v12l-8 10-2 1h-22l-5-2-7-3v-20l3-6 1-14 3-6 1-15 3-6v-55l-7-7-3-7-3-6-9-10-5-6-4-7-5-5-8-1-7 2-10 10h-7l-8-7-3-3-2-10-6-10-3-2h-9l-5 3-10 10-1 13-3 4-1 10-4-1-1-4 5-18 3-7 7-13 2-8 4-8 9-11 12-13 13-13 7-4 8-7 6-3 5-4 1 3-2 4-7 6-5 5-7 8-4 1-5 3-8 8-4 5h-2l-2 4h-2l-2 4-4 5-2 5-4 2-2 4 5 2 4 1h7l4 3v3h2l2 4v4l5 2 1 3-1 7 5 3 2 2 7-1 5-4 6-7 13-2 5 6 3 5 4 5 5 8 6 6 7 1 1-7 10-34 4-17 1-12h2l2 8-1 10-4 16-5 21-5 16-1 7v9l8 9 8 4 12 2 14-1 5-2 6-4 6-2 1-6-4-13-3-1 2-6 2-9v-4h6v-17l4-10 3-9 8-14 2-13 4-16 3-6-1-1v-7l2-7 1-4 1-10 2-3h-6v-3l2-1 4-8 3-10 1-5-15-6v-1l16 1 1-2h2v-5l-3-1v-2l6 2 2 2v2l6-2 3-3z" fill="#06030A"/>
<path transform="translate(304,188)" d="m0 0h5l1 2 4-2h12l4 5 5 3 1 3 4 2 4 6 1 7 2 2 1 5v30l-2 5-3 3h-2v2h-3v2l-7 2v11l-3 7-1 8-4 6-2 9-1 2h-2l-1 6-5 5 1 27 2 2 1 13-2 7-5 4-26 1v2l-9 3-5 2-1-3h2v-24l-3-4v-16l4-2-1-9 4-3v-17l4-4 1-29 3-3v-8l2-2 4 1 5 4 7 3-2-3-5-2-3-4v-2l-3-1-1-7v-15l4-14 8-16 4-3h2z" fill="#D97269"/>
<path transform="translate(393,52)" d="m0 0h21l6 3 9 3 6 3 5 10h2l2 4v10l-3 4-1 36-1 3h-2l-1 9-2 2h-6l-7-2-7 1 13 1 2 6-2 7-4 3-8 2 4 1 1 11 2 3 3 11 2 4 1 8h-3l-1 9v7l-2 5-3 3-4-2-6-5-2-7-7-7-2-5-7-8-5-5-9-10-4-4-2-7h-2l1-5 2-6h2l2-22-7-7h-2l-3-6v-39l7-8 8-8 3-2 9-2zm12 60-1 3h4l-1-3z" fill="#D97269"/>
<path transform="translate(268,64)" d="m0 0 12 6 4 3v2l6 1 2 2 3 7 9 19 1 18 10 19 8 16 5 11 2 3 3-10 6-7 2-5 9-10 7-4 5-3 10-1-3-7-1-6 7 6 2 3-2 19-3 4-3 9h2l4 9 6 5 7 8 1 3 4 2 7 8 2 5 5 5 2 6v2l4 2 4 4 4-2 2-5 2 3 4-6 7-7 9 3-3 7-7 8-6 10-5 6-6 8-7 3-6-2 1 3-4-2-3-1 1-5 5-6 4-1 1-3h2l-1 4 4-1 1-5h-2l1-4-5-1-5-4v-2l-6-1-8-9-20-12-6-3-8-2h-9l-6 3-1 6 3 3 1 6h-2l-5-7-5-5-5-3-2-4-12 1-5 2v-3l-5-1-1-9-5-9-9-10-7-14-6-8-3-5-2-3-10-1-4-8-9-10-4-8-1-12-3-5v-13l4 1 1 2 6 2 5 6 1 5 7 1 4 6 3 5 5 8 2 7 2 3 1 8 9 17 9 10 9 19 3 5 5 5 4 1 1-3h2l-8-18-10-19-8-16-2-6-10-1-3-7-8-16-2-3-1-20-3-5z" fill="#0C040C"/>
<path transform="translate(454,407)" d="m0 0 3 1 5 7 5 11 7 18v12l3 12 1 34-3 16-2 10-2 8h-2v9l1 3-2 7-3 3h-2v2h-2l-2 4-10 1-2-5h-2l-5-9-2-2-3-4-3-5-3-9-2-5v-9h-2l-2-9-3-6 1-7 4 2-5-9v-12l1-2h2l4 4-1-3-3-2 1-8 5-2 2-1-1-5 2-10v-3h7l4 1v-7l-1-5 4-2 3-2h-11l-6 1v-5l8-7h2l1-3 7-3 2-4z" fill="#26273D"/>
<path transform="translate(256,482)" d="m0 0 1 3-2 4-7 6-5 5-7 8-4 1-5 3-8 8-4 5h-2l-2 4h-2l-2 4-4 5-2 5-4 2-2 4 5 2 4 1h7l4 3v3h2l2 4v4l5 2 1 3-1 7 5 3 2 2 7-1 5-4 6-7 13-2 5 6 3 5 4 5 5 8 6 6 7 1 1-7 10-34 4-17 1-12h2l2 8-1 10-4 16-5 21-5 16-1 7v9l8 9 8 4 12 2 2 1 10 1 1 6-2 8-2 4h-2l-1 4-1 1v20l-3 5-2 1 1 5 1 6h2l1 28 3 7v12l-8 10-2 1h-22l-5-2-7-3v-20l3-6 1-14 3-6 1-15 3-6v-55l-7-7-3-7-3-6-9-10-5-6-4-7-5-5-8-1-7 2-10 10h-7l-8-7-3-3-2-10-6-10-3-2h-9l-5 3-10 10-1 13-3 4-1 10-4-1-1-4 5-18 3-7 7-13 2-8 4-8 9-11 12-13 13-13 7-4 8-7 6-3z" fill="#09040B"/>
<path transform="translate(424,265)" d="m0 0 1 2h7v3h9l8-1 2 2 2-1 1 6-1 3 2 9 1 22 3 2h-3v5l-2-4-4 5h-2l-1 3-4 1v2l4-2 5 1-1 7-3 5-12 6v4l4 6-1 7-7 8-7 2h-8l-8-6-5-6v-6l6-7 2-1v-5h-5l-2 4-8-1v-3l-7 1-2-2h4l-1-6-9-3h-3l1 5-3 1-2-1-1 4-2-5-3-2-2-5v-5l2-1-2-5 3-3 6 2 1 3h6 3l-7-6-5-1-2-5-4-2v-8l3-2h7l2-6 5-5 4-6h10l9-3 4-4 8-1 1 4 1 21 2 5 1 11v12l-1 15h2l1-45h-2l-2-4v-18z" fill="#26273D"/>
<path transform="translate(602,176)" d="m0 0h9l2 4-8 10-2 5-2 3v28l3 7 2 7 2 5 4 14 1 12 2 1 1 3v70l-2 7-1 1-1 12-3 4-2 6-2 3-1 8-3 4-1 8-11 11-2 6-4 5-2 1-2 6-10 10-2 6-5 9-2 1 2-8-5-1-5-5-4-5 1-9 2-3-1-7 6-1 7-8 3-6 6-9 8-16 3-7 11-33 1-5 1-19 3-6v-25h-2l-1-2-1-13-3-8-2-12-3-9-3-10v-18l-5 1 2-5h2l1-14 7-8z" fill="#0B070F"/>
<path transform="translate(348,441)" d="m0 0v3h-2v2l-2 1-3 10-3 9-6 20-1 5-4 11-3 10v37l4 13v2h2v4h2v3h2l5 5 4 1 5-2 7-8 8-14 1 4-4 10v11l-1 6h-6l1 5-2 8-3 6 4 1 4 13-2 7-10 4-3 3-14 2-13-1-9-4-11-11v-9l2-9 8-29 4-20 2-7-1-10-1-5 3-27v-9l-7-4v-4l14-1v-8l-3-6-1-7v-8l5 2 2 3 1 11 3-4 1-4h3v-7h2l1-7h2l1-3 7-1z" fill="#130F2A"/>
<path transform="translate(453,406)" d="m0 0 1 2h-2l-1 5-8 3-3 3-7 6-1 5 8-2h10l-1 3-6 2 1 10-1 2-11-1 1 5-3 15-6 1v8l4 3-1 3-4-3v-2h-2v11l-1 3 2 1 4 8-1 2-4-4v8l3 6 1 8h2l1 9 3 9 4 8 1 3 5 5 4 6v3h2l3 4 9-1 2-3h2v-2h2l1-3 1 2-1 3h2l1 5-3 4h-2l-1 6 1 3v10l-2 9h-2v4l-10 3h-16l-10-1-5-2v-2l-4-1 1-12 2-13 1-2v-17l-1-14-4-12v-16l-4-17-3-14-2-16 3-21 2-2h12l1-3h-2v-3l7-6 3-6-10 6-7 6h-2v-7l1-4 6-1 2-3 4-2 7 1 7-5 6-3 4-4z" fill="#130F2B"/>
<path transform="translate(463,188)" d="m0 0 8 3 7 1 2 2 1 5 5 5 6 7 4 8v22l-1 3h-2v10l6 11 2 13 2 4-1 14v3l-10 13-7 8-13 14h-2l1-7 1-1-4-4v-2h4l-1-5-6-1-3-4-1-8v-9l1 2h2l3 4v3l5 2-2-5-8-7-1-2v-10l9-21 4-11 4-1 1-5-6-2-2-13-8-22-3-7v-8z" fill="#D87169"/>
<path transform="translate(299,424)" d="m0 0h11l7 6 4 7 4 9 2 3 1 5v8l-3 7-3 3-1-13-2-3-3-1 1 14 3 6v8l-3 1-5-1v-3h2v-2l-4-2-2-2-2-8h-2l-1 8h-3l-1-9-4-2v10l-1 3-5-1-2-9h-2l-1-12-1-3-3 5-5 5-12 13-7 7-11 9-4 2-2 4-6 3-10 9-13 13-9 11-6 8-3 7-2 8-6 11-3 7-5 18h-3l-1-1v-23l7-13 1-8 4-7 6-8h2l5-10 5-6 4-4h2l2-4 8-8 8-7 5-4 6-4 9-9 6-5 6-7 4-4h2l2-4h2l2-4 5-5 2-5 4-4 6-3 2-5z" fill="#7F1238"/>
<path transform="translate(348,188)" d="m0 0h11l9 3 13 8 10 6 8 9 6 2 5 5 5 2-1 4h2l-1 5-5 2 2-5-5 4-4 4h-2l-2 7 4 1 5 5v6l-6 8-2 2h-6v-2l-5-2-3-7-5 3-10-4-6-4-4-4-8-3-3-13-1 12-2 2v-23l-2-6-1-1v-9l-2-5-2-2 1-6z" fill="#28273D"/>
<path transform="translate(393,52)" d="m0 0h21l6 3 9 3 6 3 5 10h2l2 4v10l-3 4-1 36-1 3h-2l-1 7-2 1v-7l4-2-1-13v-21l-2-7v-2l-4 1v4h-14l-6-2-1-1-13-1-2 6-5 6-5 10-1 13h-2l-1 3h-2v-17l-5-5h-5l-3 5-1 6h-1v-38l7-8 8-8 3-2 9-2z" fill="#2E040F"/>
<path transform="translate(502,307)" d="m0 0 2 1v2l5 2 6 5 3 6 6 8 1 8 2 1 1 3v19l-4 3-10 4h-3l-2 4-5 5-5 4-2 2-15-14-4-5-2-5-2-2v-16l3-6 6-9 5-4-1 5-1 2v6l4-2 1-15z" fill="#D87169"/>
<path transform="translate(205,125)" d="m0 0 4 2v2h2v3l3 1 7 8 4 4 3 7 8 2 2 6h-2l1 7h-2l1 5 12 13 5 7 2 1 1 4-4-2-10-10-6-3-8-6-3 1v6l-2 2-2 7h-3l-3-3-5-1h-12l-4-3-5-2-5-4-7-8-5-5-2-10-2-2v-5l5-1 7 3 9 3 10 6 7 7 2 1-4-6-5-4v-2l-4-2-3-4-2-9-2-3v-5h3l2 2 9 1 3 6 11 5-3-8-7-5zm16 23-1 3h4l-1-3z" fill="#3A041A"/>
<path transform="translate(318,189)" d="m0 0h8l4 4 5 3 1 3 4 2 4 6 1 7 2 2v11l-5 7-3 6-4 4-11 5-9 2 2 4-7 3-4-1v-2l-3-1 2-5-5-6-4-11-1-1v-8l6-16 4-10 9-7z" fill="#FBB8A1"/>
<path transform="translate(353,363)" d="m0 0 9 1 21 1 11 2 1 5-6 10-5 8h-2l-2 4-4 7-3 2-1 3-5 4-7 8-8 8-8 7-9 11-6 1-1-3 5-13 7-19 3-6 1-4-5-1 2-16 5-11 4-2z" fill="#7E1037"/>
<path transform="translate(301,635)" d="m0 0h1l1 38v10l-3 3v8l1 2h8v-2l10-2h4l-1-4v-7l4-4 1-11 2 2v9l-3 5-2 1 1 5 1 6h2l1 28 3 7v12l-8 10-2 1h-22l-5-2-7-3v-20l3-6 1-14 3-6 1-15 3-6z" fill="#0C070E"/>
<path transform="translate(377,128)" d="m0 0h2l1 9 7 8 8 5 3 5 10 2 1 2 9 1 3 11 2 6 4 10 1 8h-3l-1 9v7l-2 5-3 3-4-2-6-5-2-7-7-7-2-5-7-8-5-5-9-10-4-4-3-9 6-13z" fill="#D87169"/>
<path transform="translate(599,184)" d="m0 0h4l-1 5-6 8v20h-2l2 11 2 1 4 12 2 3v10l2 1-2 4v1 3l4 1 3 10 1 10 1 27-1 36-5 13-4 6-3 17-2 5-2 4v7l-6 1-2 5-5 8-5 5-2 5-2 1-4 7-6 5-4-1v-6l4-4h2l3-10 5-6h2l1-5 4-8 4-4 2-5 4-8 5-12 5-22 2-9 2-27 1-4-1-4v-9h-2v-13l-1-3-1-6-2-2v-7h2l-2-2-2-1v-3h-1l-1-7h2v-4h-2l-1-4h-2l-4-11-1-10 1-13h1l1 16v-18l-1-3 5-12h2l1-4z" fill="#26273D"/>
<path transform="translate(295,488)" d="m0 0h1v7l-4 13-6 16-4 15-6 12-4 7-8 8-6 3h-2v2l-7 1-6 7-7 5h-5l-4-4-3-1v-5l7-8h2l2-4 10-13 9-10 6-9 10-11 6-8 10-11 6-7z" fill="#7F0F38"/>
<path transform="translate(235,167)" d="m0 0 4 1 3 6 8 5 36 36 2 1v-5h1l1 7-3 12v15l1 7 3 3 3 4 5 2 1 3-9-3-4-4-4 1v8l-3 3-1 29-4 4v17l-4 3v9l-3 2v16l3 4v22l-1 2h-2l-1-23-3-4v-16l3-5 4-13 1-13 3-5 1-27 3-5 2-10 2-3v-7l-6-7-9-5-9-9-5-4-6-3-17-17-5-4-6-3 2-9 4-2 10 10v2l4 2v2l4 2v2l4 2 8 5 5 4 6 3 10 9 7 2-7-8-14-14v-2l-4-2-4-5v-4l-4-2-6-8-11-12z" fill="#0B060D"/>
<path transform="translate(459,191)" d="m0 0h1l1 11 3 10 2 4 2 10 2 4v19l-5 5h-3l-1 3-5 3-9-2h-6l-2 1v-2h-6l-2-1v-2h-2l-1 1-3 1v-12l2-10 10-10 8-12 8-16 4-2 1-2z" fill="#26273D"/>
<path transform="translate(476,410)" d="m0 0 5 3 2 5 3 1 7 8 12 12 7 8 2 4h8l5-4 3-9 5-3 2-4 6 1 3-1 2-5 1 3 1 7 6 5 3 3 3 1-1 9-2 5-7 3-7 6-5 2-7 7-8-4-4 1-4 4h-2v2l-9 5-5 1 1-4h2l2-4 5-2 7-5h3l1-5-6 1-13 9h-2l-2 4-5 6-4 2h-3l1-4 11-9 11-11 5-2-3-4v-6l-4-2-23-23-2-4v-3h-3l-1-3-3-2z" fill="#120810"/>
<path transform="translate(457,685)" d="m0 0h4l7 10 4 1v-3l4 1 7 5 8 2 9 4 4 6v7l-9 5-10 1h-24l-5-6v-2h-22v-1l10-1-9-2-1-2-5-3v-3h-2l-1-10 2-3h3l2 7 6 4 3 6 2 1v-17l5-3 7-3z" fill="#2D0611"/>
<path transform="translate(298,270)" d="m0 0h2l-1 5-7 19-3 8 1 5 3 6v2h2l5 5 8 9 1 17 4 2 1 4-1 17-4 3h-17l-5-18-5-14v-26l-2-2v-11l2-5 1-10 3-4 2-6h2l1-3z" fill="#FBB8A1"/>
<path transform="translate(299,424)" d="m0 0h11l7 6 4 7 4 9 2 3 1 5v8l-3 7-3 3-1-13-2-3-3-1 1 14 3 6v8l-3 1-5-1v-3h2v-2l-4-2-2-2-2-8h-2l-1 8h-3l-1-9-4-2v10l-1 3-5-1-2-7-1-2-1-29 4-8z" fill="#FAB7A1"/>
<path transform="translate(401,462)" d="m0 0h2l2 8 2 16 2 9 1 10 2 7v6l-4 6 1 6-4 2-2 5-4 4h-2l-1 6-10 7-4 1 1-5 7-7h2l2-4 2-3-6 6h-2v2h-2v2l-6 1v2h-3l-3 5h-2l1-5 2-2 2-10 2-6 2-10 1-2h2l1-5 6-16 2-11 2-5 4-16z" fill="#410221"/>
<path transform="translate(240,72)" d="m0 0 4 1 1 2 6 2 5 6 1 5 7 1 4 6 3 5 5 8 2 7 2 3 1 8 9 17 9 10 5 10-1 6-4 1-10-11-7-14-6-8-3-5-2-3-10-1-4-8-9-10-4-8-1-12-3-5z" fill="#0F020C"/>
<path transform="translate(385,272)" d="m0 0h8l1 2-3 1-2-1-1 3-3 4h-2l-5 10-7 1-3 1 1 6-1 2 4 1 5 6h3l9 9h-5l-7-2-2-3h-3v-2l-4 1 1 6 1 2h-3v5l2 1 1 4 4 4 3-1h2v-4l-2-2 3-1 6 3 6 1-1 3 2 1-1 3-2 1h7v3l5 1v1h-17l-4-2-9-1-8-4-3-2-7-1v-2l-4-1-5-9-3-11-3-4v-7l6-2 4-1 1-2 4 1 1-2 2 1 1-2 7-6 4-3 9-2 4-2 1-5z" fill="#130F2B"/>
<path transform="translate(412,91)" d="m0 0 10 1 2 1v2l7-3 2 4 1 6h-2v2h-3v6l-1 2-7-1-4 2-1 3h2l2 4-1 2 10 2v-5l3-9 1-2h2l1 9-2 10-2 6v4h2v2h-6l-7-2-7 1 13 1 2 6-2 7-3 2h-8l-9-3v-2l-4 1-2-3v-6l-1-2-2-12-3-8-1-10 1 2 5 1 4 3 9-3 5-7-8-1-7-6v-2l7-4z" fill="#FAB6A0"/>
<path transform="translate(420,136)" d="m0 0 7 1 1 1h6l2-1 2 6 7 8 11 7 11 11 1 5-5 2-9 1-3 1v-2l-6 4-4 6-4 2-2 11-4 4-3-1v-5l-2 1-2 6-1-4 1-6 3 1-2-11-3-7-2-6-1-2v-11l-5-1 3-2 7-2 3-3 1-6-1-4-13-1-4-2z" fill="#460323"/>
<path transform="translate(317,260)" d="m0 0h5l3 5v2l4 2 1 6h-2l-2 17-3 5-2 9-1 2h-4l-2 4-1 1h-8l-10-3-4-4v-7l11-27 4-4 1-3 7-1z" fill="#FBB7A1"/>
<path transform="translate(303,374)" d="m0 0 4 1 1 4 2 6-6 9 3 2-1 6 1 1v5l-2 1 2 2v7l-5 1-1 4h7v1l-9 1-3 1-7-2-4-2-3-3 1-6-3-8-2-12-2-4v-8l2-2 8-3z" fill="#140F2B"/>
<path transform="translate(353,140)" d="m0 0h6l1 7-1 2h2l4 4 1 10 4 6 10 10 6 4 6 7 8 7v3l-2 2-10-6-10-9-14-7-9-2-13 1-2 4-4 5h-3l-1-9 3-9 5-12 4-5 3-6 2-1 3-5z" fill="#7D1036"/>
<path transform="translate(304,598)" d="m0 0 5 3 9 7 10 3h7l12-6 1-1h5l4 13-2 7-10 4-3 3-14 2-13-1-9-4-8-8 1-8 3-2 1-11z" fill="#27273D"/>
<path transform="translate(578,208)" d="m0 0h3l-2 6-7 8-6 6-3 6-13 14-10 14-10 10-10 14-11 11-2 6-2 4 6 5-1 2-6-4-2-2-10 11-1 13-5 5h-1v-7l2-6-6 7-5 8-1 5v14l3 3 3 7 10 10 6 5 4-4 2 1-4 6-3 1-7-8-13-13-4-8-2-14-1-5h2l-3-5-2-9-4-8-3-5 1-32h1l1 10 5 5v2l4 2 2 5h-3l-3-2-3-5v-2h-2l1 15 2 3 6 2 1 5h-4l2 4 3 2-2 5-1 3 8-7 9-10 8-10 7-9-1-3 1-13 2 3 1 6 4-2 17-17 5-9 14-14 5-9 12-12 4-8z" fill="#140913"/>
<path transform="translate(504,311)" d="m0 0 5 1 6 5 3 6 6 8 1 8 2 1 1 3v19l-4 3-8 3h-4l-8-11-6-11-2-3-1-6 3-1-1-6-1-5 3-7h3l1-6z" fill="#FBB7A0"/>
<path transform="translate(485,254)" d="m0 0 8 4v3l3 5 1 6v6l3 3v14l-2 5v3l-4 2h-8l-7-2-4-5-1-7-3-5v-10l3-8 2-11 2-2z" fill="#FBB8A1"/>
<path transform="translate(451,175)" d="m0 0m-2 1h2l-1 4-2 3 8 2 7 3-3 3-2 3-5 3-2 5-8 15-8 10-7 7-2 10-5 3-7 1-2 10h-2l-2 5-8 8-7 2h-10l1 4-4 4h-5l-2 2 1-4 8-9 2-14 3-2 2 7 5 3v2l7-2 6-8v-6l-2-6 6 1 7-3 8-11 6-8 3-5 7-8 2-6-8-2-8 8-3 5h-1v-14l2-4h2l1 5 4-2 4-12 5-4 3-5z" fill="#0A030A"/>
<path transform="translate(307,566)" d="m0 0 5 2 3 3v3l4 2 3 3 1 2 4 2v2h3v2l8-1 11-5 4-1-1 7v7l-2 4h-2l-2 4-4 4h-9-3-6l-4-1-3-3-3-1-3-3-4-2-1-7v-13l-2 1 2-10z" fill="#26273D"/>
<path transform="translate(411,540)" d="m0 0h4v31l-3 19-2 4-5-3-11-9v-3h-2v-2l-4-2-6-7 1-5 6-4 9-9 8-7z" fill="#430222"/>
<path transform="translate(309,701)" d="m0 0h6v2l4 2 3 7v6l3 4 2 8 1 9-2 5h-11l-14-4-4-3v-2h-2v-8l3-5 1-13 4-4z" fill="#571821"/>
<path transform="translate(463,188)" d="m0 0 8 3 7 1 2 3-3 2 7 8 5 4 1 6 2 2v22l-2 4-7-3-2-6-5-6-5-1-8-22-3-7v-8z" fill="#FAB69F"/>
<path transform="translate(389,168)" d="m0 0 6 4 3 4h5l2 2 6 2-2-5v-3l-4-1-1-3 7 1 5 5v12l5 3 2 6 1 16-2 5-3 3-4-2-6-5-2-7-7-7-2-5-8-10-2-7v-6z" fill="#FAB59F"/>
<path transform="translate(400,199)" d="m0 0 3 1 5 5 1 7 4 2 4 4 4-2 2-5 2 3 4-6 7-7 9 3-3 7-7 8-6 10-5 6-6 8-7 3-6-2 1 3-4-2-3-1 1-5 5-6 4-1 1-3h2l-1 4 4-1 1-5h-2l1-4-5-1-5-4v-2l-6-1-2-4h2l1-7-5-2-1-2 4 1z" fill="#55151F"/>
<path transform="translate(325,643)" d="m0 0 6 1 1 8-3 5-2 20-4 4v7l1 4-15 3h-6l1-5h2l2-9 1-4-2-3v-10l4-10 4-5 10-4z" fill="#53151F"/>
<path transform="translate(300,628)" d="m0 0 2 3 4-1 7 2 23 2 1 6-2 8-3 4-1-8-6-1v2l-6 4-5 2-4 7-2 6v10l2 4-4 12-2 1-1 4h6v1l-8 1-2-3v-8l3-1v-21l-1-8h-1z" fill="#2B0510"/>
<path transform="translate(203,120)" d="m0 0 6 2 11 8 6 3 8 11 5 5h2l2-4 1 1v7l4 4v2l4 2 12 12v2l4 2 3 9 7 5 2 7-5-3-4-1-33-33-2-7-8-1-2-2-2-6-5-5-6-7-2-1v-3h-2l-4-4 2 9 6 4 1 2-5-1-5-3z" fill="#170B11"/>
<path transform="translate(343,356)" d="m0 0 7 1 2 3 17 3 27 2v5l-2-2-11-2-23-1-7-1-3 7-4 2-5 14-1 12 4 1-1 7-5 10-5 15-4 10v2l2 1v2l-3 1-1-1v-14l-2-1 1-9 4-20 1-1 2-17 2-6h2l1-9h2l1-13z" fill="#440223"/>
<path transform="translate(449,634)" d="m0 0 7 1v30l3 9v4l-6 3-7 6-3-1-6-25-2-3 1-9 4-8 3-1v-3z" fill="#54151F"/>
<path transform="translate(175,154)" d="m0 0h4v2l6 2 15 9 5 5 6 3 8 6 3 3v6l-3 3-4-4-5-1h-12l-4-3-5-2-5-4-7-8-5-5v-9z" fill="#060108"/>
<path transform="translate(422,337)" d="m0 0h5l11 10 2 4-1 7-7 8-7 2h-8l-8-6-5-6v-6l6-7 6-4z" fill="#531020"/>
<path transform="translate(393,424)" d="m0 0 6 2 2 2v2l7-2-2 11-8 16-1 10-2 7-3 9-2 9-4 14-1 3h-2l-1 7-4 6-1-3 3-12 3-6-1-1v-7l2-7 1-4 1-10 2-3h-6v-3l2-1 4-8 3-10 1-5-15-6v-1l16 1 1-2h2v-5l-3-1z" fill="#130F2A"/>
<path transform="translate(428,626)" d="m0 0h15l12 3 1 6h-7l-6 2v3l-4 4-3 8v6l3 7 5 21h3v2l-5 3h-5l-7-10-1-25v-9l-3-15 1-5z" fill="#2C040F"/>
<path transform="translate(395,54)" d="m0 0 9 1 3-1v3l4 2 4 1 8 3 1-3 5 2 8 7 2 4v5l-5 1-6-3-3-3-1 6-3 1-2-2-7-1v4h-11l-2-5 1-7-2-2-3 1-4-2-1-5 3-5z" fill="#561520"/>
<path transform="translate(460,572)" d="m0 0 3 3 1 3v10l-2 9h-2v4l-10 3h-7l-6-2-4-1v-2l-4-1-5-10-1-12 1-2 7 2 4 4 8 4 6 2 1 3 6-1 2-6v-9z" fill="#26273D"/>
<path transform="translate(518,465)" d="m0 0 5 1-2 5-7 4-3 2-5 2-2 3h-2l-1 4 9-4 5-2v-2h2l1-3 4-3 4 1 5 2v4l-3 2v-2l-10 8-6 4-5 3-8 6-2 3-10 5-5 4h-2v-10l2-2 5-2 8-6 1-1-10 2-4 1-1 2 2-10 5-2-1 4 7-3 7-9 15-10z" fill="#130F2B"/>
<path transform="translate(268,64)" d="m0 0 12 6 4 3v2l6 1 2 2 3 7 9 19v13l-1-2-4-2-7-16-5-11-5-6v-2l-7-2 3 11 1 4 4 2 3 10 8 16v1h-9l-3-7-8-16-2-3-1-20-3-5z" fill="#8E1140"/>
<path transform="translate(432,146)" d="m0 0 7 2v2l4 2 8 7 5 3 4 4 4 3v3l-11 2-9 7-3 5-5 4-3-1-2-9 1-11-1-8v-12z" fill="#7B1036"/>
<path transform="translate(544,435)" d="m0 0h5l7 6 3 3 3 1-1 9-2 5-7 3-7 6h-6l-4-3v-2l-4-2-2-2-1-6 4-6 7-2 2-4z" fill="#C0575D"/>
<path transform="translate(604,291)" d="m0 0 2 1v11l1 5-1 1-2 27-5 22-3 11-4 10-3 6-3 7-4 6h-2l-2 6-2 5h-2l1-8-9 9-2-1 6-11 7-10 4-7h2l1-4 2-4 2-10 4-8 3-9 4-8 2-14v-8l2-8v-16z" fill="#130F2B"/>
<path transform="translate(457,685)" d="m0 0h4l7 10 4 1v-3h3v3l-2 1 2 4 5 5v2l14 2h5l1 4-5 5-12 1-5-4-7 1-9-9-9-8-7-7 5-5 5-2z" fill="#54151F"/>
<path transform="translate(534,408)" d="m0 0h7l9 3 2 1v3h-2l2 4-1 5-3 3-2 5-4 1-5-1-2 4-4 2-4 10-2-1 1-5 2-4-4-1-1-1v-16l9-10z" fill="#D87168"/>
<path transform="translate(364,339)" d="m0 0 10 2 6 2 19 1 1 1v12h-2v2l-2 1h-20l-17-4-3-3 4-2 3-11z" fill="#54151F"/>
<path transform="translate(368,118)" d="m0 0 7 6 2 3-2 19-3 4-3 9h2l4 9 6 5 7 8 1 3 4 2 7 8-1 3-8-7-5-5v-2l-4-2-8-7-7-7-3-9v-5l-3-2v-2h-2v-9l-8 1-7 6 2-4 8-7 8-4 10-1-3-7z" fill="#130A12"/>
<path transform="translate(225,108)" d="m0 0 5 2 3 7 4 3 6 12 4 2v2l4 2 2 5-1 1h-6l-3-2v-2l-4-2-3-2 7 8-2 6-4-2-8-9-4-6h-2v-2l-4-1-10-7-8-4-1-1v-6l4 1 4 5 11 3 9 4-4-7v-7zm3 20 1 3 5 2 2-1-2-4z" fill="#80193B"/>
<path transform="translate(464,598)" d="m0 0 3 1 2 3v9l-3 6-8 5-4 2-18 1v-2l-3-1-1-8-5-3 1-4h24l6-3 2-3h3z" fill="#27273D"/>
<path transform="translate(381,257)" d="m0 0h3l-1 13-10 11-9 2-7 5-11 4-6 1-5-2 1-7 3-3 14-4 5-3 7-1 1-5h2v-2h2v-2l8-4z" fill="#2C040F"/>
<path transform="translate(369,100)" d="m0 0 7 1 4 5v9l-1 8 4-3 1 3v14l3 5 8 4 6 5 6 2 10 2-2 2 4 1v7h-1v-5h-9l-1-3-10-1-3-3-1-3-7-4-4-4v-2l-3-1-1-2v-9h-2v16l-7 15-1-3 2-6 1-2h2l2-22-7-7h-2l-3-7 2-8z" fill="#9D0544"/>
<path transform="translate(392,53)" d="m0 0h15l-3 3h-5l-4-1-2 2h-3v2l-9 3-4 6-7 6-3 10 1 5 4 6 5 1h7l3-3 1-5 4-2v-5h3l-1 9-6 11-3 6-1 13h-2l-1 3h-2v-17l-5-5h-5l-3 5-1 6h-1v-38l7-8 8-8 3-2 9-2z" fill="#11050D"/>
<path transform="translate(360,245)" d="m0 0 5 4 10 6 5 2-2 4-5 3h-3l-1 2h-2l-15 6-9 5h-6l-1-3 5-5-2-2 5-1v-2l3-1 3-6 2-5 5-4z" fill="#120E2A"/>
<path transform="translate(460,199)" d="m0 0 3 2 3 11 3 8 3 7 2 13 5 2v5l-5 1-2 9-9 20-1 3h-2v32l-5-2-1-22 2-11 3-1-1-5 1-1-1-3 4-7 3-7 4-4v-19l-3-6-2-10-2-4z" fill="#0E020B"/>
<path transform="translate(299,424)" d="m0 0h5v2h-4v6l-1 2-1 14 1 16-4-1v10l-1 3-5-1-2-7-1-2-1-29 4-8z" fill="#DB776D"/>
<path transform="translate(527,362)" d="m0 0 5 5 8 16 1 12 2 1 1 5-1 5h-6l3-7-1-2-5-3 2-2v-8l-3-4-2-9h-6l-1-2-8 1-4 3-2 7-3 6-3 2 1 5 6 8 2 2 1 3 3 1 1-2 4-1 2 1v2l2 1-2 1v8l-3 5-3-1-8-16-9-10-3-6-1-3 2-1 5-9 6-5 1-2 15-6z" fill="#08050F"/>
<path transform="translate(204,520)" d="m0 0h2l-2 4-1 3-6 5-2 5-2 8-3 10-6 11-3 7-5 18h-3l-1-1v-23l7-13h2l1-7 2-3h2l1-7 4-5 5-3h2l1-6 2-2 2 1z" fill="#8F083F"/>
<path transform="translate(256,482)" d="m0 0 1 3-2 4-7 6-5 5-7 8-4 1-5 3-8 8-4 5h-2l-2 4h-2l-2 4-4 5-2 5-4 2-3 3-3 1 3-9 10-13 14-15 12-12 7-4 8-7 6-3z" fill="#2E0411"/>
<path transform="translate(444,369)" d="m0 0 4 2 7 8 11 18 5 9 4 4v25h-2l-5-11-1-7-4-2-6-12-5-16v-2h-2l-6-14z" fill="#7E0F37"/>
<path transform="translate(306,575)" d="m0 0h1v19l1 2 6 3 2 2 8 4h6 3 9l7-8 2-1v-11l2-1 1 5-2 8-3 6 3 1-7 3-10 5h-9l-9-4-8-6-5-3-1 11-3 3v5l-3 1-2-2v-9l2-9 6-21z" fill="#130F2B"/>
<path transform="translate(193,547)" d="m0 0 10 5h8l4 3v3h2l2 4v4l5 2 1 3-1 7 5 3 2 2 7-1 5-4 6-7h6l-4 2-5 6-6 7-2 2h-7l-8-7-3-3-2-10-6-10-3-2h-9l-5 3-10 10-1 13-3 4-1 10-4-1-1-4 5-18 3-7 7-13 2-5z" fill="#0A050C"/>
<path transform="translate(599,184)" d="m0 0h4l-1 5-6 8v20h-2l2 11 2 1 4 12 2 3v10l2 1-2 4-1 3h-2l-2-3-2-1v-3h-1l-1-7h2v-4h-2l-1-4h-2l-4-11-1-10 1-13h1l1 16v-18l-1-3 5-12h2l1-4z" fill="#26273D"/>
<path transform="translate(311,374)" d="m0 0h1v22l4-1 6-12 2-5 4 2v15l-3 13-3 16-3 1-6-3v-2l-2-1 2-14 2-7-4-1z" fill="#400524"/>
<path transform="translate(240,72)" d="m0 0 4 1 1 2 6 2 5 6v2l-9-1 2 9 5 9 8 12 4 3 5 10-3 1h-7l-4-8-9-10-4-8-1-12-3-5z" fill="#8C083D"/>
<path transform="translate(378,68)" d="m0 0 10 5 7 5v2l-2 1-1 5-4 4-1 5h-8l-8-4-3-4 1-8 4-5 3-5z" fill="#53161F"/>
<path transform="translate(286,228)" d="m0 0 1 2v15l1 7 3 3 3 4 5 2 1 3-9-3-4-4-4 1v8l-3 3-1 29-4 4v17l-4 3v9l-3 2v16l3 4v22l-1 2h-2l-1-23-3-4v-16l3-5 4-13 1-13 3-5 1-27 3-5 2-10 2-3v-8h2v-16z" fill="#88103B"/>
<path transform="translate(578,208)" d="m0 0h3l-2 6-7 8-6 6-3 6-13 14-10 14-10 10-10 14-5 4-6 2v-3l17-17 5-9 14-14 5-9 12-12 4-8z" fill="#543D49"/>
<path transform="translate(475,694)" d="m0 0 8 5 8 2 9 4 4 6v7l-9 5-10 1h-24l-4-4v-3l9 3h10l19-2 4-4v-3h-8l-11-3-7-8v-4h2z" fill="#130910"/>
<path transform="translate(393,52)" d="m0 0h21l6 3 9 3 6 3 5 10h2l2 4v10l-3 4-1 36-1 3h-2l-1 7-2 1v-7l4-2-1-13v-21l-2-7v-5h2l1-8-4-6-10-7-1 4-9-4h-5l-2-3v-4h-14z" fill="#130A10"/>
<path transform="translate(205,125)" d="m0 0 4 2v2h2v3l3 1 7 8 4 4 3 7 8 2 2 6h-2v5l-1 1h-7l-4-5-4-2-5-6-2-1v-2h-2v-2l-4-2v-3l9 4-3-8-7-5zm16 23-1 3h4l-1-3z" fill="#460522"/>
<path transform="translate(290,299)" d="m0 0h1l1 7 3 3 10 3h8l3-4h2l-1 6-5 5 1 27 2 2 1 13-2 7-2-1 1-19-5-2-1-17-8-9-4-3v-2h-2l-5-9 1-6z" fill="#D97269"/>
<path transform="translate(173,158)" d="m0 0 8 5 6 4v2l4 2 21 14 1 3h-15l-4-3-5-2-5-4-7-8-5-5v-7z" fill="#88093B"/>
<path transform="translate(519,368)" d="m0 0h5l3 2 4 1 1 7-3 3v3l5-1 2 5-3 4-1 1h-7l-4-1v-4h2v-2l-7-1-1 3h-2v-8l-2-1v-6l5-4z" fill="#27283E"/>
<path transform="translate(402,180)" d="m0 0h2l-1 6 3 1 2-2h5l1 13 9 2 1 4v7l-2 5-3 3-4-2-6-5-2-7-2-2 5-3h2v-2h-2l-4-5-8-6-3-3 1-3z" fill="#D97269"/>
<path transform="translate(169,148)" d="m0 0 6 1 13 4 11 7 7 7 5 1 4 6 5 3v-3h2v-5l5 1v2h2l-1 4-3 1v6l-3 2-3-2v-2l-5-2-4-4-5-2-2-4-5-2-13-8-6-3v-2l-5 2-3 2-3-4v-5z" fill="#7D1839"/>
<path transform="translate(286,372)" d="m0 0h19l-2 3-17 2-9 4v8l3 8 2 11 2 7-1 6 6 2 7 1-1 3-6 3-2 5-6 3 2-4v-6l-3-1-1-17-3-4-2-13-3-8-1-6 8-4h5v-2z" fill="#14060F"/>
<path transform="translate(380,388)" d="m0 0h3l-2 5-4 5-1 3-3 2-1 3-5 4-7 8-8 8-8 7-8 9-5 2-1-3 3-7h2l2-5h3l8-7 18-18 4-1 2-9 4-2v-2z" fill="#9B0543"/>
<path transform="translate(405,244)" d="m0 0 6 1h5l-2 4-2 9h-2l-2 5-8 8-7 2h-10l1 4-4 4h-5l-2 2 1-4 8-9 2-14 3-2 2 7 5 3v2l7-2 6-8v-6z" fill="#0A0209"/>
<path transform="translate(271,72)" d="m0 0 6 2 4 1 1 3-7-2 3 11 1 4 4 2 3 10 8 16v1h-9l-3-7-8-16-2-3z" fill="#8B083D"/>
<path transform="translate(399,552)" d="m0 0 2 4h2v15l-2 7-1 6-5-3-4-4-7-9v-3l6-4z" fill="#7E1037"/>
<path transform="translate(315,454)" d="m0 0 5 2 2 3 1 12h4v3l-4 1v10l-5 3-2 21-4 11-2-1 2-18v-9l-7-4v-4l14-1v-8l-3-6-1-7z" fill="#040107"/>
<path transform="translate(346,332)" d="m0 0 6 1 9 4 5 1-3 4-2 9-4 4-5-2-8-7-1-6 1-7z" fill="#2C040F"/>
<path transform="translate(235,167)" d="m0 0 4 1 3 6 8 5 7 7 1 4 2 5 10 6 5 9-3 1-2-1v-2h-5l-2-4-4-2-4-5v-4l-4-2-6-8-11-12z" fill="#1C142C"/>
<path transform="translate(256,187)" d="m0 0 4 2 26 26 2 1v-5h1l1 7-2 9-3 2-9-10-10-10v-2l4 1v2l4-1-4-6v-2l-4-2-7-4-3-6z" fill="#160B14"/>
<path transform="translate(224,183)" d="m0 0 4 2 8 8v2l4 2v2l4 2v2l4 2 8 5 4 4v6l-6-2-10-9-8-7-5-6-3-4h-5l-1 3-2-1 2-9z" fill="#1B142D"/>
<path transform="translate(220,100)" d="m0 0 10 3 9 8 3 9 4 2v2h2l7 10 1 6-8-6-8-8v-2l-3-1-1-3-5-4-1-6-5-2-1 3-2-7z" fill="#080109"/>
<path transform="translate(425,72)" d="m0 0 6 5 7 2-1 3-2 2-4 1v4h-14l-6-2-2-3-7-2 1-2 9 1v-4l3-1 5 2 4 1v-6z" fill="#29040E"/>
<path transform="translate(220,96)" d="m0 0h6l12 7 5 3 4 6 8 9 5 10-3 2-5-5-7-8-6-6-3-5-8-6-7-2z" fill="#780E38"/>
<path transform="translate(268,179)" d="m0 0 4 2 7 8 8 8 3 2h7l-1 7-5 10h-2l-2-6-14-14v-2l5 2v-3-2l-4-2-5-5z" fill="#170910"/>
<path transform="translate(361,137)" d="m0 0h6l2 2-1 13v11l7 9 5 5 5 1 4 4v2l4 2 7 8-1 3-8-7-5-5v-2l-4-2-8-7-7-7-3-9v-5l-3-2v-2h-2v-9l-4-1z" fill="#450223"/>
<path transform="translate(299,705)" d="m0 0 4 1-3 1v8l-2 9-2 3-1 8h2l4 4 14 4 10 1v1l-17 2-2 1h-7l-7-3-1-7v-7l3-6 2-2v-10l-1-5 1-2z" fill="#2C040F"/>
<path transform="translate(369,100)" d="m0 0 7 1 4 5v9l-4 1 2 3-1 5-4-1-5-4-3-4-1-3 2-8z" fill="#D8766D"/>
<path transform="translate(523,401)" d="m0 0 4 1 1 1 9 1v2h6l1-4 1 5 7 2-1 4-2-2-8-2h-7l-8 8-2 3v16l4 2-1 4-2 7h-1l-2-9-2-3-1-15h2l2-5v-8l1-4-5-1z" fill="#0F0B1F"/>
<path transform="translate(189,132)" d="m0 0 4 3 9 1 2 5-10-3v6l4 1 4 4v2l4 2 3 3 3 1 5 5 2 4-2 1-13-7-4-1-1-3-4-2-3-4-2-9-2-3v-5z" fill="#7E1339"/>
<path transform="translate(420,136)" d="m0 0 7 1 1 1h6l2-1 2 6 7 8 11 7 11 11 1 5-5 2-9 1-3 1 2-5 3-1h8l-2-4-6-4-3-3-8-6-6-5v-2l-4-2-3-1-3 3-2-8-13-1-4-2z" fill="#160A12"/>
<path transform="translate(256,86)" d="m0 0 1 2 7 1 4 6 3 5 5 8 2 7 2 3v5l-5-1-2-2-3-7-2-5h-2l-5-9-5-8z" fill="#870A3C"/>
<path transform="translate(418,604)" d="m0 0 7 2 3 2v3l5 3v8l4 1-2 2-10-2-3-4-6-2-3-6h-1v-5z" fill="#130F2A"/>
<path transform="translate(194,138)" d="m0 0 6 1 5 3 4 5 2 1v2h2v2l4 2 3 3v2l5 2 5 5v3l-8-3-8-7-6-3-6-5v-2l-4-2v-2l-4-1z" fill="#0D010B"/>
<path transform="translate(401,369)" d="m0 0 6 1 3 1 9 1h10l6-3 5 1v3l-4 1-2-1-1 2-5 1-2 4-3-3-4-1-1 3-3-1v4h-2l-2-5-6 1-4 1-5-1v-5z" fill="#120E2A"/>
<path transform="translate(237,496)" d="m0 0 2 1-7 5-2 3h-2v2l-8 6-7 8-1 2 6-2-3 4h-2l-2 4h-2l-2 4-4 5-2 5-4 2-3 3-3 1 3-9 10-13 14-15 12-12z" fill="#2E0311"/>
<path transform="translate(426,152)" d="m0 0h2l-2 14v4l3 1 1 2v12l-1 3-3-1-4-10-2-6-1-2v-11l-5-1 3-2 7-2z" fill="#2F0410"/>
<path transform="translate(295,463)" d="m0 0 5 2 1 9h1l1-8h4l3 9 4 3v2h-2l2 2 3 2h-10l-7-2-1-3-8-2 3-1z" fill="#9C0D45"/>
<path transform="translate(422,337)" d="m0 0h5l11 10 2 4-1 7-3 1-2-8-3-5-2-1h-12l-7 3-1 8-4 1-1-1v-6l6-7 6-4z" fill="#F3A793"/>
<path transform="translate(476,410)" d="m0 0 5 3 2 5 3 1 7 8 12 12 7 8 1 4-6-2-22-22-2-4v-3h-3l-1-3-3-2z" fill="#261F35"/>
<path transform="translate(527,362)" d="m0 0 5 5 8 16 1 12 2 1 1 5-1 5h-6l3-7-1-2-5-3 2-2v-8l-3-4-2-9h-6l-1-2-8 1-9 7-4 3 2-5 5-4 1-2 15-6z" fill="#120910"/>
<path transform="translate(381,257)" d="m0 0h3l-1 13-9 10h-5l-2-9 1-5h2v-2l8-4z" fill="#5B1723"/>
<path transform="translate(256,550)" d="m0 0h2l-3 9-3 5v5l-3 1-2 4-4 5-5 4h-5v-2l-3-1 1-3 7-1 2-6 8-9 6-10z" fill="#9C0544"/>
<path transform="translate(225,108)" d="m0 0 5 2 3 7 4 3 6 12 4 2v2l4 2 2 5-1 1h-5l-6-8-4-7-6-4-6-8-1-6z" fill="#801038"/>
<path transform="translate(573,410)" d="m0 0 9 1-2 4-4 7-6 9-6 5-4-1v-6l4-4h2l3-10z" fill="#26263D"/>
<path transform="translate(403,99)" d="m0 0 7 4 8 1v3l-5 6-5 2-1-2h-2l-2 3-5-4-2-1 1-7 4-4z" fill="#180813"/>
<path transform="translate(286,144)" d="m0 0h5l8 9 5 10-1 6-4 1-10-11v-6l-4-8z" fill="#171129"/>
<path transform="translate(453,406)" d="m0 0 1 2h-2l-1 5-8 3-3 3-7 6-5 1-8 5-6 5h-2v-7l1-4 6-1 2-3 4-2 7 1 7-5 6-3 4-4z" fill="#110E28"/>
<path transform="translate(490,337)" d="m0 0h2v4h2l10 21v6l-5-3-2-4-5-2-4-5v-9l1-5z" fill="#FCB9A2"/>
<path transform="translate(273,331)" d="m0 0h3l3 14 3 17-1 4-3 2h-3v-7l-2-12-2-7v-9z" fill="#FCB9A2"/>
<path transform="translate(286,228)" d="m0 0 1 2v15l1 7 3 3 3 4 5 2 1 3-9-3-4-4-4 1v8l-3 3-1 29h-2l-1-10v-17l3-5 2-10 2-3v-8h2v-16z" fill="#8D103D"/>
<path transform="translate(539,410)" d="m0 0 7 3 5 7-1 5-2 2-1 4-3-1v-2l-4-1-4-6-1-8z" fill="#FAB6A0"/>
<path transform="translate(578,208)" d="m0 0h3l-2 6-7 8-6 6-3 6-8 9-3-1v2l-4-1 7-8 7-7 4-8z" fill="#5B424B"/>
<path transform="translate(460,280)" d="m0 0h1l1 10 5 5v2l4 2 2 5h-3l-3-2-3-5v-2h-2l1 15 2 3 6 2 1 5h-4l2 4 3 2-2 5-2 2-1-7-4-4-2-5-3-5z" fill="#990D43"/>
<path transform="translate(191,172)" d="m0 0 7 3 5 4 9 6 1 3h-15l-4-3-5-2-4-5 8 2-3-4z" fill="#7A1436"/>
<path transform="translate(435,193)" d="m0 0 3 3 6-1 4 1-1 8-3 4v-4l-8-2-8 8-3 5h-1v-14l2-4h2l1 5 4-2z" fill="#2C040F"/>
<path transform="translate(502,282)" d="m0 0 2 3 1 6h6l4-2-2 4-4 4-2 6-2 4 6 5-1 2-6-4-2-2-6 7-1-4 4-4-5 4v-3l8-10-1-3z" fill="#171022"/>
<path transform="translate(421,264)" d="m0 0 2 2 1 19 1 4h2v43l-1 2h-2v-30l-2-12-1-1-1-22z" fill="#020107"/>
<path transform="translate(385,516)" d="m0 0 2 1 2 20-3 6-7 1-1-1 1-7 1-2 2-12z" fill="#7F1038"/>
<path transform="translate(343,244)" d="m0 0h4l1 7-2 5-3 3h-2v2h-3v2l-6 2-1-6 2-5 5-5h2l2-4z" fill="#9D0745"/>
<path transform="translate(471,703)" d="m0 0 4 2 6 5 8 1 10-1 1 4-5 5-12 1-4-3v-6l-4-2-4-4z" fill="#5C1423"/>
<path transform="translate(548,426)" d="m0 0 1 3v6l-5 1-3 6-4 4-9 3 1-9 4-4 2-1 2-4 6 1 3-1z" fill="#14030C"/>
<path transform="translate(218,562)" d="m0 0 1 4 5 2 1 3-1 7 5 3 2 2 7-1 5-4 6-7h6l-4 2-5 6-6 7-2 2h-7l-8-7-3-3-2-10-2-5z" fill="#1D0913"/>
<path transform="translate(455,355)" d="m0 0h3l3 12 2 3 1 9-7-4-3-4v-2l-4-2-2-2 1-5z" fill="#7B0F36"/>
<path transform="translate(404,469)" d="m0 0h2l2 12 3 14 4 17v14l-2 2-2-1-1-1h-3l2-5 2-3-1-11-1-2-2-15-2-8z" fill="#020107"/>
<path transform="translate(459,361)" d="m0 0 2 1 4 10 3 12v3h-4l-7-9 1 4v3l-9-12-4-5h2l2-3 5 4 4 6 5 3-2-10-2-3z" fill="#440620"/>
<path transform="translate(206,143)" d="m0 0 7 3h4v2l3-1 1 2-1 2 4 1-1 1 5 3h7v6l-3 3-5-3-8-7-6-3v-2h-2v-2l-4-2z" fill="#83173B"/>
<path transform="translate(229,489)" d="m0 0 2 1-30 30-3 9-4 3h-3l-2 4-2 3-1 5h-2l-3 10h-1v-8l4-7 6-8h2l5-10 5-6 4-4h2l2-4 8-8 8-7z" fill="#651C32"/>
<path transform="translate(407,527)" d="m0 0 2 1-2 4h-2l-2 5-4 4h-2l-1 6-10 7-4 1 1-5 7-7h2l2-4 4-4h2l2-4z" fill="#28263C"/>
<path transform="translate(235,165)" d="m0 0h2v2h-2l1 5 12 13 5 7 2 1 1 4-4-2-10-10-6-3-6-5 2-8z" fill="#140B11"/>
<path transform="translate(453,332)" d="m0 0 2 1v16l-2 2h-6l-3-3v-7l5-6z" fill="#54161F"/>
<path transform="translate(316,439)" d="m0 0 3 3 4 8 1 13v7l-2 2-1-13-2-3-3-1-1 5h-1l-1-6v-13h2z" fill="#D97269"/>
<path transform="translate(301,396)" d="m0 0h6l-1 6 1 1v5l-6 1h-7l-3-2 1-1-2-2 4-5 7-1z" fill="#25263D"/>
<path transform="translate(411,346)" d="m0 0 2 1-2 2v7l3 5 4 2h10l5-5 2-5h1l1 8-5 5-7 2h-8l-8-6-4-5 3-1 1-8z" fill="#D97269"/>
<path transform="translate(400,199)" d="m0 0 3 1 5 5 1 7 4 2 3 4-5-1-6-2-4 1-4-3 1-2h1l1-7-5-2-1-2 4 1z" fill="#480522"/>
<path transform="translate(169,148)" d="m0 0 6 1 2 2 3 2 8 2 8 5 6 5v3l-5-2-16-9-2-1v-2l-5 2-3 2-3-4v-5z" fill="#8F1440"/>
<path transform="translate(413,610)" d="m0 0 2 2 1 5 6 1 3 4 7 2 1 2-6 2 1 7 1 11h-2v-2h-2l-1-2-1-16-5-5-6-2v-8z" fill="#0D080E"/>
<path transform="translate(515,319)" d="m0 0 4 5 5 7 1 8 2 1 1 3v19l-4 3-2-1 1-1 1-22-4-3-1-9-4-6z" fill="#AC4B51"/>
<path transform="translate(244,96)" d="m0 0 2 3 6 12 5 3 2 1v2l4 1 1-3 3 5 4 5v2l-3 1h-7l-4-8-9-10-4-8z" fill="#81133A"/>
<path transform="translate(295,385)" d="m0 0h10l1 1v5l-3 2-6 2-9 2-1-7h2v-2l5-2z" fill="#26273D"/>
<path transform="translate(363,136)" d="m0 0h7l2 4v5l-2 6 2-1-3 9h2l4 9 6 5 2 5-4-1-8-8-4-6v-15l1-9-5-2z" fill="#2C040F"/>
<path transform="translate(421,346)" d="m0 0 6 1 3 3v5l-3 3-8 1-3-3v-7z" fill="#F3A895"/>
<path transform="translate(399,244)" d="m0 0 4 1 5 5v6l-6 8-2 2-4-1 4-7 4-6-1-3h-7l-4 4-1 5-3-1 1-5 8-7z" fill="#EE9D8C"/>
<path transform="translate(407,336)" d="m0 0 5 1 1 5-5 4-3 4-3 9-2-2-1-12v-3l6-1 1-4z" fill="#0E040E"/>
<path transform="translate(381,184)" d="m0 0 6 1 8 7 5 5v3l-2 2-10-6-6-5-2-5z" fill="#950741"/>
<path transform="translate(519,404)" d="m0 0 5 1v2l2 1-2 1v8l-3 5-3-1-7-14v-2l6 2 1-2z" fill="#08040B"/>
<path transform="translate(430,179)" d="m0 0 2 2 2 8h3l-2 10-4 4-3-1v-5l-2 1-2 6-1-4 1-6 3 1v-7h2z" fill="#53141F"/>
<path transform="translate(543,438)" d="m0 0 3 4 3 5 5 3 1 6-4-1v-4l-3-1-3-3h-2l1 6-4 2-1-2-3-1-1-3-3-2 7-2 2-4z" fill="#9C0544"/>
<path transform="translate(605,180)" d="m0 0 2 1-2 4-2 1v-2l-6 2-1 3-2 1-4 11 1 3v20l-2-2-2-32 4-3 5-3z" fill="#14102C"/>
<path transform="translate(393,52)" d="m0 0h21l6 3 9 6h-3l-2-1-1 4-9-4h-5l-2-3v-4h-14z" fill="#2D0C18"/>
<path transform="translate(544,435)" d="m0 0h5l7 6 3 3 3 1-1 9-4 2-2-7-8-7-4-4z" fill="#F2A692"/>
<path transform="translate(528,395)" d="m0 0 12 2 1 3-1 3h-2l-1 2-9-1-2-2-8 2v-3l-2-1h6l2-4z" fill="#26273D"/>
<path transform="translate(474,339)" d="m0 0 1 3v16l3 3 3 7 10 10 6 5 4-4 2 1-4 6-3 1-7-8-13-13-4-8-1-13z" fill="#811839"/>
<path transform="translate(281,418)" d="m0 0 2 1v2l6 2 7 1-1 3-6 3-2 5-6 3 2-4v-6l-3-1v-8z" fill="#11080F"/>
<path transform="translate(526,479)" d="m0 0h2l-1 4-8 8-8 4-4 4-8 4-3 2 2-5 9-7 5-3 11-8z" fill="#0E0910"/>
<path transform="translate(299,464)" d="m0 0h9l4 2 5 12v5h-5v-3h2v-2l-4-2-2-2-2-8h-2l-1 8h-3z" fill="#D8716A"/>
<path transform="translate(495,260)" d="m0 0 4 5 2 13 2 4-1 14v3l-4 4-1-5 2-3v-16l-3-1v-7l-2-8z" fill="#B64A55"/>
<path transform="translate(365,160)" d="m0 0 4 4 6 8 5 5 5 1 4 4v2l4 2 7 8-1 3-8-7-5-5v-2l-4-2-8-7-7-7-2-4z" fill="#460323"/>
<path transform="translate(532,408)" d="m0 0 2 1-8 8-2 3v16l4 2-1 4-2 7h-1l-2-9-2-3-1-15h2l2-5 6-7z" fill="#821139"/>
<path transform="translate(376,116)" d="m0 0h3v7l4-3 1 3-1 12h-3l-1-7h-2v16l-7 15-1-3 2-6 1-2h2l2-22-1-2 2-1z" fill="#6C102C"/>
<path transform="translate(421,110)" d="m0 0 6 2-3 5 7-2-2 9-10-1v-3l-1-4h-2l1-4z" fill="#DD7A6F"/>
<path transform="translate(412,125)" d="m0 0 15 3 1 3-2 3h-2v2h4l-1 2-7-1-6 1v1h-6v-3l12-2-7-5z" fill="#D06264"/>
<path transform="translate(267,96)" d="m0 0 5 5 4 7 2 7 2 3v5l-5-1-2-2-3-7-2-5 3 1v-5l-4-4z" fill="#621230"/>
<path transform="translate(240,72)" d="m0 0 4 1 1 2 6 2 5 6-1 2-6-4-5-2 1 6v11h-1l-2-8-2-3z" fill="#911E43"/>
<path transform="translate(276,99)" d="m0 0 4 1 4 5 2 7 3 1 1-2 4 9h-9l-3-7-6-12z" fill="#6D1134"/>
<path transform="translate(276,288)" d="m0 0h1l1 12-3 2v17l-4 3v9l-5 2-1 2 1-4 5-15 1-13 3-5z" fill="#7B1834"/>
<path transform="translate(421,164)" d="m0 0h2l2 6 4 4 1 11-1 3-3-1-4-10-1-5z" fill="#11030B"/>
<path transform="translate(253,168)" d="m0 0 4 1 6 5 5 3 2 9-4-1-9-9-3-2z" fill="#17112B"/>
<path transform="translate(327,666)" d="m0 0 2 2v9l-3 5-2 1 1 5 1 6-1 3v5l-4-1-2-2-1-4-7-1v-1l12-1-1-4v-7l4-4z" fill="#2C040F"/>
<path transform="translate(435,84)" d="m0 0 2 1 2 5h1v35l-1 3h-2l-1 7-2 1v-7l4-2-1-13v-21l-2-7z" fill="#5C1431"/>
<path transform="translate(396,248)" d="m0 0h7l2 4-4 6h-3v2h-5l-1-6 3-5z" fill="#16030D"/>
<path transform="translate(493,216)" d="m0 0h2l1 3v22l-1 3h-2l-1 11-4-2-1-2 1-4h2l2-4 1-22z" fill="#7E113A"/>
<path transform="translate(425,694)" d="m0 0 2 4v6h2l2 4 4 2v2l13 1 5 1v1h-21l-5-6-3-3v-11z" fill="#0C060D"/>
<path transform="translate(183,570)" d="m0 0h1v12l-3 4-1 10-4-1-1-4 5-18z" fill="#1A0E16"/>
<path transform="translate(205,125)" d="m0 0 4 2v2h2v3l3 1 7 8 2 5-4-1-4-2-4-6-5-3z" fill="#8D093E"/>
<path transform="translate(527,270)" d="m0 0 2 1-1 4-9 12-4 3-6 2v-3l17-17z" fill="#583E46"/>
<path transform="translate(276,163)" d="m0 0 5 1 5 3 2 4 4 2 3 5-3 1-7-3v-2h-2l-3-5-4-3z" fill="#14112C"/>
<path transform="translate(235,501)" d="m0 0 2 1-19 19-3 2h-3l2-5 3-3h2l1-3 6-5h2v-2z" fill="#020107"/>
<path transform="translate(476,410)" d="m0 0 5 3 2 5 3 1 7 8 5 6-4-2-3-2 2 4-4-2-5-6-1-5h-3l-1-3-3-2z" fill="#241F30"/>
<path transform="translate(468,400)" d="m0 0h2l5 8 1 1 1 14-1 13-4 1-4-6-2-11-2-4 4 1 2 10 3 6v2h2l-1-25-6-7z" fill="#3E051C"/>
<path transform="translate(310,324)" d="m0 0h2l1 22 2 2 1 13-2 7-2-1 1-19-3-1-1-2z" fill="#791333"/>
<path transform="translate(416,339)" d="m0 0h3v3l9 1v1l-11 1-7 3-1 8-4 1-1-1v-6l6-7z" fill="#F2A592"/>
<path transform="translate(372,561)" d="m0 0h3l-1 8-5 8-4 3-1-3 3-10z" fill="#18152F"/>
<path transform="translate(388,384)" d="m0 0 1 2-3 7h7l9 1-1 3h-6l-1-1-10-1-5 5-4 2 3-7 4-5h2l2-5z" fill="#14040B"/>
<path transform="translate(352,185)" d="m0 0h12l4 2 4 5 5 3 2 3-14-7-8-2h-9l-4 1v-2z" fill="#130F2B"/>
<path transform="translate(315,454)" d="m0 0 5 2 2 3v12l-4 1-2-3-1-7z" fill="#190612"/>
<path transform="translate(532,374)" d="m0 0h1l2 7 2 3v8l-2 2 4 3-13-1v-2l-4-1 3-1 7 1 1-2 2-3-2-2 1-3-5 2-1-4 3-1z" fill="#130F2B"/>
<path transform="translate(374,70)" d="m0 0 1 2-4 6-2 4v5l5 5 4 1 1 1 7 1-4 2h-8l-5-4-3-5 1-8 3-6z" fill="#2B040F"/>
<path transform="translate(237,496)" d="m0 0 2 1-7 5-2 3h-2v2l-8 6-7 8-10 10v-3l15-16 12-12z" fill="#40031E"/>
<path transform="translate(295,480)" d="m0 0 12 3-2 1 3 5 5 3v9l-2-4-5-5-8-6v-2h-2z" fill="#2D0512"/>
<path transform="translate(295,437)" d="m0 0h1v11l-2 10-3 10-2 1v-7l2-7 1-13z" fill="#9C0544"/>
<path transform="translate(417,344)" d="m0 0h12l5 5 1 7-2 2v-6l-3 1-3-5-6-1-5 2h-5l3-4z" fill="#980742"/>
<path transform="translate(286,228)" d="m0 0 1 2v15l1 7 3 3 3 4 5 2 1 3-9-3-4-4-3-2 1-5-2-5h2v-16z" fill="#9A0843"/>
<path transform="translate(381,73)" d="m0 0 4 4h6l-2 11h-5l-3-7z" fill="#7E1037"/>
<path transform="translate(541,456)" d="m0 0h2l2 5h2l-1 5-1 2h-6l-4-3 1-4 3-3h2z" fill="#E28578"/>
<path transform="translate(302,411)" d="m0 0h5v7l-5 2h-6l-3-1 2-4z" fill="#27283E"/>
<path transform="translate(480,711)" d="m0 0h18l-1 5-2 1h-11l-4-4z" fill="#AF3050"/>
<path transform="translate(277,127)" d="m0 0 4 2 3 2 3 7-1 3-3 1-3-2-4-7v-5z" fill="#15102A"/>
<path transform="translate(224,115)" d="m0 0 8 10 6 4 5 8 3 4 3 2-3 1-3-2v-2l-4-2-4-3v-5l-6-3-3-6-2-3z" fill="#3D0723"/>
<path transform="translate(213,126)" d="m0 0 4 2 9 5 8 11 5 5h2l2-4 1 1v5l-6 1-2-4-3-1-8-10-12-10z" fill="#3D021D"/>
<path transform="translate(276,133)" d="m0 0 4 4v3l6 1 1-3 3 5-1 2-3 1 4 7v4h-2l-6-12-6-8z" fill="#130C14"/>
<path transform="translate(437,177)" d="m0 0h7l-3 7-5 6-3-1 1-9z" fill="#9B0543"/>
<path transform="translate(176,151)" d="m0 0 9 1 11 6 10 9 2 3h-2l2 4-4-2-1-3-2-1 1-3-4-2-4-4-8-4-9-2z" fill="#52172D"/>
<path transform="translate(225,108)" d="m0 0 5 2 3 7 2 2v4l-4-2-5-2-2-4z" fill="#930840"/>
<path transform="translate(532,448)" d="m0 0 4 1v3l4 1v2l-7 1-1 4 3 1v2l-4-2-2-2-1-6z" fill="#EA9585"/>
<path transform="translate(572,416)" d="m0 0 2 3 3-1-1 5-2 1-4 7-6 5-4-1v-6l3 4 2 1 1-4 3-3v-5h2l-1-4z" fill="#14112C"/>
<path transform="translate(200,112)" d="m0 0 4 1 4 5 11 3 3 2v2l-5-2h-5-3l-8-4-1-1z" fill="#6E1336"/>
<path transform="translate(448,365)" d="m0 0 6 4 4 6-1 3 1 4v3l-9-12-4-5h2z" fill="#3C051A"/>
<path transform="translate(269,219)" d="m0 0 3 3 1 7 2 4-5-1-7-6-2-5 5 1 3-1z" fill="#17122C"/>
<path transform="translate(293,458)" d="m0 0h2l1 4-1 11-1 3-5-1-1-3 4-11z" fill="#EC9988"/>
<path transform="translate(360,422)" d="m0 0 2 3-7 9-2 4-7 1-2 4-1-4 8-7h2l4-7z" fill="#130F2B"/>
<path transform="translate(426,234)" d="m0 0h1l-1 10-5 3-4 1-2-2v-2l5-4 5-5z" fill="#07020A"/>
<path transform="translate(471,227)" d="m0 0h1l2 13 5 2v5l-5 1-1 6h-1l-1-16z" fill="#830838"/>
<path transform="translate(325,292)" d="m0 0 1 4-3 11-4 8-6 6h-2l2-5 3-2 2-6h2l3-13z" fill="#691733"/>
<path transform="translate(203,120)" d="m0 0 6 2 4 4h-2l-1 3-5-4 2 9 6 4 1 2-5-1-5-3z" fill="#400421"/>
<path transform="translate(430,700)" d="m0 0 5 1 4 8v2l-5-1-5-3-1-6z" fill="#440223"/>
<path transform="translate(432,103)" d="m0 0 4 1v3l-3 3-3 6-6 1 1-4 3-3 1-6z" fill="#32112E"/>
<path transform="translate(455,377)" d="m0 0 4 2 5 6 3 9 1 1v5l-3-3-6-10-3-7z" fill="#3A021B"/>
<path transform="translate(304,188)" d="m0 0h5l1 2 4-2h12l-3 2-9 1-5 4-5 1z" fill="#7E3146"/>
<path transform="translate(208,167)" d="m0 0 3 1 4 6 5 5 2-1 1 4-2 1-9-6-6-5z" fill="#A82A4F"/>
<path transform="translate(369,100)" d="m0 0 7 1 4 5v9h-3v-6l-2-1v-4h-6z" fill="#F4B6A7"/>
<path transform="translate(398,550)" d="m0 0 2 1-7 8-7 6h-2l4 7 3 3-1 2-8-9 1-5 6-4z" fill="#3B021C"/>
<path transform="translate(548,426)" d="m0 0 1 3v6l-8 1-3-3-2 4-7 6 1-5 5-3 2-4 6 1 3-1z" fill="#640C2A"/>
<path transform="translate(358,362)" d="m0 0 38 3v5l-2-2-11-2-23-1-2-1z" fill="#460423"/>
<path transform="translate(405,214)" d="m0 0 11 4v2h2l-1 4-3 3 1-4-5-1-5-4-1-3z" fill="#060107"/>
<path transform="translate(426,197)" d="m0 0h2l2 9-5 9h-1v-14z" fill="#0C0108"/>
<path transform="translate(318,189)" d="m0 0h8l4 4 5 3v3l-9-5-10-1-4 2-3-1 5-4z" fill="#D97269"/>
<path transform="translate(450,637)" d="m0 0h4l-1 7 1 1v7h-5v-14z" fill="#85113B"/>
<path transform="translate(519,368)" d="m0 0h5l3 2 4 2-14 3-2-1-1-4z" fill="#191631"/>
<path transform="translate(193,146)" d="m0 0 6 1 3 2 3 5 3 4-6-1-5-4v-2l-3-1z" fill="#9A0643"/>
<path transform="translate(422,337)" d="m0 0h5l5 4-1 3-12-1-1-2z" fill="#F9CFC2"/>
<path transform="translate(392,252)" d="m0 0 1 2v6h5v-2h2l-2 4-1 4h-3v-2l-5-2-2-3v-6l2 4 2 1v-5z" fill="#710E2F"/>
<path transform="translate(189,132)" d="m0 0 4 3 9 1 2 5-10-3-1 4-3-1-2-3v-5z" fill="#7A1B3B"/>
<path transform="translate(464,584)" d="m0 0h1l2 9 2 5-1 5-2-4h-2l-1 2h-3v-4h2z" fill="#120E29"/>
<path transform="translate(561,232)" d="m0 0 3 1-9 10-3-1v2l-4-1 7-8 5-2z" fill="#8A6568"/>
<path transform="translate(478,195)" d="m0 0h2l1 4 5 5 6 7 2 5-1 5-2-4-3-5-1-4-5-4-6-8z" fill="#B04B55"/>
<path transform="translate(463,188)" d="m0 0 13 4-1 3h-9l-3-3-2 6h-1v-8z" fill="#C2595C"/>
<path transform="translate(244,96)" d="m0 0 2 3 6 12 6 6v2l3 1 2 4h-2l-1 2-3-6-9-10-4-8z" fill="#3C0E23"/>
<path transform="translate(428,84)" d="m0 0 3 1v4h-14l-6-2-1-2h17z" fill="#730F2F"/>
<path transform="translate(220,96)" d="m0 0h6l7 4v3l-11-1-2-2z" fill="#912144"/>
<path transform="translate(490,321)" d="m0 0h2l-1 11-5 5h-1v-7l4-8z" fill="#9F0845"/>
<path transform="translate(416,169)" d="m0 0h2l5 19 1 5-4-4-3-7z" fill="#9E0545"/>
<path transform="translate(418,56)" d="m0 0h7l10 5 4 8-2 2-5-6-7-6-7-2z" fill="#1B0E15"/>
<path transform="translate(500,278)" d="m0 0 3 3-1 15v3l-4 4-1-5 2-3v-16z" fill="#D46C66"/>
<path transform="translate(378,343)" d="m0 0 21 1 1 4-19-2-3-1z" fill="#9B2E48"/>
<path transform="translate(240,114)" d="m0 0 3 3v2l4 2 6 7 4 4 3-1v7l-3-1-9-11v-2h-2l-5-6z" fill="#40041F"/>
<path transform="translate(256,187)" d="m0 0 4 2 11 11-3 1-9-6-3-6z" fill="#0B0A15"/>
<path transform="translate(189,157)" d="m0 0 6 2 7 6v3l-5-2-10-6z" fill="#970E42"/>
<path transform="translate(410,229)" d="m0 0h2l-2 5-5 6h-2l-1 3h-3l1-4 5-6 4-1z" fill="#0B0511"/>
<path transform="translate(493,216)" d="m0 0h2l1 3v22l-2 2z" fill="#562232"/>
<path transform="translate(251,121)" d="m0 0 5 4 4 5-3 3-5-5-4-6z" fill="#8B143E"/>
<path transform="translate(427,501)" d="m0 0 3 1 6 10-3 3-3-3-3-9z" fill="#130F2B"/>
<path transform="translate(460,199)" d="m0 0 3 2 3 11 3 8-2 4h-1l-2-10-2-4z" fill="#1A091A"/>
<path transform="translate(423,183)" d="m0 0 3 1 2 11h-3l-1 5h-1l-2-9 2 1z" fill="#E58B7D"/>
<path transform="translate(468,222)" d="m0 0 3 3 1 13v10l-2 1-1-19-2-4z" fill="#090208"/>
<path transform="translate(417,143)" d="m0 0 8 1v4l-6 1-5-1-1-4z" fill="#D97269"/>
<path transform="translate(476,510)" d="m0 0h1l-1 19-4 4v-8z" fill="#130F2B"/>
<path transform="translate(312,346)" d="m0 0 3 2 1 13-2 7-2-1 1-19-2-1z" fill="#8A233D"/>
<path transform="translate(320,470)" d="m0 0 7 1v3l-4 1v7l-3 1-1-11z" fill="#14040C"/>
<path transform="translate(543,402)" d="m0 0h1l1 5 7 2-1 4-2-2-15-3v-2h9z" fill="#772136"/>
<path transform="translate(407,155)" d="m0 0h10l-2 2 4 1v7h-1v-5h-9z" fill="#8B0B3D"/>
<path transform="translate(484,372)" d="m0 0 7 6 6 5 4-4 2 1-4 6-3 1-7-8-5-5z" fill="#7A1234"/>
<path transform="translate(459,686)" d="m0 0 4 2 5 7 4 1v-3h3v3l-2 1-1 3-4-2-9-11z" fill="#BD6663"/>
<path transform="translate(376,539)" d="m0 0h1l1 5 8 1-4 2h-2v2h-3l-3 5h-2l1-5 2-2z" fill="#2C040F"/>
<path transform="translate(461,290)" d="m0 0 6 5v2l4 2 2 5h-3l-3-2-3-5v-2h-2z" fill="#9E0545"/>
<path transform="translate(296,448)" d="m0 0h2l1 16-4-2-1-6 1-7z" fill="#D9736A"/>
<path transform="translate(570,221)" d="m0 0v3l-4 4-2 4-5 3h-2l2-4 5-6z" fill="#1B1625"/>
<path transform="translate(195,165)" d="m0 0 5 2 5 5 6 3 6 5-2 1-11-7-9-8z" fill="#340415"/>
<path transform="translate(239,124)" d="m0 0 12 12 4 3v6l-3-2-2-5-7-6-4-5z" fill="#3D031E"/>
<path transform="translate(534,446)" d="m0 0 5 1 2 2 2-2 1 6-4 2-1-2-3-1-1-3-3-2z" fill="#990942"/>
<path transform="translate(284,249)" d="m0 0 2 1-1 5-2 3v8l-2 2-3-1 1-1 2-10z" fill="#6B1430"/>
<path transform="translate(187,168)" d="m0 0 4 1 11 7 9 7-2 1-10-7-9-6z" fill="#41061D"/>
<path transform="translate(425,72)" d="m0 0 4 4-1 6-3 3v-3l-2-1 1-8z" fill="#12020A"/>
<path transform="translate(413,348)" d="m0 0h3v7l-5 3-1-2v-7z" fill="#5B1423"/>
<path transform="translate(372,167)" d="m0 0 6 3 5 6v2l-4-1-7-7z" fill="#2C0918"/>
<path transform="translate(420,136)" d="m0 0 7 1 7 2v1h-5l-1 4-1-4-13-1-4-2z" fill="#860C3A"/>
<path transform="translate(189,533)" d="m0 0 2 1-4 5-1 5h-2l-3 10h-1v-8l4-7z" fill="#37101E"/>
<path transform="translate(266,333)" d="m0 0h1v14l-3 3v-16z" fill="#810F38"/>
<path transform="translate(220,100)" d="m0 0 10 3 3 4-7-2 1 3h-2l-1 3-2-7z" fill="#3D051E"/>
<path transform="translate(327,454)" d="m0 0h1v8l-3 7h-2l1-9z" fill="#EE9D8C"/>
<path transform="translate(324,446)" d="m0 0 3 3v9l-3 2-2-12h2z" fill="#FAB8A3"/>
<path transform="translate(588,203)" d="m0 0 3 1v20l-2-2z" fill="#130F2B"/>
<path transform="translate(270,186)" d="m0 0 5 3 4 4 1 5-7-4-3-5z" fill="#130F2B"/>
<path transform="translate(292,147)" d="m0 0 3 1 4 5 4 8-1 2-5-6-2-5h-2z" fill="#150D14"/>
<path transform="translate(315,454)" d="m0 0 5 2 2 3v12h-1l-2-12-3-1-1 4z" fill="#631228"/>
<path transform="translate(345,249)" d="m0 0 3 1-2 6-5 4-3-1z" fill="#D97269"/>
<path transform="translate(218,512)" d="m0 0 1 3-16 16v-3z" fill="#3E021E"/>
<path transform="translate(460,280)" d="m0 0h1l1 34-3-1z" fill="#6F1130"/>
<path transform="translate(552,242)" d="m0 0h2l-2 4-7 8-2-1 2-4 3-5h4z" fill="#16111B"/>
<path transform="translate(407,205)" d="m0 0h1l1 7 4 2 1 2-10-3-2-4 5-1z" fill="#90093F"/>
<path transform="translate(424,194)" d="m0 0 3 1 3-1v2h2l-2 6h-2v-5l-2 1-2 6-1-4z" fill="#5E0B2B"/>
<path transform="translate(383,148)" d="m0 0 5 3 4 9v2h-2l-7-11z" fill="#9E0545"/>
<path transform="translate(469,422)" d="m0 0h4l1 3v8h-2l-3-6z" fill="#950841"/>
<path transform="translate(443,342)" d="m0 0h1l2 7 7 2v1l-8 2-4-6z" fill="#2C040F"/>
<path transform="translate(439,336)" d="m0 0v3l-6 4-5-5 1-1h9z" fill="#1C1129"/>
<path transform="translate(395,246)" d="m0 0 7 1v1l-7 2-3 3-1 5-3-1 1-5z" fill="#E4897C"/>
<path transform="translate(397,211)" d="m0 0 10 2 8 3 1 2-5-1-6-2-4 1-4-3z" fill="#300D26"/>
<path transform="translate(224,183)" d="m0 0 4 2 7 7-3 1-9-7z" fill="#23141A"/>
<path transform="translate(271,72)" d="m0 0 6 2 4 1 1 3-7-2v3h-2v6h-1z" fill="#5D0A2B"/>
<path transform="translate(536,455)" d="m0 0h4l-1 5-3 1-1 2-3-3 1-4z" fill="#91083E"/>
<path transform="translate(573,410)" d="m0 0 9 1-2 4-3 3-1-3-4-2z" fill="#15122D"/>
<path transform="translate(454,299)" d="m0 0h1l1 11 3 2h-3v5l-3-4v-6l-2-1z" fill="#181530"/>
<path transform="translate(240,155)" d="m0 0 4 1 5 5v3l-5-2-4-4z" fill="#130F2B"/>
<path transform="translate(177,153)" d="m0 0 9 1 4 4v1l-7-1-4-2v-2z" fill="#AB2C4E"/>
<path transform="translate(199,521)" d="m0 0 1 2-2 6-7 4-2-1 3-1 2-4 2-5z" fill="#781939"/>
<path transform="translate(232,143)" d="m0 0 7 6h2l2-4 1 1v5l-6 1-2-4-3-1z" fill="#4A0A25"/>
<path transform="translate(467,712)" d="m0 0 6 1 2 1v-2h4l-1 4-7 1-4-4z" fill="#450224"/>
<path transform="translate(299,464)" d="m0 0h7l-2 2-1 8h-3z" fill="#D97269"/>
<path transform="translate(311,348)" d="m0 0h2l1 4-1 17-3 2v-7l1-1z" fill="#D97269"/>
<path transform="translate(507,298)" d="m0 0 1 4-3 3 2 4 4 3-1 2-6-4-2-2-1-2h2l1-4 1-2h2z" fill="#592F3E"/>
<path transform="translate(390,186)" d="m0 0 4 1 6 7-1 3-7-6z" fill="#46091D"/>
<path transform="translate(213,138)" d="m0 0h4l5 4 1 4-4-1-4-2z" fill="#7E0F38"/>
<path transform="translate(236,132)" d="m0 0 8 6 2 3 3 2-3 1-3-2v-2l-4-2-4-3z" fill="#42192B"/>
<path transform="translate(556,442)" d="m0 0h7l2 4-3 6-2 1 2-8-5-1z" fill="#5F0F2B"/>
<path transform="translate(351,432)" d="m0 0 1 4-3 3h-3l-2 4-1-4z" fill="#110D27"/>
<path transform="translate(571,413)" d="m0 0 4 1 1-1 2 3-4 4-2-3-4 1z" fill="#202038"/>
<path transform="translate(427,398)" d="m0 0 4 2-2 5h-2l-1 4h-2v-4h2l-1-3z" fill="#130F2B"/>
<path transform="translate(387,393)" d="m0 0 15 1-1 3h-6l-1-1-9-1z" fill="#130F2B"/>
<path transform="translate(324,378)" d="m0 0 4 2v8l-1-3-4 1-2 2 1-5z" fill="#300B16"/>
<path transform="translate(222,142)" d="m0 0 3 3v6l-5-3h-3l-1-5 6 2z" fill="#430623"/>
<path transform="translate(371,105)" d="m0 0 5 1-1 5h-2l-1 3v-2h-2v-6z" fill="#9E0545"/>
<path transform="translate(488,424)" d="m0 0 4 2 6 7-4-2-3-2 2 4-4-2-1-3z" fill="#100E23"/>
<path transform="translate(476,410)" d="m0 0 5 3 2 7h-3l-1-3-3-2z" fill="#201831"/>
<path transform="translate(429,211)" d="m0 0h1v6l-7 6-2-1 3-5 3-2z" fill="#7F1038"/>
<path transform="translate(212,168)" d="m0 0 6 1 1 4-2 2-5-3z" fill="#0A010A"/>
<path transform="translate(392,53)" d="m0 0h15l-3 3h-5l-4-1-3 2-1-3z" fill="#21050F"/>
<path transform="translate(471,534)" d="m0 0 2 1-1 9-1 2-3-1 1-9h2z" fill="#130F2B"/>
<path transform="translate(324,427)" d="m0 0h1v5l3 1-1 11h-1l-2-6z" fill="#2C040F"/>
<path transform="translate(468,400)" d="m0 0h2l5 8 1 1v11h-1l-1-10-6-7z" fill="#43061F"/>
<path transform="translate(467,325)" d="m0 0 2 1 1 7 4-2 5-4-2 4-7 6-2-3z" fill="#4C1727"/>
<path transform="translate(368,159)" d="m0 0h3l3 9-3 1-3-5z" fill="#220511"/>
<path transform="translate(394,57)" d="m0 0 4 2 1 4-4 2-2-3z" fill="#9B1545"/>
<path transform="translate(524,404)" d="m0 0 3 2 2 5-5 4-1-6z" fill="#14112C"/>
<path transform="translate(451,173)" d="m0 0 2 1-9 7-3 5-3 2 2-4 5-8z" fill="#4F131D"/>
<path transform="translate(201,163)" d="m0 0 7 6-2 1 2 4-4-2-1-3-2-1z" fill="#63182E"/>
<path transform="translate(206,143)" d="m0 0 7 3 3 3-1 3h-2v-2h-2v-2l-4-2z" fill="#4E0D23"/>
<path transform="translate(204,131)" d="m0 0h2l1 3 6 4 1 2-5-1-5-3z" fill="#490C29"/>
<path transform="translate(382,78)" d="m0 0 6 2 1 3-2 4h-2l-1-7h-2z" fill="#9E0545"/>
<path transform="translate(532,408)" d="m0 0 2 1-8 8-2 3h-2l2-5z" fill="#730F2F"/>
<path transform="translate(341,354)" d="m0 0h5l2 3h-7v9l-2 4 1-14z" fill="#2C040F"/>
<path transform="translate(502,282)" d="m0 0 2 3 2 8-4 4-1-2z" fill="#7A2134"/>
<path transform="translate(536,262)" d="m0 0h2l-2 4-7 7-1-4z" fill="#100F1F"/>
<path transform="translate(175,154)" d="m0 0h4v2l2 1-3 1v3l-6-2 2-4z" fill="#430320"/>
<path transform="translate(373,140)" d="m0 0 2 1-1 7-5 4 1-6z" fill="#040107"/>
<path transform="translate(438,120)" d="m0 0h2l-1 8h-2l-1 7-2 1v-7l4-2z" fill="#8E2440"/>
<path transform="translate(521,393)" d="m0 0 5 1v2h-2l-1 3-4-1-1-3z" fill="#020107"/>
<path transform="translate(398,357)" d="m0 0h2l-1 4h-22v-1l21-1z" fill="#2C040F"/>
<path transform="translate(245,177)" d="m0 0 4 1 7 7-3 1-5-4z" fill="#24161D"/>
<path transform="translate(375,137)" d="m0 0h1v10l-6 12-1-3 2-6 1-2h2z" fill="#580E23"/>
<path transform="translate(404,63)" d="m0 0 6 2 1 3-2 2-5-2z" fill="#8E133F"/>
<path transform="translate(358,574)" d="m0 0 2 4-1 6h-3l-1-5z" fill="#27283E"/>
<path transform="translate(455,377)" d="m0 0 4 2 5 6v2l-5-2z" fill="#020107"/>
<path transform="translate(385,179)" d="m0 0 4 3v2l3 1v3l-1 2-6-7z" fill="#581421"/>
<path transform="translate(282,165)" d="m0 0 4 2 2 4 4 2-3 1-6-5z" fill="#311B1F"/>
<path transform="translate(169,148)" d="m0 0 6 1 2 2v2l-6-1-2 1-1-4z" fill="#AF4F55"/>
<path transform="translate(403,107)" d="m0 0 5 1-1 3h-2v2l-4-1z" fill="#F4BFB3"/>
<path transform="translate(471,703)" d="m0 0 4 2 6 5-2 2-7-5z" fill="#830E39"/>
<path transform="translate(539,443)" d="m0 0h4l-1 6h-3v-2l-3-1 3-1z" fill="#D66E67"/>
<path transform="translate(464,416)" d="m0 0 4 1 2 10v6l-2-2-2-11z" fill="#2E0217"/>
<path transform="translate(559,414)" d="m0 0h2l-3 10h-2v-6z" fill="#27283E"/>
<path transform="translate(413,408)" d="m0 0h1l1 8-1 8h-3z" fill="#130F2B"/>
<path transform="translate(268,325)" d="m0 0h3v6l-5 2-1 2 1-4z" fill="#781632"/>
<path transform="translate(287,172)" d="m0 0 6 3 2 3-3 1-6-3z" fill="#15122D"/>
<path transform="translate(417,155)" d="m0 0h5l-1 2-1 12h-1v-11l-5-1z" fill="#571023"/>
<path transform="translate(400,82)" d="m0 0 9 1 1 2h-14v-2z" fill="#661329"/>
<path transform="translate(304,737)" d="m0 0h10l2 3-3 1-9-3z" fill="#7F1038"/>
<path transform="translate(545,446)" d="m0 0 3 2-2 6-3-2v-5z" fill="#E78E80"/>
<path transform="translate(435,369)" d="m0 0 5 1v3l-4 1-3-2v-2z" fill="#110D27"/>
<path transform="translate(407,336)" d="m0 0 5 1 1 3-8 1 1-4z" fill="#15112D"/>
<path transform="translate(403,240)" d="m0 0 2 1v2l5 1 1 2-6-2 1 3-4-2-3-2 3-1z" fill="#3D0716"/>
<path transform="translate(605,180)" d="m0 0 2 1-2 4-2 1v-2l-6 1 2-3z" fill="#130F2B"/>
<path transform="translate(365,160)" d="m0 0 4 4 6 9-4-2-5-6z" fill="#54161F"/>
<path transform="translate(217,154)" d="m0 0 4 2 8 7 1 3-4-2-9-9z" fill="#370318"/>
<path transform="translate(191,140)" d="m0 0 3 2v2l4 1-1 2-4-1 2 5-3-1z" fill="#701433"/>
<path transform="translate(382,125)" d="m0 0h1v10h-3l-1-7z" fill="#850D3A"/>
<path transform="translate(211,122)" d="m0 0h6l5 5-2 1-9-5z" fill="#980742"/>
<path transform="translate(523,401)" d="m0 0 4 1 3 2v2l-11-2z" fill="#110D26"/>
<path transform="translate(511,369)" d="m0 0 3 1-5 5-6 5 2-5 5-4z" fill="#330A17"/>
<path transform="translate(387,341)" d="m0 0h8l4 2-1 1-12-1z" fill="#020107"/>
<path transform="translate(365,340)" d="m0 0 9 1 3 1v2l-8-1-4-1z" fill="#781534"/>
<path transform="translate(326,189)" d="m0 0 5 2 4 2 3 6h-2l-3-4-5-3z" fill="#700F2E"/>
</svg>
