<?xml version="1.0" encoding="UTF-8"?>
<svg version="1.1" viewBox="0 0 2048 2048" width="128" height="128" xmlns="http://www.w3.org/2000/svg">
<path transform="translate(1257,318)" d="m0 0 15 3 8 5 14 15 5 6 11 4h6l2-1h10l12 6 9 9 8 7 5 6 2 1v2l4 2 12 13 9 13 7 16 11 13 10 13 19 38 6 25 3 9 7 14 6 25 3 10 4 5 4 13 2 20 1 44 1 12 9 6 3 3 1 8 1 35v52l-1 37-2 5-9 7-3 6 1 13-1 10-1 55-1 19-5 5-5 3-3 5-1 8-1 35-2 9-3 3-7 4-2 4v18l-1 35-1 61-9 11-13 12-5 5-4 8h19l8-4 9-7 41-2h15l12 3 9 6 14 14 11 14 7 15 4 8 12 13 7 8 7 7 11 14 8 16 8 11 11 13 6 8 3 8 3 10 4 6 8 10 5 6 13 2 13 3 4 4 1 5-3 3-4 1h-20l-26 1-7-3-70-70-7-8-47-47-16-14-5-2-7-1h-27l-11 4-16 9-13 5-13 8-14 6-12 5-5 4 2 4 12 2 55 1 16 2 12 6 13 12 11 12 7 11 2 6 1 16-1 1 1 7 8 8 5 10 5 16 7 9 4 9 1 11v13l2 20 1 4 4 2 6 7 2 6 1 7v51l3 6 6 7 11 8 22 9 19 14 4 6-1 5-3 2-6 1h-31l-18-2-12-11-12-12-10-13-4-10-3-9-9-13-8-21-8-14-4-13-4-20-7-10-7-19-12-22-7-14-10-13-9-10-11-11-5-2-21-1h-20l-11 1h-29l-6 2-1 3 3 5 3 2 19 5 6 4 14 14 9 11 8 11 8 19 5 7 3 9 2 13v31l1 20-1 11-3 6-6 4h-2l-2 5-1 3v17l-2 14-4 5-4 3h-2l-2 5-3 9-1 9-7 8-4 5-7 21-9 12-6 16-6 9-10 11-7 8-39 39-9 7-5 2-13-2h-13l-4 1-2 5-4 7-3 1-24 1-110 2-4 1-8-1h-22l-2 6-4 7-2 1-106 1h-45l-19-1-5-8v-2l-4-2-1-1-15-2-6-3-3-4-1-4v-8l4-10 3-3 5-1 13 1h18l24-1 9-2 6-5 5-5 2-1 34-2 16-3 10-9 6-2 13-1 8-2 10-1 12-11 2-1 19-1 16-4 8-6 5-6 9-2 1-3-5-8-8-8-8-10-8-7-9-10-4-1-31 1-14 2-8 4-6 6-12 2-4 2-13-1-7 3-9 8-4 5-11 8-5 5-16 4-14 9-6 3-10 2h-18l-8-3-3-3-1-7 5-10 9-11 9-10 6-7 5-4 7-8 33-33 10-8 8-5 15-6 10-7 11-5 11-4 11-7 10-4 17-2h16l9 1 14-1 10-6 4-5 3-2 17-4 4-3h2l2-4 5-6 2-1h59l51-1 9-3 3-19 3-6 9-8 1-5-1-3-2-1-18-2-6-4-9-9-7-8-9-10-34-1-8-7-7-8-15-1-8-4-6-7-3-4-5 2-1 2h-2l-2 4-9 10-17 17-8 7-5 4-6 1-10 2-7 6h-2v2l-7 4-5 1h-90l-7-2-8-10-2-2h-29l-44-1-25-1-8-7-7-6-17-3-6-7v-9l-3-9-5-6-10-1-9 4-11 11-5 4h-2l-2 4-10 11-5 5-3 9 1 4 1 17 1 6-2 2-1 12-9 11-3 3h-2v2l-5 4-7 8-13 10-10 2h-21l-6-2-3-5 4-6 10-7 19-19 10-13 3-5 1-27-1-9v-28l3-14 4-6 8-7 8-10 8-6 3-2-1-5-9-5-15-4-11-7-4-3-23-3-7 1-9-1-17 1-10 4-11 7-3 2-12 3-9 6-15 13-7 7-7 8-7 9-2 4 1 6 6 8 8 7 15 15 4 9v55l-2 10-11 8-2 4 1 14-1 6v27l-1 52-1 13-2 4-7 5-4 11-2 16-2 12-8 11-6 9-4 4-4-2-4-5-10-24-5-8-4-14-2-23v-34l1-6-3-7-7-8-6-8-4-5-7 1-3 3-2 19-5 5-7 6-2 5-2 17-1 17v11l2 14 4 8 11 13 10 14 7 14 4 7 10 13 5 5 10 9 2 2-1 5-2 1-41 2h-22l-8-3-7-6v-2l-4-2-7-8-12-11-24-24-7-8-7-10-6-16-8-16-5-15-4-18-7-11-4-16-1-8v-48l1-25 2-13 6-12 6-8 6-16 7-11 3-5 1-3 2-23 6-10 12-13 7-8 9-8 7-8 8-8 8-10 5-6 3-12 5-8 11-11 7-8 19-19 9-7 9-5 16-8 14-8 14-6 14-8 12-5 11-6 14-7 8-1h40l10 2 8 4 9 8 9 2 5 2 7-1 10 3 10 5 4 4 6 2 7 1h28l12-3 6-4 8-9 8-6 7-8 9-9 7-8 10-9 8-9 2-1h6l1 1h7l3-1 2-8 1-8 4-10 5-6 8-7 6-5 8-2 17-1 6-1 9 5 5 8 3 3 7-2 9-12 11-4h2l-3-6-7-4-13-3 2 3v5l-2 1-3-9-5-3-7-6-4-4-5-2h-7l-8 5-10 8-10 2-14 7-5 4-7 8-8 8-6 8-5 8-6 15-10 13-10 9-12 4-17 9-16 5-16-1-8-5-11-9-9-9 2-5 3-4h15l7-1 11 2 11-9 15-14 8-11 7-10 3-11 8-11 9-10 9-11 2-2 2-10 4-10 13-13 6-5 16-5 14-10 12-3h29l14 4 9 7 18 7 6 4 18 18 7 8 9 2 5-2 19-13 16-6 16-13 13-10 8-5 11-4 16-13 10-8 8-6 6-3 8-2 14-10 10-4 17 1h13l9-2 9-5 8-6 15-5 9-6 10-9 8-7 8-10 5-6 4-13 4-6 4-5 5-5 13-17 2-5 1-8v-16l-1-24 1-23 6-11 9-11 4-15 10-14 2-6v-22l-2-9-7-8-5-6-2-15v-36l1-8-1-27-2-13-7-10-4-13-5-22-3-6-6-9-5-21-1-9-4-8-11-13-4-4-11-2h-34l-8 4-11 10-8 7-14 15-10 10-9 7-5 7 15 3 29 1 16 4 11 7 13 12 7 8 5 8 3 9 1 9-1 24-2 9-6 9h-2l-3 9-4 11-7 9-9 10-7 8h-2l-2 4h-2l-2 4-7 7-8 7-7 8-8 7-9 8-4 2-13-1h-12l-6 3-9 10-7 2h-19l-11-2-11-6-6-4-13-4-11-7-9-8-5-7-2-11v-9l2-16 3-5 5 1 7 7 7 8 10 9 8 5 9 2 17 1 14-2-4-8-4-5-8-7-8-8-9-11-10-12-14-28-6-8-2-6-1-8 1-29 4-19 4-10 5-10 5-23 5-10 11-14 8-11 4-5 6-15 9-16 5-12 6-9 12-14 7-8 17-17 13-10 15-6 10-6 9-4 11-2z" fill="#170305"/>
<path transform="translate(1257,318)" d="m0 0 15 3 8 5 14 15 5 6 11 4h6l2-1h10l12 6 9 9 8 7 5 6 2 1v2l4 2 12 13 9 13 7 16 11 13 10 13 19 38 6 25 3 9 7 14 6 25 3 10 4 5 4 13 2 20 1 44 1 12 9 6 3 3 1 8 1 35v52l-1 37-2 5-9 7-3 6 1 13-1 10-1 55-1 19-5 5-5 3-3 5-1 8-1 35-2 9-3 3-7 4-2 4v18l-1 35-1 61-9 11-13 12-5 5-4 8h19l8-4 9-7 41-2h15l12 3 9 6 14 14 11 14 7 15 4 8 12 13 7 8 7 7 11 14 8 16 8 11 11 13 6 8 3 8 3 10 4 6 8 10 5 6 13 2 13 3 4 4 1 5-3 3h-14l-13-1-6-10-10-13-7-11-13-18-28-36-14-19-10-13-2-5h-2l-11-14-1-4-3-1-4-4-3-6-1-3h-2v-3h-2l-3-8-5-4-7-8-4-4v-2l-17-4-12-1-9 3-7-1-1-1h-8v2l-14 4-5 4-8 4-9 3-4 2h-8v2l-7 1-8-16-2-13-1-17 1-10 1-7-1-15 1-11-4-8-5-17-4-9-7-14-4-6v-2h-2l-11-14-7-7-6-4-7-5-12-5-10-4-5-3-6-3v-2l-9-1-7-3-22-4-22-2-9-4-3-4-2 1 2-5 6-3h9 3 3v-2l21-1 32 4h10v-3l-4-2-7-2-7-1-4-1-17-2-18-2-21-1-8 5h-2l-1 7-1 1-17 2-54 3-17 2-12 8h-2l-1 11-3 1v2l-2 1h-9l-8 1v2l-11 4-5 3-4 6-6 2 1 5-1 3-12 5-13 2v2l-15 5h-2l2 8-3 3-3 1-2 7 2 1-1 6h-12l-18-1-16-2-12-5-16-8-15-7-15-6-14-7-10 1-5-5-8-3-10-4h-10l-11 4-4 1v2h-3l-2 4-9 12-2 4-3 3-1 2h-2l-1 5h-2v3h-2l-1 5-5 5-12 13-10 11-3 8-3 10-3 6-8 9-7 8-13 13-2 4-9 7-4 2-7-1-7-5-1-3 1-1h10l11-9 15-14 8-11 7-10 3-11 8-11 9-10 9-11 2-2 2-10 4-10 13-13 6-5 16-5 14-10 12-3h29l14 4 9 7 18 7 6 4 18 18 7 8 9 2 5-2 19-13 16-6 16-13 13-10 8-5 11-4 16-13 10-8 8-6 6-3 8-2 14-10 10-4 17 1h13l9-2 9-5 8-6 15-5 9-6 10-9 8-7 8-10 5-6 4-13 4-6 4-5 5-5 13-17 2-5 1-8v-16l-1-24 1-23 6-11 9-11 4-15 10-14 2-6v-22l-2-9-7-8-5-6-2-15v-36l1-8-1-27-2-13-7-10-4-13-5-22-3-6-6-9-5-21-1-9-4-8-11-13-4-4-11-2h-34l-8 4-11 10-8 7-14 15-10 10-9 7-5 7 15 3 29 1 16 4 11 7 13 12 7 8 5 8 3 9 1 9-1 24-2 9-6 9h-2l-3 9-4 11-7 9-9 10-7 8h-2l-2 4h-2l-2 4-7 7-8 7-7 8-8 7-9 8-4 2-13-1h-12l-6 3-9 10-7 2h-19l-11-2-11-6-6-4-13-4-11-7-9-8-5-7-2-11v-9l2-16 3-5 5 1 7 7 7 8 10 9 8 5 9 2 17 1 14-2-4-8-4-5-8-7-8-8-9-11-10-12-14-28-6-8-2-6-1-8 1-29 4-19 4-10 5-10 5-23 5-10 11-14 8-11 4-5 6-15 9-16 5-12 6-9 12-14 7-8 17-17 13-10 15-6 10-6 9-4 11-2zm-28 646 2 1-2 4-1-4z" fill="#160204"/>
<path transform="translate(897,1085)" d="m0 0 4 1 8 4 5 8 3 3 7-2 9-12 4-2h8l-2 1-2 4-2 2-3 7-3 3-5 9-8 3-8 1v2l-4 4-2 7h-2l-2 10-3 7-2 4h-2l-3 9-4 10-5 21-3 13h-2l-1 4-5 19-4 14-5 22-6 33-2 6-1 10h-2l1 7-1 2-4-1-2-23 2-20 3-11 5-25 1-3 2-17 3-14 2-13v-4h2l1-10 8-20v-7l-6-1-14 2-5-1h-8l-16 5-9 4-10 7-13 11-4 4-1 3-4 4-6 14-4 10-3 7-2 5v8l7 2 2 6 1 15-2 4-6 1-2 6-2 2-1 10v16l3 11 8 11 6 5 5 7 4 2v2l5 2 2 4-3 1 1 6 4 5 16 7 7 7 7 2 8 3 12 2v2l16 1 15 1 2 2h13l4 4 9 2v2l3-1v2l18 2 13 3 12 3 10 1h43l18-3 16-4 17-9 8-6 3-3 4-1 2-5 8-7 4-4h2l7-10 3-5 7-5 6-8 5-1 5 10v2h2v2l5 2 11 6 4 3 10 2 9 6 12 7 10 4 5 5-21 1h-12l-8-7-7-8-15-1-8-4-6-7-3-4-5 2-1 2h-2l-2 4-9 10-17 17-8 7-5 4-6 1-10 2-7 6h-2v2l-7 4-5 1h-90l-7-2-8-10-2-2h-29l-44-1-25-1-8-7-7-6-17-3-6-7v-9l-3-9-5-6-10-1-9 4-11 11-5 4h-2l-2 4-10 11-5 5-3 9 1 4 1 17 1 6-2 2-1 12-9 11-3 3h-2v2l-5 4-7 8-13 10-10 2h-21l-6-2-3-5 4-6 10-7 19-19 10-13 3-5 1-27-1-9v-28l3-14 4-6 8-7 8-10 8-6 3-2-1-5-9-5-15-4-11-7-4-3-23-3-7 1-9-1-17 1-10 4-11 7-3 2-12 3-9 6-15 13-7 7-7 8-7 9-2 4 1 6 6 8 8 7 15 15 4 9v55l-2 10-11 8-2 4 1 14-1 6v27l-1 52-1 13-2 4-7 5-4 11-2 16-2 12-8 11-6 9-4 4-4-2-4-5-10-24-5-8-4-14-2-23v-34l1-6-3-7-7-8-6-8-4-5-7 1-3 3-2 19-5 5-7 6-2 5-2 17-1 17v11l2 14 4 8 11 13 10 14 7 14 4 7 10 13 5 5 10 9 2 2-1 5-2 1-41 2h-22l-8-3-7-6v-2l-4-2-7-8-12-11-24-24-7-8-7-10-6-16-8-16-5-15-4-18-7-11-4-16-1-8v-48l1-25 2-13 6-12 6-8 6-16 7-11 3-5 1-3 2-23 6-10 12-13 7-8 9-8 7-8 8-8 8-10 5-6 3-12 5-8 11-11 7-8 19-19 9-7 9-5 16-8 14-8 14-6 14-8 12-5 11-6 14-7 8-1h40l10 2 8 4 9 8 9 2 5 2 7-1 10 3 10 5 4 4 6 2 7 1h28l12-3 6-4 8-9 8-6 7-8 9-9 7-8 10-9 8-9 2-1h6l1 1h7l3-1 2-8 1-8 4-10 5-6 8-7 6-5 8-2 17-1z" fill="#060202"/>
<path transform="translate(1150,395)" d="m0 0 12 1 6 4 6 5 2 5 7 9 4 4v2l4 2 5 5 6 4 5 3 3-1 4-5 7 1 11 4h9l7-8 2-4 3-1 4 4 2 8 6 12 6 7 4 9-1-4 4 2 3 2 10 1 2 1-1 5 6 2 1-3 1 4-4 5-5 3h-2v7h2l5 11 2 6 5 4 3 4 5 19 4 10 4 5 3 10 3 4v2h2l3 18-3 36-1 13 2 20 3 6 4 5 7 6 1 36-2 3h-2l-2 9-4 6-1 3h-2l-1 7-4 10-3 7-5 4-4 5-3 8-1 10-1 1 1 7 3 7 13 4 21 1 24 4 13 2 19 4 10 5 18 6 15 4h7l6-4 4-6 5-5h3l3-10 3-27 2-2 1 1-1 12-2 20-3 13v8l-1 5 1 11-1 10-1 55-1 19-5 5-5 3-3 5-1 8-1 35-2 9-3 3-7 4-2 4v18l-1 35-1 61-9 11-13 12-5 5-4 8h19l8-4 9-7 41-2h15l12 3 9 6 14 14 11 14 7 15 4 8 12 13 7 8 7 7 11 14 8 16 8 11 11 13 6 8 3 8 3 10 4 6 8 10 5 6 13 2 13 3 4 4 1 5-3 3h-14l-13-1-6-10-10-13-7-11-13-18-28-36-14-19-10-13-2-5h-2l-11-14-1-4-3-1-4-4-3-6-1-3h-2v-3h-2l-3-8-5-4-7-8-4-4v-2l-17-4-12-1-9 3-7-1-1-1h-8v2l-14 4-5 4-8 4-9 3-4 2h-8v2l-7 1-8-16-2-13-1-17 1-10 1-7-1-15 1-11-4-8-5-17-4-9-7-14-4-6v-2h-2l-11-14-7-7-6-4-7-5-12-5-10-4-5-3-6-3v-2l-9-1-7-3-22-4-22-2-9-4-3-4-2 1 2-5 6-3h9 3 3v-2l21-1 32 4h10v-3l-4-2-7-2-7-1-4-1-17-2-18-2-21-1-8 5h-2l-1 7-1 1-17 2-54 3-17 2-12 8h-2l-1 11-3 1v2l-2 1h-9l-8 1v2l-11 4-5 3-4 6-6 2 1 5-1 3-12 5-13 2v2l-15 5h-2l2 8-3 3-3 1-2 7 2 1-1 6h-12l-18-1-16-2-12-5-16-8-15-7-15-6-14-7-10 1-5-5-8-3-10-4h-10l-11 4-4 1v2h-3l-2 4-9 12-2 4-3 3-1 2h-2l-1 5h-2v3h-2l-1 5-5 5-12 13-10 11-3 8-3 10-3 6-8 9-7 8-13 13-2 4-9 7-4 2-7-1-7-5-1-3 1-1h10l11-9 15-14 8-11 7-10 3-11 8-11 9-10 9-11 2-2 2-10 4-10 13-13 6-5 16-5 14-10 12-3h29l14 4 9 7 18 7 6 4 18 18 7 8 9 2 5-2 19-13 16-6 16-13 13-10 8-5 11-4 16-13 10-8 8-6 6-3 8-2 14-10 10-4 17 1h13l9-2 9-5 8-6 15-5 9-6 10-9 8-7 8-10 5-6 4-13 4-6 4-5 5-5 13-17 2-5 1-8v-16l-1-24 1-23 6-11 9-11 4-15 10-14 2-6v-22l-2-9-7-8-5-6-2-15v-36l1-8-1-27-2-13-7-10-4-13-5-22-3-6-6-9-5-21-1-9-4-8-11-13-4-4-11-2h-34l-8 4-11 10-8 7-14 15-3 3h-2l1-11-1-18-1-3v-13l-7-8-8-7-4-5-5-3-8-8 1-3 3-8 5-3zm79 569 2 1-2 4-1-4z" fill="#170305"/>
<path transform="translate(1358,1244)" d="m0 0 14 2 55 1 16 2 12 6 13 12 11 12 7 11 2 6 1 16-1 1 1 7 8 8 5 10 5 16 7 9 4 9 1 11v13l2 20 1 4 4 2 6 7 2 6 1 7v51l3 6 6 7 11 8 22 9 19 14 4 6-1 5-3 2-6 1h-31l-18-2-12-11-12-12-10-13-4-10-3-9-9-13-8-21-8-14-4-13-4-20-7-10-7-19-12-22-7-14-10-13-9-10-11-11-5-2-21-1h-20l-11 1h-29l-6 2-1 3 3 5 3 2 19 5 6 4 14 14 9 11 8 11 8 19 5 7 3 9 2 13v31l1 20-1 11-3 6-6 4h-2l-2 5-1 3v17l-2 14-4 5-4 3h-2l-2 5-3 9-1 9-7 8-4 5-7 21-9 12-6 16-6 9-10 11-7 8-39 39-9 7-5 2-13-2h-13l-4 1-2 5-4 7-3 1-24 1-110 2-4 1-8-1h-22l-2 6-4 7-2 1-106 1h-45l-19-1-5-8v-2l-4-2-1-1-15-2-6-3-3-4-1-4v-8l4-10 3-3 5-1 13 1h18l24-1 9-2 6-5 5-5 2-1 34-2 16-3 10-9 6-2 13-1 8-2 10-1 12-11 2-1 19-1 16-4 8-6 5-6 9-2 1-3-5-8-8-8-8-10-8-7-9-10-4-1-31 1-14 2-8 4-6 6-12 2-4 2-13-1-7 3-9 8-4 5-11 8-5 5-16 4-14 9-6 3-10 2h-18l-8-3-3-3-1-7 5-10 9-11 9-10 6-7 5-4 7-8 33-33 10-8 8-5 15-6 10-7 11-5 11-4 11-7 10-4 17-2h16l9 1 14-1 10-6 4-5 3-2 17-4 4-3h2l2-4 5-6 2-1h59l51-1 9-3 3-19 3-6 9-8 1-5-1-3-2-1-18-2-6-4-9-9-7-8-4-5 1-4 11 6 15 4 22 11 7 5 9 4v2l2 1-2 7-11 12-5 9h-3l-1 11 2 5 5 1v2l5 2 10 6 4 5 11 6 6 4 1 5-2 2-13-1-13-4-9-3-23-3-9-3-8-1-60-1h-43l-7 13-7 7-3 8-4 6-1 5v7l1 3 6 4 5 2 8 7 10 7 11 6 12 7v2l3 1v2h5l6 5 2 3v6l-8 7-8 6-10 6-17 10-11 7-13 11-5 6-1 7h2l3 3 8 4 9 10 4 7 4 10 4 4 5 19 5 7 8 3 22 1h31l8-2 13-4 38-19h3v-2l10-5h3v-2h3l1-2 6-2 1-3 14-10 13-10 5-5 8-11 4-8 4-10 3-12 5-9 4-5 4-4 9-15 8-15 4-9 1-5 2-5h2v-6l2-3v-2h2l-1-4 2-3 2-8 1-5 2-2 6-17 1-5 2-7 1-2 1-12 2-14-2-18-5-13-2-2-3-4-12-30-2-4-5-7h-2l-4-5-2-1v-2l-5-2-7-3v-2l-18-9-24-8-14-3-14 1-10 3v2l-5 4-4 6-6 8-8 10-4 1-3 9-2 2h-5l-1-1v-7l3-10 8-14 5-7 3-13h2v-2l7-5 9-11 4-1 17 7 15 5 5 1v-5l3-2h28l11-1 30-1 17-2 10-1 13-2 8-1 3-1 2-4 6 2 8 6 4 9 13 28 4 13 3 12 4 12 5 7 6 12 5 9 4 18 8 22 8 21 10 23 4 5 7 12v2h2l4 8 5 7 6 4v2h2l2 5 5 2 9 3h10l1-2v-6l-5-5-12-2v-2h-10l-3-3-7-18-5-20-3-15-8-24-4-9-3-13-6-13-4-3 1-16-3-6-4-7-5-21-3-13-9-21-2-12-2-16-3-8-4-5-12-6-16-5-3-1h-9l1 8 1 13-1 3-5-1-6-9-2-5-4-5-8-3-8-1-30-1-6-4 1-10z" fill="#070202"/>
<path transform="translate(1257,318)" d="m0 0 15 3 8 5 14 15 5 6 11 4h6l2-1h10l12 6 9 9 8 7 5 6 2 1v2l4 2 12 13 9 13 7 16 11 13 10 13 19 38 6 25 3 9 7 14 6 25 3 10 4 5 4 13 2 20 1 44 1 12 9 6 3 3 1 8 1 35v52l-1 37-2 5-9 7-1 2h-2v-7l3-13 2-20 1-13v-30l-2-17 3-13v-7l-4-13-6-15-2-3-1-13 1-2-3-27-1-15-4-19-6-16v-3h-2l1-4-2-1 1-2-2-1-1-8-2-12-8-16-4-14-5-15-5-7v-2l-2-1-2-4-2-2-1-6h-2l-1-9-2-1 1-4h-2l-2-5-6-7-2-2-4-7-8-7-6-10-5-5-4-5-2-9-6-7h-2l-4-4v-2h-2v-2h-2l-5-5-9-8-14-8-10-9-7-1-3 5-4 8h-4l-6-14-3-3-7-2-12-13-5-5-12-5-10-2 4 6 3 9-1 4-2 1-17-7-3-3-14-5h-34l-3 1 2 6 7 3 9 10 5 4 4 9 3 5 2 12v10l1 9v12l-2 2-5-1-6-9-5-12-6-11-5-10-1-4-10-2-1-1-18-1-10 4-11 7-6 5-3 5-2 1v12l11-2 7-1-1 4-2 6 7 6v2l5 2 9 10 5 4 6 7v13l1 3 1 21-1 9-10 9-6 5-4 6 15 3 29 1 16 4 11 7 13 12 7 8 5 8 3 9 1 9-1 24-2 9-6 9h-2l-3 9-4 11-7 9-9 10-7 8h-2l-2 4h-2l-2 4-7 7-8 7-7 8-8 7-9 8-4 2-13-1h-12l-6 3-9 10-7 2h-19l-11-2-11-6-6-4-13-4-11-7-9-8-5-7-2-11v-9l2-16 3-5 5 1 7 7 7 8 10 9 8 5 9 2 17 1 14-2-4-8-4-5-8-7-8-8-9-11-10-12-14-28-6-8-2-6-1-8 1-29 4-19 4-10 5-10 5-23 5-10 11-14 8-11 4-5 6-15 9-16 5-12 6-9 12-14 7-8 17-17 13-10 15-6 10-6 9-4 11-2z" fill="#070202"/>
<path transform="translate(443,1305)" d="m0 0h10l20 4 17 5 7 5v2l5 1 10 9 16 16 9 11 2 4h2l5 6 5 5v3l5 5 6 9 2 5-1 2h2l1 5-1 2h2l1 10v20l-1 3h-2l1 4-8 9-7 1-4 4-1-1-1 5-4-5-3-3 4 6 3 7 4 14 2 15h1v15l-2 4-2 15 1 7-1 8-1 1v18l-4 16-7 14-3 19-5 13-3 6-2 2-5-1-4-5-2-5-4-4-2-5-2-15v-13l4-35-1-17-8-16-3-7-2-9-9-19-4-12-1-7v-39l8-1 13 4 8 6 14 7 10 8v2h2l-1-5-4-2-1-4h6l5 5v-2h-2l-9-14-9-8v-3l-6-2-7-3v-2h-20l-14 11-3 5-6 5-9 13-5 11h-2v8l3 11 3 7 2-3 2 9-1 22-3 11-3 9-1 4v9l-2 11-1 9-2-3-3 9-3 16-1 23 3 10 2 8 7 11v2h3l10 15v2h2l4 7 4 2 7 10 3 5v6l-3 2h-8l-18-6-6-4-5-5-9-7-7-6v-2h-2v-2l-4-2-10-11v-2l-4-2-13-12-2-3v-4h-3l-4-9-1-4-3-1-4-10-4-9-2-8v-4h-2l-3-22v-8l4-16 4-6 3-5 4-4 2-4 11-6 6-11v-6h-3v-5l3-2-7 3-13 4-4 3-10 3-3 1-1 3-3 2h-8l-3-3v-27l1-7h2l1-13 5-16 8-16 7-16 8-15 4-20 2-5h2l2-6 7-10 6-9 12-13 8-6 6-2v-2z" fill="#170305"/>
<path transform="translate(1108,1470)" d="m0 0h43l60 1 12 2 5 2 13 2 7 3 7 2 3 2 10 3 11 5 5 5 6 3v2h2l5 9v10l1 5v7l-2 10-2 3-1 6h3l-1 5-2 3h-2v19l-5 4-1 2h-2l-2 4-3 3h-2l-2 7-3 2-1 3-8 3-8 4h-2l-1 3-12 7-9 4-7 2-3 5-9 2-14 8-5 5-9 3-3 3-9 4-3 5-14 4-4 2-5 2h-9l-5 1-5-4v-2l-3-1-3-5v-2l-4-2v-3l-4-2-5-5-7-6v-2l-5-1-8-5-1-1v-6l2-4h2v-2l12-9 13-8 8-4 11-6 3-2h4v-2l4-3h2v-2l9-9 1-5-3-5-6-5-16-8-13-8-6-3-12-9v-2l-4-2-7-3-4-3-1-3v-7l3-9 4-6 2-5 5-5 4-6 4-8z" fill="#551624"/>
<path transform="translate(1199,1377)" d="m0 0 12 6 15 4 22 11 7 5 9 4v2l2 1-2 7-11 12-5 9h-3l-1 11 2 5 5 1v2l5 2 10 6 4 5 11 6 6 4 1 5-2 2-13-1-13-4-9-3-23-3-9-3-8-1-60-1h-43l-7 13-7 7-3 8-4 6-1 5v7l1 3 6 4 5 2 8 7 10 7 11 6 12 7v2l3 1v2h5l6 5 2 3v6l-8 7-8 6-10 6-17 10-11 7-3 1 1-3 5-4 2-6-9-1-9-4-14-9-8-4-7-8-6-4-7 1-31 1-14 2-8 4-6 6-12 2-4 2-13-1-7 3-9 8-4 5-11 8-5 5-16 4-14 9-6 3-10 2h-18l-8-3-3-3-1-7 5-10 9-11 9-10 6-7 5-4 7-8 33-33 10-8 8-5 15-6 10-7 11-5 11-4 11-7 10-4 17-2h16l9 1 14-1 10-6 4-5 3-2 17-4 4-3h2l2-4 5-6 2-1h59l51-1 9-3 3-19 3-6 9-8 1-5-1-3-2-1-18-2-6-4-9-9-7-8-4-5z" fill="#080203"/>
<path transform="translate(1150,395)" d="m0 0 12 1 6 4 6 5 2 5 7 9 4 4v2l4 2 5 5 6 4 5 3 3-1 4-5 7 1 11 4h9l7-8 2-4 3-1 4 4 2 8 6 12 6 7 4 9-1-4 4 2 3 2 10 1 2 1-1 5 6 2 1-3 1 4-4 5-5 3h-2v7h2l5 11 2 6 5 4 3 4 5 19 4 10 4 5 3 10 3 4v2h2l3 18-3 36-1 13 2 20 3 6 4 5 7 6 1 36-2 3h-2l-2 9-4 6-1 3h-2l-1 7-4 10-3 7-5 4-4 5-3 8-1 10-1 1 1 7 3 9v16l-4 11-1 5h-2v7l-3 9-3 5-7 9-6 9-2 1-4 13h-2l-2 5-2 2-3 7-7 7-3 5h-2l-2 5-3 9h-3l-1 6-4 10-7 4-4 5-4 4h-2l-1 7-1 1-17 2-54 3-17 2-12 8h-2l-1 11-3 1v2l-2 1h-9l-8 1v2l-11 4-5 3-4 6-6 2 1 5-1 3-12 5-13 2v2l-15 5h-2l2 8-3 3-3 1-2 7 2 1-1 6h-12l-18-1-16-2-12-5-16-8-15-7-15-6-14-7-10 1-5-5-8-3-10-4h-10l-11 4-4 1v2h-3l-2 4-9 12-2 4-3 3-1 2h-2l-1 5h-2v3h-2l-1 5-5 5-12 13-10 11-3 8-3 10-3 6-8 9-7 8-13 13-2 4-9 7-4 2-7-1-7-5-1-3 1-1h10l11-9 15-14 8-11 7-10 3-11 8-11 9-10 9-11 2-2 2-10 4-10 13-13 6-5 16-5 14-10 12-3h29l14 4 9 7 18 7 6 4 18 18 7 8 9 2 5-2 19-13 16-6 16-13 13-10 8-5 11-4 16-13 10-8 8-6 6-3 8-2 14-10 10-4 17 1h13l9-2 9-5 8-6 15-5 9-6 10-9 8-7 8-10 5-6 4-13 4-6 4-5 5-5 13-17 2-5 1-8v-16l-1-24 1-23 6-11 9-11 4-15 10-14 2-6v-22l-2-9-7-8-5-6-2-15v-36l1-8-1-27-2-13-7-10-4-13-5-22-3-6-6-9-5-21-1-9-4-8-11-13-4-4-11-2h-34l-8 4-11 10-8 7-14 15-3 3h-2l1-11-1-18-1-3v-13l-7-8-8-7-4-5-5-3-8-8 1-3 3-8 5-3z" fill="#070202"/>
<path transform="translate(1076,1194)" d="m0 0h6l8 4v2h2v2l4 2 7 10 5 8 3 8 2 3 3 9 1 9 2 1v10h2v9l-1 3v16h-3l1 4-3 5-1 6-4 4-1 7-5 9-12 10-2 1-2 4-5 3h-11l-5 3-1-5 9-17 2-7-1-15v-8l-2-12h-4l-2 6-4 5-3 3-2 5h-2l-1 9-2 8-7 8-11 12-12 9-3 4-7 3-11 4-21 1h-13l-2-4 2-13 2-3v-8l-6-1-30-1-5-1-1-4 8-16 7-10 10-14 9-12 20-26h2l2-4 13-12 5-5 9-7 13-8 11-4 6-2 5-3 5-2 4-2 10-2z" fill="#360911"/>
<path transform="translate(912,1152)" d="m0 0h33l21 1 17 3 14 1 17 5h7l7 3 10 4 7 2v2l8 1 2 3-1 4-16 7-11 8-9 4-4 2v2l-7 4-4 4-8 6-5 5-17 16-1 2h-2l-2 4-11 11-16 22-11 17-8 11-6 5-3 7h-2l-1 6-6 4-9 2h-10l-15-2-8-5-4-5v-19l6-33 5-24 3-11 5-23 4-16 5-18 6-15 4-5z" fill="#561725"/>
<path transform="translate(444,1306)" d="m0 0 11 1 31 7 7 5 2 5v3h2l5 13 3 7-1 10-2 4h-2l-1 5-5 6-3 4h-2v2h-2l-1 4-6 12-5 8h-2l-2 6-8 10h-2l-1 3h-2l-2 4-4 5-2 5-8 6-3 3h-6l-4 1-1 2-6 3h-2l-2 4-11 9-2 3-14 7-5 4-24 12-10 2-2-1-1-9v-22h2l1-13 5-16 8-16 7-16 8-15 4-20 2-5h2l2-6 7-10 6-9 12-13 8-6 6-2v-2z" fill="#551624"/>
<path transform="translate(1347,698)" d="m0 0 42 4 7 2 12 3 24 8 10 3 16 8 14 8 3 5 2 12v19l-3 27-4 10-5 3-5 6-5 5-3 2h-7l-15-4-10-3-18-8-23-5-29-4-4-1-21-1-13-4-5-10v-5l1-1 1-10 4-10 3-1 2-4 4-2 8-24h2l1-5 3-4 2-7 6-8z" fill="#360810"/>
<path transform="translate(1242,1478)" d="m0 0h9l14 5v2l10 2 11 4 11 9 5 5 5 9 4 22 2 8 2 20 2 17 1 9v15l-3 10-3 6-5 8h-2l-1 3-5 4-9 3v2l-7 6-9 9-5 4-22 13-33 17-16 8-5 2-6 1h-31l-22-1-9-4-5-7-5-19-5-6-4-10-6-8-6-7-10-5v-2h-2v-7l7-8 13-11 29-17 11-7 11-10h2l-2-7-5-5-6-2-3-4 4 1 8 4 6 6 1 4-2 5-7 8h-2v2l-4 3h-2v2l-7 3-22 12-12 7-8 7h-2v2h-2l-1 10 4 3 9 4 8 8v2l4 2 4 3 2 4 3 3 3 5 7 6 10-1 5-1 7-2 4-2 11-2 2-5 11-6 4-3 9-3 4-5 10-5 5-3 5-1 2 1 2-5 4-2 8-3 10-5 7-4 4-4 8-4 7-1 1-4 3-1 1-5 1-2h2l1-3 4-4h2l1-3 4-3v-13l1-6h2l2-6 1-2h-3v-6l3-5 1-15-2-18-3-4v-2h-2l-3-3-4-2-5-5-10-4-12-4-3-2-11-3z" fill="#350810"/>
<path transform="translate(917,1023)" d="m0 0 5 2 9 2 16 6 7 3 6 2 14 6 9 4 13 3 36 2 24 5 8 1 14-2 16-1 5-1h15l3 1 12 1 21 7 11 4 22 5 12 3 12 5 11 6 7 3 10 8 4 5v2h2l9 11 9 12 5 13 3 9 5 19 5 14 3 10 2 12 2 7 1 22-4 12-5 7-3 1-5 7-5 1-7-4-5-9-2-9-2-28-1-3-1-17-2-10-3-9-5-11-2-5-3-7-6-10-6-7v-2l-4-2-5-6-10-7-9-6v-2l-7-2-5-3-8-3v-2l-6-1-7-4-5-2-9-4-8-3-10-4-9-2-32-6h-6l-3 2h-10l-18-2-12-1h-13l-10 2-1 2-6-1-6 1-9-6-3-4-11-4-17-5-6-2-3-3-7-4-6-3-4-4-5-3-7-3-1-5-5-2v-3z" fill="#360810"/>
<path transform="translate(1282,958)" d="m0 0h11l21 4 12 5 13 7 6 4v2l4 1 5 4 9 5 5 5 10 7v2h2l3 5 4 4 3 6 5 6 7 15 4 18 1 33 5 11 2 10 3 6 4 1 3-6 2-17 1-1 1-40 4-31 4-13 3-4h2l-2 105-9 11-13 12-5 5-4 8h19l8-4 9-7 41-2h15l12 3 9 6 14 14 11 14 7 15 4 8 12 13 7 8 7 7 11 14 8 16 8 11 11 13 6 8 3 8 3 10 4 6 8 10 5 6 13 2 13 3 4 4 1 5-3 3h-14l-13-1-6-10-10-13-7-11-13-18-28-36-14-19-10-13-2-5h-2l-11-14-1-4-3-1-4-4-3-6-1-3h-2v-3h-2l-3-8-5-4-7-8-4-4v-2l-17-4-12-1-9 3-7-1-1-1h-8v2l-14 4-5 4-8 4-9 3-4 2h-8v2l-7 1-8-16-2-13-1-17 1-10 1-7-1-15 1-11-4-8-5-17-4-9-7-14-4-6v-2h-2l-11-14-7-7-6-4-7-5-12-5-10-4-5-3-6-3v-2l-9-1-7-3-22-4-22-2-9-4-2-2 1-4 7-2 19 1z" fill="#170305"/>
<path transform="translate(658,1196)" d="m0 0h6l8 4 4 1 11 4 44 7 16 2 7 4 3 11 1 7-4 14v11l-3 16-4 10-1 7v12l-4 10-1 17-7 18-4 10-5 12-1 5-4 7-1 7-4 1-6 15-11 23-7 12-9 11-8 7-4 2h-6l-1-5 12-16 7-10 7-15 1-11 5-15 5-21v-25l5-14 9-17 3-1 1-3 8-6 5-5 3-4 1-3-10-1-5-1h-19v-2l-5-2-6-2v-2h-2v-2l-4-1v-2l-4-1-12-4-13-4-6-4-1-2v-14l6-26v-9l-1-13z" fill="#160204"/>
<path transform="translate(1312,364)" d="m0 0 6 1 4 3v2h2l4 6 13 7 3 3 2 6-5 2v16l3 2 3 10 4 5 3 2h16l3 2 1 8 8 5 2 2 7 3 7 9 9 6 1 11v6l3 7 2 1v2l4 2 1 3 4 2 6 9 2 13-1 4-11 4-19 5-9 9-7 3h-9l-13-2-2 1-10 1-8 2-6-1-13 1-7-2-3-5-5-16-2-9-5-6-4-3-3-10-3-6v-5l7-5 7-3 12-1 6 1 8 2 11 1 7-2 7-1 7-7h3v-2l4-1v-2l4-3 2-9v-5l-21-2h-9l-2-1 1-5 1-4-1-5-9-2-6-3h-8l-12 11-5 5-10 7-12 1-2-4v-10l5-5 8-5 7-9 6-6 4-2v-13l1-10-3-8 2-12z" fill="#360810"/>
<path transform="translate(869,1149)" d="m0 0 6 1 1 1v7l-8 20-2 10-1 4-2 13-5 23-6 19-2 9-6 20-3 8-11 7-7 3-4 1v-2l-5-2-5-5-7-5-4-2-4-6-2-2-1-3h-8l1 12 3 11 9 11 9 9 7 6 1 2v6l-8 3h-9l-8-4-17-17-2-6-1-10 1-20 1-7 4-4h4l1-10-2-14-7-3-1-2v-6l4-10 4-9 6-15 4-6h2l1-4 8-8 10-8 12-8 18-6 6-1h8l6 1z" fill="#561725"/>
<path transform="translate(1108,987)" d="m0 0 27 1 21 1 18 2 27 2 16 2-1-6 7-2v2h7l1 1 11 2 7 2v2l3 1 5 8 8 4 10 4 12 7 16 8 7 4 8 5 7 8 3 3v2h2l7 11 3 3 6 14 3 9 3 10 3 6 4 13 3 8 3 28v13l-2 15-3 7-2 3-5 3-2 12-2 4-5 1-6-3-1 7-1 1h-5l-4-4-1-8-5-1-1-5 1-2h4l-3-10 1-6 3-5 1-26 1-8-2-20-3-16-1-3v-8l-4-2-5-8-5-10-5-3v-2l-5-2-4-4v-2l-5-2v-2h-2l-3-5-6-4-5-5-6-5-3-3-8-3-4-3-17-6-10-3v-2l-5-2-13-3-17-2-23-1-7-1-21-1h-26l-13 1-23-1 1-4 5-3 3-5 10-5z" fill="#350810"/>
<path transform="translate(1406,573)" d="m0 0h17l15 3 2 1v2l5 2 5 5 6 9 4 14 1 6 1 33-3 7-2 2-16 2h-22l-17-1h-14l-14-1-7 1h-16l-4 1h-12l-5-3-2-6-2-9-1-16 3-28 2-10 5-3 10 2 2 1 20 1 10-1 4-3h2l2-4 7-5z" fill="#360810"/>
<path transform="translate(1062,1018)" d="m0 0 12 2 32 4h18l43 4 25 5 17 5 27 4 10 3 3 2 9 2 8 5 5 2 7 6 6 7 5 5 6 10 4 7 4 8 3 4 7 18 2 6 2 23 1 7 3 18-3 5v13h-2v17l-2 13-6 8-5-1-3-5-4-28-2-9-1-10-2-7-3-12-6-15-7-18-5-10-4-9-10-14-5-5-8-6-1-4-6-2v-2l-8-1-9-4-6-3-15-8-21-9-20-4-7-1-32-3-14-1-7 2-10-2-2 1h-11l-5 1-10-2h-17l-11-1v-2l4-1-1-10 11-4 11-3z" fill="#360810"/>
<path transform="translate(977,1085)" d="m0 0 43 2 34 1 31 4 15 3 9 4 8 2 26 6 15 6 10 6 9 4 13 11 5 5 1 3 4 2 6 8v2h2l8 13 7 14 5 12 2 7 5 16 2 16 1 3v8l1 4v8l-2 6-2 1h-7l-12-3-7-6-6-9-4-11-2-7-6-20-4-8-2-5-9-17-1-3-3-3-8-11v-2h-2l-4-5-3-2v-2l-4-2-5-6v-2l-5-1v-2l-7-2-5-3-19-9-15-5-6-3-14-3-21-3-25-2-21-2-22-1h-18l-20 1-11-1-2-1 3-9 5-5z" fill="#360810"/>
<path transform="translate(1239,942)" d="m0 0 21 1 30 3 8 1 5 1 4 2 7 2 3 2v3l-10 1-32-4h-21v2l-3 1h-3-9l-5 2-1 3 4 5 8 3 21 2 17 3 12 3 1 1 9 2v2l7 2 10 6 10 3 12 7 5 4 8 7 11 13 1 3h2l5 8 8 15 4 10 5 17 3 6-1 12 1 16-2 18 2 21 2 8 5 10 1 3h7v-2l10-2 4-2 7-2 11-6 5-3 9-1-2 4-5 1-1 4-17 11-1 6h-2l-1 3-6 1-7-2-9 3-6 12-13 4-4 2h-6l-2-4 3-7 5-5 10-8 1-6-3-12-1-5-3-3-4-14-1-1-3-14-6-21-3-7-2-6-4-9-3-9-12-24-3-2-4-8-7-10-8-6-5-3-16-12-5-4-7-4-8-3-7-5-10-4-16-7-12-2-2-1-31-2-15 1-6 2-1 3-11 2-2-1-1 2v-2h-9l-5-2-4-1-2-2-16-2-7-1-3-1 1-3 12-8 17-2 54-3 17-2 2-7zm-10 22-1 5 2-1 1-4z" fill="#360911"/>
<path transform="translate(1070,505)" d="m0 0h8l3 3 3 2 11 3 4 2 4 6 4 9 4 1 4 5 3 8 1 4 5 1 3 2v2h2l4 10 3 6 1 4 2 4 5 1 8 8 7 4v3l5 2 5 9-1 12h-2l-1 3h-2l-1 3-14 7-4 3h-2v2l-7 3-15 3-8 2-13-3-8-5v-2l-4-2-1-4-4-2-4-10-3-4-5-12-2-4-4-2-4-6-1-4-2-1-2-9-1-4v-8h2l-1-16h-2v-7l3-8 1-11 2-3h2l1-3 5-2 1-4z" fill="#360810"/>
<path transform="translate(1289,1404)" d="m0 0 14 2 7 2 12 6 4 4 6 3 12 9 7 7 5 4 7 11 3 12v16l-4 23-7 20-3 5-2 5-5 8-5 5-5 1-4-5-7-16-3-10-2-6-3-1-6-9-4-7-2-5h-2l-5-6-7-4-7-3-16-8-9-6-7-4v-2l-5-1-3-5 1-9 1-2h3l2-6 12-14 3-6 5-3z" fill="#360810"/>
<path transform="translate(1304,842)" d="m0 0 30 5 25 4 16 4 21 6 9 3 6 3 7 3 7 5v2h2l4 5 8 7 3 5 1 10-5 1 1 6 5 6 3 10v6l-4 10-2 1-9 1-5 4-5 1-8-2-8-5-9-4-5-3v-2l-4-1-1-3-4-1v-2l-5-1v-2l-5-2-6-5-5-3v-2h-3v-2l-4-1-17-11-19-9-8-3-5 1-4 1-4-4-3-1-15-1-1-3 4-13 4-3 4-7 7-9z" fill="#360810"/>
<path transform="translate(1139,513)" d="m0 0 5 1 2 3h4l2 1v2l2 1 3 2 1-3h6l2 1 1-3 2-1 12-1 9-2 6 1 7 5v2l4 2 7 7 8 7 10 13 5 9 2 7v16l-4 17-8 16-12 19-9 11-6 7-11 9-9 8-19 11-18 9-11 1-15 5-2-1 5-3 7-4 15-2 19-9 21-12 9-10h2l2-4 3-1v-2l4-4h2l2-4 7-8 11-18 8-16 3-11 1-17-3-10-12-17-7-8-6-5-5-5v-2l-7-1 3 14 3 9v7l2 5 6 4 3 6 1 8v14l-5 10-13 16-4 5-4 6h-2l-2 4-5 6-3 1-1 3-10 6-7 3-11 3h-9l-4 5-11 1 3-5v-6l-5-2v-2h-10l-2-2 9-1 13-3 11-3v-2l6-4 14-7 4-5h2v-12l-4-8-5-3v-3l-4-2-5-3-8-7-3-1-4-5-1-6-3-5-2-8h-2v-2l-5-2-3-1-3-6-3-7-2-4-5-1-6-12-1-3h2v2h2v2h2v2h2v2l4 2 7 5 7 8 5 3 1-5 3 2v2h2l4 5 2 1-2-4-2-9-3-8v-8h2l-1-3z" fill="#160204"/>
<path transform="translate(912,1116)" d="m0 0h26l36 2 9 1 36 3 32 4 12 3 9 2 20 5 17 3 10 5 6 4v2l4 2 5 5 7 8 8 10 9 15 4 9 5 11 2 10 1 10v9l-6 9-10 6-9 5-4-2-3-5-1-10-4-10-4-11-6-11-1-4h-2l-6-12-8-10-4-4-5-6-9-6v-2l-5-2-5-3-2-1v-2l-6-2-12-6-7-3-20-5-53-5-37-1h-17l-16-2-1-2v-11z" fill="#360810"/>
<path transform="translate(1032,1500)" d="m0 0 13 1 12 3 8 4 4 8v7l-8 11-5 5-3 1-2 4-5 4-7 2-20 2h-8l-24 8-10 4-9 2-16 2-4 3-5 3-7 6-13 7-9 6-8 6-6 4-8 6-10 7-11 3-3 1h-6l-2-1 2-6 5-8 6-8 7-6 3-7 8-8 5-6h2l1-4 13-12 12-9 10-6h2v-2l10-5 10-3 12-8 16-6h4v-2l4-1 1-2 6-1v-2l16-5z" fill="#360810"/>
<path transform="translate(1051,1645)" d="m0 0h17l9 3 4 4v2h2l4 8-1 10 4 4v3l-4-1-6-4-1-5-13-4v2h-2l-1 10-5 6-1 2h-2l-3 15-5 4-4 2-6 1-26 1-42 3-84 2-16-1-9-2-13-8-5-2-1-5 1-1 49-2 15-3 8-6 9-2 5-1 22-1 18-6 10-3 1-3 6-2 18-2 5-1v-2l9-2 12-7 15-5z" fill="#49060E"/>
<path transform="translate(403,1500)" d="m0 0h5l5 5 3 15 2 9v25l4 17 2 9 2 11 2 18 2 9 8 10 7 8v2h2l6 8 4 4v2h2l6 7 6 4 9 12v7l-2 2h-9l-15-5-6-4-5-5-9-7-7-6v-2h-2v-2l-4-2-10-11v-2l-4-2-13-12-2-3v-4h-3l-4-9-1-4-3-1-4-10-4-9-2-8v-4h-2l-3-22v-8l4-16 4-6 3-5 8-7 4-2h3v-2z" fill="#49060E"/>
<path transform="translate(1421,1262)" d="m0 0h9l11 4 13 4 9 6 4 5 3 11 2 18 2 9 9 21 6 28 4 9 3 4 1 3v8l-1 8 5 5 6 14 2 10 5 12 8 24 5 25 4 12 5 13v2l12 1v2h8l5 2 5 5v6l-2 3h-10l-11-4-5-5v-2h-2l-9-9-4-5-2-4v-3h-2l-10-17-3-5-11-25-12-32-4-14-2-10-12-22-5-9-5-15-3-12-4-11-11-24-4-9-3-4v-2h-2l-8-25v-5z" fill="#48060E"/>
<path transform="translate(1030,1499)" d="m0 0h13l15 4 9 4 8 10v2h5l3-7 2-5 1 3v7l1 3 6 4 5 2 8 7 10 7 11 6 12 7v2l3 1v2h5l6 5 2 3v6l-8 7-8 6-10 6-17 10-11 7-3 1 1-3 5-4 2-6-9-1-9-4-14-9-8-4-7-8-6-4-7 1h-26v-1h12l-2-3h-8l-5-4-5-2h-9l-13 3-10 5-28 7-10 7-24 13-3 1v2l-5 3-2-1 11-9 11-6 9-5 6-6 6-3 5-2 12-1 12-3 11-5 13-4 9-2h9l22-3 6-4 8-8h2l2-5 6-8v-7l-4-8-13-5-12-2-24 1v-1z" fill="#170305"/>
<path transform="translate(1486,1150)" d="m0 0h10l14 3 3 2v2l3 1 7 8 1 3 3 1v2l3 1 2 8h2v3h2l4 6v3l4 2 3 3 4 7 8 9v2h2l9 13 10 13 12 16 11 14 10 13 13 18 9 13 10 14 6 9v2h13l10 1v1h-20l-26 1-4-2 20-1-5-4-5-3-15-13-8-7-4-4v-2h-2l-9-11-6-8-4-4-6-8-10-11-5-5-11-8-7-8-5-5-10-9-8-16-5-9-1-8h-2l-6-9-6-7-8-4h-10l-4 2h-9l-4-3v-5l2-4-2-5 1-4h2l1-3 8-5z" fill="#49060E"/>
<path transform="translate(1196,522)" d="m0 0 7 1v2l4 2 5 5v2l3 1 7 8 10 14 4 8 1 6-1 16-4 13-8 16-11 17-9 11-4 4h-2v2l-8 7-9 10-16 9-23 11-15 2-7 4-11 6-11 5h-17l-6-2v-2l-4-2-1-1v-5l3-2h12l6-2h5v4 2l1-2h3v-2h2l-1-3h3l2-4h6l1-3-2-1 2-10 4-7 8-5 9-1 4-5h9l11-3 7-3 8-5h2l1-4 5-3 5-7 4-4 4-6 7-8 9-12 3-7v-14l-2-11-3-4-5-3-2-7-1-8-4-13z" fill="#360911"/>
<path transform="translate(501,1227)" d="m0 0h8l5 2v2l6 2 5 4 6 8 1 3 4 2 10 16 11 16 1 3v10l-6 7h-2l-2 4h-2v2h-2v2l-8 5h-8l-16-7-8-6-16-8-6-5-21-6-6-1h-14l-1-3 6-7 8-10 6-5 7-8 11-10 9-6z" fill="#360810"/>
<path transform="translate(1240,939)" d="m0 0h8l10 1 12 1 4 1h18l23 3 24 3 13 3 16 8 6 4v2l4 2 10 9 5 6v2h2l6 9 2 4h2l6 9 6 11 5 8 4 11 1 4v56l-2 17-3 6-3 1-5-5-2-5-1-8-5-12-1-33-4-17-8-16-6-8-3-5-4-4v-3h-2l-4-4-7-5-4-4-9-5-6-5-3-1v-2l-5-2-10-6-10-5-16-4-12-2h-10l-22 2-20-1-7 3-2 1 2-5 6-3h9 3 3v-2l21-1 32 4h10v-3l-4-2-7-2-7-1-4-1-17-2-18-2-21-1-6 4-2-1zm-11 25 2 1-2 4-1-4z" fill="#360810"/>
<path transform="translate(443,1305)" d="m0 0h10l20 4 17 5 7 5v2h2v2h2v2l4 2 5 6 3 2v2l4 2 7 7 4 5 9 11 3 3v2h2l9 14 6 9 4 11 2 10 1 3v13l-4 9-3 2h-6l-6-4v-2l-3-1v-2l-4-2-11-12-6-4v-2l-5-1-7-4-10-1h-12l-8 7-6 5-1 2h-2l-2 4-8 10-9 11-5 6-9 6-10 5-10 4-10 6-14 6-20 11-15 6-6 1-3-2v-10h1v9l8-1 8-3 15-7 9-6 8-5 7-3 4-5 10-8 4-4 11-5h5l8-7 2-2 2-4 7-9 5-4 7-9v-2h2l1-4h2l2-5 3-6 3-4 4-9h2v-2l4-4 6-8 1-3h2l2-11-1-7-6-12v-4h-2l-3-8-9-5-33-7-9 1-7 1 2-2z" fill="#360810"/>
<path transform="translate(482,1423)" d="m0 0h8l9 3 7 4 5 5 6 4 6 8 7 13 1 4-1 18h2l1 14-1 16 1 12 2 10v14l-2 12v9l-2 11-4 7-2 6-3 7h-3v-13l-8-6-1-2v-13l1-5v-24l-2-6-4-10-6-9-10-24-4-8-4-12-1-7v-35z" fill="#551624"/>
<path transform="translate(1275,1322)" d="m0 0 9 1 16 4 22 8 10 6 3 2v2l5 2 12 12 5 10-1 4-4 3-9 1h-13l-12-2-6-5-12-3h-9l-8 3-6 8h-2v2l-6 3-18 2-5 2h-6l-12-7-4-5 2-13 2-4 4-2 8-10 8-11 5-6h2v-2l10-4z" fill="#360810"/>
<path transform="translate(440,1309)" d="m0 0h14l7 3v8l-12 4-2-1-2 4-5-1-1 4h-2l-2 4h-2l-1 4h-2l-1 4-4 4-1 3-5 5-4 6h-3v3h-2l1 3-4 8v5l-3 6-4 20-1 3h-3l-1 3h-2l-2 10-4 9h-3l1 10-2 7-6 4h-2l-2 5v6l6-1 3 3-3 9-6 8-8 3-6 3h-6l-3-7v-21l2-13 5-16 8-16 7-16 8-15 4-20 2-5h2l2-6 7-10 6-9 12-13 8-6 10-4z" fill="#842731"/>
<path transform="translate(1485,1135)" d="m0 0h15l12 3 9 6 14 14 11 14 7 15 4 8 12 13 7 8 7 7 11 14 8 16 8 11 11 13 6 8 3 8 3 10 4 6 8 10 5 6 13 2 13 3 4 4 1 5-3 3h-14l-13-1-6-10-10-13-7-11-13-18-28-36-14-19-10-13-2-5h-2l-11-14-1-4-3-1-4-4-3-6-1-3h-2v-3h-2l-3-8-5-4-7-8-4-4v-2l-17-4-12-1-9 3-7-1-1-1h-8v2l-14 4-5 4-8 4-9 3-4 2h-8v2l-7 1-1-1-2-10v-5h2v-6l4-4 4 1h16l8-4 9-7z" fill="#070202"/>
<path transform="translate(864 1e3)" d="m0 0h13l4 2 4 5-1 7-7 8-5 2v3l-14 14-5 7-8 7-6 6-3 6-7 10-14 18h-2l-2 4-4 5-7 8-7 9-8 7-7 7-10 8-9 6-2 2-5 1-8-2-12-1-3-2-11-1-10-3-4-4 2-5 3-4h15l7-1 5 1-4 3v2l10 5 5-1 7-4 3-3h2l2-5 18-18 8-10 3-5 3-7 3-11 8-10 11-11 8-10h2l1-5h2v-3h2l1-5h2l2-5h2l2-5 8-11 3-4h3v-2z" fill="#49060E"/>
<path transform="translate(1023,1216)" d="m0 0h6l5 5 2 6 4 6v6l-4 9 1 2 3 1-3 6-4 5-3 3-5 2v2l-2 1-2 4-7 4-4 6-5 5-7 8-4 3-8 3-3 1v2h-2v2l-8 4-2 2h-3v2l-3 1-4 4-11 4h-16l-2-4 6-11 7-8 2-5h2l2-5 1-2h2l2-4 13-19 4-6h2v-2h2v-2h2l2-5 6-7 4-4h2l2-4 6-5 5-5h2v-2l12-8z" fill="#561725"/>
<path transform="translate(1488,1179)" d="m0 0 9 2v2l7 1 8 16 2 1 11 22v4l3-1 4 13 9 5 5 5 8 6 11 7v2l4 2 4 4v2h2l7 8 5 5 1 3 3 1 7 9 7 8v2h2l7 8 15 13 7 6 9 5-1 2h-22l-71-71-7-8-47-47-16-14-5-2-7-1h-27l-11 4-16 9-13 5-13 8-14 6-12 5h-3l1-4 10-8 11-6 14-10 7-4 2 1-8 6-5 5 6-2 7-6 4-4 2-4 5-3 4-2 9-1 1-3 6-3 4-3 5-1 9-1 7-3h22z" fill="#050102"/>
<path transform="translate(594,1182)" d="m0 0h16l10 4 4 4v3h2l1 7-3 11 3 9-5 11-3 3-6 3h-2v2l-5 3-3 3-7 3-10 6h-15l-8-3-4-8-2-2-3-11h-2v-2l-3-1-1-4-3-1v-2l-5-2-1-7 2-4 12-7 20-8 10-6 11-2z" fill="#551624"/>
<path transform="translate(1342,708)" d="m0 0h7l5 1 6 7 7 2 3 3 3 7v3l2 16-1 22-1 9-2 7-7 4h-10l-9 2-5 3-8 1-18-3-2-1v-2h-2l-3-6v-5l1-1 1-10 4-10 3-1 2-4 4-2 8-24h2l1-5 7-11z" fill="#551624"/>
<path transform="translate(1339,1263)" d="m0 0h44l18 2 5 5 4 6 2 8v6l-4 3-23 4-30 2-27-1-8-2-7-1-1-1-14-1-9-3-11-2v-6l4-2v-2l13-8 8-3 14-3z" fill="#360810"/>
<path transform="translate(1088,1616)" d="m0 0 2 1-7 8-1 7h2l3 3 8 4 9 10 4 7 4 10 4 4 5 19 5 7 8 3 22 1h36l-4 2-73 1-24 2-22 1-14 2-4 1-20 1-32 1-45 2h-15l-38 1h-22l-15-2v-1l30 1 75-2 42-3 26-1 8-2 6-4 2-12 2-3h2l2-5 3-3 2-10h2v-2l7 1 7 3 2 6 8 4-3-5-2-2 1-10-3-6v-2h-2l-4-5-9-3h-17l-10 2-6 1 2-2 10-3h26l7 1v-6l-3-8 4-8z" fill="#170305"/>
<path transform="translate(1181,336)" d="m0 0h34l11 4 8 7 7 4 5 5v18l1 9-2 7 1 6 3 6 1 6-7 3 1 5 2 5v8h-2l-2 6-2 2-7 1-6-3-3-6v-2l-6 1-2-5 3-5 1-6-3-9-3-7-2-7-4-13-5-8-3-7-10-9-4-5-7-3-1-1v-5z" fill="#4A070F"/>
<path transform="translate(736,1300)" d="m0 0h2l2 3v11l-3 10 1 11-6 17-9 22 1 4-4 7-1 7-4 1-6 15-11 23-7 12-9 11-8 7-4 2h-6l-1-5 12-16 7-10 7-15 1-11 5-15 5-21v-25l5-14 7-13 11-10 10-7z" fill="#49060E"/>
<path transform="translate(1111,415)" d="m0 0h21l12 5 6 9v2h2l3 7-9 4-9-2-2 1 3 3 1 6 6 5-1 9-2 3-4-1-6-2-5-2-7-6-5-2 1 4 1 2v8l-1 3-9 1v5l1 4 3 1 2 5 2 3-1 4-4 1-11-1-9-3-4 1-2 5-3 1-4-3-5-1-5-2 1-8v-5h2l2-6 7-8h2l1-5 4-6 4-2 3-3h2l2-4 6-6v-5l-2-3v-7l3-6z" fill="#561624"/>
<path transform="translate(388,1508)" d="m0 0h5l-1 6-3 7-2 23 1 11 1 5v15l4 6 1 7v4l4 9 5 3v4l4 1 5 6v4l4 1 3 2v2l3 1 1 3 2 1v2l5 2 8 7 7 10v2h2v2l4 1 5 4 3 5 5 5 5 8v3h-8l-9-4-11-7-12-11-2-1v-2h-2v-2l-4-2-10-11v-2l-4-2-13-12-2-3v-4h-3l-4-9-1-4-3-1-4-10-4-9-2-8v-4h-2l-3-22v-8l4-16 4-6 3-5 5-5z" fill="#832630"/>
<path transform="translate(1175,1277)" d="m0 0 13 3 9 5v2l8 4v2l9 2 5 1 3-1h8l16 4 1 4-11 8-5 2v2l-9 5h-3v3l-11 3-6 3h-11l-16 1-12-1-8 1-3-2v-2l-4-2-1-3v-9l-1-7 4-9 7-9 11-7z" fill="#561725"/>
<path transform="translate(1150,395)" d="m0 0 12 1 6 4 6 5 2 5 7 9 4 4v2l4 2 5 5 6 4 5 3 3-1 4-5 7 1 11 4h9l7-8 2-4 3-1 4 4 2 8 6 12 6 7 4 9 1 2-4-2-9-11-5-5-11-2h-34l-8 4-11 10-8 7-14 15-3 3h-2l1-11-1-18-1-3v-13l-7-8-8-7-4-5-5-3-8-8 1-3 3-8 5-3z" fill="#050102"/>
<path transform="translate(1282,1407)" d="m0 0h14l11 4v2l4 1 4 7v14l-3 2-2 13-6 9-8 6-2 8-2 1-10-1-4-3-6-2-12-8-12-5-3-3-2-3 1-9 1-2h3l2-6 12-14 9-7 7-1v-2z" fill="#561725"/>
<path transform="translate(1171,1267)" d="m0 0 6 2 10 7 14 7 12 7 22 4 14 4 1 4-4 5-12 8-9 11h-2v3l-6 5-4 5-8 7-5 7-6 7-1 1h-11l-9-3-6-3-5-4v-2l-13-2-7-5-5-3-3-4-2-9v-7l4-22 5-12 5-3 6-3 11-7 5-4zm4 10-7 3-12 8-6 8-4 9 1 8v8l3 5h2v2l5 2 12-1 13 1 12-1h8l8-4 9-2v-3l5-1 7-4v-2l5-2 11-8-1-4-16-4h-8l-7 1-8-3h-2v-2l-6-4h-2v-2l-12-6z" fill="#360810"/>
<path transform="translate(1066,512)" d="m0 0 9 2 2 5v4h-2l-1 6 2 10 3 6 5 5 3 9-2 1v23h5l2 2 5-1 2 3-1 3-3 1v4l5 4 9-1-1 10v2l3 1 4 18-3 2-1 4h-5v2h-5l-3-4-1-6h-2l-1 3-5-1-7-9-3-14-1-3 1-4h-2l-2-4h-3l-10-6-3-7-2-1-2-9-1-4v-8h2l-1-16h-2v-7l3-8 1-11 4-4z" fill="#832630"/>
<path transform="translate(899,1043)" d="m0 0v3l-6 4-6 1h4l7-2 1 2-1 2-10 4-13 10-1 1-10 2-14 7-5 4-7 8-8 8-6 8-5 8-6 15-10 13-10 9-12 4-17 9-16 5-16-1-8-5-11-9-4-4 1-2 8 3 11 1 3 2 12 1 9 2 5-2 16-12 12-11 5-5h2l2-4 10-11 4-6 4-5h2l2-4 10-12 6-9 5-4 6-7 10-7 20-2 18-8z" fill="#090303"/>
<path transform="translate(663,1209)" d="m0 0 1 2h7l2-1h17l28 3 11 2 15 1 6 3 1 2v9l-4 7-7 3-14 7-14 2-9-2-16-1-12-2-5-6-5-5v-2h-3l-1-21z" fill="#561725"/>
<path transform="translate(659,1202)" d="m0 0h8l16 3 12 3 26 4 3 1 21 2 6 3 2 4v11l-8 15-5 5-5 10-1 6-8 5-7 4-8 1-9-3-7-8-4-2h-22l-8-3-5-5-1-2v-9l2-15v-18l-1-9zm4 7-2 1 1 21h3l2 5 5 4 3 4 21 3h8l9 2 13-2 22-11 3-6v-9l-4-4-3-1-21-2-22-3-11-1h-17l-7 1h-2z" fill="#360810"/>
<path transform="translate(1304,845)" d="m0 0 23 2 24 4 10 4 1 5-1 10-1 3-5 4h-2v8l3 11-5 3-12-4-13-5-14-8-4-2-1-2-13-4-9-1v2l-3-1 3-9 7-10 6-8z" fill="#551624"/>
<path transform="translate(1023,1503)" d="m0 0 19 1 8 2 6 2 2 5-3 2-2-1-1 3-9-1-13 1-1 1h-5l-3-2-5 3-3 1-4-1-5 3-13 1-2 3h-3l3 1-1 7-2 4-5-1-10 4-7 3-9 1-6-2 1 3h-2v2h-2v2l3 1-1 3h-3l-1 3h-3v2h-2l-1 3-5 2-7 4-6 5-7 1 1-2h3v-2h2l2-6 3-1v-2l8-4h2l2-5-1 1-7 2-10 4-5 4-2 4-5 3h-3v2l-5 2-2 5-2 7h-2l-2 4-1 3-4 1-8 8h-3v2l-4-1 5-6 3-5 2-1 3-7 8-8 5-6h2l1-4 13-12 12-9 10-6h2v-2l10-5 10-3 12-8 16-6h4v-2l4-1 1-2 6-1v-2l5-2z" fill="#551624"/>
<path transform="translate(1051,1645)" d="m0 0h17l9 3 4 4v2h2l4 8-1 10 4 4v3l-4-1-6-4-1-5-13-4v2h-2l-1 10-5 6-1 2h-2l-3 15-5 4-4 2-6 1-26 1-42 3-84 2-16-1v-1l58-2 16-1 12 1 39-3-2-3 3-3 1-5-11-6 1-2h8l1-2 6-1v4l-3 3v2h3l1 4 4-4h3l1-3 2-1 2-4 1-1-6-3 4-2 5-1 3-7 5-1-3 5 1 5h4l1-4 1-2-1-4h2v-2l13-2 18-5 14-1-1-6-2-5-19 1-5-2-10 2-4-1 9-3z" fill="#360810"/>
<path transform="translate(1334,588)" d="m0 0 10 2 6 5 9 5 1 3 6 2 1 4 2 1 3 9 2 3v4l3 1 1 7-2 10-3 7-6 2h-15l-14-3-9-3-3-6-1-16 3-28 3-8z" fill="#561725"/>
<path transform="translate(1350,669)" d="m0 0 33 1 20 2 35 1 16 2 7 3 4 2 8 11 3 9v5l-2 3-8-1-15-6-22-7-19-4-17-2-23-1h-21l-5 2-2-4v-8l2-6z" fill="#360810"/>
<path transform="translate(486,1421)" d="m0 0 10 2 10 5 6 5 11 8 11 13 5 9 4 10 1 6v43l-1 42-2 12-7 15-1 3-2 17-7 14-4 1-4-5-7-11-3-7v-24l2-18 1-2v-21l-5-14-8-16 1-3 7 14 4 6 3 7 1 7v24l-1 3v14l5 4 4 3v9l-1 4 3-1 2-6 5-12 2-5 1-14 1-8 1-13v-7l-3-16v-12l1-13v-11h-2v-21l-5-8-5-9-3-3v-2l-5-2-6-5v-2l-5-2-3-2-8-2h-8l-2 2v-4z" fill="#360810"/>
<path transform="translate(499,1321)" d="m0 0 4 2 8 7 17 17 9 11 2 4h2l5 6 5 5v3l5 5 6 9 2 5-1 2h2l1 5-1 2h2l1 10v20l-1 3h-2l1 4-8 9-7 1-4 4-1-1-1 5-4-5-3-3 4 6 3 7 4 14 2 15h1v15l-2 4-2 15 1 7-1 8-1 1v18l-4 16-7 14-3 19-5 13-3 6-2 2-5-1-4-5-2-5-4-4-2-5-2-15v-13l4-35v-12l2 2v21l-1 2-2 18v24l3 7 9 14 4 1 7-14 2-17 8-18 2-12 1-50v-35l-3-12-6-12-9-10-4-5-7-5 2-1 11 7 6 5v2h2l-1-5-4-2-1-4h6l5 5v-2h-2l-9-14-9-8v-3l-6-2-7-3v-2h-20l-14 11-3 5-6 5-3 4h-2l2-5 9-11h2l2-4 8-7 5-4h12l10 1 12 6 4 4 7 6 7 8 6 5v2l5 2 1 1h6l4-4 2-6v-13l-2-6-3-14-7-12-7-10-2-5h-2l-9-11v-2l-3-1-1-4-3-1-7-8-9-8-5-6-2-1v-2h-2z" fill="#160204"/>
<path transform="translate(1108,1470)" d="m0 0h43v2h46l18 1 13 4 1 4-4 1v2l-13 2-1 2h-8l-5 1h-10l-2-1v2l-16 2h-7v-2l-7 2-14-1-35 3-5 5h-3l-1 4-4 1-3-2 2-11 4-5 5-5 5-10z" fill="#832630"/>
<path transform="translate(601,1181)" d="m0 0h10l9 2 8 4 8 8 5 10v19l-1 9-5 9-2 3h-2l-2 4-6 6h-2v2l-12 8-8 6-6 7-5 3-7-1-10-9-10-14-13-24-7-10-5-5v-8l2-1v9l5 2 4 5 3 3v2h2l3 7 2 5 4 7v2l8 1 4 1h11l13-8 5-2 4-4h3v-2l9-5 3-5 3-9-3-8 3-12v-5h-2l-2-6-12-4-9-1z" fill="#360810"/>
<path transform="translate(826,1162)" d="m0 0h3l2 6 3 1 1 12-3 5-7 13h-3l-2 5-7 2-2 6-4 3-3 8-3 5-6 3-11 3-4-4h-9v-10l3-7 4-10 6-14 3-4 5-3 3-1v-2l5-3 6-3 10-6h2v-3z" fill="#822630"/>
<path transform="translate(1049,1299)" d="m0 0h5l-2 18-7 8-13 13-11 10-5 5-9 4-4 1-21 1h-13l-2-4 2-13 4-5 9-5 5-1h12l4-2 4-9 10-6 15-4 13-9z" fill="#FEFEFE"/>
<path transform="translate(1424,1264)" d="m0 0 8 1 7 4 5 10h2l1 10 2 6 2 1v2l5 1 6 6 2 9 3 12h2v2l3 1 4 6 4 10 3 20 1 6 5 11v2l-7-2-1 3-5-1-4-5v-2l-4-1-1-3h-2l-6-13-4-16-2-9-13-26-2-8-10-15-5-14v-7z" fill="#842731"/>
<path transform="translate(1115,412)" d="m0 0 12 1h8l13 8 8 9 5 4 3 5 1 5-4 10v6h2l-1 7-1 5 1 12-3 5-4 3-10 3h-9l-15 2h-11l-3-2 7-2-1-5-2-2-1-4-2-1-2-5 1-4 9-1v-11l-2-4 1-2 6 2 3 2v2l4 2 9 2 2 2h3l2-7-1-5-5-4-1-8-3-1 4-2 8 2 7-3v-4l-1-3h-2l-6-10-12-5h-21l-4 1 4-4z" fill="#360810"/>
<path transform="translate(1046,1647)" d="m0 0 6 1 3 1 16-1 4 4 2 5-1 3-6 1-10 2-16 4-13 2h-7l-6 3-4 5-7 2-5-1-1-2h-5l-19 10-19 2-8 2-7 2-3 1-3-3-4-1-1 2h-12l-9-2 2-4 5-3 10-2 22-1 18-6 10-3 1-3 6-2 18-2 5-1v-2l9-2 12-7z" fill="#561725"/>
<path transform="translate(1071,508)" d="m0 0 4 1 1 2 3 1 2 7 2 1v-2h2l1-3 6-1 4 2 3 7 1 11 1 2v6l-4 10h-2l4 9 4 8 2 9-1 7v3l10 3 7 2 1 5h5l3 3-1 5-7 6h-2l1 10-2 6v5l-2 5-6 1-11-1-5-4-6-4 3-1h2l1-2h2l4 9 5 1v-2h5l1-5 3-1-3-10-2-8-3-3v-5l2-5-4 1-1 2v-2l-5 1-5-5 1-5h3l-1-5-5 1-2-2-5-1-1-13v-10l2-2-3-8-5-5-3-6-2-11 2-5h2l-2-8-9-2-5 1 3-3z" fill="#561624"/>
<path transform="translate(1152,368)" d="m0 0h8l17 5 4 4 5 10 5 8 5 11 6 15 1 4-1 2-6-1-10-8-10-9-5-6-9-6-12-1-8 1-4 3-10 3h-8l-1-2v-10l4-4 4-5 11-8 5-3z" fill="#48060E"/>
<path transform="translate(1322,809)" d="m0 0 21 3 24 6 17 4 17 6v2l7 1 12 4 5 3 6 5v6l-1 1h-9l-35-11-24-5-11-1-2-1h-11l-6 1v2l-11-3-9 1h-5l-1-1 1-11 4-8 4-3z" fill="#370810"/>
<path transform="translate(981,1536)" d="m0 0 1 2 4 1h-5l-1 3h-2l-1 4-4 2-5 2-7 2v2l-3 2-5-1-4 1 1 1h5l1 5h-7l-2 4-6 5-5 5-6 4h-2v2l-13 7-5 6-7 4-4 5-6 4-8 6-7 3-10 3h-6l-2-1 2-6 5-8 6-8 3-2-2 4-3 4 3 1v-2l5-3 3-3h2l1-3h4l-1-3 4-4h2l1-7 3-5 5-2v-2l7-4 3-5 11-6 4-1 7-1v-2l3 1h-2l-2 5-7 4h-3v2l-3 3v2h-2v2h-2v2l4-1 9-7 4-2 4-1 1-2h2v-2l3-1 1-2h3v-3l-2-1v-2h2l1-5 7 1 9-1 10-5z" fill="#49060E"/>
<path transform="translate(1104,989)" d="m0 0h13l34 2 7 1 31 2 24 3 12 2 17 4 2 4 3 1v3l5 1 1 4-4 3-14-3-4-2-14-3-23-3-16-2-78-2v-3h-7l-6-2-1-4 8-3z" fill="#551624"/>
<path transform="translate(403,1500)" d="m0 0h5l5 5 3 15 2 9v25l4 17 2 9 2 11 2 18 2 9 8 10 7 8v2h2l6 8 4 4-1 2-4-3v-2l-4-2-11-14-7-5-2-5-3-1-8-16v-4h-2l-7-8-3-6-2-8h-2l-2-4v-30l1-9-2-1 1-1 1-16-2-7v-4l-6-1 4-3z" fill="#360810"/>
<path transform="translate(695,1386)" d="m0 0h1l-1 8-4 12-1 11-8 17-10 13-8 11v4h6l9-6 9-10 7-11 8-16 8-18 3-8 5-1 1 2 1 17 1 6-2 2-1 12-9 11-3 3h-2v2l-5 4-7 8-13 10-10 2h-21l-6-2-3-5 4-6 10-7 19-19 10-13 3-5 1-10 2 1 3-9z" fill="#090203"/>
<path transform="translate(855,1235)" d="m0 0 1 3-8 35-3 15-3 17-5 7-5 3-2 3-9-1-1 5-6 7-2 1h-23l-9-11-5-5-6-8-3-11v-16l1-10 3-2-1 26 2 12 7 8 10 10 8 4h9l8-2-2-8-15-14-9-10-2-4-3-17 1-5h8l4 6 2 5 5 2 8 6 4 4 6 4 9-3 5-4 5-3h2l1-6 5-14 6-24z" fill="#360911"/>
<path transform="translate(1239,942)" d="m0 0 21 1 30 3 8 1 5 1 4 2 7 2 3 2v3l-10 1-32-4h-21v2l-3 1h-3-9l-5 2-3 5-2 1-1 5 2 1v2h-27v-2h-16l-41-2-12-1 1-4 4-2 17-2 54-3 17-2 2-7z" fill="#561725"/>
<path transform="translate(917,1023)" d="m0 0 5 2 9 2 16 6 7 3 6 2 14 6 9 4 13 3 36 2 21 4 1 3 4 1 2 1 1 3 3 3-3 1h-35l-8-1v-3h-18l-16-1-8-3-17-5-6-2-3-3-7-4-6-3-4-4-5-3-7-3-1-5-5-2v-3z" fill="#49060F"/>
<path transform="translate(604,1180)" d="m0 0h9l13 4 7 3v2l4 2 4 3v2l2 1 2 7v17l-1 15-4 14-3 7-4 4-21 10-11 7-8 8-21 1-5 5-6 8-4 3h-2v2l-8 8-10 5h-9l-6-3-9-5-20-10-12-8v-2l-7-2 4-1 5 2 5 4 16 8 10 7 14 6h8l6-4h2v-2h2v-2l4-4h2l2-4 3-3v-10l-3-6-9-13-8-13v-3l11 13v-2l5 2 4 1 1-7 2 2v5l-2 4 1 2h5l-4-13-7-14-6-11 1-3 8 13 9 17 11 14 7 6 7 1 8-6 5-6 15-10 3-1v-2l8-7 2-3h2l2-4 4-9 1-8v-19l-5-10-7-7-8-4-16-3z" fill="#160204"/>
<path transform="translate(484,1424)" d="m0 0 5 1 12 6 6 8 2 4v3l-3 2v9l3 8 2 6 2 11-1 5 2 11-1 6h-2l1 4-3 6h-2v2l-4-1-4-6-3-9-5-12-4-8-4-10-2-10v-34z" fill="#842731"/>
<path transform="translate(916,1148)" d="m0 0 13 1 40 1 35 4 28 6 3 1v2l9 3 11 4 6 5-1 5-15 9-9 5-8 6-10 5-6 4h-2v2l-6 4h-2v2h-3l-2 4-9 8h-2l-1 3-8 7-8 9-7 6-8 10-7 10-8 11-10 16-9 13-6 15-3 3-3 1h-30l-16-5-5-6-1-2-1-12 2-12 2-11 6-32 6-23 2-13 3-11 3-4-1 6-7 32-4 15-5 26-2 15-1 5v17l5 6 10 4 11 1h10l9-2 4-3h2l1-6 2-1 3-7 4-4h2l2-4 7-10 11-17 6-8 10-13 11-11 1-2h2l2-4 8-8 8-7 4-2 2-4 8-6h2l1-3 5-3h2v-2l7-5 8-3 9-7 9-4 7-3-1-5-8-2v-2l-10-2-7-3-9-3-8-1-14-4-14-1-17-3-32-1h-22l-16 2-4 7-4 9-1-3 6-14 3-3 13-2z" fill="#360810"/>
<path transform="translate(1112,416)" d="m0 0h9l3 1 1 6-1 2 6 1-1 5h-5l-2 4-2 5v3l2 1 3 5 3 3-3 3-10-7h-4l-1 3h-3l-2 6-2 3 6 1v5l-2 2h-5l-1 8 6 9 1 6-1 1h-9l-16-4-1-1h-7l-3-1-2-3 1-6 3-6 5-5 3-1 1-5 4-6 4-2 3-3 6-3 7-5h3v-6l-1-4-4-1-2-4 4-6z" fill="#842630"/>
<path transform="translate(951,1088)" d="m0 0h28l46 1 38 4 7 2 1 2 6 3v2l9 1 4 2v3l-3 1-23-3-12-1-12-2-37-2-64-1-1-3 2-5 3-3z" fill="#561725"/>
<path transform="translate(594,1183)" d="m0 0 13 1 3 1 1 4-3 6h-2l-2 7-4 2-4 4-7 5-12 5-4 2-12 3h-6l-12-3-4-4 1-8 11-7 8-4 14-5 10-6z" fill="#842731"/>
<path transform="translate(435,1311)" d="m0 0 8 1-1 6-3 2h-4l-2 4-8 4-8 6h-2v2h-2v2h-2l-2 5-3 1-2 4-5 6-1 3-3 3-3 5h-2l-1 7-1 14-1 8-2 2 1 2h-3l-1 4h-3v6h-3l-2 5v5h-2l-1 10-1 2h-2l-2 8h-2l-2 4h-2l-2 14 1 5-4 1v3h-4v-10l1-9 5-16 8-16 7-16 8-15 4-20 2-5h2l2-6 7-10 6-9 12-13 8-6 4-2z" fill="#AC4142"/>
<path transform="translate(1266,1327)" d="m0 0h15l9 3 7 2 5 3 1 4 5 1 2 1v2l-4 1h-14l-1-3-10 4-9 2-4-1v2h-5l-1 5-2 1-3 7-11 11h-9l-3 1-1-2-5-2v-8l11-14 4-5 6-9 9-4z" fill="#842730"/>
<path transform="translate(1272,1324)" d="m0 0 12 1 20 6 11 4 3 5 4 2v2h2l7 7v4l-5 2h-9l-3-2-13-1-10-1-3 1-1 3-12 6-2 4-8 6-7 3-8 2h-10l-7-2-6-3-1-3 1-7h1l1 6 5 2h3 7l2 1 1-3 8-7 3-4 2-5h2l1-5h5v-2l7-1 9-2 3-2h4l1 2h14l2-1 2 1v-2l-7-2-1-4-5-2-7-2-9-3h-15l-13 4h-3l5-4 10-3z" fill="#561725"/>
<path transform="translate(1329,1265)" d="m0 0h55l13 1 5 3 1 5-2 4-15 2-4 1h-12l-11-1-5 1-4-2-7 2-8-1h-8l-8 1-5-2-6 1h-17v-4l6-5 12-4z" fill="#561725"/>
<path transform="translate(502,1228)" d="m0 0 8 1v2l6 2 7 7-1 6-3 3-17 3-13 2-2 2-9 3-1 2h-2v3l-6 3-4 4-16 8-7 1v-4l4-4 8-10 6-5 7-8 11-10 9-6 9-4z" fill="#832630"/>
<path transform="translate(774,1263)" d="m0 0h4l4 13 3 11 5 8 11 12 11 10 1 2v6l-8 3h-9l-8-4-17-17-2-6-1-10 1-20 3-7z" fill="#FEFEFE"/>
<path transform="translate(1303,481)" d="m0 0 5 2 3 2 1 6-1 9v6l3 6 6-1v-2l7-1 1 5-1 1v5l4 1v2l3 1 6 7 4 5-2 5-9 3-2 1h-15l-2-4h-2l-5-16-2-9-6-7-3-11-2-6 1-6z" fill="#551624"/>
<path transform="translate(527,1454)" d="m0 0 4 4 3 5 1 9 1 4-1 2 1 20 1 6v15l1 19 2 1 1 17-1 17-4 11-4 8-2 15-5 13-1 1h-5l-5-9-4-5-2-14v-6l1-3v-5l9 6 2 2v9l-1 4 3-1 2-6 5-12 2-5 1-14 1-8 1-13v-7l-3-16v-12l1-13v-11h-2v-21l-3-4z" fill="#49060E"/>
<path transform="translate(997,1511)" d="m0 0h6v3 2l-9 4-5 1v2l-13 7-8 5-10 4-5 1v-2h-5l-4 7-7 6h-2v2l-7 2-10 4-5 4-2 4-5 3h-3v2l-5 2-2 5-2 7h-2l-2 4-1 3-4 1-8 8h-3v2l-4-1 5-6 3-5 2-1 3-7 8-8 5-6h2l1-4 13-12 12-9 10-6h2v-2l10-5 10-3 11-7 9-2 13-5z" fill="#832630"/>
<path transform="translate(1439,1007)" d="m0 0h2l-2 105-9 11-7 6-1-2 4-8 1-8 1-56 4-31 4-13z" fill="#080203"/>
<path transform="translate(681,1212)" d="m0 0 17 1 30 4 3 1 15 1 3 7h-3v2l-12 2-9 2-10-1h-31v-2h-7l-5-3v-2l-3-1v-7l5-3z" fill="#842731"/>
<path transform="translate(909,1118)" d="m0 0h10l23 2h11l21 1 11 2 4 1 7 7-1 2-10 1h-59l-18-1-1-1v-11z" fill="#551624"/>
<path transform="translate(1283,1408)" d="m0 0h8l3 1 1 4-5 7-3 2h-3l-2 4-3 5-4 7-5 2-1 4-3 1-1 4-10 3-5 1-5-5 1-9 7-11 11-12 7-5z" fill="#852731"/>
<path transform="translate(1333,726)" d="m0 0 4 2-1 5-4 10 3 3 5 12 1 2-4 8-7 3h-3l-1 7 5 9v2l-9 1-5 1-5-3-5-5v-5l1-1 1-10 4-10 3-1 2-4 4-2 3-9 4-11h2z" fill="#7F252F"/>
<path transform="translate(1057,1361)" d="m0 0 3 1-1 4-1 3h-2v2l-12 9-5 3h-2v2l-11 3-7 2-10 2-7-1h-21l-8 1-1-6 7-6 8-2h6l4-2 18-1h12l7-2 4-1 2-3 4-2 9-3z" fill="#350810"/>
<path transform="translate(392,1505)" d="m0 0 4 1 1 2-2 11 2 2v6l-2 10-1 7 2 8v17l2 4v7l1 4 1 7 3 3 1 3 2 1v3l4 2 4 4v2l3 1 2 4 4 4 6 8 1 3 3 1 4 6 3 1 7 10 4 4 1 4h2l2 4-4-2-5-3v-2h-2l-6-9-10-10-4-2v-2l-3-1-1-3-2-1v-2l-4-2-3-1-2-5-4-5-3-1v-4l-5-2-2-2-3-8v-4l-1-7-4-6v-19l-1-1-1-12 1-15 1-8 5-12-9 2 3-3z" fill="#561725"/>
<path transform="translate(1331,592)" d="m0 0h6l6 4 4 5 1 7-1 14-1 9 1 11-4 4-10 1-5-5-2-9-1-1 1-13 2-22 1-4z" fill="#812630"/>
<path transform="translate(881,1345)" d="m0 0h25l5 5-2 8-4 8-2 3-10 1-13-3-3-1h-12l-2-2v-10l3-7z" fill="#AE4141"/>
<path transform="translate(985,1665)" d="m0 0h18l-2 4-5 2v3l-9 5-3 3-7 4-19 2-8 2-7 2-3 1-3-3-4-1-1 2h-12l-9-2 2-4 5-3 10-2 22-1 18-6 10-3 1-3z" fill="#581725"/>
<path transform="translate(868 1e3)" d="m0 0h10l10 4 8 3 5 4v2l6-2 7 1 15 8 18 7 8 4 1 2-9-3-11-4-7-3-7-1-5-2h-2v3l5 2 2 5 9 4 6 4v2l6 2 7 4 3 3-7-1-1-3-12-1-3 2-3 5-7-1-3-4 3-10-1-5-2-4-8-7-1-3-10-2-7 1-7 8-4 5-12 8-10 9-7 7-8 7-5 4 2-4 11-11h2l2-4 9-10 6-7h2v-3l8-6 4-6v-5l-3-3v-2l-13-2z" fill="#360911"/>
<path transform="translate(1341,1392)" d="m0 0h9l8 3 12 9 6 11 1 10v2l-9-1-6-3-5-4-7-4-16-9-8-8 1-3z" fill="#360911"/>
<path transform="translate(1319,814)" d="m0 0h15l5 1 13 3 10 2 7 1 5 3 5 2 6 3v2l4 2v3l-10-1-17-3-16-3h-28l-7 1-3-5 1-7 6-3z" fill="#561725"/>
<path transform="translate(1127,658)" d="m0 0 5 1 3 3-1 9-6 7-10 7-4-2v7l-3 5-5 2v2l-5 2-12 2h-7l-9-3-3-3v-5l3-2h12l6-2h5v4 2l1-2h3v-2h2l-1-3h3l2-4h6l1-3-2-1 2-10 2-4z" fill="#852731"/>
<path transform="translate(1245,332)" d="m0 0h8l10 5 5 3 5 8 4 4 1 4-2 15-1 2v6l4 8 3 4-1 6-10 1-3-5-3-6v-9l-1-7 2-4-1-5-4-6-8-8-3-4-2-6-3-4z" fill="#360911"/>
<path transform="translate(875,1097)" d="m0 0h13l3 2 4 3 2 7v6l-4 5-11 5h-23l-6-3v-5l10-7 9-11z" fill="#170305"/>
<path transform="translate(1180,337)" d="m0 0 23 1 5 2 3 7-1 2 6-2 1-3 5-1 1 3h2l1-2 2 7h2l1 5h3v-2l5 1v2l3 1v14h-3l-4-4v-2h-6l-12-3-6-8-2-5-2-1 1 11-3 2-5-5-4-2v-2l-4-2-4-5-10-5v-3z" fill="#842731"/>
<path transform="translate(1149,427)" d="m0 0 4 2 7 8-2 4-5 5-2 9v8l-4 6-6 3-10-6-6-1 1 6h-3l3 1-2 7v9l-3 5-5 3h-9l4-2 3-1-1-5-2-2-1-4-2-1-2-5 1-4 9-1v-11l-2-4 1-2 6 2 3 2v2l4 2 9 2 2 2h3l2-7-1-5-5-4-1-8-3-1 4-2 8 2 7-3v-4l-1-3h-2z" fill="#49060E"/>
<path transform="translate(964,1044)" d="m0 0h6l8 5 11 5 10 2 13 4 4-1 1-2h23l16 4 2 6-2 1h-24l-46-6-9-4-10-2-12-4-2-2v-3z" fill="#842731"/>
<path transform="translate(1313,366)" d="m0 0 7 1 3 5v7l2 4 7 2 6 11v7l-3 7h-2l-3 10-3 2-8 1-4-15v-13l4-8h-2l-4-5-3-10z" fill="#49060E"/>
<path transform="translate(1164,369)" d="m0 0h6l7 2 5 2 2 7 8 14 6 13 6 11 5 1 1-1v-12l-1-14-1-16 2 2 3 11 3 8 4 10 1 6-4 12 1 2h6l5 10-11-3-5 1-4 5-6-2-5-4-7-5-5-6-5-5-7-9 1-3 8 9 13 10 6 2-1-6-7-18-8-15-5-8-3-5-8-3-6-2z" fill="#160204"/>
<path transform="translate(1404,952)" d="m0 0 7 1 5 3 8 1h8l6 4 4 4 1 6v11l-3 8-3 1-7-3-5-5-9-10-5-5v-2l-3-1-4-6-1-6z" fill="#360911"/>
<path transform="translate(1118,992)" d="m0 0h9l2 1h16l16 2 5 1 18 2-2 3 1 3h-44l-29-1-22-3-2-2v-3l2-1 14-1v1l5 1v-2l11 1z" fill="#842630"/>
<path transform="translate(1451,1154)" d="m0 0h6l-2 4-5 1-1 4-17 11-1 6h-2l-1 3-6 1-7-2-7 3h-4l-1 3-12 6-4 5-4 1-4-2 1-7 10-7 3-3 4-3 4-1 3-3 9-1v-2l10-2 9-5 11-6 5-3z" fill="#4A060E"/>
<path transform="translate(520,1236)" d="m0 0 4 2 6 10 1 4-2 6-6 4-5 1h-13v-2l-4 2-8 1-8 2-7 3-9 4-6 4-5 2-6-1 1-2 14-7 2-3 6-2v-3h2l1-3 10-4 1-1 18-3 14-2 1-8z" fill="#551624"/>
<path transform="translate(1516,1450)" d="m0 0 2 2 4 13 5 25 4 12 5 13v2l12 1v2h8l5 2 5 5v6l-2 3h-10l-11-4-5-5v-2h-2l-9-9-4-5-2-4v-3h-2l-10-17-3-5 1-2 5 7 5 5 3 4h4v-7l-4-23-4-13z" fill="#360811"/>
<path transform="translate(1038,1024)" d="m0 0h27l12 2 29 3h7l3 2-5 4-31 2h-24l-14-1-7-6-1-4z" fill="#832630"/>
<path transform="translate(895,1199)" d="m0 0 22 1 3 1h16l2 1-1 5h-3v2l-6 1-1 3-2 1-21 3h-15l-9-2-1-5 5-6h2v-2z" fill="#842731"/>
<path transform="translate(1489,1153)" d="m0 0h11l8 1 8 4 7 8 5 9-1 4-4 1-1 2 4 1 2 5-5 1 4 6h-3l-6-7-2-4-2-1v-2l-6-1-1-3h-2l-3-5-3-3-2-4-10-6-1-2h2z" fill="#822630"/>
<path transform="translate(1333,555)" d="m0 0 11 2 15 2 6 5 9 4-1 5-2 1-35 2-3 1-4-1-2-3-2-12v-3z" fill="#380911"/>
<path transform="translate(1471,832)" d="m0 0h2l-1 16-1 55-1 19-5 5-5 3-3 5h-2l1-11 3-14 4-26 2-17 4-28z" fill="#0B0304"/>
<path transform="translate(587,1185)" d="m0 0h14l2 4-6 4-6 1v3l-4 2h-3l-1 3-7 2-4 4h-3v2h-11l-3 2-2 1-2-1v2l-4-1-1 3h-4v-2h-2v-6l11-7 8-4 14-5 10-6z" fill="#932831"/>
<path transform="translate(1106,1472)" d="m0 0h30l28 1 36 1 11 1-1 2h-7l-5 1-1 2h-5l-5 2-2-1h-6l-4 1h-14l-9-1h-19l-11-1h-11l-7 1 1-7z" fill="#942831"/>
<path transform="translate(1132,659)" d="m0 0 7 2 3 2 13 2 4 3-2 5-3 1-2 4-11 7-15 3-3 4-7 3-18 9h-17l-6-2v-1l14 1 12-2 5-1v-2l5-3 2-4 1-7h4l4-2 9-7 3-6v-6z" fill="#49060E"/>
<path transform="translate(1267,896)" d="m0 0h12l18 3 25-1 4 3v5l-4 4-9 1-11-1-26-1-10-2-4-1 1-6z" fill="#551624"/>
<path transform="translate(1133,966)" d="m0 0 1 2 38 1 31 2v2h6l-1 2-15 1-6 2-1 3-11 2-2-1-1 2v-2h-9l-5-2-4-1-2-2-16-2-7-1-3-1 1-3z" fill="#370810"/>
<path transform="translate(867,1006)" d="m0 0 6 1-1 5-12 13-3 5-2 3h-3l-1 5-4 6h-2l-1 3-3 3h-3l-1-6 3-3 1-5-6 2-1-5 3-1 2-5 8-11 3-4h3v-2z" fill="#832630"/>
<path transform="translate(1275,1322)" d="m0 0 9 1 16 4 22 8 5 3 5 5 3 4h-2v2h2l4 5v2h2l-2 4-6 1h-11l-14-4h-18l-6 4-13 10-7 5-12 3-11 1-8-2 1-2 10 1h6l9-3 7-3 7-5 3-5 11-5 4-4 10 1 13 1 3 2h9l5-1-2-5-5-4v-2h-2v-2l-5-2-2-5-9-2-15-5-7-2-12-1-10 2-7 1 4-3 6-2z" fill="#49060E"/>
<path transform="translate(1284,381)" d="m0 0h3l1 4 9 3 3 3v2h2l2 7v5l-5 6-7 9-7 7-4 2h-5l2-9 3-9 4-5v-9z" fill="#020101"/>
<path transform="translate(1193,1256)" d="m0 0 5 1 5 5 8 4 7 6v6h3l7 9v3h-9l-8-3-13-7-13-8-3-6 3-1 9 2z" fill="#020101"/>
<path transform="translate(1445,1275)" d="m0 0 8 3 1-3h5l6 7 3 8v10l-1 6 2 9v6h2l10 21 1 9-2-1-3-9-4-9-4-4v-2h-2l-3-7-3-14-6-6-4-1v-2l-4-2-1-7v-8h-2l-1-3z" fill="#551624"/>
<path transform="translate(1459,1331)" d="m0 0h7l5 6 3 8 3 4 2 14v6l1 5v6l-4-1-3-4v-2h-2l-3-7-2-5h-4l-4-8v-15z" fill="#952932"/>
<path transform="translate(380,1517)" d="m0 0 2 1-2 10-2 5-2 1v8l1 10 1 4 1 6 2 1v16l1 4-1 3 2 8v4l-4-1-6-13-2-8v-4h-2l-1-19 2-20 4-9z" fill="#AD4041"/>
<path transform="translate(736,1300)" d="m0 0h2l2 3v11l-3 10 1 11-6 17-9 22 1 4-4 7-1 7-4 1-6 15-11 23-2 1 3-9 4-8 7-17 8-20 5-10 6-16 5-14v-16l-1-10-7-1v2l-9 5-2 4h-2l-2 6-3 2-3 7-2 7v23l-2 9h-1v-31l5-14 7-13 11-10 10-7z" fill="#390810"/>
<path transform="translate(1152,368)" d="m0 0h8l7 2v2l5 2v4h2v7l-3 1-3-1-3-6-3-1-8 1-3 4-11 4-12 7-6 1-1-5 6-8 11-8 5-3z" fill="#AC4041"/>
<path transform="translate(842,1326)" d="m0 0 3 1 2 5 1 18-2 11-3 3-9-1-6-4-3-3 1-6 8-16 5-7z" fill="#44060E"/>
<path transform="translate(1167,371)" d="m0 0 6 1 5 5 7 13v5l-8 2-1 4-5-1-1-3-4-2-4-4-3-6-3-2v2l2 6-4 1-1-1h-7l-7-1-14 7-5-1v-6l2 3v2l10-4 8-5 11-4 3-4 10-1 4 5v3h6v-7h-2l-1-4z" fill="#842731"/>
<path transform="translate(493,1230)" d="m0 0h10l-1 7-3 3-6 1-5 4-4 1-1 2-5 3-7 5-1 2h-2l-2 4-2 3h-2v2h-2v2l-13 9h-3l1-5 9-11 6-5 7-8 11-10 9-6z" fill="#AC4142"/>
<path transform="translate(1435,1265)" d="m0 0 6 1 13 4 9 6 4 5 3 11 2 18 2 9 9 21 6 28 4 9 3 4 1 3v8l-1 8 5 5 6 14 1 10-2-4-4-12-3-7-10-2v-3l1-7 5-3-1-9-5-7-4-14v-3l-4-1v-8l-2-9-8-16v-3h-2l-2-10-1-8 1-3v-10l-3-8-5-6h-5l-1 2-6-1-6-2-2-3v-3l-3-1z" fill="#360911"/>
<path transform="translate(876,1342)" d="m0 0h21l11 1 4 3v10l-5 13-4 4-7 1h-23l-13-2-5-4v-8l3-1 6-14 9-2zm5 3-15 2-3 7v10l2 2h12l5 2 11 2h6l4-1 4-7 3-6 1-6-5-5z" fill="#460F1A"/>
<path transform="translate(1300,848)" d="m0 0h10l13 2 2 5-1 6-7 2-9 1h-3v2h-2v2l-4 2h-3l-1 2-10-4 1-4 7-11z" fill="#822630"/>
<path transform="translate(1199,525)" d="m0 0h6l3 3 3 8 3 4v2h2l7 9 6 13-1 9-1 3h-8l-3-12-4-9-11-16-3-8z" fill="#49060E"/>
<path transform="translate(1061,544)" d="m0 0h2l2 6v4h2v5l6-1 3 4 2 13v11l-3-1v-3l-5-2v-3h-3v8l-2 3v-2l-4-1-2-5-4-8-1-8h2v-2h2v-12l2-1h1z" fill="#942831"/>
<path transform="translate(385,1511)" d="m0 0 3 2-3 10h-2l-1 23-1 4 2 6 1 6v7l-1 6 1 1 2 20 2 5 4 8 3 3 1 4h-3l-2-4-2-1-5-5v-2l-3-1-1-6 3 1-2-7-1-7 1-4-1-1v-12l1-4-3-1-1-6-1-4-1-18 3-1 2-7v-6h2l-2-2-6 7-3 8-2 20v13h-1l-2-20 1-8 3-12 7-9 4-4h4z" fill="#932831"/>
<path transform="translate(1207,373)" d="m0 0 5 2 1 9 3 6 3 12 3 7 1 8 5 9-1 7 5 2 7-1 1-4v-8l-7-14-2-2v-14h2v4l4 1 5 5 1 4h2v-5h-2l-1-4 1-10 2-1v7l4 9 1 6-7 3 1 5 2 5v8h-2l-2 6-2 2-7 1-6-3-3-6v-2l-6 1-2-5 3-5 1-6-3-9-3-7-2-7-4-13z" fill="#360911"/>
<path transform="translate(811,1185)" d="m0 0 6 1v6l-5 7-5 2-4 6h-7l-3-1 1 6-4-1-1-3-7-2-1-2 2-10 5-5h3l1-2 4 1 5 1 2 2 5-1 1-4z" fill="#942831"/>
<path transform="translate(1278,945)" d="m0 0h21l14 2 11 4 8 3h6l3 2v2h3v2l5 2 1 4 4 2-6 2 2 3h-6l-5-3-10-4-9-4-13-3v-1l10-1v-3l-4-2-7-2-7-1-4-1-17-2z" fill="#49060E"/>
<path transform="translate(988,1142)" d="m0 0h33l11 2 5 2 2 2v5h2l-1 4h-10l-11-2-14-3-24-8 4-1z" fill="#020101"/>
<path transform="translate(1425,541)" d="m0 0h8l8 5 1 8-4 4-16 3h-13l-3-2 1-7 10-8h3v-2z" fill="#360911"/>
<path transform="translate(1486,1177)" d="m0 0h10l8 4 2 4 3 1 7 10v2h2l4 12 8 14 4 8 13 11 7 9 11 8 5 4 9 11 5 5-1 2-8-8v-2h-2l-6-7-2-1v-2l-5-2-10-7-9-7-3-3-7-4-4-12h-2l-2-6-5-10-5-9-3-4-6-12-4-2-4-1-1-2-12-1z" fill="#160204"/>
<path transform="translate(1471,1304)" d="m0 0h1l3 12 6 15 4 13 6 24 5 10 1 4h2l1 9 3 12 12 36 4 10 5 17 4 21 7 20 2 5 9 3 8 3 4 1v2l-10-1v-2h-10l-3-3-7-18-5-20-3-15-8-24-4-9-3-13-6-13-4-3 1-16-3-6-4-7-5-21-3-13-9-21z" fill="#170305"/>
<path transform="translate(793,1106)" d="m0 0h2v2h2l-2 5-5 5-8 10-12 7-8 10-5 4-4 2-7-1 2-5 9-8h2v-2l8-6 4-5 8-7 4-5 7-5z" fill="#842731"/>
<path transform="translate(1276,885)" d="m0 0 4 2 3 5 18 4h23l3 1 4 5-1 4-6 6-5 1h-18l-23-1-17-3-1-4 2-2v3l6 1 8 1 30 1 9 1 9-1 1-8-3-2-27 1-16-3h-9l-2-2z" fill="#3A0810"/>
<path transform="translate(944,1057)" d="m0 0 8 1 6 2-1 4-4 3-2 12-2 1h3l-1 4-5 1-2-7-8-5-10-3-1-4h2v-2l6-4z" fill="#050102"/>
<path transform="translate(942,1090)" d="m0 0h11l26 2 30 3 3 2v2h-53l-17-1-2-2 1-5z" fill="#882731"/>
<path transform="translate(1151,962)" d="m0 0h19l4 1h30l5 2h8l2-2h5l-1 6-4 2-16-1-31-2-14-2-5 2-13-1-4-2 1-2z" fill="#AE4141"/>
<path transform="translate(1226,957)" d="m0 0 4 2-1 4-4 7-2 2h-20l-31-2-26-1-12-1 1-4 5 2 17 1 1-2 14 2 33 2 14 1 3-1 2-6-6 2-1 1h-8l-5-2h-31l-3-1h-31v-1l9-1 48-1 27-2z" fill="#882731"/>
<path transform="translate(1094,450)" d="m0 0 4 1 1 4-7 3-1 2h3v3l-4 4h-2l2 3 5 2 1 5-10 3-3-1-5 2v2h-3l-1 2-4-4 1-7 8-9h2l1-5 4-6 7-3z" fill="#AC4141"/>
<path transform="translate(1122,1553)" d="m0 0h9l14 5 6 7v4l-9 9h-5l-1-8-3-2-10-3-3-3v-6z" fill="#020101"/>
<path transform="translate(1085,996)" d="m0 0 3 3 12 2v3h36l43 1 38 5v1l-10 1-17-2-23-1-7-1-21-1h-26l-13 1-23-1 1-4 5-3z" fill="#3D070F"/>
<path transform="translate(1243,944)" d="m0 0h13l15 2 16 2 3 1-1 2-2-1v3l-23-1-27 4-6 1 1-3h-2v-6l3-2z" fill="#842731"/>
<path transform="translate(1456,857)" d="m0 0 4 1 1 3-1 16-5 11-2 1-8-4-4-4v-10l6-5 3-3 4-5z" fill="#360911"/>
<path transform="translate(980,1048)" d="m0 0 12 2 4 1 36 2 21 4 1 3 4 1 2 1 1 3 3 3-3 1h-35l-8-1v-2h8l6 1h24l1-1-1-4-16-4h-23l-1 3-7-1-10-3-13-3-6-3z" fill="#3E070F"/>
<path transform="translate(1163,437)" d="m0 0 4 4v13l1 3 1 21-1 9-8 7h-3l-11 3-11 1-4 1h-9l-10-1v-1l24-3h9l10-3 5-4 1-7-1-12 2-3 1-5h-2l-1-7 4-10z" fill="#170305"/>
<path transform="translate(1584,1280)" d="m0 0 5 5v2l3 1 4 5 10 10v2l4 2 3 3v2l4 2 14 14 2 1v2l6 1-2-7-7-13 1-2 11 16 8 11 1 4h13l10 1v1h-20l-26 1-4-2 20-1-5-4-5-3-15-13-8-7-4-4v-2h-2l-9-11-6-8-4-4z" fill="#400D15"/>
<path transform="translate(1280,1410)" d="m0 0h9v3l-5 4-11 6-3 3h-2v2h-2v2l-5 5-5 7-5 2h-4l1-5 7-11 10-11 7-5z" fill="#AF4242"/>
<path transform="translate(484,1426)" d="m0 0 4 1 5 11v5l1 1v13h2l1 5 1 8-1 1h-5l-4-7-3-3-2-7v-27z" fill="#952932"/>
<path transform="translate(1528,1188)" d="m0 0 7 2 4 3v2h2l6 10v2l-3-1v-3h-2l4 7 1 3 2-2v-2l4 2 8 9 4 8-1 2-2-2-1 4-10-5v-2l-3-1v-4l-2-1v-3h-2l1-4-4-1h2v-3h-6l-4-4-1-8-3-5z" fill="#832630"/>
<path transform="translate(997,1511)" d="m0 0h6v3 2l-9 4-5 1v2l-13 7-8 5-6-1v1h-5l-3-2 2-4 11-7 9-2 13-5z" fill="#862731"/>
<path transform="translate(1321,816)" d="m0 0 20 3 10 3 7 3v3l-45-1-3-2v-6l3-2z" fill="#872731"/>
<path transform="translate(1538,1519)" d="m0 0h10l12 2 6 6v6l-2 3h-10l-11-4-5-5-1-7z" fill="#A93E3F"/>
<path transform="translate(1345,672)" d="m0 0h14l14 1 6 3v2l2 1v2l-6 3h-15l-16-1-1-1v-7z" fill="#561725"/>
<path transform="translate(1267,1331)" d="m0 0 3 1v4l-6 3-4 1-5 5-5 1-2 4-5 6-9 6h-2v2h-3l2-7 9-11 7-9 8-4z" fill="#AE4141"/>
<path transform="translate(383,1398)" d="m0 0 3 1-3 4-1 4h-2l-1 8-2 1-1 7-7 14v3h-2l1 4-2 4 1 1v5h-2l-1 5-4 5-1 4-4 2v3l-5-2v-12h1v6h4v-3l3-2-1-6 3-12 2-1 2-4 2-3 2-4h2l1-10 2-3 1-6 2-3h3v-6l3-1z" fill="#942831"/>
<path transform="translate(910,1120)" d="m0 0h6l4 2 7 2 12 2h12l5 2-1 3-6 1-21 1-18-1-2-2v-9z" fill="#842731"/>
<path transform="translate(1489,1413)" d="m0 0h5l5 6 2 9 3 9 4 16-2 1-5-7-2-5-7-3-3-6-2-13z" fill="#842731"/>
<path transform="translate(1043,1025)" d="m0 0h15l7 2 15 2 10 1-2 2-9 3h-32l-8-3v-2l-3-1v-3z" fill="#952932"/>
<path transform="translate(1153,528)" d="m0 0 9 1 5 4 2 12 3 6v5l-3 2-6-3-7-7-4-12v-7z" fill="#4A060E"/>
<path transform="translate(1454,936)" d="m0 0h1v42l-2 9-3 3-4 2h-3l1-9 1-5 5-26 3-13z" fill="#070202"/>
<path transform="translate(1284,865)" d="m0 0 1 2-2 7 2 1v-2h9l13 4 2 3 10 5 11 6v2l-9-3-10-4-5 1-4 1-4-4-3-1-15-1-1-3 4-13z" fill="#370810"/>
<path transform="translate(1105,575)" d="m0 0 2 1 1 8 1 3h10l4 5 6 4 3 5 2 1v5l-3 4-2 7-3 1-1 3h-2v2h-2l1 11h-3l-1 3-1-4 1-2 1-6 1-7v-7l4-2 5-5-1-5-6-2-1-5-7-1-8-3-2-1-1-8z" fill="#4A060E"/>
<path transform="translate(1421,1262)" d="m0 0h9l5 2 1 3-7-2h-5v7l6 16 9 13 3 10 13 26 3 17 3 7-1 7-2-4-3-9-3-12-4-11-11-24-4-9-3-4v-2h-2l-8-25v-5z" fill="#450C16"/>
<path transform="translate(478,1426)" d="m0 0h2l1 35 2 11 5 13 7 14 1 6h-2l-4-11-1-4-4-2-4-6-3-8-3-10-1-8v-11l1-8 2-3z" fill="#170305"/>
<path transform="translate(379,1510)" d="m0 0 3 1-6 6-4 8-3 8-2 11 1 21-2-3-2-12-2-15-4-9v-7l2-3h2l1-2 1 1h10z" fill="#180305"/>
<path transform="translate(1418,695)" d="m0 0h10l10 3 12 5 3 3v3l-2 1h-11l-13-4-12-7 1-3z" fill="#020101"/>
<path transform="translate(864,1351)" d="m0 0h1v10l14-1h9l6-1 4 1h9l-2 6-2 3-10 1-13-3-3-1h-12l-2-2v-10z" fill="#872731"/>
<path transform="translate(870,1104)" d="m0 0h7l5 3 3 3-1 6-13 3-16 2v-5l9-7 3-4z" fill="#49060E"/>
<path transform="translate(1181,336)" d="m0 0h34l11 4 8 7v2l5 2 4 4-1 3-3-1v-2l-5-1v2h-3l-1-5h-2l-2-6-3 1-2-2-3 2-3 3h-5l-1-6-2-3-4-1-22-2z" fill="#541421"/>
<path transform="translate(1245,333)" d="m0 0 9 1 10 6 6 11 4 6v8l-4-1-6-8-9-8-8-11z" fill="#842731"/>
<path transform="translate(1267,953)" d="m0 0 16 1 16 2v1h-7v2h-10l-22 2-20-1-7 3-2 1 2-5 6-3h9 3 3v-2zm-38 11 2 1-2 4-1-4z" fill="#3A0810"/>
<path transform="translate(769,1267)" d="m0 0 1 4-1 21 2 13 7 8 10 10 8 4h9l8-2-2-8-15-14-9-10 1-2 9 8 7 8 13 9 1 7-4 4-8 2h-12l-8-5-10-8-7-10-3-11v-16l1-10z" fill="#9F373B"/>
<path transform="translate(977,1085)" d="m0 0 43 2 5 1v1h-74l-8 1-3 3-1 6 47 1v1l-38 2-11-1-2-1 3-9 5-5z" fill="#370911"/>
<path transform="translate(931,1345)" d="m0 0h7l5 3v9l-3 6-3 2h-9l-3-3v-7l4-8z" fill="#A93D3F"/>
<path transform="translate(709,1135)" d="m0 0h20l-4 1v2l6 2 3 3v3l-4 2-13 1-12-4-1-3z" fill="#8F2831"/>
<path transform="translate(1305,423)" d="m0 0h11l1 4-5 5-7 5-3 5h-2v2l-5 2h-6l-3-3 5-5 3-5 7-3z" fill="#4A060E"/>
<path transform="translate(1035,1652)" d="m0 0h5l4 4h8l8-1 1 3-7 2-8 3-15 2-6 2h-5v-2l-2-1 4-4 6-2 1-4z" fill="#842731"/>
<path transform="translate(1082,605)" d="m0 0 4 1 3 3h3l1-3 5 1v4l3 1v4l7 2v2h2v6l-1 2-9 1-2-6 1-2-4-2-1-1h-7l-2 1-4-11z" fill="#952932"/>
<path transform="translate(992,1665)" d="m0 0h11l-2 4-5 2v3l-10 6-10 4-1 1h-6l-1-3 2-3 10-5 1-6 5-2z" fill="#862731"/>
<path transform="translate(1023,1656)" d="m0 0m-1 1m-1 1m-1 1m-1 1m-11 1h3l-2 4-1 3h7l2-6 2-1 1 6 5-1 1 2-8 4-4 5-7 2-5-1-1-2h-5l-7 4-3-1 8-5h2v-3l6-4 1-2h-11v-1l11-1z" fill="#561725"/>
<path transform="translate(729,1134)" d="m0 0 7 1-4 3v2l14 7-1 4 1 3h9l15-11h2v-2l4-1-5 6-11 7-3 3-5 1-8-2-12-1-3-2-11-1-10-3-2-3 5 1 6 2 13-1 4-1-1-5-6-2-2-1v-2h4z" fill="#360911"/>
<path transform="translate(1524,1169)" d="m0 0 3 1v2l3 1 2 8h2v3h2l4 6v3l4 2 3 3 4 7 8 9v2h2l5 8-1 2-4-4-8-10-4-3 1 3-3 1-5-7v-3h2l1 3 2 1-5-9-1-3h-2l-5-5-6-2-3-5-3-1 2-4h3l-1-5z" fill="#480912"/>
<path transform="translate(987,1063)" d="m0 0 31 2v3l17 1v1l-13 1-10 2-1 2-6-1-6 1-9-6-3-4z" fill="#380911"/>
<path transform="translate(1065,1022)" d="m0 0h6l3 1h9l2 1 13 2 19 1 8 2-2 3-1 4-10 1h-27v-1l26-2 4-3-7-1-21-2-19-2-3-1-22-1v-1z" fill="#541422"/>
<path transform="translate(968,1338)" d="m0 0 4 1-2 3-2 14 1 2h21l13-1 7-1v2l-16 4-12 1v2h-6l-5-2-7-1-3-5 2-9z" fill="#480E16"/>
<path transform="translate(396,1506)" d="m0 0h2l1 6v4l2 1-1 16v2l-1 39-2-1-2-4v-19l-2-8 2-13 1-5-1-4-1-3z" fill="#4A060E"/>
<path transform="translate(871,1102)" d="m0 0 9 1 9 4v2l3 1 2 4-3 5-10 4-5 1-4-1h-15l-4-1v-5h2v4l12-3 10-1 7-1v-8l-6-2-1-1h-9z" fill="#360911"/>
<path transform="translate(1451,1154)" d="m0 0h6l-2 4-5 1v2l-16 8-15 6-12 6h-5l1-4 4-3 6-1v-2l10-2 9-5 11-6 5-3z" fill="#822630"/>
<path transform="translate(428,1325)" d="m0 0 3 1-5 4-5 2-2 4-4 1v2l-5 5-10 16h-2l1 3h-3l-2 8-2 5v7l1 4-3 1v6l-4 4-2-2 3-5v-12l3-14 3-3 3-5h2l1-5 7-8 4-4 1-2h2v-2h2v-2l9-6z" fill="#952932"/>
<path transform="translate(1113,666)" d="m0 0h2l-3 13 1 4-5 1-3 1-3 3v2h-2v2h-3l-1 3-2-3 2-1v-2l-7 1-8 1h-8l-3 1 2 6 1 2-4-2-2-4v-3h-2v-2l8-2h14l13-5 5-4 4-6z" fill="#490913"/>
<path transform="translate(1055,1295)" d="m0 0 3 1-1 9-3 13-7 8-11 12-12 9-3 4-2-1 6-7 10-8 14-16h2l1-11 2-9-9 3-13 9-15 4-2-1 1-2 7-1 9-4 12-8z" fill="#A63B3D"/>
<path transform="translate(878 1e3)" d="m0 0 9 2 17 5 12 3 8 4 10 4 30 15 3 2v2l-5-1-11-6-19-8-16-8-5-2-10 1-5-5-8-3-10-4z" fill="#170305"/>
<path transform="translate(715,1392)" d="m0 0 1 3-2 7-9 20-4 7-3 7-7 11-11 12-9 6-2 1h-8l-2-2 1-6 3-1 1-3 2 1-2 3v4h6l9-6 9-10 7-11 8-16 8-18 3-8z" fill="#170305"/>
<path transform="translate(1330,612)" d="m0 0 6 1 1 4-1 4 2 1-1 3 1 2-3 9h2v5l-6 2-2-2v-3h-2l-1-6 1-3v-5l2-7z" fill="#942831"/>
<path transform="translate(1424,1264)" d="m0 0h5v2l5 2 4 10 1 11-1 4-5-4-2-3v-5l-4-1v-2h-2l-2-6v-7z" fill="#922831"/>
<path transform="translate(587,1185)" d="m0 0h7l1 4h-2l-1 3-6 2-4 4h-4v2h-4v2l-7 1-1-8 14-7z" fill="#AB3F40"/>
<path transform="translate(1229,948)" d="m0 0h1v6h2v2l3 2-4 6-2 1-1 5 2 1v2h-27l3-2h17l6-9-1-4-16 2-16 1h-40v-1l54-3 17-2z" fill="#501421"/>
<path transform="translate(1332,448)" d="m0 0 4 2 1 5-5 6-9 3h-5l-1-6 1-7 3-2z" fill="#360911"/>
<path transform="translate(1034,1028)" d="m0 0 5 5 5 2 12 1h28l19 1v1l-15 1-3 2h-11l-5 1-10-2h-17l-11-1v-2l4-1z" fill="#480C16"/>
<path transform="translate(1118,393)" d="m0 0h1l1 10 11-2 7-1-1 4-2 6 7 6-2 1-5-3h-12l-8-1-8 3v-2l4-3h8l-1-8z" fill="#160204"/>
<path transform="translate(1301,484)" d="m0 0 5 1 2 4-1 1-1 14-2 5-5-1-3-11-2-6 1-6z" fill="#832630"/>
<path transform="translate(1353,452)" d="m0 0h6l4 2 2 2 1-2 2 3-1 6-6 5-9 4h-6l2-9h1v7l6-2-4-1v-2h2l-1-12z" fill="#020101"/>
<path transform="translate(1245,332)" d="m0 0h8l10 5 5 3 5 8 4 4 1 4-2 10-3 3-4-2-4-5-4-6-8-8-3-4 1-3 6 8 8 7 6 8 3 1-2-10-6-9-3-6-12-6-6-1z" fill="#440811"/>
<path transform="translate(1247,1010)" d="m0 0 6 1 6 3 1 3 10 3 1 1v5l-4 2-5-1-5-3-1-3-6 1-6-2-11-3-7-3v-1l8 1 8 3 8 1 2-4v-2l-5-1z" fill="#4A060E"/>
<path transform="translate(1331,560)" d="m0 0 7 1 11 3 5 3v2l-6 3h-17l-3-4 1-7z" fill="#842731"/>
<path transform="translate(873,1146)" d="m0 0 5 2-1 13-2 6h-2l-4 16-4 18h-1v-13h2l1-10 8-20v-7l-6-1-14 2-5-1h-8l-10 3-4-1 10-4 21-2z" fill="#340810"/>
<path transform="translate(728,1310)" d="m0 0 5 1 1 1v9l-2 9-3-3-4 3-4-1 2-9h-2l-4 2-5 6-1-3 2-3h2l2-5 7-4h2v-2z" fill="#561725"/>
<path transform="translate(1151,526)" d="m0 0 6 1 2 2h-6v7l4 12 7 7 6 2 1-1-1-7-3-7v-6l2 2 6 12 2 6-1 6-5 1-6-3v-2h-2l-7-8-2-5v-3l-4-2-2-6 1-6z" fill="#360911"/>
<path transform="translate(1267,1329)" d="m0 0h7l2 1v2l4 1-1 3-9 2h-4l-1 3-5 2-1 2-5 1v2l-8 7-1 3-5 1v2l-4 2-5 5-2-4h3v-2l8-5 3-1 2-4 5-6 8-4 4-4h2l3-2h3v-4l-15 2-5 3h-2l1-4 7-2z" fill="#952932"/>
<path transform="translate(841,1329)" d="m0 0 3 1 1 7v11l-3 8-4 2-3-3v-15z" fill="#FEFEFE"/>
<path transform="translate(943,1534)" d="m0 0 4 1-6 8-5 5-7 2h-5v2l-11 5h-2l1-3 12-9 10-6h2v-2z" fill="#AC4142"/>
<path transform="translate(662,1231)" d="m0 0h3l3 5 5 4 2 3 21 3h8l8 2-1 3-10-1-10 1-13-2-7-3-6-6z" fill="#4A060E"/>
<path transform="translate(1378,675)" d="m0 0h9v2h12l7 1v2h6l3 3-1 2h-9l-4-2h-14l-4 1h-8l5-5z" fill="#4A060E"/>
<path transform="translate(986,1100)" d="m0 0h17l37 2 12 2 14 1 13 2-4 2h-10l-11-2-25-2-21-2-22-1z" fill="#390810"/>
<path transform="translate(965,1046)" d="m0 0h5l10 7 14 6v2l-14-1-5-3-18-6-1-3z" fill="#932831"/>
<path transform="translate(1047,1283)" d="m0 0 5 3 1 5v4l-1 1h-11l-8 4-2-1v-5l4-1 2-4 4-4z" fill="#170305"/>
<path transform="translate(503,1261)" d="m0 0 3 1h13l4-1 2 1-3 2h-6l-6 1h-7l-11 4-10 2-13 6-4 1-6 1 1-2 8-4 5-3 11-4 3-2 11-2z" fill="#4A060E"/>
<path transform="translate(930,1344)" d="m0 0h10l4 2 1 2v9l-3 7-3 4-5 2h-8l-4-2-2-6 3-9 5-8zm1 1-4 5-2 5v7l3 3h9l5-5 1-3v-9l-5-3z" fill="#3B0A13"/>
<path transform="translate(1085,996)" d="m0 0 3 3 12 2v3h15l1 2-13 2-26-1 1-4 5-3z" fill="#3A0912"/>
<path transform="translate(1034,665)" d="m0 0h4l5 9 8 5 3 2-1 5-5-1-11-6-3-3v-2h-2l1-8z" fill="#AA4547"/>
<path transform="translate(1321,753)" d="m0 0 8 1v3l1 5-3 2-4 4-5 2-4-1-1-5 2-6 4-3h2z" fill="#952932"/>
<path transform="translate(862,1351)" d="m0 0 1 2-1 6v8l4 2 32 3-2 2h-23l-13-2-5-4v-8l3-1z" fill="#3A0810"/>
<path transform="translate(1126,660)" d="m0 0h5l2 2-1 6-8 7-4 2-4-1v-7l2-4z" fill="#B55050"/>
<path transform="translate(1068,1179)" d="m0 0 5 1 5 3-1 3-10 3-6 1-12 4v-4l3-3 8-4h3v-2z" fill="#020101"/>
<path transform="translate(1068,479)" d="m0 0 2 4 1 3h10l7 2 10 3 1 2-12-2-3 6-3 1-4-3-5-1-5-2 1-8z" fill="#360911"/>
<path transform="translate(1091,464)" d="m0 0h1v6h5l1 6-2 3h-2l1 4 3 2-1 4-7-1-9-4-6 1v-2h3l-1-3 8-2 2 1 9-2-2-5-5-2-1-3z" fill="#9A2E35"/>
<path transform="translate(791,1126)" d="m0 0 2 1-7 8-5 5h-2l-1 3-7 6-4 2v2l-5 2-3 2h-3l-1 2-9 1-6-2-8-3v-1h12l9 2 5-2 16-12 12-11z" fill="#170305"/>
<path transform="translate(1108,987)" d="m0 0 27 1 21 1 18 2 1 2h-17l-12-1-29-2h-13l-10 3-3-1 11-4z" fill="#390810"/>
<path transform="translate(1512,1190)" d="m0 0 5 5 4 5 3 9 7 14 5 8 7 6v2l4 2 6 8 16 12v2l-4-2-11-8-7-8-5-5-10-9-8-16-5-9-1-8h-2l-4-6z" fill="#360911"/>
<path transform="translate(974,1092)" d="m0 0 27 2 10 2 1 3h-33l-5-1 4-2-4-2z" fill="#842731"/>
<path transform="translate(1076,566)" d="m0 0 3 3 2 7-1 2 2 1-1 4 5 5v10l1 2-1 2-4-2v-3l-4-2-4-9-4-6 5 2 1 3 2 1-1-5z" fill="#952932"/>
<path transform="translate(818,1059)" d="m0 0 5 1v2h-3l-1 6-3 1-1 3-11 9-3 4h-4l1-4 9-11z" fill="#842731"/>
<path transform="translate(1242,946)" d="m0 0h18l3 1v2l-10 3-12 2h-7l-3-3v-2l4-2z" fill="#AF4242"/>
<path transform="translate(1172,374)" d="m0 0 4 2 2 9-1 4-10-2-1 2-4-4v-3h-7l-3 3-5 2-8 1 1-2 11-4 3-4 10-1 4 5v3h6v-7h-2z" fill="#952932"/>
<path transform="translate(1484,1350)" d="m0 0h1l5 21 4 7 3 6v8l-1 8 5 5 6 14 1 10-2-4-4-12-3-7-10-2v-3l1-7 5-3-1-9-5-7-5-17z" fill="#360911"/>
<path transform="translate(986,1518)" d="m0 0h2l-2 4-10 6-7 3h-9v2h-3l2-4 4-5 4-2 15-3z" fill="#AC3F40"/>
<path transform="translate(1196,960)" d="m0 0h13l1 3 6-2 3 1-2 4h-8l-5-2h-31l-3-1h-31v-1l9-1z" fill="#8A2731"/>
<path transform="translate(842,1326)" d="m0 0 3 1 1 6v18l-4 8-1 1h-6l-3-3v-2h-2l-1-3 4-12 6-11zm-1 3-6 11v15l3 3 4-2 3-8v-11l-1-7z" fill="#A1383B"/>
<path transform="translate(980,1050)" d="m0 0h6v2l8 1 13 1h16l17 2v1l-10 1h-13l-1 3-7-1-10-3-13-3-6-3z" fill="#561725"/>
<path transform="translate(1096,516)" d="m0 0 2 1 2 5 1 4 2 10 5 1 3 4v6l-2 2-10 1-2 1 1-4 2-5v-6l-1-5-1-8z" fill="#4A060E"/>
<path transform="translate(1064,590)" d="m0 0 5 2 5 3 1-2 2 3v3h2l1 7 3 14 6 7-1 2-6-5-4-10-3-4-5-12-2-4-4-2z" fill="#4C0912"/>
<path transform="translate(1275,1322)" d="m0 0 9 1 16 4 22 8 5 3-4 1-1-2-16-4-15-5-7-2-12-1-10 2-7 1 4-3 6-2z" fill="#3A0810"/>
<path transform="translate(1085,1507)" d="m0 0 1 3v7l1 3 6 4 5 2 8 7 10 7 11 6 12 7-3 1-15-8-12-7-10-7-13-10-2-2v-12z" fill="#380810"/>
<path transform="translate(1588,1288)" d="m0 0 3 1 7 9 7 8v2h2l7 8 15 13 7 6 9 5-1 2h-6l-1-3-14-11-5-4-6-7-5-5-9-10-9-11z" fill="#170305"/>
<path transform="translate(862,1355)" d="m0 0h1l1 9 1 1h12l5 2 11 2h6l2-1 2 2-6 2h-11l-20-2-5-3v-8z" fill="#561725"/>
<path transform="translate(1036,1027)" d="m0 0h13v2h2l1-2 4 2 17 1 1 2-13 2h-15l-7-2v-2l-3-1z" fill="#AF4242"/>
<path transform="translate(496,1239)" d="m0 0 3 1v2l-6 3-6 4-5 3h-2v2l-6 2v2l-5 4-7 8-8 5-2-1 6-5h2v-2h2v-2h2l2-4 2-3h2l2-4 8-6h3l1-3 7-3 2-2z" fill="#952932"/>
<path transform="translate(1479,1163)" d="m0 0h6l5 7-5 6-2 1h-7l-1-2v-8z" fill="#842731"/>
<path transform="translate(1062,515)" d="m0 0h5l2 10-4 8-1 3-4-4-2-9v-6z" fill="#AE4141"/>
<path transform="translate(906,1598)" d="m0 0 2 1-6 5-11 8-5 4-8 4-12 5-8-1v-5l2-1 2 1h8l8-3 7-3 8-6 11-8z" fill="#170305"/>
<path transform="translate(927,1682)" d="m0 0h12v3l-8 4-11 2-9-2 2-4 7-2h6z" fill="#862731"/>
<path transform="translate(1178,338)" d="m0 0h10l15 2v4l-3 3-6-1v2l-6-2-10-5z" fill="#932831"/>
<path transform="translate(871,1106)" d="m0 0 8 5-3 5-13 4h-7l1-4 6-3z" fill="#842731"/>
<path transform="translate(479,1426)" d="m0 0h1l1 35 2 11 5 13 7 14 1 6h-2l-4-11-8-16-4-15v-25z" fill="#3D070F"/>
<path transform="translate(1119,391)" d="m0 0h1l1 8 5-1 11-5 7 1 6-1 11 2v1h-11l-8 1-4 3-10 3h-8l-1-2z" fill="#360911"/>
<path transform="translate(709,1135)" d="m0 0 14 1v3l-2 7-4 1-6-2-5-2-1-3z" fill="#A23B3D"/>
<path transform="translate(517,1541)" d="m0 0 2 4h2l1 7 1 6-2 4 2 1-1 5-2 3h-3l-2-8h2l-2-7 1-7z" fill="#4A060E"/>
<path transform="translate(1482,1352)" d="m0 0h1v6h2l5 17 5 7-1 5-5 1v-5l-7-14z" fill="#4D0A13"/>
<path transform="translate(952,1530)" d="m0 0 3 1 2 3 6-1v4l-7 3h-3v-2h-5l-4 7-7 6-2-1 1-3 5-5 5-7v-3z" fill="#81252F"/>
<path transform="translate(1220,384)" d="m0 0 4 2 3 4 1 10-1 5-6-2-2-5-1-13z" fill="#561725"/>
<path transform="translate(1289,1412)" d="m0 0 2 1-3 3-10 6-9 7h-2v2h-2v3l-4 4-4 8-3 3h-5l-3-3v-5l1 3 10-4 7-10h2v-2h2v-2l10-7 10-6z" fill="#952932"/>
<path transform="translate(722,1376)" d="m0 0 2 2-4 7-1 7-4 1-6 15-11 23-2 1 3-9 4-8 7-17 6-15 3-1 2-5z" fill="#350910"/>
<path transform="translate(1070,505)" d="m0 0h8l3 3 3 2 11 3 1 2h-7l-3 1-1 2h-2v2l-3-1-1-7-4-1v-2h-7v-3z" fill="#3A0810"/>
<path transform="translate(1133,966)" d="m0 0 1 2 38 1 31 2v1h-57l-11-2-2-1z" fill="#4F0E18"/>
<path transform="translate(881,1345)" d="m0 0h25l5 5-2 8-1-3v-6l-1-1h-10l-12 2-6-1-7 1-5-1-2 2 1-4z" fill="#872731"/>
<path transform="translate(1495,1155)" d="m0 0h12l6 4-3 3-4 1v3l-4-2-7-2-4-3v-3z" fill="#982C34"/>
<path transform="translate(1345,674)" d="m0 0 12 1 12 2v3l-2 1h-14l-8 1-1-1v-6z" fill="#842731"/>
<path transform="translate(1061,514)" d="m0 0h7l2 4h2l-1 10-1 5h-2l-1 6h-4l-1 3-4-2 1-3-1-5v-9h1l2 9 3 3 1-5 3-3-1-12-8 2v-2z" fill="#942831"/>
<path transform="translate(785,1211)" d="m0 0h2l1 5h-2l-3 6-3 1v2l-7 2-1-4 1-6 2-2 9-3z" fill="#982D34"/>
<path transform="translate(1072,561)" d="m0 0h2l3 7 1 13v5l-3-1v-3l-4-2-1-6-3-1 1-3h3z" fill="#AF4242"/>
<path transform="translate(1432,1171)" d="m0 0 3 1-3 2-1 6h-2l-1 3-6 1-7-2-9 3 4-4 21-9z" fill="#360911"/>
<path transform="translate(1330,559)" d="m0 0h8l16 4 5 3v3l-5 3-4 1-20 1-2-1v-5l3 3h17l6-2-2-3-5-2-9-2-7-1-2-1z" fill="#561725"/>
<path transform="translate(1155,381)" d="m0 0 2 1-2 2 3 7-4 1-1-1h-7l-7-1-14 7-5-1v-6l2 3v2l10-4 4-3 11-2 6-3z" fill="#882831"/>
<path transform="translate(1006,1320)" d="m0 0v3l-3 7-4 2h-13l-8 3-5 2 4-4 6-4 12-3 7-2z" fill="#A33A3D"/>
<path transform="translate(480,1426)" d="m0 0h1l1 34 3 13 3 7 6 12 4 9 2 10-2-1-8-20-5-10-4-12-1-7z" fill="#561725"/>
<path transform="translate(1240,939)" d="m0 0h8l10 1 12 1 5 2v1h-15l-21-1-6 4-2-1z" fill="#3C070F"/>
<path transform="translate(1021,1515)" d="m0 0 5 4-15 3-6 2-7-1-1 3h-5l-2 10-4 2 3-11-3 1v-2l5-4 13-1 6-3 4 1 6-3z" fill="#49060E"/>
<path transform="translate(1463,1349)" d="m0 0h3l2 3 6 4 2 6v5l-6-1-4-7-5-4 1-3h1z" fill="#AF4242"/>
<path transform="translate(1542,1196)" d="m0 0 5 2 4 7 8 9v2h2l5 8-1 2-4-4-8-10-4-3 1 3-3 1-5-7v-3h2l1 3 2 1-5-9z" fill="#480B14"/>
<path transform="translate(1108,1470)" d="m0 0h43v2h15l-4 2-55-2z" fill="#72202C"/>
<path transform="translate(1444,1321)" d="m0 0 4 2 7 14 3 17 3 7-1 7-2-4-3-9-3-12-4-11-4-9z" fill="#4A0B15"/>
<path transform="translate(1135,378)" d="m0 0 4 1 2 2-4 1v4l-5 3-6 4-4 1-1-4 5-5z" fill="#FEFEFE"/>
<path transform="translate(729,1134)" d="m0 0 7 1-4 3v2l4 2 3 2v2h2l1 4-2 3-12-3-7-1v-1l9-1 4-1-1-5-6-2-2-1v-2h4z" fill="#47060E"/>
<path transform="translate(1429,685)" d="m0 0 10 3 10 4 2 2v4l-6-1-5-3-6-1-7-5v-2z" fill="#4A060E"/>
<path transform="translate(564,1197)" d="m0 0v3h-3l-1 4h-3l-1 3-11 3h-2v2h-2l1-4 5-5 9-4z" fill="#AC4040"/>
<path transform="translate(908,1133)" d="m0 0h77l-1 2h-33l-4 1h-23l-16-2z" fill="#40070F"/>
<path transform="translate(1158,532)" d="m0 0 5 2 2 5 1 10h-5l-4-5-1-3v-7z" fill="#842731"/>
<path transform="translate(735,1323)" d="m0 0 2 2 1 10-6 17-10 24-3 6h-2l2-5 9-21 6-18v-12z" fill="#360911"/>
<path transform="translate(1245,333)" d="m0 0 9 1 8 12v5l-9-6-8-11z" fill="#952C34"/>
<path transform="translate(1210,957)" d="m0 0h9v1l-7 2-16 1h-40v-1z" fill="#490E19"/>
<path transform="translate(1243,944)" d="m0 0h7v2l-15 2-4 1 1 4h9l15-3 7-1v-2h4v2l-3 3-27 4-6 1 1-3h-2v-6l3-2z" fill="#892731"/>
<path transform="translate(1063,563)" d="m0 0 4 4-2 2-3 1 1 8v4l-4-2-4-8-1-7 6-1v3h2z" fill="#AC4040"/>
<path transform="translate(1034,1028)" d="m0 0 4 4v4l6 1 32 1-2 3-5 1-10-2h-17l-11-1v-2l4-1z" fill="#360810"/>
<path transform="translate(1106,417)" d="m0 0 2 1-5 8 2 4 3 1 2 4-1 6-6 3-7 5v-3l5-4 2-3v-5l-2-3v-7l3-6z" fill="#3F0A13"/>
<path transform="translate(508,1536)" d="m0 0 2 2v21l-1 2-2 18v26l-2-1-1-8v-13l4-35z" fill="#170305"/>
<path transform="translate(1121,1570)" d="m0 0h9l4 4-1 6h-6l-6-4-2-4z" fill="#360911"/>
<path transform="translate(1467,1300)" d="m0 0h1l3 16 5 12 6 13v4h2v13l-3-1v-8l-2-9-8-16v-3h-2l-2-10-1-8z" fill="#49060E"/>
<path transform="translate(1269,1321)" d="m0 0h14l16 4 10 4-3 1-17-5-10-2-14 1-10 3v2l-5 4-3 5-1-2 3-6 5-4 10-4z" fill="#1C0407"/>
<path transform="translate(474,1287)" d="m0 0 8 1 6 5 16 8 10 7 2 2-5-1-25-13-5-4v-2l-7-2z" fill="#170305"/>
<path transform="translate(1078,1098)" d="m0 0 15 4 6 4v2h-2v2l-9 1-9-2v-1h11l-1-3-12-3-1-3z" fill="#4A060E"/>
<path transform="translate(1370,822)" d="m0 0h5l20 10v2l6 2 1 2-7 1-9-2 3-1-2-4-2-1v-2l-5-1-2-2-8-3z" fill="#4A060E"/>
<path transform="translate(1436,1267)" d="m0 0 8 1 9 4 5 2-4 2-1 2-6-1-6-2-2-3v-3l-3-1z" fill="#4B0810"/>
<path transform="translate(1265,1337)" d="m0 0 1 3-6 3-1 2-5 1v2l-8 7-1 3-5 1v2l-4 2-5 5-2-4h3v-2l8-5 3-1 2-4 5-6 8-4 4-4h2z" fill="#952932"/>
<path transform="translate(1040,1057)" d="m0 0 8 1 9 2 3 2 1 3 3 3-3 1h-35l-8-1v-2h8l6 1h24l1-1-1-4-16-4z" fill="#541421"/>
<path transform="translate(1426,1267)" d="m0 0 5 1 4 8v9l-4-2v-2l-3-1-3-8z" fill="#AF4242"/>
<path transform="translate(1098,683)" d="m0 0 2 1-7 3h-2v2l-9 2h-9l-3 1 2 6 1 2-4-2-2-4v-3h-2v-2l8-2h14z" fill="#440911"/>
<path transform="translate(374,1517)" d="m0 0 1 3-4 6-4 18 1 21-2-3-1-8v-22l4-10z" fill="#4B101B"/>
<path transform="translate(968,1342)" d="m0 0h1v10l-1 4 1 2h34v1l-15 2h-19l-4-2v-6z" fill="#9F363B"/>
<path transform="translate(1054,681)" d="m0 0 7 4 14 1-2 2-8 1v2h2v3l-5-1-6-4-5-2 2-2z" fill="#1B0306"/>
<path transform="translate(1066,488)" d="m0 0h2v3l7 3 4 2 4 1 3-6 4-1 3 2h-5l-2 8-7 1-12-6-2-5z" fill="#170305"/>
<path transform="translate(1252,920)" d="m0 0 1 4 1 6 10 3v4l-3 1h-14l4-3 1-1-2-1v-7z" fill="#020101"/>
<path transform="translate(622,1187)" d="m0 0 5 4 2 5-1 18 1 3-3 11-3 2 1-5 2-7-3-8 3-12v-5h-2z" fill="#4A060E"/>
<path transform="translate(939,1091)" d="m0 0 1 2-1 6 47 1v1l-38 2-11-1-2-1 3-9z" fill="#350810"/>
<path transform="translate(1321,819)" d="m0 0 11 1 6 3-2 2-6 1-14-1-1-3 2-2z" fill="#AF4242"/>
<path transform="translate(1342,677)" d="m0 0h1l1 5 26 1v3l-21 1-5 2-2-4z" fill="#3B0810"/>
<path transform="translate(1353,877)" d="m0 0 2 1-1 3 1 4h2l2 9 1 4-4 4-6-1-6-3v-1h5l2 1 4-2-3-13z" fill="#49060E"/>
<path transform="translate(542,1572)" d="m0 0 1 4-2 6-5 9-3 19-5 10-1-3 3-6 2-17 4-9z" fill="#170305"/>
<path transform="translate(1282,1264)" d="m0 0h5l2 4-4 6-5 2h-4l1-6z" fill="#020101"/>
<path transform="translate(960,1053)" d="m0 0 10 3 9 2 7 3 21 3v1l-23-1-8-3-17-5-1-2z" fill="#440B15"/>
<path transform="translate(1164,369)" d="m0 0h6l7 2 5 2 2 7 8 14 6 13-1 3-7-15-12-20-8-3-6-2z" fill="#170305"/>
<path transform="translate(1250,341)" d="m0 0 18 18 3 5 3 1v-6l2-1v8l-3 3-4-2-4-5-4-6-8-8-3-4z" fill="#47060F"/>
<path transform="translate(878,1202)" d="m0 0 1 4-2 5-5 25-5 19-2 9h-1l1-11 6-23 2-13 3-11z" fill="#360911"/>
<path transform="translate(1034,1026)" d="m0 0h2l1 3 2 1v2l7 1 1 1h32l1 3h-24l-14-1-7-6z" fill="#852730"/>
<path transform="translate(1302,480)" d="m0 0 2 1-4 4h-5l1 9 3 10-1 4-2-2-3-10-3-6v-5l2-2z" fill="#4E0C16"/>
<path transform="translate(1448,1161)" d="m0 0 2 1-10 7-3 2-6 2-7 3-4 2h-4v-2l8-4 10-4z" fill="#4A070F"/>
<path transform="translate(867,1145)" d="m0 0h12v9l-2 4v-10l-4-1-29 2-9 2-4 2-3-1 9-4 8-2z" fill="#170305"/>
<path transform="translate(1305,480)" d="m0 0 4 2 3 2 1 8-1 12h2l2 4 8-1-1 2h-3v2l-6 2-3-3v-2l-1-6v-7l1-10-6-3z" fill="#49060E"/>
<path transform="translate(1176,407)" d="m0 0 9 6 5 5 5 4 3 1 1-2-3-9 1-3 5 12 1 4-1 2-6-1-10-8-10-9z" fill="#360911"/>
<path transform="translate(787,1291)" d="m0 0 8 6 9 10 13 9 1 7-2 1-2-8-10-5-12-12-5-6z" fill="#963137"/>
<path transform="translate(766,1269)" d="m0 0h1v26l1 9-2-4-3-10-2 2-1-4 1-8 2-1z" fill="#29050A"/>
<path transform="translate(1507,1485)" d="m0 0 5 5 7 12v2h2l4 8 5 7 5 3-3 1-6-5-5-7-4-7-3-5-7-12z" fill="#170305"/>
<path transform="translate(769,1267)" d="m0 0 1 4-1 21 2 13 2 3-1 3-4-7-2-9v-16l1-10z" fill="#993439"/>
<path transform="translate(992,1127)" d="m0 0h3v2l3-1 11 4-2 4h-13l-9-1 4-2 6-1-1-4z" fill="#4A060E"/>
<path transform="translate(976,1670)" d="m0 0 2 1-4 3-3 1-1 2-10 1-2 1v3l-4-1h-26v-1l22-1 18-6z" fill="#3C0810"/>
<path transform="translate(1532,1505)" d="m0 0h2l3 5v2l9 3 8 3 4 1v2l-10-1v-2h-10l-3-3-3-7z" fill="#1B0306"/>
<path transform="translate(1467,1380)" d="m0 0 4 4 7 13 6 5-2 4v7l1 8-2-2-4-18-6-11-4-7z" fill="#360911"/>
<path transform="translate(936,1347)" d="m0 0 5 2-1 9-2 2h-5l-1-4 2-8z" fill="#FEFEFE"/>
<path transform="translate(1435,1265)" d="m0 0 6 1 13 4 9 6 4 5 3 11-1 7h-1l-2-13-6-9-10-6-14-4z" fill="#3A0810"/>
<path transform="translate(1331,562)" d="m0 0 5 1 11 4-3 3h-13l-2-4z" fill="#9B2F35"/>
<path transform="translate(1086,996)" d="m0 0h9l12 2 8 1-3 2h-19l-6-2z" fill="#922831"/>
<path transform="translate(373,1522)" d="m0 0 1 3-3 8-2 20v13h-1l-2-20 1-8 3-12z" fill="#8A2731"/>
<path transform="translate(810,1311)" d="m0 0 5 1 4 4v8l-7 6h-23l-5-6 1-2 5 4 4 2h12l9-3 2-2v-7l-4-2z" fill="#440710"/>
<path transform="translate(1115,412)" d="m0 0 12 1h8l10 6v3l-10-5-7-1h-17l-4 1 4-4z" fill="#380810"/>
<path transform="translate(997,1511)" d="m0 0h6v3 2l-9 4-5 1v-3l-2-2z" fill="#842731"/>
<path transform="translate(709,1325)" d="m0 0 1 2-5 10-2 7v23l-2 9h-1v-31l5-14z" fill="#360911"/>
<path transform="translate(986,1666)" d="m0 0h11l2 2-7 3-2 5-6 1 2-6h-3v-4z" fill="#922932"/>
<path transform="translate(1023,1654)" d="m0 0h2v2l-7 6-3 6-7 1-2 1 2-5 3-4-3-1 9-2z" fill="#3A0810"/>
<path transform="translate(1232,1294)" d="m0 0 10 2 7 2 1 4-4 5-10 7-2-1 4-5 8-5v-3l-14-4z" fill="#3A0810"/>
<path transform="translate(1049,1297)" d="m0 0 3 1-15 9-5 4-15 4-2-1 1-2 7-1 9-4 12-8z" fill="#A1383B"/>
<path transform="translate(502,1228)" d="m0 0 5 1v2l3 1 1 3-5 4-7 1 2-4 1-5-6-1v-1z" fill="#942932"/>
<path transform="translate(909,1344)" d="m0 0 3 2v10l-5 13-4 4h-5l-1-2 6-1 1-4 5-10 1-6-4-5z" fill="#400B15"/>
<path transform="translate(930,1344)" d="m0 0h10l4 2 1 2v9l-1 3h-2v-12l-4-2h-7l-4 6-2 10-3-3 1-6 5-8z" fill="#430C15"/>
<path transform="translate(776,1231)" d="m0 0 4 2 2 17-1 11-1 1-8 1v-2l6-1 1-10-2-14-5-2z" fill="#350910"/>
<path transform="translate(763,1134)" d="m0 0 2 3-5 6-5 4-6 1 2-4 6-7h2v-2z" fill="#922831"/>
<path transform="translate(949,1093)" d="m0 0h15l10 2-3 2-3 1-20-2-1-2z" fill="#AF4242"/>
<path transform="translate(1324,452)" d="m0 0h6l3 3-2 4-1 1-8 1-2-1v-5z" fill="#4A060E"/>
<path transform="translate(1178,341)" d="m0 0 10 4 6 7 3 3 7 4 1 3-1 6-2-4-4-5-8-7-4-5-7-3z" fill="#440810"/>
<path transform="translate(1300,488)" d="m0 0h2l2 8-2 10-3-2-3-14z" fill="#952932"/>
<path transform="translate(1227,345)" d="m0 0 12 6 4 4-1 3-3-1v-2l-5-1v2h-3l-1-5h-2z" fill="#4C0811"/>
<path transform="translate(1451,1154)" d="m0 0h6l-2 4-5 1v2l-4 2-8 1 3-5 7-4z" fill="#9F373B"/>
<path transform="translate(1181,336)" d="m0 0h34l11 4 8 7-3 1-5-4-3-3-8-1-1-3h-33z" fill="#3D070F"/>
<path transform="translate(348,1466)" d="m0 0h1l1 25 4 1 9-2-1 4-3 2h-8l-3-3z" fill="#1A0306"/>
<path transform="translate(1477,1153)" d="m0 0 3 1-4 4v5l-2 3-2 7 1 6-4-2v-5l2-4-2-5 1-4h2l1-3z" fill="#360911"/>
<path transform="translate(432,1656)" d="m0 0 4 2v2l9 2 3 5 2 1v2h3l2 4-5-1-2-3-8-4-7-6z" fill="#952932"/>
<path transform="translate(1107,1473)" d="m0 0h20l-2 5-4-1-1 1-4-1-9 1-1-4z" fill="#AF4242"/>
<path transform="translate(1226,370)" d="m0 0 2 1 3 9v5h-3l-6-9 1-5z" fill="#360911"/>
<path transform="translate(964,1044)" d="m0 0h6l3 4-8-1-4 1h-5l3 3 16 5v1l-8-1-12-4-2-2v-3z" fill="#842731"/>
<path transform="translate(404,1334)" d="m0 0v3l-7 11-7 10-2 4-1-4 6-11 9-11z" fill="#FEFEFE"/>
<path transform="translate(1348,561)" d="m0 0h7l10 6v5l-5 1h-10l4-2 5-3-2-3-9-3z" fill="#4A060E"/>
<path transform="translate(1159,529)" d="m0 0 4 1 4 3v12l1 7-5-1-2-2h5l-2-10-2-5-6-2z" fill="#470A13"/>
<path transform="translate(732,1154)" d="m0 0h12l9 2h3l-1 3-9 1-6-2-8-3z" fill="#160204"/>
<path transform="translate(871,1105)" d="m0 0h3v2l7 1 3 3-3 6-11 2-1-2 7-1 2-5-7-5z" fill="#561725"/>
<path transform="translate(698,1209)" d="m0 0 12 1 14 3 10 1v2l-11-1-22-3-11-1v-1z" fill="#390810"/>
<path transform="translate(1221,1006)" d="m0 0h14l1 2 5 3v2l-8-1v-2h-8l-5-2z" fill="#842731"/>
<path transform="translate(1090,516)" d="m0 0 4 3v8l-3 3-3-1-1-2v-6z" fill="#842731"/>
<path transform="translate(1073,502)" d="m0 0h6l4 5 12 4 4 2v2l-10-3-6-2-5-3v-2l-10 1 2-3z" fill="#170305"/>
<path transform="translate(1358,433)" d="m0 0 6 2 1 4-4 3-7-1 1-5z" fill="#4A060E"/>
<path transform="translate(1055,1295)" d="m0 0 3 1-1 9-2 9h-2l-1-8 2-7-3-1 1-2z" fill="#A53A3D"/>
<path transform="translate(662,1207)" d="m0 0h10l4 1 12 1v1l-15 1-7 1-5-2v8h-1v-10z" fill="#49060E"/>
<path transform="translate(907,1121)" d="m0 0h1l1 9 1 1 22 1h17v1l-6 1h-17l-18-1-1-1z" fill="#561725"/>
<path transform="translate(845,1330)" d="m0 0 2 2 1 18-2 11-3 3-9-1v-1l7-1 3-4 1-6z" fill="#420D17"/>
<path transform="translate(1023,1063)" d="m0 0 27 1 1 3h-13l-2-1h-8l-5-2z" fill="#AF4242"/>
<path transform="translate(1321,754)" d="m0 0 2 1-1 8-2 3h-5l-1-1v-6z" fill="#AF4242"/>
<path transform="translate(919,1683)" d="m0 0h10l1 3-4 3h-9l-2-1v-4z" fill="#AE4141"/>
<path transform="translate(1275,1322)" d="m0 0 9 1 6 2v1l-18-1-10 2-7 1 4-3 6-2z" fill="#380810"/>
<path transform="translate(1404,1174)" d="m0 0 3 1-4 3-1 3 4 1-4 3h-2l-1 3h-4l-1-4 3-1 1-4z" fill="#561725"/>
<path transform="translate(843,1695)" d="m0 0 7 2 4-1-2 5 5 1v2h-7l-8-4z" fill="#5C1722"/>
<path transform="translate(1489,1153)" d="m0 0h11l8 1 1 2h-18l3 5 1 2-5-2-4-4h2z" fill="#842731"/>
<path transform="translate(1068,479)" d="m0 0 2 4 1 3h10l7 2 10 3 1 2-9-2-13-2h-6v-2h-2z" fill="#4A0C16"/>
<path transform="translate(496,1505)" d="m0 0 2 2 6 12 4 6 3 7 1 6h-3l-5-14-8-16z" fill="#3A0810"/>
<path transform="translate(1166,1472)" d="m0 0h31l3 2-6 1-28-1z" fill="#842731"/>
<path transform="translate(1109,695)" d="m0 0 4 2-15 7h-17l-6-2v-1l14 1 12-2 5-1v-2z" fill="#460811"/>
<path transform="translate(1484,1372)" d="m0 0h2l1 5 1-2 3 1 4 6-1 5-5 1v-5l-5-10z" fill="#4A060E"/>
<path transform="translate(770,1233)" d="m0 0 7 2 2 6 1 15-2 4-2-1 1-2-1-16-6-7z" fill="#170305"/>
<path transform="translate(706,1145)" d="m0 0 5 1 6 2 17 2 5 3v1h-7l-3-2-11-1-10-3z" fill="#3A0810"/>
<path transform="translate(1153,528)" d="m0 0 7 2-3 4v7l3 5-1 2-4-4-3-8v-7z" fill="#4A060E"/>
<path transform="translate(929,1347)" d="m0 0 1 4-1 3v7l2 2 7-1 3-2-2 4-2 1h-9l-3-3v-7z" fill="#872630"/>
<path transform="translate(1108,987)" d="m0 0 19 1v2h-23l-10 3-3-1 11-4z" fill="#3E070F"/>
<path transform="translate(961,1091)" d="m0 0h10l3 1v2l8 1-4 2-4-1-10-2h-17v-2z" fill="#8D2831"/>
<path transform="translate(1181,516)" d="m0 0m-12 1h12v1l-10 1-4 6h-6l-4-2 1-3h6l2 1 1-3z" fill="#170305"/>
<path transform="translate(1303,512)" d="m0 0 6 2 1 5 1 9 1 1v8l-2-3-5-19z" fill="#380810"/>
<path transform="translate(695,1386)" d="m0 0h1l-1 8-4 12-1 11-2 2-2-5 1-10 2 1 3-9z" fill="#1B0407"/>
<path transform="translate(563,1251)" d="m0 0 8 1 4 1h13l-1 2-11 2h-8z" fill="#4A060E"/>
<path transform="translate(501,1227)" d="m0 0h8l5 2v2l6 2 5 4 3 5-1 3-4-7-13-7v-2h-11z" fill="#3E0B14"/>
<path transform="translate(1473,1166)" d="m0 0h2l1 11 8 1-2 2h-9l-2-3 1-6z" fill="#470710"/>
<path transform="translate(818,1056)" d="m0 0 4 2-6 4-11 11-7 9-2 3 1-6 12-13z" fill="#480E19"/>
<path transform="translate(1076,551)" d="m0 0 4 1 2 6v4l-5-1-5-8z" fill="#561725"/>
<path transform="translate(1101,448)" d="m0 0h2l1 4-6 6h-2l1 4-3 1v-3h-3l1-3 3-2h4l-2-6z" fill="#952932"/>
<path transform="translate(885,1171)" d="m0 0h2l-2 9-5 22h-1v-8l3-15z" fill="#24050A"/>
<path transform="translate(1178,338)" d="m0 0h10l6 4-1 2-4 1-6-3-5-1z" fill="#AD4141"/>
<path transform="translate(484,1420)" d="m0 0h7l10 3 8 5 5 6-5-2-8-6-13-4h-6z" fill="#170305"/>
<path transform="translate(781,1113)" d="m0 0 2 1-8 7-2 3h-2l-2 4-8 7v-3l18-18z" fill="#460C16"/>
<path transform="translate(1240,939)" d="m0 0h8l9 2v1l-18 1-6 4-2-1z" fill="#390911"/>
<path transform="translate(1058,523)" d="m0 0h1l2 9 3 3 3 1v3h-4l-1 3-4-2 1-3-1-5z" fill="#952932"/>
<path transform="translate(877,1614)" d="m0 0h6l-1 2-11 3-3 1h-6l-2-1 2-4 9 1z" fill="#360911"/>
<path transform="translate(1486,1150)" d="m0 0h10l14 3 3 2v2l-5-2-21-3z" fill="#420B15"/>
<path transform="translate(403,1632)" d="m0 0 8 6 9 11 5 4v2h2l-1 2-8-7-8-8v-2h-2l-5-6z" fill="#490E19"/>
<path transform="translate(1037,665)" d="m0 0 3 3 3 6 8 5 3 2-1 5-3-1h2l-4-6-8-3-2-2z" fill="#892731"/>
<path transform="translate(1102,428)" d="m0 0 6 3 2 4-1 6-6 3-7 5v-3l8-6 3-3v-3l-5-4z" fill="#541623"/>
<path transform="translate(1034,1028)" d="m0 0 4 4v4l6 1v3l-13-1v-2l4-1z" fill="#3A0912"/>
<path transform="translate(1204,961)" d="m0 0h6v2l6-2 3 1-2 4h-8l-5-2z" fill="#942831"/>
<path transform="translate(1334,413)" d="m0 0 4 1 1 1v5l-3 3-4-2 1-7z" fill="#170305"/>
<path transform="translate(1123,1571)" d="m0 0 7 1 2 3-1 4-5-1-4-3z" fill="#561725"/>
<path transform="translate(960,1526)" d="m0 0 2 1-5 6h3v-2l4-1h5l4-1-3 3-7 2-1 1h-5l-3-2 2-4z" fill="#942A32"/>
<path transform="translate(870,1173)" d="m0 0 1 2-6 26h-1v-13h2l1-10z" fill="#360911"/>
<path transform="translate(907,1052)" d="m0 0 2 1v4h2l1-4v9l-4-1-8-8z" fill="#100506"/>
<path transform="translate(448,1674)" d="m0 0 5 2 8 3 8 1 2-6 2 2v5l-5 1-12-2-8-5z" fill="#4F111D"/>
<path transform="translate(1414,1131)" d="m0 0 2 1-3 7-5 2-2 2-4 2 1-4z" fill="#070202"/>
<path transform="translate(833,1340)" d="m0 0 1 3-1 7 3 7 4 1 2 1-1 1h-6l-3-3v-2h-2l-1-3z" fill="#882731"/>
<path transform="translate(1407,1174)" d="m0 0h6l-2 5-4 2h-5l1-4z" fill="#8B2731"/>
<path transform="translate(1285,873)" d="m0 0h9l-1 4h-2v3l-9-3v-2h3z" fill="#4A060E"/>
<path transform="translate(1362,832)" d="m0 0 14 1 8 2-3 2-10-1-9-2z" fill="#3D070F"/>
<path transform="translate(1e3 1661)" d="m0 0 4 1-5 2-18 2-5 1v-2l10-3z" fill="#2B060C"/>
<path transform="translate(1075,607)" d="m0 0 3 3v2l4 1 1 7 6 7-1 2-6-5-4-10-3-4z" fill="#460D17"/>
<path transform="translate(1064,590)" d="m0 0 5 2 3 2 4 8-1 5-2-1-3-8-2-4-4-2z" fill="#430912"/>
<path transform="translate(1171,518)" d="m0 0h16l1 2h-16l-4 7-8-1-3-3 10 2 2-5z" fill="#020101"/>
<path transform="translate(1444,1321)" d="m0 0 4 2 5 10-1 7-2-4-6-13z" fill="#430912"/>
<path transform="translate(894,1572)" d="m0 0h2v2h-2zm-1 2m-1 1 1 2-5 9h-3l-1 3-1-3 6-9z" fill="#8E2932"/>
<path transform="translate(864 1e3)" d="m0 0h13l-3 9-2-4 1-3-9 1-7 1 4-3z" fill="#501421"/>
<path transform="translate(1086,627)" d="m0 0 11 7 3 3 11 1 3 2-15-1-8-5v-2l-4-2z" fill="#42070F"/>
<path transform="translate(1387,562)" d="m0 0h6l3 3-4 3h-5l-2-4z" fill="#020101"/>
<path transform="translate(1083,478)" d="m0 0 4 2-2 4 2 2-5-1h-4-3v-2h3l-1-3z" fill="#952932"/>
<path transform="translate(456,1659)" d="m0 0 5 3 4 3 4 2v5l-8-5v-2l-4-2z" fill="#551523"/>
<path transform="translate(939,1537)" d="m0 0 3 1-4 4-6 3h-5l4-4z" fill="#FEFEFE"/>
<path transform="translate(349,1459)" d="m0 0h1l1 21 2 4v3l4 1-6 1-2-8z" fill="#4D0D17"/>
<path transform="translate(839,1327)" d="m0 0 2 1-5 8-6 14h-3l2-6 8-15z" fill="#400811"/>
<path transform="translate(1133,663)" d="m0 0 1 4-5 7-10 5-4-2v-8h1l1 7 5-1 6-4 4-5z" fill="#952932"/>
<path transform="translate(1292,483)" d="m0 0 2 1-2 2 1 6 2 5h2l2 7-1 4-2-2-3-10-3-6v-5z" fill="#3E0B14"/>
<path transform="translate(1032,1650)" d="m0 0 3 1-3 3-3 1-1 3-7 4-2-1 5-5 1-3z" fill="#4E1320"/>
<path transform="translate(1448,1161)" d="m0 0 2 1-10 7-3 2h-5l3-4z" fill="#430912"/>
<path transform="translate(1189,337)" d="m0 0h25l-1 4-5 1-1-2-4-1-14-1z" fill="#4D0B15"/>
<path transform="translate(1312,1331)" d="m0 0 9 2 14 8 4 5-4-1v-2l-18-9-5-2z" fill="#170305"/>
<path transform="translate(1638,1320)" d="m0 0 5 5 9 11v2h2l1 3h-4l-6-10-7-9z" fill="#170305"/>
<path transform="translate(1433,1263)" d="m0 0 14 2 14 8-2 1-10-5-16-5z" fill="#170305"/>
<path transform="translate(1437,1161)" d="m0 0 3 1v1l3 1-5 3-8 2 2-5z" fill="#8C2831"/>
<path transform="translate(1095,627)" d="m0 0h2l4 9 3 2-5-1-10-7 3-1h2z" fill="#541522"/>
<path transform="translate(1069,479)" d="m0 0 5 5 7-1 7 4v1h-6l-1-1h-7l-3-1-2-3z" fill="#862731"/>
<path transform="translate(1251,1456)" d="m0 0 5 1 9 5 9 7-2 1-14-9-7-4z" fill="#3B0810"/>
<path transform="translate(1125,1029)" d="m0 0 1 2 2 1 1 4-2 1h-10v-1h5l-1-3z" fill="#4A060E"/>
<path transform="translate(807,1312)" d="m0 0 4 2 5 5v6l-2 2h-5l4-2-2-8z" fill="#AB3F40"/>
<path transform="translate(1480,1166)" d="m0 0h4l1 5h-2l-1 3-5-2v-3h2z" fill="#952932"/>
<path transform="translate(877,1117)" d="m0 0 4 1-3 3h-15l1-2z" fill="#4B0710"/>
<path transform="translate(1227,967)" d="m0 0 1 3 2 1v2h-27l3-2h19z" fill="#561725"/>
<path transform="translate(1263,947)" d="m0 0h4v2l-3 3-6 1h-12v-1l14-3h3z" fill="#8C2731"/>
<path transform="translate(1304,842)" d="m0 0 16 3v2l-16-1-5 1z" fill="#390810"/>
<path transform="translate(1054,544)" d="m0 0 2 3v13h-2v8h-1v-15z" fill="#3C0D15"/>
<path transform="translate(1053,1314)" d="m0 0h2l-2 6-6 5v-4l4-2z" fill="#A73C3E"/>
<path transform="translate(878,1202)" d="m0 0 1 4-2 5-3 14h-2l1-8 3-11z" fill="#25050A"/>
<path transform="translate(980,1048)" d="m0 0 12 2 15 2v1h-16l-5-1v-2h-6z" fill="#3A0810"/>
<path transform="translate(1164,369)" d="m0 0h6l7 2 5 2 1 4h-3l-3-3-13-4z" fill="#240509"/>
<path transform="translate(1209,342)" d="m0 0 7 1 2 3-3 3h-5z" fill="#4A060E"/>
<path transform="translate(485,1484)" d="m0 0 4 2 7 16v3h-2l-4-11z" fill="#36070E"/>
<path transform="translate(1121,556)" d="m0 0h3l2 3v5h-5l-2-5z" fill="#4A060E"/>
<path transform="translate(1250,341)" d="m0 0 10 10 6 7-4-1-9-9-3-4z" fill="#440A13"/>
<path transform="translate(433,1443)" d="m0 0 5 1-2 2-8 3-7 2v3l-3-1 5-5z" fill="#4A060E"/>
<path transform="translate(724,1348)" d="m0 0 1 3-3 6-5 3-2 2-6 2v-3l7-2v-2h3v-2l3-2z" fill="#561725"/>
<path transform="translate(909,1344)" d="m0 0 3 2v10l-2 5-3 1 3-12-4-5z" fill="#450E19"/>
<path transform="translate(441,1277)" d="m0 0 1 3 10-3 7 2v1l-13 2h-5l-1-3z" fill="#490A14"/>
<path transform="translate(869,1106)" d="m0 0 2 1-11 9-3 1v4h-2v-5l9-7z" fill="#4A0E19"/>
<path transform="translate(1115,412)" d="m0 0 12 2-4 2h-12l-4 1 4-4z" fill="#3B0810"/>
<path transform="translate(474,1668)" d="m0 0 5 5 1 2v7l-2 2h-9v-1l9-1-2-9z" fill="#360911"/>
<path transform="translate(981,1060)" d="m0 0 12 2 14 2v1l-23-1-1-3z" fill="#4E101C"/>
<path transform="translate(963,1049)" d="m0 0h7l5 3v2h-6l-7-3z" fill="#AF4242"/>
<path transform="translate(910,1687)" d="m0 0 1 2 16 1-3 2h-10-1l-3 1-1-5z" fill="#561725"/>
<path transform="translate(1242,1478)" d="m0 0h9l14 5-4 1-4-2-9-1-6-2z" fill="#220509"/>
<path transform="translate(834,1340)" d="m0 0h1l1 15 4 4-4-1-3-5-1-7z" fill="#AF4242"/>
<path transform="translate(1449,1309)" d="m0 0 5 1 2 7-2 1-4-4z" fill="#500E19"/>
<path transform="translate(1328,573)" d="m0 0h18l-1 2-9 1-3 1-4-1z" fill="#3B0810"/>
<path transform="translate(917,1554)" d="m0 0 3 1-6 3h-3v2h-3l-1 3-5 2 1-3 8-6z" fill="#982E35"/>
<path transform="translate(1245,1438)" d="m0 0 2 1-1 9 4 6-2 1-3-3-2-3 1-9z" fill="#460D17"/>
<path transform="translate(784,1322)" d="m0 0 10 6 11 1v1h-16l-5-6z" fill="#3C080F"/>
<path transform="translate(1423,1272)" d="m0 0 2 3 5 13v3l-4-3-3-10z" fill="#480B15"/>
<path transform="translate(1267,899)" d="m0 0 5 3h2v2l-2 1h-9l1-4z" fill="#842731"/>
<path transform="translate(1067,688)" d="m0 0h5l-1 9 2 3-4-2-2-4v-3h-2v-2z" fill="#410811"/>
<path transform="translate(1038,665)" d="m0 0 4 4 4 5 6 4 2 3-4-2-8-5-4-7z" fill="#43060E"/>
<path transform="translate(1091,464)" d="m0 0h1v6h5l1 6-2 3-2-1 1-5-6-3-1-3z" fill="#952932"/>
<path transform="translate(1228,366)" d="m0 0h7l5 6-1 4-4-1 1-3-3-3-5-2z" fill="#561725"/>
<path transform="translate(984,1517)" d="m0 0h8l-3 1v5l-6 1 5-6-9 3-3-1z" fill="#8F2831"/>
<path transform="translate(355,1505)" d="m0 0h2l1 5 2 5-4 1-3-9h2z" fill="#170305"/>
<path transform="translate(1277,1407)" d="m0 0 2 1-1 2-8 3-4 3-2-1 1-3 5-3z" fill="#410C16"/>
<path transform="translate(1048,1062)" d="m0 0h6v5h-3l-1-2-17-1v-1z" fill="#952932"/>
<path transform="translate(950,1061)" d="m0 0 3 1-4 7-4-1 1-5z" fill="#170305"/>
<path transform="translate(391,1472)" d="m0 0 2 1-5 5-11 6h-2v-2l14-8z" fill="#3B0810"/>
<path transform="translate(665,1455)" d="m0 0h1v5l9-1-3 3-2 1h-6l-1-5z" fill="#360911"/>
<path transform="translate(963,1047)" d="m0 0m-2 0 2 1v2l6 3-3 1-9-3-1-3z" fill="#952932"/>
<path transform="translate(1230,951)" d="m0 0h2v2h17v1l-18 3 1-3h-2z" fill="#852731"/>
<path transform="translate(1538,1519)" d="m0 0h10l8 1v1l-9 1-9-1-1 4v-5z" fill="#8B2731"/>
<path transform="translate(436,1311)" d="m0 0h8l1 5 2 1-5 3-3-1 3-1v-5l-6-1z" fill="#952932"/>
<path transform="translate(705,1141)" d="m0 0 2 2 9 2 5 4-8-1-9-4z" fill="#83242E"/>
<path transform="translate(1100,425)" d="m0 0h1l2 8 1 1v5l-5 6-1-3 3-3z" fill="#1A0306"/>
<path transform="translate(991,1667)" d="m0 0h4v2l-3 2-2 5-6 1 6-6h-2l1-3z" fill="#AF4242"/>
<path transform="translate(878,1347)" d="m0 0h19l-4 2-8 1-9-1z" fill="#952932"/>
<path transform="translate(876,1342)" d="m0 0m-1 1m-4 0 4 2-10 1-1 8-2 1v-7l4-4z" fill="#3D0A13"/>
<path transform="translate(1290,1325)" d="m0 0 10 2 1 3-15-3z" fill="#3D070F"/>
<path transform="translate(1440,1309)" d="m0 0 3 4 4 8-1 3-4-5-3-9z" fill="#490F1A"/>
<path transform="translate(622,1230)" d="m0 0v3l-5 3-10 7-2-1 3-3h3v-2l9-5z" fill="#4A060E"/>
<path transform="translate(1516,1171)" d="m0 0 4 2 2 7h-3v-2l-4-2z" fill="#4A060E"/>
<path transform="translate(1461,1150)" d="m0 0h5v2l-11 6v-4l4-1v-2z" fill="#430C16"/>
<path transform="translate(1064,1067)" d="m0 0 2 2-2 2-1-1h-25v-1l23-1z" fill="#4A060E"/>
<path transform="translate(1200,1009)" d="m0 0h9l8 1v1l-10 1-7-1z" fill="#3E070F"/>
<path transform="translate(1074,593)" d="m0 0 3 3v3h2v4l-3 1-3-6v-3z" fill="#52121E"/>
<path transform="translate(722,1376)" d="m0 0 2 2-6 9-2-4 3-1 2-5z" fill="#28070C"/>
<path transform="translate(1455,1351)" d="m0 0 1 3h2l3 7-1 7-2-4-3-9z" fill="#420A13"/>
<path transform="translate(776,1231)" d="m0 0 4 2v9l-2-1-1-5-5-2z" fill="#390810"/>
<path transform="translate(1455,1160)" d="m0 0 2 2v3l7-4-2 4-2 2h-5l-1-1v-5z" fill="#020101"/>
<path transform="translate(729,1134)" d="m0 0 7 1-4 3 1 3-6-2-2-1v-2h4z" fill="#451017"/>
<path transform="translate(980,1050)" d="m0 0h6v2l8 1 3 2h-8l-9-4z" fill="#541522"/>
<path transform="translate(845,1017)" d="m0 0v3l-7 10-3 3-1-3h2l2-5z" fill="#400D17"/>
<path transform="translate(1254,954)" d="m0 0h12l-3 3-4-1-3 2h-5l1-2h2z" fill="#4A060E"/>
<path transform="translate(1115,525)" d="m0 0 10 5v3l-5-1-1-3-4-2z" fill="#170305"/>
<path transform="translate(718,1330)" d="m0 0 1 2 3-1-1 8-2 1-2-2v-4z" fill="#7E242F"/>
<path transform="translate(808,1311)" d="m0 0 5 2 5 5v5l-2 1-2-8-4-2z" fill="#892731"/>
<path transform="translate(770,1223)" d="m0 0h1v7h6l-3 3h-4l-1-2v-6z" fill="#4E121F"/>
<path transform="translate(863,1202)" d="m0 0h1v7l-2 10h-2l1-11z" fill="#28060B"/>
<path transform="translate(853,1117)" d="m0 0h2v4l2-1h6v3l-10-1z" fill="#39060D"/>
<path transform="translate(1150,395)" d="m0 0 6 1v1l-13 2-5 1 5-4z" fill="#170305"/>
<path transform="translate(1206,361)" d="m0 0h2l2 11-3-2-3-5v-3z" fill="#551523"/>
<path transform="translate(1257,1422)" d="m0 0v3l-6 7-3 6-1-4 4-6z" fill="#450D17"/>
<path transform="translate(1489,1378)" d="m0 0 4 4 1 5-5 1z" fill="#561725"/>
<path transform="translate(1106,1109)" d="m0 0 8 2v3h-6l-3-2z" fill="#49060E"/>
<path transform="translate(908,1035)" d="m0 0 4 3-1 1-1 8-2-4-2-3 1-4z" fill="#020101"/>
<path transform="translate(1326,633)" d="m0 0h1l3 11 3 1v2l2 1h-5l-3-5-1-2z" fill="#511522"/>
<path transform="translate(1328,618)" d="m0 0 1 4-1 7-1 3h-2l1-13z" fill="#73212C"/>
<path transform="translate(710,1328)" d="m0 0 1 3-3 1-1 6-2 3-1-4 4-8z" fill="#4F0E19"/>
<path transform="translate(1256,1331)" d="m0 0h6l-1 2-7 2-6 2 1-4z" fill="#8F2731"/>
<path transform="translate(920,1069)" d="m0 0h6l-3 1 2 3v5l-2 1z" fill="#631C23"/>
<path transform="translate(1102,620)" d="m0 0 6 1 1 4h-7l-1-4z" fill="#AF4242"/>
<path transform="translate(1128,436)" d="m0 0 6 3-2 4-5-2z" fill="#4A060E"/>
<path transform="translate(1180,345)" d="m0 0 6 1 4 4-1 2-4-1-3-1v-3z" fill="#170305"/>
<path transform="translate(368,1525)" d="m0 0 1 4-3 12h-1v-9z" fill="#380810"/>
<path transform="translate(971,1362)" d="m0 0h15l-4 1v2h-6l-5-2z" fill="#360911"/>
<path transform="translate(882,1184)" d="m0 0h1l-1 8-2 10h-1v-8l1-7h2z" fill="#2A060C"/>
<path transform="translate(798,1173)" d="m0 0 2 1-4 4-1 3-6 4 1-4z" fill="#470F1A"/>
<path transform="translate(1036,1065)" d="m0 0 2 1 13 1v1h-19l-2-2z" fill="#8C2831"/>
<path transform="translate(1234,348)" d="m0 0 4 1 8 7v5l-2-1-3-6-7-5z" fill="#360911"/>
<path transform="translate(1227,345)" d="m0 0 7 6 1 2h-2l-1 2-2-1v-3h-2z" fill="#551523"/>
<path transform="translate(907,1578)" d="m0 0h5l-4 3h-2l-1 3-5 4v-3l5-6z" fill="#561725"/>
<path transform="translate(1e3 1529)" d="m0 0h4l-1 6h-4l-1-4z" fill="#4E0C16"/>
<path transform="translate(1464,1378)" d="m0 0 3 2 5 10-1 2-7-11z" fill="#170305"/>
<path transform="translate(698,1209)" d="m0 0 8 1v2l-16-1v-1z" fill="#40070F"/>
<path transform="translate(899,1043)" d="m0 0v3l-6 4-6 1 2-3 9-4z" fill="#020101"/>
<path transform="translate(1317,812)" d="m0 0 14 1v1l-19 2z" fill="#4A060E"/>
<path transform="translate(1165,541)" d="m0 0 2 4 1 7-5-1-2-2h5l-1-2z" fill="#551624"/>
<path transform="translate(1154,535)" d="m0 0 2 1 3 9v3l-4-4-2-7z" fill="#4D0A13"/>
<path transform="translate(875,1595)" d="m0 0v3l-4 5 3 2-5 1v-4z" fill="#4D131F"/>
<path transform="translate(1026,1309)" d="m0 0 3 1-3 3-11 2 1-3 7-1z" fill="#993439"/>
<path transform="translate(735,1145)" d="m0 0 3 1v3h-17v-1l14-1z" fill="#551624"/>
<path transform="translate(833,1075)" d="m0 0 1 2-3 6-6 5 2-4z" fill="#170305"/>
<path transform="translate(1135,964)" d="m0 0 5 2 10 1v1h-16z" fill="#82242F"/>
<path transform="translate(1099,687)" d="m0 0 3 1v2h-2v2h-3l-1 3-2-3 2-1v-3z" fill="#4A060E"/>
<path transform="translate(1370,613)" d="m0 0 4 5 3 7-3 1-3-7z" fill="#4A060E"/>
<path transform="translate(1142,430)" d="m0 0 3 1 1 5-5-1-2-2z" fill="#842731"/>
<path transform="translate(1212,363)" d="m0 0h2l1 8h-3l-1-7z" fill="#360911"/>
</svg>
