<?xml version="1.0" encoding="UTF-8"?>
<svg version="1.1" viewBox="0 0 800 800" width="200" height="200" xmlns="http://www.w3.org/2000/svg">
<path transform="translate(394,104)" d="m0 0h12l6 3 9 3 6 3 5 4 6 10 2 5 2 7 2 5v13l-3 5-2 5-2 3-1 12-3 3-1 3h17l6 3 7 1 6 5v2l6 1 5 5 2 6 17 1 6 5 4 4v2l4 2 4 6 4 8v20l3 1 3 12 3 6v2l5-1 8-7 8-4h23l16 8 7 5v2l4 2v2h2v2h2v2h2l6 8 3 5 5 7 1 7 7 9 4 9 1 10 2 2 1 6 1 17 2 1 1 4v11l3 1 1 3v25l-1 4h-2l-1 22-1 2h-2l-1 13-1 3h-2l-1 13-16 32-7 10-4 6-15 15-5 2-6 5-11 5h-10l-3-2v-2h-9l-3-2v-2l-10-5-20-20-6-10-3-4-8-17-4-11-2-9-2-3-1-16-7-2-1-7h-3l1 7v23l3 7 1 9 4 5 5 5 6 12 1 15 3 5 1 11 3 5 1 15 2 1 1 3 1 44 7 2 3 3 1 3v23l-4 4 2 6 6 12 2 8 6 12v10l-6 6-9 1-2 2-12 1h-22l-3-8-7-7-3-2v-29l3-4-1-6-7-6-3-4v-12l2-3h2l1-3 6-6v-12l-6-11-1-1-1-12-7-8-4-4-2-5-2-3-1-28-6-11-1-1v-12l3-4v-37l-3-4-2-13-2-2-1-6h-3l-1 4h-2l-1 46-7 7-2 3-4-2-4-7v-3h-2l-1 43-3 2-1 29-3 4-2 5-2 3-2 9-2 3-2 6h-2l-7-8-2-2-1-21-3-3-1-32-3-4-1-20-3-6-3-9-2-9-3-5-1-13h-3v18l-3 3v26l3 4 4 8-1 4-3 1v31l-3 2-1 10-3 2-1 10-3 2-1 13-3 4-1 13 7 2 2 6 7 2v17l-12 12v5l3 1 1 3v15l-5 5-23 11-9 5-6 5h-23l-7-4-11-6v-12l7-8 11-10 10-5 2-4 1-1v-7l-3-5v-20l5-5 6-2v-62l-3-2v-29l4-7 11-22 1-15 4-7 3-7v-10l-4-5-3-2v-12l3-7 1-13 3-5 2-9 2-3 1-24 7-8 6-6h19l10 4 2 1v2h3l2-7h2v-23l-7 1-4 5-2 1-9 1-1 2-4 1h-10l-6-5-4-5-3-7-5-5-1-41-2-1-1 13-3 4-2 18-2 2-1 33-13 13-11 5h-9l-7 4-13 7-6 5-4 1-1 9-14 14-6 2-2 2-5-1-4-3-5 2-3 3-2 6-2 4 6 1 3 7 2 3v8l-9 9-2 1h-16l-4-9-1-1v-12l2-3h2l-7-8-4-8-5-5-2-10-2-3-2-9-5 1-4 4-2 7-6-1-5-4v-26l5-1 6 3h8v-39l-3-1-1-21-3-4-1-30-3-6-1-14-3-6-1-22-3-6-1-13-3-7v-20l3-5 1-19 3-4 1-19 4-7h3l4 9 8 17 4 11 4 8 2 17 2 2 1 6 1 17 2 1 1 5 1 26 2 1 1 4 1 23 2 2 2 14 2 1 1 4v12l1 7 2 1 1 3 1 24 3 4 1 5 6-2 2-10 3-1 6 4 6 12v9l6-4 5-2 11-10 6-3 9-8 8-4 7-2v-9l4-7 3-6 1-18 3-5 1-35 5-10 11-12 6-5 17-1 2-7 5-4 23-11 6-3-3-4-1-12-7-13v-14l3-7 3-9 3-6 6-7 11-6 9-2zm90 159-1 46-1 6-6 2-2 10-3 7v2l-6-1-3-3h-2v3l3 2v2l-6-1-2-2-11-2-2-2-13-1-2-3h-3l-1 4h-2l-1 2v13l3 4 2 5h5l4-3 5-2 2-2h21l5 4 5 6 3 3 1 25 3 1 1 15h4l1-32 3-5 1-11 3-6 1-10 3-5 3-7 1-2 1-10 3-7v-10l-12-23-6-11z" fill="#0A090B"/>
<path transform="translate(557,284)" d="m0 0h12l13 4 11 6 7 7 8 13 11 23 6 19 3 14v26l-3 3v4l-11 5-13 2-8 4-6 10-2 2-4 13-2 2-6-1-3-6v-3h-5v-2l-4-1-1-4-5-1v-4l1-2-8 3-3 1h-35l3 2h39v2l4 2 3 7 4 6 6 6v18l-2 26-2 6-5 1-17-6-10-6v-2l-4-2-10-10-7-8-4-10v-2h-2l-2-10-1-10v-48l1-17 3-8 2-9 6-16 11-23 7-10 10-10 6-3 6-2z" fill="#41414A"/>
<path transform="translate(342,416)" d="m0 0h2v3h2v-2l6-1 1 12h2v28h-3v15l1 28 3 4 4 8-1 4-3 1v31l-3 2-1 10-3 2-1 10-3 2-1 13-3 4-1 13 7 2 2 6 7 2v17l-12 12v5l3 1 1 3v15l-5 5-23 11-9 5-6 5h-23l-7-4-11-6v-12l7-8 11-10 10-5 2-4 1-1v-7l-3-5v-20l5-5 6-2v-62l-3-2v-29l4-7 3-1 1 1 1-3 2-1 2-5 2-4 3-3 1-3 1-19 3-3 4-11 4-20 3-8h2l1-4z" fill="#0B090B"/>
<path transform="translate(564,279)" d="m0 0 11 1 10 4 12 8 7 8v2h2l2 6h2l8 16 8 19 4 16 4 2 1-4v13l-2-2v47l-1 20-4 19-7 23-12 25-6 10-4 5h-2l-2 4-7 8-6 1-8 4-10 3-8-2-10-6-11-9v-2l-4-2-8-7-3-5-5-9-5-14-6-16-5-23-2-20v-8l1-6 2-43 4-13 5-18 9-17 8-16 9-9 11-8 9-4zm-7 5-3 2-9 3-8 7-8 9-13 25-5 14-3 7-2 11-2 4-1 17v48l2 17 1 3h2l3 10 3 5 17 17h2v2l10 6 18 6 5-2 2-15 1-16v-18l-6-5-3-6-2-2-2-6-4-2v-2h-39l-3-2h36l3-2 7-2-2 5 3 2h3l1 4 4 1v2h5l1 6 2 3 6 1 3-4 3-11 4-5 5-8 7-3 13-2 12-6-1-4 3-2v-26l-5-21-6-17-11-22-8-11-8-7-16-7-5-1z" fill="#28282D"/>
<path transform="translate(153,124)" d="m0 0h2l3 9 6 12 4 12 3 5 2 18 2 3 2 20 2 2 1 30 2 5 2 12 1 11 2 2 2 14 2 2 1 16 1 6 2 1 3 32v9l-12 6-15 4h-2l-1-7-1-32h-2l-3-23-1-1v-11h-2l-2-20v-9l-1-3v-10h-3l-1-4 2-1-2-12v-11h-3l-1-11-1-12-2-1v-14l2-2 1-25 3-4 1-17z" fill="#686569"/>
<path transform="translate(403,107)" d="m0 0h3v2h2v2h9l3 2v2h2l2 4 5 1 2 5h2l3 6 1 7 2 3v18l-2 1v-4h-2l-1-3-5-1 1 4 2 4-1 19-4 4-7 1h-9v14l-1 7 4-4 6-1 1-12h2l-1 14-2 3-2 6-8 4-9 1h-12l-8-7-4-8v-13h2l1 11 5 6v2h4l1-7-2-8v-8h-10l-5-1 1-4-2-1-1 2-2-2-1-4v-15l5-9-5 1-3 2-2 7-3-1v-15l3-5 1-9 7-9 11-9 3-1 1 2 4 1 3-6 3 1v2l2-1v-2z" fill="#EAD5B5"/>
<path transform="translate(557,284)" d="m0 0h12l13 4 11 6 7 7 8 13 11 23 6 19 3 14v26l-3 3v1l-21 6-8 1-11-6-3-5-4-13h-7l1-2 6-1-2-10-3-20-6-31-4-15-4-10v-2l-5 1-2-4-3-2 6-2z" fill="#41414A"/>
<path transform="translate(516,606)" d="m0 0 3 2 1 3v23l-4 4 2 6 6 12 2 8 6 12v10l-6 6-9 1-2 2-12 1h-22l-3-8-7-7-3-2v-29l3-4-1-6-7-6-3-4v-12l6-5 5 1 2 4 9 4h10l9-2 8-4 6-7z" fill="#0B0A0C"/>
<path transform="translate(355,235)" d="m0 0 21 6 18 2h16l16-3 11-1v-2l7-1-2 4-4 3h-9l-1 3-2 1-17 1-1 12 31-1 11-7 7-6 2 1v6l-11 7-11 5-1 1-12 2-16 1 1 5 9 6h20l8-1v-2l5-1v-2l3-2 6-2 8-7 1-2h2v5l-10 10-7 4h-2v2l-14 4h-26l-5-2 1 3 6 4 7 6 5 3v2h6l-1 5-3 1 3 5 7 6 6 3 1 1h6l5-3h3v-2l5-5 7-10 2-6h2l-1 5-4 9-5 9-3 3-6 3-4 1v2h-10l-8-3-6-3-5-5-1-3-3-1v-2l-3-1-7-11v-2l-4-2h-11l-10 9-3 7-3 1-4 6-6 2-6 6-5 1h-11l-11-10-6-9-1-5 3 1 8 11 5 4 3 1v2h8l10-7 5-4 1-4-6-2-2 1h-14l-4-3-6-3-7-7-3-6 1-4 10 10 10 5 8 1 2 2 5-1 13-4 6-4 7-6h2v-2l-5 2h-28l-8-3-11-6-5-6-1-3-2-1v-7l3 2 1 6 4 2 14 6 9 4 1 2 4-2 15-2 5-4 2-1 1-6-5 3h-2v-3h-15l-14-4-7-4-2-3-6-2-1-2v-9l3 1v3l4 2 7 5 6 3v2l24 2 8-1 1-3h2l-1-5-6 7-4-1 6-6h2l1-6h-19l-8-4-3-1v-2l-5-1-3-2z" fill="#E7D1B0"/>
<path transform="translate(341,348)" d="m0 0h19v1l-18 1-8 8 3 2 11 8 15 6 16 4 7 1h27l16-3 14-4 7-4 9-3 6-4 5-1 2 4v14l-6 10-12 6-11 4-8 2-19 3-6 1h-20l-21-4-29-11-9-5v-23l-2 1 2-4z" fill="#3C1028"/>
<path transform="translate(364,426)" d="m0 0 4 4 11 20 5 6v2h2v2h3l1-4 9-1 4-3 1 8 1 36v17l-1 9-2 5-2 20-4 13-5 18-4 3-2-7-1-6-2-14-2-4-1-24-1-9-1-1-1-28h-2l-8-21-2-16z" fill="#3C1027"/>
<path transform="translate(626,404)" d="m0 0 2 1v22l-2 13h-2l-1 6-9 21-4 5h-2l-2 4-5 5-9 8-4 4-4 2-4 4-5 1v-6h2l1-13v-13l1-7-2 1-1 30-4 1v-34l1-14 10-5 5-13 7-10 14-6 16-6z" fill="#41414A"/>
<path transform="translate(564,279)" d="m0 0 11 1 10 4 12 8 7 8v2h2l2 6h2l8 16 8 19 4 16 4 2 1-4v13l-2-2v47l-1 20-4 19-7 23-12 25-6 10-4 5h-2l-2 4-7 8-6 1-8 4-10 3-8-2-10-6-11-9v-2l-4-2-8-7-3-5-5-9-5-14-6-16-5-23-2-20v-8l1-6 2-43 4-13 5-18 9-17 8-16 9-9 11-8 9-4zm-7 5-3 2-9 3-8 7-8 9-13 25-5 14-3 7-2 11-2 4-1 17v48l2 17 6 25 5 12 6 8 4 9 6 9 12 10 15 9 6 1 7-2 10-5 9-8 6-5 8-13 8-16 6-13 3-15 5-19 1-8v-27l-1-2 1-2v-26l-5-21-6-17-11-22-8-11-8-7-16-7-5-1z" fill="#030203"/>
<path transform="translate(492,524)" d="m0 0 4 1 1 13 2 4 1 11 1 2 3 1 1 18v13l-1 28-2 2-10 3h-9l-2-2-1-9-4-9-4-10-2-6-3-8-3-9-6-11v-5h-2l-2-15-2-4h12l3 1 1-1h7l2 14 2 4 2 13 2 2 1 16 3 6 1 9 4 15 1 4 3 1-1-2v-10h-2l-1-2v-16h2v-11h-2l-1-10-2-1-1-6-1-16-3-4v-8h2v-2l5-2z" fill="#B0905A"/>
<path transform="translate(444,416)" d="m0 0 11 1 4 1 4 5 5 5 2 1v2l-5-1-2-1 6 14 2 2 2 13 1 9 2 5 1 10 4 5 5 5 2 3v14h-2v-2h-2l-3-3v-2l-5-2-6-3h-9l-5 4-3 4-1 7-4-1-3-3-1-5 3-7v-40l-3-1v-19l-4-2 1-5 2-2z" fill="#EED9BA"/>
<path transform="translate(559,270)" d="m0 0 13 1 9 4 9 6 10 9 1 3 3 1 4 6v2h2l8 14 10 21 1 3v12l-2-1-4-13-11-25-2-5h-2l-2-6h-2l-7-8v-2l-4-2-14-8-11-2-13 1-14 7-14 13-14 27-4 10-6 21-2 6-2 43-1 6v22h-3l-3-1v-26l-1-1v-50l-1-1-2 3 1-7 2-2 2 4 1-1 2-13 5-10 3-9 5-12 4-6 4-8 10-9 6-4 10-7 5-2h3v-2z" fill="#3E3E46"/>
<path transform="translate(632,366)" d="m0 0 2 2 2 16v47l-3 20-3 13-2 4-2 9-4 4-5 12-4 8-12 18-8 9-10 7-6 5-7 4h-7l-4-3-12-4-11-6-6-4-3-6-5-5-8-7-3-3-3-6-1-8h-2l-3-7-4-9-2-6-1-10h-2l-1-4-1-15-2-4v-68l2-2 1 28v13l1 5v22l4-1 2-4 2 18 4 17 7 19 4 11 5 9 5 7 9 7v2l4 2 13 10 6 3 7 1 16-6 3-2h4l7-8 2-3h2l2-4 5-8 10-19 6-15 7-25 2-11 1-20z" fill="#28282D"/>
<path transform="translate(363,192)" d="m0 0 1 4-8 4h-3v2l3 1v2l4 2 1 3 3 1 5 6 8 6 10 4 13 1 14-2 11-5 8-5 3-6 8-7 2-1v-4h2v-2l8 1 11 3 1 4-3 4h-2v2l-5 3h-2v2l-15 10-6 2-1 3h-4v2h-3v3l-12 3-19 2-9-2-24-6-5-5h-3l-2-1v-2l-5-2-7-6-5-7v-4l3-1 3 1 2-5 12-5z" fill="#28282D"/>
<path transform="translate(556,291)" d="m0 0 3 1 6 15 6 27 5 27 2 19-6 2h6l3 7 3 10 9 6 8 1 19-6h6l-1 3-11 5-13 2-8 4-6 10-2 2-4 13-2 2-6-1-3-6v-3h-5v-2h-2l-1-5 1-1h7l-2-4-5-2-1 2h-3l-1 3-1-4 3-7 1-4v-4h2l1-8 1-3h2l-1 11 4-1 1-4-3-6 1-21v-13l-2-10-3-21-4-19-4-12z" fill="#AD8E5A"/>
<path transform="translate(481,216)" d="m0 0h16l2 1v2l5 2 5 5 3 5 3 7 1 3v12h-2l-2 5-1 2h-24l-8-6-3-3v-29z" fill="#EED9BA"/>
<path transform="translate(341,426)" d="m0 0 3 1 1 15 3 3-1 6-2 4-1 11-2 8v9l2 1 1 6v7l1 2-4 3 1 6-6 2-4-2-5-6-2-1h-13l-2 2-3-1 3-3 2-5 2-4 3-3 3-5 2-13 4-5 2-8 1-1 1-7 5-11 4-10z" fill="#EED8B9"/>
<path transform="translate(347,531)" d="m0 0 5 1v11l-3 8-4 7-2 13-2 2-5 23-1 17h6l-3 3h-14v-75l1-1 11-1 4-2 5-5z" fill="#686568"/>
<path transform="translate(368,412)" d="m0 0 17 3 30 1-1 7-5 10-4 10-5 5-6 4h-5l-9-10-6-10-7-10-3-5v-4z" fill="#3C1028"/>
<path transform="translate(297,263)" d="m0 0h19l1 1-1 13-3 16-2 10-1 7-1 1-2 13h-5l-3-3-8-3-1-3h-2l1-11 2-10 1-14h3l1-16z" fill="#515057"/>
<path transform="translate(399,166)" d="m0 0 4 2 4 9 4 8v13l-1 7 4-4 6-1 1-12h2l-1 14-2 3-2 6-8 4-9 1h-12l-8-7-4-8v-13h2l1 11 5 6v2h4l1-7-2-8v-8l-2-1h4l1-5 4-5 3-6z" fill="#E4CEAE"/>
<path transform="translate(314,216)" d="m0 0h12l1 1v31l-2 2-2 6-3 4h-15l-4-1-4-5v-12l3-12 5-5z" fill="#EBD6B7"/>
<path transform="translate(342,416)" d="m0 0h2v3h2v-2l6-1 1 12h2v28h-3v11l-3 9-1 24 3 1v11l-10-1-4-1 6-2-2-7 3-3v-9l-1-5h-2v-10l3-15v-5l3-6-1-4-2-2-1-15-3 1-7 19-1 1-1 7-3 7-1 5-3 2-2 13-2 1v-18l3-3 4-11 4-20 3-8h2l1-4z" fill="#706965"/>
<path transform="translate(516,606)" d="m0 0 3 2-1 4-2 19-5 5-9 4h-15l-12-2-6-3-1-2-1-20 4 1 2 4 9 4h10l9-2 8-4 6-7z" fill="#28282D"/>
<path transform="translate(297,608)" d="m0 0h2l2 7 8 4 8 2 16 1 7-1v-2l3-2 2-4h2v16l-5 7-5 3-6 1h-15l-14-3-5-5-1-7v-15z" fill="#29292E"/>
<path transform="translate(317,504)" d="m0 0h9l6 6v5l4 2h7l4 2v9l-3 3h-2l-1 3-3 2h-10v-4h-14l-7-6-3-3v-9l5-5 7-4z" fill="#EED8B9"/>
<path transform="translate(452,532)" d="m0 0h12l3 1 1-1h7l1 11-1-3-5-1v2l2 1-1 4-1 5h2l1 10 2 1 1 11 1 9 4 8 3 4 1 9v5h-2l1 5-1 6-2-1-1-9-4-9-4-10-2-6-3-8-3-9-6-11v-5h-2l-2-15z" fill="#AD8F5B"/>
<path transform="translate(444,416)" d="m0 0 11 1 4 1 4 5 5 5 2 1v2l-5-1-2-1-1 3-4-8-4-4h-2v24l1 8h2l1 15v29l-1 7-2 2-1 7-4-1-3-3-1-5 3-7v-40l-3-1v-19l-4-2 1-5 2-2z" fill="#6B6767"/>
<path transform="translate(626,396)" d="m0 0 2 4v5l-9 3-12 5-10 4h-2l-2 4-5 8-4 11-7 4-3 1-1 14-1 34 3-1 1-30 3-1v20l-2 13h-2v4h-2v-3h-4v-32l-1-17-6-4-2-6-3-3-2-6-3-2v-2l-39 1-4-2 1-2h36l3-2 7-1-1 5 5 2 1 4 4 1v2h5l3 8 6 1 4-9 2-6 6-9 3-4 7-3 13-2 11-5-1-4z" fill="#2D222C"/>
<path transform="translate(384,337)" d="m0 0 3 3h29l-2 10h-2v2l-5 4h-6v2h8l6-4 4-1 1 3-5 11-1 1h-27l-2-1-4-10-1-8 3 1 2 5 2 4 7-1v-2l-5-1-3-5-2-4z" fill="#666366"/>
<path transform="translate(153,124)" d="m0 0h2l1 7-5 24-1 18v2l-1 4 2 5 1 11 1 4 7 40 3 23 2 8h-2l3 10 1 9 2 16h-3l3 5v2l1 1v2h-5l-3-22-1-1v-11h-2l-2-20v-9l-1-3v-10h-3l-1-4 2-1-2-12v-11h-3l-1-11-1-12-2-1v-14l2-2 1-25 3-4 1-17z" fill="#EEDCBF"/>
<path transform="translate(425,417)" d="m0 0 2 1v18l-1 4-1 17-1 26-3 6-5-3-2-13-2-3v-18l1-14 4-9 4-8z" fill="#3C1027"/>
<path transform="translate(303,644)" d="m0 0 10 1 7 5 7 8 4 7-1 4h2l-2 4-3 2-5-1-7-9-11-7-6-3h-8l-4 8-3 3h-2l-2 4-3 4-2 6-4-1-1-5 6-8 10-10 4-5z" fill="#27272C"/>
<path transform="translate(298,333)" d="m0 0h6v8l-6 7h-2l-1 3-10 4-1 1-11 1-3 3h-2v2l-4 2-8 1-2 3h-7l-1 4-5-5 1-4 4-4 7-2 16-8 23-11h2v-2z" fill="#726A64"/>
<path transform="translate(158,135)" d="m0 0 2 1 5 13 4 9 2 4 2 18 2 3 2 20 2 2 1 30 2 5 2 12 1 11 2 2 2 14 2 2 1 16 2 7 1 11v9h-1l-3-15-3-10h2l-3-4 1-7-2-7-2-1-1-10-2-7v-6l-2-8-4-22-1-14h2l-5-17-1-6h1v-7l-2-3-1-7v-1l-1-9-3-6 2 5 1 11-2-3-3-8-1-10-2-7 1-5h-2z" fill="#EDD8BA"/>
<path transform="translate(501,264)" d="m0 0h10l8 1 1 1 1 9 2 1v10l-11 13-4-1-3-3-1-4v-10l-4-2v-2l-4-2v-5z" fill="#746B62"/>
<path transform="translate(461,500)" d="m0 0h9l4 3 6 2 4 8-1 7-4 3h-2l-1 3-3 1h-13l-3-3-1-2v-14l2-1z" fill="#ECD7B8"/>
<path transform="translate(559,270)" d="m0 0 13 1 9 4 9 6 10 9 1 3 3 1 4 6v2h2l8 14 10 21 1 3v12l-2-1-4-13-11-25-2-5h-2l-2-6h-2l-7-8v-2l-4-2-14-8-11-2-19 1 1-4h2l-1-5z" fill="#3E3E47"/>
<path transform="translate(216,332)" d="m0 0h2l1 2v9l-1 3h-5v3l9-3v4l-10 2-13 5-15 6-30 13h-1l1-9 3-3 13-5 16-6 11-4 6-2 6-4 6-3z" fill="#3D3D46"/>
<path transform="translate(481,216)" d="m0 0h16l2 1v2l5 2 5 5 3 5 3 7 1 3v12h-1l-1-12h-2l-6-8-5-6v-2l-6-2-3-2v-2l-7 2-4 9v14l5 5 5 3 10 3v2l8 1 2 2h-24l-8-6-3-3v-29z" fill="#A1875C"/>
<path transform="translate(335,541)" d="m0 0h1v8l-4 12v54l-2 1h-6v-67l7-3z" fill="#EED9B9"/>
<path transform="translate(470,539)" d="m0 0 5 1 4 10 2 13 2 2 1 16 3 6 1 9 4 15 1 4 2 1-1 3-2 1h-9v-12h2l-2-14-5-7-2-7-1-11-1-7-3-7 1-4h-2z" fill="#EBD6B7"/>
<path transform="translate(629,343)" d="m0 0 2 4h3l2 7 1 17 2 1 1 4v11l3 1 1 3v25l-1 4h-2l-1 22-1 2h-2l-1 3h-2l1-16v-47l-1-14v-9l-4-1-2-5z" fill="#0D0D0F"/>
<path transform="translate(278,324)" d="m0 0h7v5l-10 11-7 4-7 2-9 5-11 9-4-1v-7h2v-2l18-14 8-6 7-4z" fill="#AB8E5E"/>
<path transform="translate(492,644)" d="m0 0 17 1 2 2 5 2 5 6v4l-3 1h-16v-1l11-1-5-3v-2h-16v3l-2 2 3 3-12 4-5 5h-4v-10l4-6 5-5 5-4z" fill="#28282D"/>
<path transform="translate(394,104)" d="m0 0h12l6 3 9 3 6 3 5 4 6 10 2 5 2 7 2 5v13l-4 5-7 7-1 7h-1v-16l-3-5 1-4 6 2v3h2l1 3v-18l-2-3-2-9-1-4h-2l-2-5h-5l-2-5h-2v-2l-12-2v-2h-2v-2l-8 1 1 3h-3l-3-3-2 6h-3l-3-1v-2h-2l1-3 8-3z" fill="#0F0D10"/>
<path transform="translate(393,319)" d="m0 0h17l3 1 3 5v8l-5 3h-15l-10-2v-2h-2v-6l3-5z" fill="#666264"/>
<path transform="translate(304,532)" d="m0 0h7l5 5v59h3l1 20h-7l-1-2v-63l-3-1v-3h3v-4l-6-2-2-4z" fill="#A28355"/>
<path transform="translate(416,151)" d="m0 0h8l6 10v8l-6 6-4 1h-7l-6-7-1-3v-7l8-7z" fill="#080709"/>
<path transform="translate(447,401)" d="m0 0 7 1 1 5 6 1 2 4 5 2 8 6 2 5-5-2-4-4-10-6-7-2-3-3-9 2-12 2-23 1-14-1-3-3v-2h20l20-3h11z" fill="#3D1028"/>
<path transform="translate(377,152)" d="m0 0h10l6 7 1 6-2 6-5 5-11-1-6-5v-8l4-8z" fill="#080708"/>
<path transform="translate(556,291)" d="m0 0 3 1 6 15 6 27 5 27 2 19-8 1v-19l-3-14-3-21-4-19-4-12z" fill="#B9965A"/>
<path transform="translate(300,271)" d="m0 0h5 3l1 10-6 26-4 13-6-1-2-1 1-8 3-14 2-9 1-1 1-13z" fill="#EED9BA"/>
<path transform="translate(313,507)" d="m0 0 2 1-4 5-3 3-1 4 5 2 6 5 7 1 8-4h3v-6l7-1 4 2v9l-3 3h-2l-1 3-3 2h-10v-4h-14l-7-6-3-3v-9l5-5z" fill="#A78E66"/>
<path transform="translate(355,235)" d="m0 0 21 6 18 2h16l16-3 11-1v-2l7-1-2 4-4 3h-9l-1 3-2 1-17 1-1 12h-1l-1-10h-9-3l-2 2 1-5h-19l-8-4-3-1v-2l-5-1-3-2z" fill="#545054"/>
<path transform="translate(447,353)" d="m0 0h12l2 2-1 4-4 2v2l-16 7-4 2h-7v2l-9 2 1-5 6-2 2-4 6-7h2v-2z" fill="#666366"/>
<path transform="translate(465,436)" d="m0 0 2 1 2 6 2 2 2 13 1 9 2 5 1 10 4 5 5 5 2 3v14h-2v-2h-2l-3-3v-2l-3-1 2-4-2-6-3-3-2-4-1-4-4-9v-3h-2l-1-5h2l1-4-3-8-1-7z" fill="#7E7264"/>
<path transform="translate(452,532)" d="m0 0h12l3 1 1-1h7l1 11-2-4v-5l-5-1v10l-3-1-5-6-1 1 2 2 1 9 3 4v7l3-1v3l-2-1 2 5 4-2v7l-1 4h2v10h-2l-1-10-2 1v5l-2-4-3-9-6-11v-5h-2l-2-15z" fill="#656264"/>
<path transform="translate(462,201)" d="m0 0 6 1-2 5-3 1v2l-5 3h-2v2l-15 10-6 2-1 3h-4v2h-3l-1 2h-4l-4-2 1-3 10-5h2v-2l4-3h3v-2l5-4 6-4h2v-2z" fill="#42424B"/>
<path transform="translate(506,618)" d="m0 0h4l-1 6-2 3-1 5-10 5h-7v-2l-4-1-5-5-6-5 1-3 7 1h10l9-2z" fill="#404049"/>
<path transform="translate(314,216)" d="m0 0h12l1 1v31l-2 2-2 6-3 4h-15l-4-2h4v-2l-5-2-2-6 5 1 3 2 14 1 1-4h2l2-12-2-9-5-3-3-1-5 4h-2l1-3 3-3 1-4z" fill="#9B835E"/>
<path transform="translate(484,531)" d="m0 0 4 2 6 15v4l2 1 2 10 2 7v19l-4 5-3-1 1-18h-2l-1-10-2-1-1-6-1-16-3-4z" fill="#EAD5B6"/>
<path transform="translate(163,270)" d="m0 0h2l2 9 2 12 1 7 3 10v13l2 7 2 11 2 12-7 2-3-9-2-19v-9l-2-1h5v-2l-3 1v-2h2l-3-5v-2h3l-4-20-1-10z" fill="#BD9B61"/>
<path transform="translate(349,352)" d="m0 0 6 2 5 3 1 1 2-2 3 1v2h-3l1 5h4l1-3h3l4 5 1 5 9 2 1 2h-14l-6-3-6-2-2-1-1-4-1 3h-5l-7-5 1-7z" fill="#726961"/>
<path transform="translate(158,238)" d="m0 0 2 1 3 23 2 8h-2l3 10 1 9 2 16h-3l3 5v2l1 1v2h-5l-3-22-1-1v-11h-2l-2-20v-9l-1-3v-9z" fill="#EFDABB"/>
<path transform="translate(297,265)" d="m0 0 10 2v3h2l1 3h3l-1 5-1 2v9l1 6-2 15-1 1-2 13h-5l-3-3 1-6 5-22 3-13-1-8-2 1v-2h-5v2l-2-1z" fill="#6D6867"/>
<path transform="translate(182,269)" d="m0 0 2 1 1 8-1 2 3 1 2 10-1 5 2-1-1 5 3 9 2 8v-13h1l1 9 1 27-7-1-8-62z" fill="#B89559"/>
<path transform="translate(418,113)" d="m0 0h2v2h2l2 4 5 1 2 5h2l3 6 1 7 2 3v18l-2 1v-4h-2l-1-3-5-1-2 1-1-2-3-2 3-1 1-5 3-10-3-6-3-5-1 2-6-7z" fill="#947D59"/>
<path transform="translate(401,287)" d="m0 0 5 2v2l4 2 5 6 7 8 4 6 2 2 1 4h2l4 5 8 3 9 1v1h-10l-8-3-6-3-5-5-1-3-3-1v-2l-3-1-7-11v-2l-4-2h-11l-4 2-1-4 3-1 2-5z" fill="#696464"/>
<path transform="translate(298,333)" d="m0 0h6v8l-6 7-5 2-4-2h-6l-2 2-4 1-1 2-9 1-8 4-6 2v-3l16-8 23-11h2v-2z" fill="#EFDCBF"/>
<path transform="translate(208,422)" d="m0 0 4 1 1 2-1 9-5 5-4 1-3-1h-7l-5-4v-6l4-3h8z" fill="#2A2A2F"/>
<path transform="translate(468,202)" d="m0 0 7 3-1 4-4 3h-2v2l-8 6-10 7-9 3-10 4h-4v-2h3v-2l4-1 3-3 9-5 8-6h2v-2l5-3h2v-2l4-4z" fill="#28282D"/>
<path transform="translate(291,650)" d="m0 0h4v2l6-2h6l4 3v3l4 1v5l-3 1-9-6-5-2h-8l-4 8-3 3h-2l-2 4-3 4-2 6-4-1-1-5 6-8 10-10 4-5z" fill="#3F3F47"/>
<path transform="translate(562,320)" d="m0 0 2 4 3 15 2 16 1 3v13l-1 21 3 7-2 4h-4l1-11h-2l-1 6-2 2 2-10v-44l-2-20z" fill="#320F22"/>
<path transform="translate(626,396)" d="m0 0 2 4v5l-9 3-12 5-10 4h-2l-2 4-5 8-4 11-7 4-5 2-3-9-3-6h4l3 8 6 1 4-9 2-6 6-9 3-4 7-3 13-2 11-5-1-4z" fill="#290E1D"/>
<path transform="translate(380,349)" d="m0 0 3 1 2 5 4 5v3l1-3h20l3 1 1-4h2l-1 10-1 1h-27l-2-1-4-10z" fill="#89775E"/>
<path transform="translate(229,356)" d="m0 0 4 2v2h2l5 13-1 4v3 9l-2 3h-3l-3-15-7-12-2-3 1-4 4 3v2l2-1z" fill="#2A2A2F"/>
<path transform="translate(492,524)" d="m0 0 4 1 1 13 2 4 1 11 1 2 3 1 1 18v13l-1 28-2 1-1-50-3-12-1-11-3-6h-5l-3-5-2-2h2v-2l5-2z" fill="#53535A"/>
<path transform="translate(477,220)" d="m0 0 1 3 1 20 8 7 8 3 6 2v2l8 1 2 2h-24l-8-6-3-3v-29z" fill="#6A6666"/>
<path transform="translate(577,443)" d="m0 0h4v8l-2 9-2 2-1 30-4 1v-34l1-14z" fill="#B3925B"/>
<path transform="translate(473,276)" d="m0 0 2 1v10l-5 3 1 5-4 1-9 7-10 5h-11v-4l7-2 15-8 8-7 5-4z" fill="#DAC4A2"/>
<path transform="translate(283,325)" d="m0 0h2l-1 5-9 10-7 4-7 2-3 2h-5l-1-5 4-2h3l1-3 12-7 3-1 2-4h4z" fill="#EDD7B7"/>
<path transform="translate(297,608)" d="m0 0h2l2 7 8 4 8 2 14 2 2 3-4 2h-4l-2 3h-7l-7-3-1-3-7-3v-2h-2l-2-3z" fill="#3F3F48"/>
<path transform="translate(397,300)" d="m0 0 4 1 4 4 5 3v2h2v5l-2 1h-19l-3-1 1-4 4-6 3-2z" fill="#726A65"/>
<path transform="translate(336,424)" d="m0 0h1l1 9-5 14-1 1-1 7-3 7-1 5-3 2-2 13-2 1v-18l3-3 4-11 4-20z" fill="#8B7B63"/>
<path transform="translate(394,341)" d="m0 0h15l-1 3h2l1-3h3v6l-5 5-4 3h-10l-2-5-1-6z" fill="#C29E61"/>
<path transform="translate(333,261)" d="m0 0 3 2 1 6 4 2 14 6 9 4 1 2 4-1-1 4 12-1 6 1v1h-26l-8-3-11-6-5-6-1-3-2-1z" fill="#D6BD95"/>
<path transform="translate(548,274)" d="m0 0 4 1v2h-2l1 3 4 1-14 7-12 11-1-3 1-2h2v-2l-4 1 2-4-2-2 6-4 10-7z" fill="#2A2A2F"/>
<path transform="translate(329,284)" d="m0 0 7 6 6 5 8 4 8 1 2 2h5v4l-2 1h-14l-4-3-6-3-7-7-3-6z" fill="#DCC5A2"/>
<path transform="translate(216,332)" d="m0 0h2l1 2v9l-1 3h-5v3l9-3v4l-10 2-13 5-15 6-2-1 4-3 12-4h2l-2-4-4-1 9-3 6-4 6-3z" fill="#333339"/>
<path transform="translate(373,122)" d="m0 0h1v5l-3 1-1 12-2 7-2 1v2l4-4h5l1-3 2 1v3l-5 4-4-1-4 3-2 7-3-1v-15l3-5 1-9 2-1v3h2l2-6z" fill="#AC936C"/>
<path transform="translate(180,252)" d="m0 0h4l1 11 2 2 2 14 2 2 1 16 2 7 1 11v9h-1l-3-15-3-10h2l-3-4 1-7-2-7-2-1-1-10-2-7v-6z" fill="#E3CDAE"/>
<path transform="translate(336,541)" d="m0 0 2 2v9l-1 6 1 6-2 6h-2v8l1 13-1 6-1 19-3-1h2l-1-7v-48l4-11z" fill="#BD9859"/>
<path transform="translate(461,281)" d="m0 0h2l1 5-4 2v3l-4 2-1 2-11 2-5 1-11-2v-3h5l3-1h11l4-4h2l1-4z" fill="#28282D"/>
<path transform="translate(343,518)" d="m0 0 4 1v9l-3 3h-2l-1 3-3 2h-10v-4h-14l-3-3 10 1 13-2 1-2 6-3z" fill="#625F61"/>
<path transform="translate(344,473)" d="m0 0h2l1 2v21l1 4 3 1v11l-10-1-4-1 6-2-2-7 3-3v-9l-1-5h-2v-10l2 2z" fill="#B9965A"/>
<path transform="translate(563,423)" d="m0 0h11l3 8 4-1 2-1-1 8-3 4-6-1-3-6v-3h-5v-2h-2l-1-5z" fill="#B8955A"/>
<path transform="translate(313,552)" d="m0 0 2 2 1 41 3 1 1 19h-6l-1-9z" fill="#EDD8B8"/>
<path transform="translate(507,272)" d="m0 0 5 1 8 10 2 1-1 4-6 8h-3l-4-15z" fill="#EDD8B8"/>
<path transform="translate(402,527)" d="m0 0h1v28l-4 8-2 3-2 9-2 3-2 6h-2l-1-4 3-4 4-16 4-13 2-19z" fill="#070608"/>
<path transform="translate(469,220)" d="m0 0h2v27l-5-1-4-9-2-3 1-6 4-2 2 1z" fill="#28282D"/>
<path transform="translate(469,533)" d="m0 0 5 1 1 6-5-1v2l2 1-1 4-1 5h2l-1 5-3 3h-2l-1-7-3-4-1-9-2-2 1-3 3 1 2 4 4 4z" fill="#BB9759"/>
<path transform="translate(332,390)" d="m0 0 5 1 12 6v3l2 5-3 1-16-2-4-2v-1l7-1 1-4-5-3z" fill="#3D1028"/>
<path transform="translate(298,248)" d="m0 0 5 1 3 2 11 1v2h5l-1-4 4-1-2 7-3 4h-15l-4-2h4v-2l-5-2z" fill="#675B51"/>
<path transform="translate(427,436)" d="m0 0h1v46l-5 5-2-1 2-3 1-29 1-14z" fill="#151517"/>
<path transform="translate(333,215)" d="m0 0h4l2 4 1 12-2 8-4 8-2-3v-11z" fill="#27272C"/>
<path transform="translate(337,645)" d="m0 0 2 4 3 2 1 3v13l-3 2-2-2-4-1-1-2v-11l2-4h2z" fill="#27272C"/>
<path transform="translate(465,436)" d="m0 0 2 1 2 6 1 1 1 17h-2l1 3 2 1 3 8-1 7h-2l-4-9v-3h-2l-1-5h2l1-4-3-8-1-7z" fill="#B1915B"/>
<path transform="translate(343,208)" d="m0 0 6 1 4 3v2l4 1v2h2v2l4 2 4 1v2h3l2 3 3 2-4 2-9-4-8-5v-2h-2v-2h-2l-2-4-5-5z" fill="#42424B"/>
<path transform="translate(399,166)" d="m0 0 4 2 4 9 1 6h-4l-1-2h-6l-1 1h-5l1-5 4-7z" fill="#100E10"/>
<path transform="translate(439,236)" d="m0 0h5l-2 4-4 3h-9l-1 3h-21l-10 1-1-2 14-2 16-3 11-1v-2z" fill="#CBB28A"/>
<path transform="translate(349,352)" d="m0 0 6 2 5 3 1 1 2-2 3 1v2l-7 1-3 2-1-2 2 5v3h-5l-7-5 1-7z" fill="#726C69"/>
<path transform="translate(494,217)" d="m0 0 9 3 6 6 3 5 3 7 1 3v12h-1l-1-12h-2l-6-8-5-6-2-4-2-1v-2l-3-1z" fill="#C1A67B"/>
<path transform="translate(158,135)" d="m0 0 2 1 5 13 4 9 2 4v8h-2l-1 2-1-9-3-6 2 5 1 11-2-3-3-8-1-10-2-7 1-5h-2z" fill="#E3CDAB"/>
<path transform="translate(328,304)" d="m0 0 3 1 8 11 5 4 3 1v2l16 2-1 2-5 1h-11l-11-10-6-9z" fill="#E3CDAD"/>
<path transform="translate(495,652)" d="m0 0h9l4 1v2l4 1 2 3-12 1h-16l4-4h2v-3z" fill="#41414A"/>
<path transform="translate(451,444)" d="m0 0h1l1 8h2l1 15v29l-2 2-5-4v-14l1-9 2 2v16l1 3v-37l1-2-3-1z" fill="#BE9959"/>
<path transform="translate(547,412)" d="m0 0h9l-1 5-10 4-13-1-1-5 6-1 3 2 4-3z" fill="#A98D5D"/>
<path transform="translate(577,461)" d="m0 0h2v20l-2 13h-2v4h-2v-3h-4v-16l1-16h1l1 29h3l1-30z" fill="#211E23"/>
<path transform="translate(285,656)" d="m0 0h2l1 3-3 5-4 2-2 4-3 4-2 6-4-1-1-5 6-8z" fill="#F7EFE4"/>
<path transform="translate(593,417)" d="m0 0 2 2-4 5-4 8-4 9-10 5-3-4-3-9-1-2h4l3 8 6 1 4-9 2-6 5-5z" fill="#261420"/>
<path transform="translate(454,308)" d="m0 0 6 1 3 7-4 2v2l-7 2-3-1v-3h-2l2-6z" fill="#2C2C30"/>
<path transform="translate(338,408)" d="m0 0 4 1v2l-11 9-6 10-2 2h-3l-1-5 3-7 3-2 6-2 4-2 2-5z" fill="#3D1028"/>
<path transform="translate(411,350)" d="m0 0 1 2-5 4h-6v2h8l6-4 4-1 1 3-4 10-2-4 2-5-2 1-1 3-23-1-1 4-2-2h2l-1-3 6-1v-2l-4-1 15-1z" fill="#38363D"/>
<path transform="translate(350,549)" d="m0 0h2v10l-3 2-1 10-3 2-1 9h-1l-1-8-2 3 1-5 2-6 1-8 5-8z" fill="#151518"/>
<path transform="translate(208,422)" d="m0 0 4 1 1 2-1 9-5 5-3-1 2-5 2-4-8 2h-5v-3h5v-2z" fill="#5A5656"/>
<path transform="translate(245,345)" d="m0 0 5 1 3 4-10 9-5 1-1-1v-7h2v-2z" fill="#EFDCBF"/>
<path transform="translate(409,299)" d="m0 0 4 1 8 10 5 5v2h3v2h2l4 5 8 3 9 1v1h-10l-8-3-6-3-5-5-1-3-3-1v-2l-3-1z" fill="#4B494F"/>
<path transform="translate(615,313)" d="m0 0 3 3 10 21 1 3v12l-2-1-4-13-8-18 1-3z" fill="#393941"/>
<path transform="translate(293,660)" d="m0 0h6l1 1v5l-8 7-8-1 1-4 4-4h2z" fill="#E6D0AF"/>
<path transform="translate(398,325)" d="m0 0 5 1 5 2 3 3v2l-6 2h-11l-1-5 3-3h2z" fill="#BE9959"/>
<path transform="translate(283,347)" d="m0 0h7l6 3-5 3-7 3h-11l-3-3 3-1 3 1 1-3 5-2z" fill="#B49563"/>
<path transform="translate(418,113)" d="m0 0h2v2h2l2 4 5 1 2 5h2l2 4v3h-2l1 6-1-2h-2l-2 6-1-2 2-7-3-6-3-5-1 2-6-7z" fill="#A58A5E"/>
<path transform="translate(306,664)" d="m0 0 4 1 1 4-5 3-5 5-8 9h-1v-8l5-5z" fill="#F6EFE3"/>
<path transform="translate(575,380)" d="m0 0h5l2 2v5h2l1 8h2l1 6 4 1 5 2 6 1-2 2-8-1-9-6-3-7-3-10h-7l1-2z" fill="#29101E"/>
<path transform="translate(157,259)" d="m0 0 3 3 3 17 2 10-1 2h2v6l-1 4-2 1-1-9-1-1v-11h-2z" fill="#C1A474"/>
<path transform="translate(494,664)" d="m0 0h6l1 10 2 5-9 1-1-1v-14z" fill="#E4CFB0"/>
<path transform="translate(194,372)" d="m0 0 5 1 1 1v8l-4 2h-8v-8h4z" fill="#796F64"/>
<path transform="translate(619,316)" d="m0 0 5 5 4 6 4 9v12l-2-1-5-15-7-13z" fill="#0F0F11"/>
<path transform="translate(297,265)" d="m0 0 10 2v3h2l1 3h3l-1 5-1 2-1 9-1 2h-2l-1 7h-1l1-8 2-10-1-8-2 1v-2h-5v2l-2-1z" fill="#BE9959"/>
<path transform="translate(163,156)" d="m0 0 3 3 2 4 1 7 1 4-1 1 2 6 1 4v8l-3 1-7-30 1-2 3 8-1-8-2-3z" fill="#BC985A"/>
<path transform="translate(179,376)" d="m0 0 5 1v8l-1 2-10 1-1-1v-6z" fill="#E1CAA8"/>
<path transform="translate(595,289)" d="m0 0 4 2 5 3 4 6v2h2l5 9 2 8-3-1-4-8v-2h-2l-2-6h-2l-7-8v-2h-2z" fill="#504F57"/>
<path transform="translate(482,667)" d="m0 0h5l1 2v10l-5 5h-2l-1-3v-11z" fill="#E2CEAF"/>
<path transform="translate(304,532)" d="m0 0h7l5 5v58h-1l-1-56-2-3-1 2h2l-1 4-1-3h-2l-2-4-1-1-2 3z" fill="#58575C"/>
<path transform="translate(355,235)" d="m0 0 21 6 2 3 8-1v3l-12 1-8-4-3-1v-2l-5-1-3-2z" fill="#DBC4A1"/>
<path transform="translate(296,279)" d="m0 0 1 3-2 5h2l-2 16-4 14-1-2h-2l1-11h3l1-4v-19h3z" fill="#BD995A"/>
<path transform="translate(491,253)" d="m0 0 7 1 3 1v2l8 1 2 2h-24l-3-2v-2l10-1z" fill="#BA9759"/>
<path transform="translate(339,517)" d="m0 0h4l1 3h-2l-1 4-3 2h-3l-1 3-13 2h-6l2-4 8 1 8-4h3v-6z" fill="#B6955C"/>
<path transform="translate(513,266)" d="m0 0 1 2h3l2 6 3 3v7l-3-1-8-10-4-1 1-4z" fill="#BE9959"/>
<path transform="translate(238,369)" d="m0 0 2 4-1 4v3 9l-2 3h-3l-3-16h6z" fill="#28282D"/>
<path transform="translate(329,447)" d="m0 0 1 2-2 7-1 2 1 6-1 3-3 2-2 13-2 1v-18l3-3 5-14z" fill="#756756"/>
<path transform="translate(205,371)" d="m0 0h5l1 1v24l-3-1-1-14-2-3z" fill="#585557"/>
<path transform="translate(392,360)" d="m0 0 14 1 2 2-1 4h-15l-1-1v-5z" fill="#EFDABB"/>
<path transform="translate(629,343)" d="m0 0 2 4h3l2 7v16h-1l-1-9-4-1-2-5z" fill="#28282E"/>
<path transform="translate(620,400)" d="m0 0h6l-1 3-11 5h-13v-2z" fill="#B4935B"/>
<path transform="translate(470,389)" d="m0 0h5l1 5-5 3-10 3h-5l4-2v-2z" fill="#3D1028"/>
<path transform="translate(492,524)" d="m0 0 4 1v12h-7l-3-5-2-2h2v-2l5-2z" fill="#7F7365"/>
<path transform="translate(564,336)" d="m0 0h1l2 16v20l1 10-4 16-2 2 2-10z" fill="#29272D"/>
<path transform="translate(311,672)" d="m0 0h2l1 4-2 5-5 2-5 4-6 1 2-4 11-9z" fill="#E2CBA8"/>
<path transform="translate(556,413)" d="m0 0h3l-1 7 4-1 1-3 5 2 2 2v3l-7 1v4h-2l-1-4-5-1v-4z" fill="#5F5861"/>
<path transform="translate(507,278)" d="m0 0 2 3 2 6 1 9 2 1-2 2-4-1-2-2-1-7v-8h2z" fill="#C1A069"/>
<path transform="translate(431,160)" d="m0 0h1l-1 19-4 4-7 1h-9v-2h8l2-1 2 1 2-5 2-2-1-3 3-3z" fill="#716556"/>
<path transform="translate(393,319)" d="m0 0h17l3 1 3 5v8l-4 1 2-1-2-9-5-1-6-2-11 1-3 1v-2z" fill="#393940"/>
<path transform="translate(158,238)" d="m0 0 2 1 2 15v9h-2l-3-4v-7l-1-3v-9z" fill="#EBD5B3"/>
<path transform="translate(449,497)" d="m0 0 1 3 4-2 1 5-2 2-1 7-4-1-3-3-1-5z" fill="#B69762"/>
<path transform="translate(508,664)" d="m0 0h3l3 15 2 4-1 5-3-1-4-11z" fill="#DECAAE"/>
<path transform="translate(458,507)" d="m0 0 1 2v8l5 5 5 3 4 1v1h-13l-3-3-1-2v-14z" fill="#89775D"/>
<path transform="translate(315,263)" d="m0 0 2 1-1 13-3 16-2-1-1-3v-9l3-6z" fill="#53535A"/>
<path transform="translate(390,180)" d="m0 0 1 2 6-2h6l1 3h4l1-3 1 4-5 3h-2l-2 5h-1l-1-5-8-3z" fill="#B1905A"/>
<path transform="translate(373,122)" d="m0 0h1v5l-3 1-1 12-3 1-1 5-4 3 1-5 2-7-1-1v-6l2-1v3h2l2-6z" fill="#796859"/>
<path transform="translate(452,532)" d="m0 0h12l3 1 1-1h7l1 11-2-4v-5l-5-1v10l-3-1-5-6-1-1v-2l-8 1z" fill="#626065"/>
<path transform="translate(641,387)" d="m0 0 2 1 1 3v25l-2 4-1-2z" fill="#4C4B51"/>
<path transform="translate(382,114)" d="m0 0 3 1-2 4-6 5-5 1-4 7h-2l-1 2 1-6 4-6 5-4 6-3z" fill="#C8AD80"/>
<path transform="translate(153,124)" d="m0 0h2l1 7-6 28h-1v-14l2-3 1-17z" fill="#E5D3B8"/>
<path transform="translate(394,104)" d="m0 0h5v7h-3l-3-3-2 6h-3l-3-1v-2h-2l1-3 8-3z" fill="#4C443B"/>
<path transform="translate(493,595)" d="m0 0 2 4 4-1h-2v-2l3 1v8l-1 5h2l-1 5-3-1-4-13z" fill="#EED9B9"/>
<path transform="translate(353,358)" d="m0 0 3 1 1 2 2-3v2h4l2 5 3 2-2 4-5-1-2-1-1-4-3-1z" fill="#AC9062"/>
<path transform="translate(298,333)" d="m0 0h6v8l-4 4-2-2h-5l1-2h2v-4l-2-1z" fill="#72634F"/>
<path transform="translate(341,265)" d="m0 0 10 1 7 4 9 2h4v2l4-1v2h-11l-10-3-13-6z" fill="#28282D"/>
<path transform="translate(469,261)" d="m0 0h2v5l-10 10-3 2h-3l1-5-2-1 6-2 8-7z" fill="#B99D6E"/>
<path transform="translate(470,556)" d="m0 0h2l1 5 2 1 1 11 1 8-2 4-1-2v-9h-2v-10l-3 1-2-5 2-1z" fill="#BD9A60"/>
<path transform="translate(170,170)" d="m0 0h1l2 10 2 3v14l-4-1-1-6h1v-7l-2-3-1-7z" fill="#EED9B9"/>
<path transform="translate(455,417)" d="m0 0 4 1 4 5 5 5 2 1v2l-5-1-2-1-1 3-4-8-4-4h-3v-2z" fill="#8F7D62"/>
<path transform="translate(406,291)" d="m0 0 4 2 5 6 7 8 4 6 2 2v2h-2l-7-8-7-9-4-2z" fill="#BF9A5B"/>
<path transform="translate(377,188)" d="m0 0h2l1 11 5 7-1 2 4 2v2l-3 1-5-6-3-6z" fill="#CBB38C"/>
<path transform="translate(394,252)" d="m0 0h1v6l-3 3-9 2-20-2-3-2h28z" fill="#927C59"/>
<path transform="translate(430,364)" d="m0 0 4 1v2l-3 1-1 2h3v2h-4v2l-9 2 1-5 6-2 2-4z" fill="#897963"/>
<path transform="translate(203,347)" d="m0 0 1 2 3 1-1 4-15 6-9 3 4-4 12-4h2l-2-4-4-1z" fill="#28282D"/>
<path transform="translate(432,139)" d="m0 0 5 1 2 5v14l-2 1-4-17z" fill="#B3935C"/>
<path transform="translate(340,244)" d="m0 0 3 1v3l4 2 3 3-1 5-8-3-1-2z" fill="#504F56"/>
<path transform="translate(318,487)" d="m0 0 2 4-1 5-4 1v2h10v1l-12 1-2 2-3-1 3-3 2-5 2-4z" fill="#A68F6C"/>
<path transform="translate(524,415)" d="m0 0 5 2v3h-17v-4z" fill="#BE9959"/>
<path transform="translate(166,295)" d="m0 0h2l1 10h-3l3 5v2l1 1v2h-5l-1-5v-14z" fill="#E3CEAF"/>
<path transform="translate(470,445)" d="m0 0 2 4 2 18 2 5 1 10 2 3-4-2-1-7-1-6-1-5-3-1v-3h2z" fill="#3D3C43"/>
<path transform="translate(380,349)" d="m0 0 3 1 2 5 4 5v7h-4l-4-10z" fill="#867866"/>
<path transform="translate(147,359)" d="m0 0 4 2 1 14-1 9h-2l-1-2z" fill="#4A494F"/>
<path transform="translate(399,306)" d="m0 0 3 1 2 8h-12l2-1 1-6z" fill="#CDAE78"/>
<path transform="translate(570,496)" d="m0 0 2 2-2 19-3 10-3 1v-6l3-3 1-6 1-16z" fill="#5C595C"/>
<path transform="translate(447,456)" d="m0 0 2 4 1 34 3 1 1 3-4 2h-3z" fill="#3E3E47"/>
<path transform="translate(381,305)" d="m0 0 2 1-2 6-3 1-4 6-6 2-4 3 2-4 7-6 7-8z" fill="#867458"/>
<path transform="translate(303,673)" d="m0 0 2 1-1 2 2 2-9 8-1 2 3 1h-5l-1-4 7-8z" fill="#3B2831"/>
<path transform="translate(570,463)" d="m0 0h1l1 29 4 2-1 4h-2v-3h-4v-16z" fill="#040204"/>
<path transform="translate(208,424)" d="m0 0 4 2-1 10-4 3-3-1 2-5 3-5h-5v-2z" fill="#605F66"/>
<path transform="translate(447,353)" d="m0 0h12l2 2-1 3-4-1-4 1-6-2-9 1v-1z" fill="#36363D"/>
<path transform="translate(278,324)" d="m0 0h7l-5 4-1-2h-2l-2 5-7 2-1-4 5-3z" fill="#BD9A5F"/>
<path transform="translate(504,228)" d="m0 0 4 1 3 5 2-2 3 9v12h-1l-1-12h-2l-6-8z" fill="#7C7165"/>
<path transform="translate(435,131)" d="m0 0h1l1 7 2 3-1 4-2-4-4-2 2 4v5l-4-3-1-4 2-5 2-1v-3z" fill="#5C5B63"/>
<path transform="translate(350,501)" d="m0 0h1v11l-10-1-4-1 1-1h7v-6h3l1 1z" fill="#686466"/>
<path transform="translate(344,473)" d="m0 0h2l1 2v11l-3 1-2-3h-1v-10l2 2z" fill="#CCAB75"/>
<path transform="translate(190,296)" d="m0 0 2 1 2 7 1 11v9h-1l-3-15-3-10h2z" fill="#EFDABB"/>
<path transform="translate(562,401)" d="m0 0 1 2h-2l1 7-3 3h-3v-2h-7l4-2 5-2-1-3z" fill="#35212E"/>
<path transform="translate(217,369)" d="m0 0 4 2 3 6 1 11-3-1z" fill="#28282D"/>
<path transform="translate(322,249)" d="m0 0 3 1-2 6-3 4h-15v-1l7-1v-1l5-1 1-2 4-1z" fill="#55535A"/>
<path transform="translate(336,589)" d="m0 0 1 3-2 14v7h6l-3 3h-5v-19l1-6h2z" fill="#434249"/>
<path transform="translate(197,417)" d="m0 0h7l-1 5-5 2h-6l3-6z" fill="#504C4B"/>
<path transform="translate(194,372)" d="m0 0 5 1 1 1v8l-5 1-2-10z" fill="#A18860"/>
<path transform="translate(351,282)" d="m0 0 5 1 8 2 1-2 4-1-1 4 12-1 6 1v1h-26l-8-3z" fill="#796B59"/>
<path transform="translate(324,541)" d="m0 0h8l2 2-4 5-6 1z" fill="#A2885D"/>
<path transform="translate(465,436)" d="m0 0 2 1 2 6 1 1v7l-4 1-2-7z" fill="#99825D"/>
<path transform="translate(450,471)" d="m0 0 2 2v21l2 1-3 1-2-2v-14z" fill="#BC9859"/>
<path transform="translate(163,270)" d="m0 0h2l2 9 2 12 1 7-1 4-2-7-2-10-1-10z" fill="#BE9959"/>
<path transform="translate(421,188)" d="m0 0h2l-1 14-2 3-1 5-4-4-1-5 6-1z" fill="#A1855A"/>
<path transform="translate(394,372)" d="m0 0h13v3l-3 1h-12v-3z" fill="#E4CDA9"/>
<path transform="translate(246,360)" d="m0 0h3l-2 11h-3l-3-4 1-4z" fill="#D1BA95"/>
<path transform="translate(384,336)" d="m0 0 5 2h27l1 1-1 8-1-4 1-3-29 1z" fill="#2E2E34"/>
<path transform="translate(394,248)" d="m0 0 8 1 4 1-6 2-7 2-5 6-4-1 8-7z" fill="#BF9B5C"/>
<path transform="translate(517,664)" d="m0 0 6 5 3 4v2h-5l-5-6z" fill="#F1E0C8"/>
<path transform="translate(178,392)" d="m0 0h5l2 2v4l-8 1-1-1v-5z" fill="#F4E9D8"/>
<path transform="translate(281,676)" d="m0 0h6l1 1v5l-1 1-7-1-1-3z" fill="#EDE4D7"/>
<path transform="translate(457,546)" d="m0 0 4 5 2 8 3 5-1 2-4-4-3-6z" fill="#AA8D5D"/>
<path transform="translate(185,404)" d="m0 0h6l1 5h2v2h-7l-3-3z" fill="#E4D5BF"/>
<path transform="translate(170,194)" d="m0 0 2 2 4 13v4h-2l-1 4-2-13-1-1z" fill="#C4A166"/>
<path transform="translate(429,151)" d="m0 0 6 2 1 5-2 5-1-3h-2l-3-5z" fill="#080709"/>
<path transform="translate(487,684)" d="m0 0 5 1v5l-7 1-2-2 1-4z" fill="#EDE2D2"/>
<path transform="translate(345,524)" d="m0 0h1v5l-4 2-1 3-5 1h-7l1-3h6l6-4 2-1z" fill="#AB8C59"/>
<path transform="translate(513,265)" d="m0 0h6l1 1 1 9 2 1v10h-1v-9l-3-1-2-3v-5h-3z" fill="#5B5A61"/>
<path transform="translate(488,257)" d="m0 0 3 1 4-1 14 1 2 2h-24l-2-2z" fill="#5B595E"/>
<path transform="translate(317,219)" d="m0 0 6 1-1 2 3 2-1 2-9-3-5 4h-2l1-3 5-4z" fill="#867864"/>
<path transform="translate(291,650)" d="m0 0h4v2h8l-4 3h-9l-3 3-1-4z" fill="#535259"/>
<path transform="translate(245,345)" d="m0 0 3 1-2 6-9 4v-4h2v-2z" fill="#BE9D66"/>
<path transform="translate(396,345)" d="m0 0 4 2 3 2-1 5-5-1-2-1z" fill="#EFDABB"/>
<path transform="translate(288,324)" d="m0 0h3v10l-1 1h-5l2-10z" fill="#EDD7B7"/>
<path transform="translate(409,299)" d="m0 0 4 1 8 10 1 2-3 1-5-5z" fill="#5E5D64"/>
<path transform="translate(297,265)" d="m0 0 10 2 1 4-3 2v-2h-5v2l-2-1z" fill="#BF9A5B"/>
<path transform="translate(559,270)" d="m0 0 13 1 6 2v3h-6v-3h-11l-8-1v-1z" fill="#28282D"/>
<path transform="translate(157,259)" d="m0 0 3 3 2 10v5h-2l-1 4z" fill="#84735B"/>
<path transform="translate(510,420)" d="m0 0 20 1-1 2-16 1-4-2z" fill="#2B232C"/>
<path transform="translate(305,310)" d="m0 0h1l1 10-1 4-5-1-1-4 2-1z" fill="#C19D5F"/>
<path transform="translate(313,227)" d="m0 0 3 1v3l-2 1-2 7h-4l1-7z" fill="#1A1719"/>
<path transform="translate(500,684)" d="m0 0h3l1 7h-7l-1-4z" fill="#F3EDE4"/>
<path transform="translate(200,401)" d="m0 0 4 1-1 5-4 2h-3l1-6z" fill="#E1D4C2"/>
<path transform="translate(436,156)" d="m0 0 3 3-2 6-4 4-1 7h-1l1-16 2 2z" fill="#3D3D44"/>
<path transform="translate(397,329)" d="m0 0h7v6h-7l-1-5z" fill="#EFDABB"/>
<path transform="translate(443,318)" d="m0 0h6l3 3-1 3h-6l-4-4z" fill="#1C1A1C"/>
<path transform="translate(295,278)" d="m0 0 1 3h-3l1 11v9l-2 4-2-1 2-24h3z" fill="#44444B"/>
<path transform="translate(297,268)" d="m0 0 2 4 1 4-1 10-4 1 1-11z" fill="#78695D"/>
<path transform="translate(376,242)" d="m0 0h11l7 3v1l-5 1h-11v-1l8-1-4-1-5 1z" fill="#9D8359"/>
<path transform="translate(289,304)" d="m0 0h5l-3 13-1-2h-2z" fill="#B99659"/>
<path transform="translate(394,288)" d="m0 0h5l-4 4 5-1v3h-6l-1 3-3 1-1-4 3-1z" fill="#BC9B63"/>
<path transform="translate(333,261)" d="m0 0 3 2 1 6 4 2-1 5-4-4-1-3-2-1z" fill="#B09B7A"/>
<path transform="translate(330,441)" d="m0 0 3 3-2 11-3 7-2-4 2-3 1-7-1-2z" fill="#C19D5F"/>
<path transform="translate(307,253)" d="m0 0 10 3-3 3h-13l4-1z" fill="#B5945D"/>
<path transform="translate(148,146)" d="m0 0h1l1 13v14l-2 1-1-3z" fill="#CBB89E"/>
<path transform="translate(586,395)" d="m0 0 2 3v3l4 1 5 2 6 1-2 2-8-1-8-5z" fill="#301E2B"/>
<path transform="translate(570,362)" d="m0 0h1v18l4 1-3 1 1 2h-2l-2 4v-17z" fill="#65646B"/>
<path transform="translate(372,370)" d="m0 0 14 3 1 2h-14l-2-4z" fill="#9E8764"/>
<path transform="translate(234,368)" d="m0 0h4v6l-1 2-4 1-1-1v-5z" fill="#42424B"/>
<path transform="translate(266,351)" d="m0 0 4 2-11 5-6 2v-3z" fill="#E8D3B3"/>
<path transform="translate(341,272)" d="m0 0 5 1 4 3-3 2h-6l-1-5z" fill="#E6CFAA"/>
<path transform="translate(297,242)" d="m0 0h1v5l3 1h-3l2 6 6 1-1 3-5-1-3-3z" fill="#DCC49F"/>
<path transform="translate(480,497)" d="m0 0h2v2h3l2 5-1 4-5-4v-2l-3-1z" fill="#AE9368"/>
<path transform="translate(576,424)" d="m0 0 6 2-2 6-4-1-1-6z" fill="#340F23"/>
<path transform="translate(533,414)" d="m0 0 5 1 1 5h-7l-1-5z" fill="#BB9759"/>
<path transform="translate(366,357)" d="m0 0h2v2l3 1-2 1-1 4-5-1v-5h3z" fill="#36353B"/>
<path transform="translate(632,346)" d="m0 0 3 2 1 6v16h-1l-1-13-3-9z" fill="#27262A"/>
<path transform="translate(473,276)" d="m0 0 2 1v10l-6 3v-2l-2-1 5-4z" fill="#AC997D"/>
<path transform="translate(430,315)" d="m0 0 2 1 3 5 6 4 6 2-4 1-8-3-4-4v-2l-2-1z" fill="#B7955A"/>
<path transform="translate(511,243)" d="m0 0h3l-1 7-3 2h-3l1-5z" fill="#554B3F"/>
<path transform="translate(431,160)" d="m0 0h1l-1 16-4-1-1-3 3-3z" fill="#B7955A"/>
<path transform="translate(521,680)" d="m0 0h6l1 4-3 2-4-1-1-4z" fill="#F3E8D7"/>
<path transform="translate(154,367)" d="m0 0 1 2 4-1v2h-3l1 2 5-2 3 1-12 5z" fill="#28282D"/>
<path transform="translate(491,228)" d="m0 0 5 1v2l4 2v4l-4-2-5-4z" fill="#333030"/>
<path transform="translate(376,143)" d="m0 0 2 1v3l-5 4-4-1-4 2 2-4 3-2h5z" fill="#71604F"/>
<path transform="translate(618,484)" d="m0 0h1l-1 8-2 3h-2v2h-2l1-5 3-6h2z" fill="#2E2E34"/>
<path transform="translate(566,431)" d="m0 0h4l4 10 2 2h-2l-1 3-3-4-3-9z" fill="#240A18"/>
<path transform="translate(568,407)" d="m0 0h6l2 1v4h-7l-2-4z" fill="#210916"/>
<path transform="translate(188,389)" d="m0 0 4 1v7l-5 1z" fill="#E7CFAB"/>
<path transform="translate(340,310)" d="m0 0h7l5 2 2 1-1 2-11-1z" fill="#2A2A2F"/>
<path transform="translate(507,282)" d="m0 0 1 2h2l2 12 2 1-2 1-3-3z" fill="#6E645D"/>
<path transform="translate(461,269)" d="m0 0m-1 1m-1 1 4 1v3l-5 3h-3l1-5-2-1z" fill="#BA9D6C"/>
<path transform="translate(470,556)" d="m0 0h2l1 5 2 1-2 4-1-2-3 1-2-5 2-1z" fill="#BE9959"/>
<path transform="translate(388,243)" d="m0 0 18 1v1l-9 1-4 6-1-3 1-2-4-1 3-1z" fill="#5A5A60"/>
<path transform="translate(325,239)" d="m0 0h1v8l-1 2-3 1 1 4-2 1-4-1v-2h3l1-4h2z" fill="#BB9759"/>
<path transform="translate(439,236)" d="m0 0h5l-2 4-4 3h-7l4-2 2-4z" fill="#D5BD97"/>
<path transform="translate(175,191)" d="m0 0h1l1 12 1 2-3 1-2-2-1-7 2-1z" fill="#D4BFA0"/>
<path transform="translate(418,113)" d="m0 0h2v2h2l1 6 4 1h-3l-1 2-6-7z" fill="#A0865D"/>
<path transform="translate(462,532)" d="m0 0 5 1 1-1h7l1 11-2-4v-5l-5-1-2 4z" fill="#424249"/>
<path transform="translate(313,507)" d="m0 0 2 1-4 5-4 4-2-1 1-4 3-3z" fill="#C09E64"/>
<path transform="translate(449,502)" d="m0 0 4 2-1 8-4-1-3-3v-2h3l2 3 1-3-4-2z" fill="#5D5A5B"/>
<path transform="translate(461,496)" d="m0 0 2 1-1 1 6 1v1l-7 1-2 2h-2l-5 4 2-4 5-5z" fill="#27272B"/>
<path transform="translate(604,410)" d="m0 0 5 1-2 2-11 4-3-2 3-2 6-1z" fill="#25252A"/>
<path transform="translate(565,392)" d="m0 0h2l-1 11 4 1h-6l-1-1 1-8z" fill="#807465"/>
<path transform="translate(349,350)" d="m0 0 6 2 6 3 5 1-6 3v-2l-5-2-6-3-1 2z" fill="#352F38"/>
<path transform="translate(341,265)" d="m0 0 10 1 6 5-3 1-13-6z" fill="#43424A"/>
<path transform="translate(306,664)" d="m0 0 4 1 1 4-5 2-4-2z" fill="#E6CEAA"/>
<path transform="translate(330,432)" d="m0 0 2 3 1 3 2-1-1 7h-2l-1 2-2-6 1-4z" fill="#605C5D"/>
<path transform="translate(205,372)" d="m0 0 5 1v6l-4 1-1-2z" fill="#877760"/>
<path transform="translate(462,423)" d="m0 0 6 5 2 1v2l-5-1-2-1-1 3-1-7z" fill="#6D6764"/>
<path transform="translate(626,396)" d="m0 0 2 4v5l-9 2v-2l6-3-1-4z" fill="#301E2A"/>
<path transform="translate(196,327)" d="m0 0h1l1 17-5-1v-3l2-1 2 1-1-3z" fill="#4E4E55"/>
<path transform="translate(380,200)" d="m0 0 5 5-1 3 4 2v2l-3 1-4-4 1-4-2-2z" fill="#BB9F71"/>
<path transform="translate(429,201)" d="m0 0h2v7l-9 7-2-1 7-6z" fill="#9C8D78"/>
<path transform="translate(423,150)" d="m0 0 4 1 4 6v5l-4-4z" fill="#D8C29F"/>
<path transform="translate(152,142)" d="m0 0 1 3-3 14h-1v-14z" fill="#F5E8D6"/>
<path transform="translate(246,359)" d="m0 0h5v8l4-1-1 2h-7l2-8z" fill="#4B474D"/>
<path transform="translate(463,545)" d="m0 0h4l2 6-1 2-4-2-1-1z" fill="#EFDABB"/>
<path transform="translate(452,479)" d="m0 0h2v13l-2 2-1-9z" fill="#65646B"/>
<path transform="translate(575,380)" d="m0 0h5l2 2 1 6h-2v-3h-2l-1-2h-7l1-2z" fill="#1B0813"/>
<path transform="translate(267,353)" d="m0 0h4v2h2l-2 4-3-2-2 1-3-3z" fill="#6C6768"/>
<path transform="translate(343,249)" d="m0 0 7 3-1 6-5-4h-2z" fill="#B8955A"/>
<path transform="translate(473,481)" d="m0 0h2l5 8v5l-2-2-3-5-2-3z" fill="#BE9959"/>
<path transform="translate(344,473)" d="m0 0h2l1 2v7l-2-3-4 2v-7l2 2z" fill="#B5935A"/>
<path transform="translate(469,451)" d="m0 0 2 2v8l-3-1-1-8z" fill="#BE9959"/>
<path transform="translate(593,417)" d="m0 0 2 2-4 5-2 3h-2l-1-3 5-5z" fill="#28242B"/>
<path transform="translate(380,349)" d="m0 0 3 1 2 5v3l-2 3-3-9z" fill="#4F4F56"/>
<path transform="translate(300,338)" d="m0 0h3v5l-3 2-2-2h-5l1-2h5z" fill="#AD936A"/>
<path transform="translate(394,252)" d="m0 0h1v6l-3 3h-5l6-8z" fill="#59514F"/>
<path transform="translate(396,200)" d="m0 0h8v4h-7z" fill="#170E14"/>
<path transform="translate(469,533)" d="m0 0 5 1 1 6-6-1z" fill="#B9975D"/>
<path transform="translate(469,469)" d="m0 0 6 5-1 6h-2l-3-7z" fill="#857764"/>
<path transform="translate(329,447)" d="m0 0 1 2-2 7-1 2v4h-3l1-6z" fill="#4D4C53"/>
<path transform="translate(445,437)" d="m0 0 3 3v12l-2-3-1-5z" fill="#BE9959"/>
<path transform="translate(268,356)" d="m0 0 3 1-1 3h-2v2l-6 1 1-3h2v-2z" fill="#B19870"/>
<path transform="translate(299,265)" d="m0 0h11v5h-3v-3h-7z" fill="#766E67"/>
<path transform="translate(153,239)" d="m0 0h3l1 3v7l1 6-2 3-1-4v-14z" fill="#6A625A"/>
<path transform="translate(512,232)" d="m0 0 2 2 2 7v12h-1l-1-12h-2z" fill="#5C5754"/>
<path transform="translate(435,131)" d="m0 0h1l1 7 2 3-1 4-2-4-2-1-1-8z" fill="#4B4B53"/>
<path transform="translate(306,671)" d="m0 0h4l-1 5-5 1v-3z" fill="#090508"/>
<path transform="translate(492,524)" d="m0 0 1 3-4 2 1 6-6-4 2-1v-2l5-2z" fill="#59514D"/>
<path transform="translate(486,494)" d="m0 0 2 1v14l-2-1v-6l-2-1z" fill="#504D55"/>
<path transform="translate(448,491)" d="m0 0 4 4 2 3-4 2h-3z" fill="#5F5E65"/>
<path transform="translate(470,445)" d="m0 0 2 4v14l-2 2-1-4h2z" fill="#54535A"/>
<path transform="translate(563,428)" d="m0 0 9 1v8l-2-3v-3h-5v-2z" fill="#65646B"/>
<path transform="translate(211,360)" d="m0 0h2l-2 4-2 1h-6v-2z" fill="#28282D"/>
<path transform="translate(417,354)" d="m0 0h3l-3 9-2 3-1-5 2-6z" fill="#3A3A41"/>
<path transform="translate(300,682)" d="m0 0 4 1-2 4-6 1 2-4z" fill="#F4E6D2"/>
<path transform="translate(208,422)" d="m0 0 4 1 1 2-1 9h-1v-8l-3-1-5 1z" fill="#35353C"/>
<path transform="translate(490,351)" d="m0 0 3 4 2-1-2 6-3-3-2 3 1-7z" fill="#34343A"/>
<path transform="translate(170,333)" d="m0 0h1l2 14h-3l-1-3v-8z" fill="#EFDABB"/>
<path transform="translate(421,188)" d="m0 0h2l-1 14-1 2-3-1 2-5z" fill="#EBD5B4"/>
<path transform="translate(162,156)" d="m0 0 4 6 1 11-2-3-3-8z" fill="#EFDABB"/>
<path transform="translate(437,363)" d="m0 0h2v2h3v2l-2 1h-7z" fill="#28282D"/>
<path transform="translate(355,325)" d="m0 0h8l-1 2-5 1h-11l-1-2h9z" fill="#8D795B"/>
<path transform="translate(392,252)" d="m0 0 1 2-5 6-4-1z" fill="#E0C69D"/>
<path transform="translate(314,216)" d="m0 0 5 1 2 3-8 1-1-3z" fill="#BC995D"/>
<path transform="translate(512,680)" d="m0 0 3 1 1 6h-4z" fill="#F6EFE4"/>
<path transform="translate(457,546)" d="m0 0 4 5 1 4-4 1z" fill="#C0A16D"/>
<path transform="translate(323,462)" d="m0 0 5 1-1 4-5 1 1-3-2-1z" fill="#80725E"/>
<path transform="translate(349,457)" d="m0 0 2 4-1 10-3-1 1-12z" fill="#BF9B5C"/>
<path transform="translate(334,427)" d="m0 0 2 2-1 1-2 10h-1l-1-9z" fill="#CBAD7B"/>
<path transform="translate(251,358)" d="m0 0 4 4 1 3-5 2z" fill="#9F865F"/>
<path transform="translate(403,350)" d="m0 0 1 3 2 1-1 1h-10l-1-4 5 2h3z" fill="#BE9959"/>
<path transform="translate(522,291)" d="m0 0v3l-2 4-3 2-2 4-1-3 4-6z" fill="#28282D"/>
<path transform="translate(315,263)" d="m0 0 2 1-1 13-2-3v-7z" fill="#36363D"/>
<path transform="translate(374,178)" d="m0 0 3 1v2h2v2h5v1l-11-1z" fill="#867152"/>
<path transform="translate(364,136)" d="m0 0 2 1-2 7-2 3h-2l1-5z" fill="#EDD7B7"/>
<path transform="translate(154,137)" d="m0 0h2l1 7-5 3z" fill="#8E7C62"/>
</svg>
