<?xml version="1.0" encoding="UTF-8"?>
<svg version="1.1" viewBox="0 0 800 800" width="200" height="200" xmlns="http://www.w3.org/2000/svg">
<path transform="translate(378,132)" d="m0 0h15l7 3 7 2 5 4 6 10 2 7v35l-3 5-2 5-2 3-1 12-3 3v6l5 4 12 1 5 5 3 2h8l4-3h17l2 7 9 1 5 5 5 10 1 16 3 5 8 15 4 7 3 3 12 24 7 7 13 8 1 3v18l-3 4-1 17-3 3-1 9-3 3-2 6-2 2-1 14-3 2-1 10-3 2-1 10-3 2-1 13-3 4-2 5-4 8-4 5-5 4-6 2 2 10 2 5 1 9 9 17 6 7 4 4v70l-3 5v50l2 2 3 11 5 8 6 7 8 7 10 3 5 4v5l-7 6-12 1-2 2-4 1h-9l-7-4-5-3v-2h-2l-4-5-3-7-2-2-9-1-6-5v-29l3-4v-82h-2l-3-11-2-3v-5l3-3-1-5-2-2-1-31h-2l-1-2-1-13-5-16-2-3-1-16-3-4-3-7-3-3-5 1-11 11h-11l-4-2-5-5-6-3-1-1h-5l-22 11h-6l-11-11-4-1-6 5-2 6-2 2-1 10-3 2-1 13-3 3-1 9-3 3-1 12-3 4v26l2 1 1 5v12l-3 4v70l2 2 2 18 2 1 1 6v20l-9 9-8 4-8 8-8 4-4 4-6 1-1 3-6 1-3-3-9-1-4-3-9-2-2-4 5-5 5-3 10-7 6-4 10-9 4-5 1-11 3-6v-29h-2l-1-2-1-13v-9l-3-6-2-13-2-3-1-20-3-4v-16l5-5 6-7 8-18 15-45 2-12 3-6 2-13 6-10 4-4v-7l-3-5v-11l5-10 8-9h17l6 5 1 2 11 1-1-52-8 7-21 21h-8l-14-14-3-7-1-1-1-62-10 1-7 7-8 16-3 11-10 19-5 11v13l-6 6h-6v6l-55 55-2 6-6 6-1 17-3 4-2 5-2 3v5l7 3 12 3v8l-7 8-7 7h-7l-6-4-3-12-2-2-1-5-8-1-8 7-93 93-3 7-7 3-5 5-11 3-6 2-6-1v-8l3-5 2-9 4-8 7-7 6-7 7-6 5-6 6-5 6-7 6-5 6-7 8-7 35-35 5-6h2l2-4h2l2-4 5-5v-12l-6-7-11-6-2-3v-8l8-9 9-2 3 4 8 17 1 3 10-5 12-11 10-10 5-6h2l2-4 5-5 2-5 12-12 5-6 4-4h2l2-4 4-4h2l2-4h2v-9l5-6 7-2 7-8 2-5 6-7 1-8 4-7 6-11 5-6 2-10 2-2 1-12 3-4 2-10 4-4 10-1 2-7h17l4 3h10l1-3 4-4h11l-5-9-3-6-1-10-7-14v-38l6-12 8-7 9-2zm79 147-1 1-1 66-3 4-2 5-7 7v2l-4 2-1 1h-7l-7-5-3-4h-2v-2l-6-5h-1v41h10l4-3 5-2 3-2h11l9 4h2v2h2l2 7 3 6v12h-2l-1 6 3 5 2 5h2l1 7 2 1 3-2v-2h6l1-1 1-11 4-2 7-8 2-9 6-12 2-13 2-4v-11l-3-7-1-21-7-8-8-16-9-19-5-9-12-6zm-75 144-2 2v14l1 1 12 1 6 3 4-1 2-2 10-1 5-6v-9l-5-2-3 2-1 5-10 5-4-1-8-4-2-6z" fill="#0C090E"/>
<path transform="translate(325,240)" d="m0 0h13l5 4 3 3 9 2 2 2 18 2 8 6h15l11-6 18-3 16-8 3-2h14v3l-7 5-11 1-7 3-21 5-12 6-1 1-1 44-1 7 9 1 4 2v2l17-1 12-6 6-7 2-6 2 1-2 9-6 7-12 6-15 2 5 5 11 6h6l7-7 3-6 1-7h2v8l-4 8-7 8h-12l-8-6-7-7-10-5-4-4v-2h-2l-1 7-1 1h-6l-3-4v-2l-7 5-8 4-9 9-6 4h-13l-4-2-5-10-1-11 2 3 2 8h2l6 7 7 1 11-6 4-3v-2l-13-1-14-7-4-4-2-3-1-9h2l4 8 7 7 9 3h15l5-3h9l-1-51-4-4-7-3-1-1-18-2-9-5-1-1-19-1-1-6z" fill="#F7F4F5"/>
<path transform="translate(472,561)" d="m0 0 7 7 11 2 4-3h2l2-4 5-2 1 1v20l-1 3-2 30v53l3 2v4h-7l-1 4-2 1h-17l1-4h3v-2l-3-1-1-6 2-2 2-28v-60l-2-4-5-5-2-3z" fill="#F4EFF0"/>
<path transform="translate(387,135)" d="m0 0 9 2 9 6 5 3 6 10-1 11-4 1v6l1 5h-2v-2h-14l-8 3 1 3 5 5 4 3 5 2-3 4h-2v9l-2-1-1-5-1-3v5l-2 1-2-11-5-5 1-1h-6v-6l-2-2-4-1h-8l-4 3h-2v-5l1-1v-5l-4-2v-14l5-9 5-4 12-4z" fill="#F9E4E7"/>
<path transform="translate(340,430)" d="m0 0 5 2 8 7 2 5-3 2 3 2-1 3-7-1v4 5l-5 8h-2l-2 5h-2v10l-1 6-3 1-1 10h-2l-1 3-1 13h-3l-1 29-1 4h-3l1 6h-2l1 5h-4l-1 4-2 1-1 3-7-1-1-3-7-2-4-6 1-7 12-16 2-3 2-8 2-4 1-7 3-4 4-10 1-9 3-5 2-9 2-5 1-9 3-6 1-11 5-9 3-1z" fill="#FAF7F7"/>
<path transform="translate(165,456)" d="m0 0h3v14l-116 116-4 7-3 3h-1l1-7 4-8 3-4-1-4 3-5 107-107z" fill="#E8E6E4"/>
<path transform="translate(433,388)" d="m0 0h13l9 5 2 6v8l-3 9-2 2-2 5-14 14-1 2-7 3-2 2h-3v15l8-7 3-2 1 2-5 9-5 3h-6l-3-3-1-5-4-2v-6l-6 4-4-1 1-4 4-2h5l2 2h6l2-6 9-9-1-4-5-5v-14l4-16z" fill="#F4DFE2"/>
<path transform="translate(355,387)" d="m0 0h10l5 4 3 7 3 13v9l-3 5-5 3h-4l2 4 6 5 5 7 7 1v2l5 1-1 6-10 9-7 1-4-4-1-8 5 2v2h-2v3h7l1-10-5-5-10-8-5-6-6-5-8-12-3-5 1-7 4-9z" fill="#F4E4E6"/>
<path transform="translate(472,247)" d="m0 0 4 2 2 10 2 3v7 4l4 5 1 8 3 3v2h2l4 8 6 8 1 7 5 5 3 7 7 9 8 7 5 5v3l-11 4-7 1h-5l-1-4v-9l-2-6-3-3-2-9 3-2v2h2v-3l-7-1-2-4-4-2-1-7-1-3-4-1-2-7-1-3-1-9-7-2 2-5v-3l-6 5-5-2-9-12-2-4v-3h2v2h2l2-5 8-7z" fill="#F7F3F4"/>
<path transform="translate(479,465)" d="m0 0 1 4-1 2h-2l-2 4-3 3-2 6-3 1 1 3 10-1 2 2 1 10 3 4 1 12 3 4 9 19 5 5 2 3v6l-3 3h-2l-1 4-10 2-4-1-3-2v-2l-3-1v-11h-2l-1 3h-2v-12l-1-20-3-1-2-14-3-7 1-8 5-8 8-11z" fill="#FAF6F7"/>
<path transform="translate(387,184)" d="m0 0m9-8h11l3 1v2h2l1-2 2 5v7l-3 9-1 1h-10l-2-1v9l-3 2h-3v2l3 1-4 4h-11l-4-8-4-5 1-5-3 2-10-1-4-6-1-7 1-2h2l5 5 3 2h8l7-6h5v3l4 4 2 9 1-6h1l2 8 1-6 4-4-7-3-4-5-4-3 1-3z" fill="#F1E8EB"/>
<path transform="translate(175,471)" d="m0 0h4v4l-6 5-27 27-8 7-75 75h-3v2l-9 2v-4l5-3 8-7 5-6 7-6 5-6 8-7 4-5 8-7 4-5 7-6 5-5 4-5 8-7 12-13 21-21 10-8z" fill="#274F7D"/>
<path transform="translate(302,275)" d="m0 0 5 1 4 4v4l-6 1-1 3h-2l-2 5-1 2 2 1-2 5 1 2-16 32-1 5h-4v23h-3l-1-2-3 3-4-1-2-6-5-2-6-6 2-5h5v-2l8-7 8-8 4-8 2-5 2-6 4-8 5-7 4-8 2-8z" fill="#F8F3F4"/>
<path transform="translate(340,430)" d="m0 0 5 2 8 7 2 5-3 2 3 2-1 3-7-1v4 5l-5 8h-2l-2 5h-2v10l-1 6-3 1-1 10h-2l-1 3-1 13h-3l-1 29-1 4h-3l1 6h-2l1 5h-4l-1 4-2 1-1 3-7-1-1-3-7-2 4-1 11-1 3-4 1-10-3-5 3-6 1-8 4-8v-5l2-1 2-10v-5l2-2 2-14 3-2 1-4h-2l2-10 6-3 1-2h-2l2-5 5-6 3-3-3-5-2-5-6-1 2-3h2z" fill="#AF879A"/>
<path transform="translate(492,575)" d="m0 0 4 1v70l-3 4-1 21-4 1-1-4-4 1v-27l1-6h3l1-56 3-2z" fill="#090509"/>
<path transform="translate(387,135)" d="m0 0 9 2 7 5 2 8-3 1-2 5-5 6-7 2-15-1-5-3-2-10 3-5 4-4 1-3 5-2z" fill="#FDFBFB"/>
<path transform="translate(358,390)" d="m0 0 5 1 4 5 6 10 2-1 1 6v9l-3 5-5 3h-4l-1 2-7-9-3-7-4-10-1-1v-7l5-5z" fill="#B1889C"/>
<path transform="translate(166,467)" d="m0 0m-1 1m-1 1m-1 1 1 4-112 112-4 7-3 3h-1l1-7 3-6 5-4 9-11 12-11 8-7 7-8 23-23 6-5 6-7 6-5 7-8 7-7 8-7 4-4h2v-2z" fill="#F2EAED"/>
<path transform="translate(297,572)" d="m0 0h8l5 3 5 1-2 2-7-1 2 5 1 33 2 1 1 16v32l4 2v7l-1 1h-11l-1-3 2-6 2-3v-30l-2-3-2-25-3-7v-12l-3-1-1-2v-9z" fill="#F0E9EB"/>
<path transform="translate(438,391)" d="m0 0 11 1-1 10-1 7-12 19-4 4-3-5-4-4v-14l1-5 3-1 3-6h2v-2h2l1-3z" fill="#B0879B"/>
<path transform="translate(479,465)" d="m0 0 1 4-1 2h-2l-2 4-3 3-2 6-3 1 1 3h5l-1 5 5 24 4 12 2 9-1 5-1 2v7l3 3v3l9-2 5-3 4 1-3 1-1 4-10 2-4-1-3-2v-2l-3-1v-11h-2l-1 3h-2v-12l-1-20-3-1-2-14-3-7 1-8 5-8 8-11z" fill="#B0879B"/>
<path transform="translate(310,247)" d="m0 0h6l5 4 6 11 1 5-2 4-1 4-2 4-7-1-7-3-3-1-2-3v-9l3-4 1-9z" fill="#F8F3F4"/>
<path transform="translate(384,267)" d="m0 0h1l1 51-7 5-8 4-9 9-6 4h-13l-4-2-5-10-1-11 2 3 2 8h2l6 7 7 1 11-6 4-3v-2l-13-1-14-7-4-4-2-3-1-9h2l4 8 7 7 9 3h15l5-3h9z" fill="#EBE5E7"/>
<path transform="translate(379,397)" d="m0 0h3l2 7h2l3-4 18-1 2-2h3v5l-4 10-4 9-1 9h-4l-3-5-2-7-5-8-2-1-1 2-6-8z" fill="#F8F2F3"/>
<path transform="translate(321,570)" d="m0 0h2v23l-1 31v2l3 17 2 6-1 5-1-2-3-1-3-15-2-4-1-16v-22l1-18h2l1-5z" fill="#B2899D"/>
<path transform="translate(449,300)" d="m0 0 2 1-2 9-6 7-12 6-15 2 5 5 11 6h6l7-7 3-6 1-7h2v8l-4 8-7 8h-12l-8-6-7-7-10-5-5-6 3-1 9 2 2 1v2l17-1 12-6 6-7z" fill="#F0EBED"/>
<path transform="translate(525,356)" d="m0 0 3 1 4 5-7 21-3 7-4 17-6 15-2 6-2 5-1 7-5-3-1-5 2-1 7-17 4-15 5-13 4-9 1-20z" fill="#F0E9EC"/>
<path transform="translate(326,502)" d="m0 0h1v13h-3l-1 29-1 4h-3l1 6h-2l1 5h-4l-1 4-2 1-1 3-7-1-1-3-7-2 4-1 11-1 3-4 1-10-3-5 3-6 1-8 4-8v-5l2-1 3-9z" fill="#B1889C"/>
<path transform="translate(167,470)" d="m0 0h1v6l-3 1-1 3-8 7-22 22-7 8h-2l-2 4h-2l-2 4-4 4h-2l-2 4-4 4h-2l-2 4-6 2-2-1z" fill="#311923"/>
<path transform="translate(472,247)" d="m0 0 4 2 2 10 2 3v6h-3l-2-5h-2v5l-5 1h-8l-4-2-3-6v-3h2v2h2l2-5 8-7z" fill="#FBF7F8"/>
<path transform="translate(337,315)" d="m0 0 4 2 13 6 13 1v4l-9 6-6 3-7-1-6-6v-2h-2l-2-4v-7h2z" fill="#070509"/>
<path transform="translate(364,209)" d="m0 0 3 1 1 6h3l2 4 4 3h16l6-4h2v-2h2l2-4 3-1-1 5-3 1-1 5-4 7-5 4h-14l-5-4-1-3-5-3-4-8z" fill="#E5D7DC"/>
<path transform="translate(473,263)" d="m0 0h2l2 5 3 1v4l4 5 1 8 2 3h-4l3 7 3 5 4 7 2 5 2 3-2 3-1-3-4-2-1-7-1-3-4-1-2-7-1-3-1-9-7-2 2-5v-3l-6 5-5-2-6-8 2-1h13z" fill="#A27E93"/>
<path transform="translate(517,360)" d="m0 0h3v6l-3 3h-2l-11 33-4 10-4 9-1 6 5 2 1 3-8-1-4-1 1-6 5-8 3-13 4-8 3-14 2-5 1-11 7-3z" fill="#F0EBED"/>
<path transform="translate(338,434)" d="m0 0 5 2 5 10-7 8-4 6h2l-1 3-5 2-2 8-3-1-2 1 2-14 3-6 1-11 4-7z" fill="#FAF6F7"/>
<path transform="translate(456,429)" d="m0 0h3v2l4 1 1 1v14l-5 5h-4v3l-3 1-6-6v-6l2-5h-2l2-6 7-2z" fill="#FBF7F7"/>
<path transform="translate(472,561)" d="m0 0 7 7 9 2 2 1-1 3-5 2v92h3l2 5-2 5h7v1h-17l1-4h3v-2l-3-1-1-6 2-2 2-28v-60l-2-4-5-5-2-3z" fill="#AC879B"/>
<path transform="translate(483,289)" d="m0 0h5v2h2l4 8 6 8 1 7 5 5 1 6-6 3 5 5 2 7v12l8 2v1h-10l-1-4v-9l-2-6-3-3-2-9 3-2v2h2v-3l-7-1v-5l-3-3-3-8-6-10z" fill="#F4ECEE"/>
<path transform="translate(396,176)" d="m0 0h11l3 1 4 8-1 3-4 2-2 4-11-3-5-6-4-3 1-3z" fill="#0B070B"/>
<path transform="translate(324,680)" d="m0 0 3 1v6l4 4h-6v-2l-5 3-7 9-6 7-9 7-7 4h-4l1-5 15-8 6-9 5-10 3-3 6-3z" fill="#F0EAEC"/>
<path transform="translate(486,683)" d="m0 0h8l11 11 6 8 10 8 3 4v6h-3l-3-6v-2l-5-2-8-8-4-6v-2l-4-2-5-4-1 4-4 1-1-4h-6l1 2 5 1v2l-6 1-3-2 2-6 2-3z" fill="#E9E0E4"/>
<path transform="translate(482,688)" d="m0 0 4 1 1 4 4-2 1-3 4 2 5 4 7 10 8 7 4 4 1 5-4-1-7-6-5-2-6-7-1-4-5-1-3-3-7-1 3-1v-2h-5l-1-3z" fill="#0F0B11"/>
<path transform="translate(391,333)" d="m0 0h4l3 5 4 2v2l3 1 2 5v7l-3 1-2 4-5 1-5-3-3-5v-3l4 1h8v-2l-10-5-1-3v-7z" fill="#5B3B4B"/>
<path transform="translate(215,399)" d="m0 0v3l-7 8-4 7 1 8h2l1 5-2 2-7-1-5-2-6-1 1-4 17-17h2l2-4z" fill="#F3EDF0"/>
<path transform="translate(366,176)" d="m0 0h8l5 2 2 2-1 7-5 5h-8l-7-5 1-5z" fill="#08060A"/>
<path transform="translate(406,445)" d="m0 0h5l2 2h6l1-2 3 1v13l8-7 3-2 1 2-5 9-5 3h-6l-3-3-1-5-4-2v-6l-6 4-4-1 1-4z" fill="#E6CCD3"/>
<path transform="translate(149,416)" d="m0 0 5 1 7 14 10 11v2h-2l-1 3-4-1-6-7-6-10v-3l-7 2 3-11z" fill="#29507D"/>
<path transform="translate(302,275)" d="m0 0 5 1 4 4v4l-6 1-1 3h-2l-2 5-8 14-5 10-3 1 1-9 5-9 5-7 4-8 2-8z" fill="#F4EDEF"/>
<path transform="translate(433,388)" d="m0 0h13l9 5 2 6v8l-1 4h-3v-3h-2l-2-13 1-3h-12l-3 3h-2v2h-2l-2 6-3 3 1-11z" fill="#FAF5F6"/>
<path transform="translate(325,240)" d="m0 0h13l5 4 3 3 9 2 2 2 9 1v1h-5v2h-8l-9-5-1-1-19-1-1-6z" fill="#F1EBEE"/>
<path transform="translate(379,397)" d="m0 0h3l2 7 3 3 8 4h11l2-1-2 7-3 8v5h-4l-3-5-2-7-5-8-2-1-1 2-6-8z" fill="#B1889C"/>
<path transform="translate(403,142)" d="m0 0 6 3 7 11-1 11-4 1-1 5-3-3-3-7-1-3 2-8h2l-4-8z" fill="#AF879B"/>
<path transform="translate(483,581)" d="m0 0h1v17h2l1-13h1v44l-1 7-4-1z" fill="#EBD4DA"/>
<path transform="translate(261,359)" d="m0 0h2l3 11 4-1-5 5-2-1-4 6-6 7-4 1-1-4 3-5 3-7z" fill="#EADEE2"/>
<path transform="translate(379,444)" d="m0 0 5 1v2l5 1-1 6-10 9-7 1-4-4-1-8 5 2v2h-2v3h7l1-8z" fill="#F5EFF0"/>
<path transform="translate(446,284)" d="m0 0 2 1-1 8-6 8-4 3-6 3-7 1h-21v-4l22-1 12-3 4-5z" fill="#E4DBDF"/>
<path transform="translate(446,240)" d="m0 0h14v3l-7 5-11 1-7 3-10 2v-2l-2-1 11-4 9-5z" fill="#ECE4E8"/>
<path transform="translate(249,362)" d="m0 0h2l-1 4-7 8-4 5-8 7-13 13-2-1 6-7 4-7 10-10 6-7z" fill="#F1EBED"/>
<path transform="translate(308,635)" d="m0 0h1l1 24 1-20h1v25l4 2v7l-1 1h-11l-1-3 2-6 2-3z" fill="#E7DDE1"/>
<path transform="translate(333,317)" d="m0 0 2 3 2 8h2l6 7 7 1 11-6 4-3v-3h2l1 4-8 8-6 4h-13l-4-2-5-10z" fill="#EFE6E9"/>
<path transform="translate(405,380)" d="m0 0h2v10l-3 3-9 1-4-2-2-6v-5l4 2h11z" fill="#D6BAC4"/>
<path transform="translate(441,269)" d="m0 0h2l-1 6-6 10-5 4-4 2-9 1h-14v-4l20-1 6-3 7-8z" fill="#DBCBD3"/>
<path transform="translate(324,564)" d="m0 0 3 1v2h-2l-1 26h-1v-23l-3 3-1 3h-2v16h-1l-1-12-7-1-1 3-2-6 9 1-4-1-5-4 16-6z" fill="#4E3343"/>
<path transform="translate(309,261)" d="m0 0 2 1 2 6h13v6l-3 5-7-1-7-3-3-1-2-4 4-1z" fill="#A17B8E"/>
<path transform="translate(385,188)" d="m0 0 4 2 3 5v8l-7 2-5-2-1-2v-7z" fill="#0A070A"/>
<path transform="translate(188,469)" d="m0 0 4 1 10 12 4 7v4h2v5l-3 2h-4l1-4h3l-4-6-7-6-6-12z" fill="#2B527F"/>
<path transform="translate(298,294)" d="m0 0 3 2-2 5 1 2-11 22-3 4v-3l-3 1 2-9 5-8 6-12z" fill="#A37B8E"/>
<path transform="translate(99,541)" d="m0 0h2l-2 4-4 4h-2l-2 4-8 8h-2l-2 4h-2l-1 3-6 3-2-2 26-26z" fill="#24121A"/>
<path transform="translate(160,478)" d="m0 0h3l-2 4-27 27-7 8h-2l-2 4h-2l2-4 4-4 3-5z" fill="#301923"/>
<path transform="translate(344,397)" d="m0 0 3 4 3 12 5 10 2 5-4-1-8-11-5-8 1-7z" fill="#F6F0F2"/>
<path transform="translate(456,429)" d="m0 0h3v2l3 1-2 2-5 2-3 4 1 7 4 5h-2v3l-3 1-6-6v-6l2-5h-2l2-6 7-2z" fill="#AA8295"/>
<path transform="translate(505,394)" d="m0 0 1 2-4 12-6 13-1 6 5 2 1 3-8-1-4-1 1-6 5-8 3-13 3-6z" fill="#EFEAEB"/>
<path transform="translate(188,433)" d="m0 0 5 1 6 2 1 3-4 9-1 7-3 1-1-8 1-8-8 4-1-3 3-6z" fill="#F5F1F2"/>
<path transform="translate(304,682)" d="m0 0 5 1-3 1-3 7-11 12-9 3 1-5 9-9 8-7z" fill="#0F0B12"/>
<path transform="translate(341,270)" d="m0 0h2l3 5 6 7v2l5 2 1 1 22 1v3h-22l-9-4-5-7-3-6z" fill="#EBE1E5"/>
<path transform="translate(400,220)" d="m0 0h2l-2 6-4 4-2-1v2l-4 2h-8l-4-5 1-3h14v-2z" fill="#FBF8F8"/>
<path transform="translate(349,261)" d="m0 0 4 2 4 5 4 3 19 1v3l-3 1h-19l-6-5-3-5z" fill="#E0D6DC"/>
<path transform="translate(371,139)" d="m0 0 3 1-5 4-6 7v6l1 4-3 1 3 2-1 9-2-4-4-2v-14l5-9 5-4z" fill="#A58298"/>
<path transform="translate(480,573)" d="m0 0 2 3v60l-1 19h-1l-1-54v-17z" fill="#422432"/>
<path transform="translate(379,331)" d="m0 0 2 1-9 11-5 6-8 7-6 7-4-1-1-2 5-6 6-4 12-11z" fill="#E0D5DB"/>
<path transform="translate(472,561)" d="m0 0 7 7 9 2 2 1-1 3-5 2v62l-3 1v-63l-2-4-5-5-2-3z" fill="#B1899D"/>
<path transform="translate(499,679)" d="m0 0 6 3v2l4 2 4 4v2l4 2v2h2l7 8 6 6v2l-4 1-4-5-7-8-11-11-7-8z" fill="#EAE0E4"/>
<path transform="translate(243,382)" d="m0 0 1 4-31 31h-2v2l-4 2 2-5z" fill="#F4F1F1"/>
<path transform="translate(402,330)" d="m0 0 5 3 8 7 11 11 5 2 4 4 1 6-4-2-11-10-7-6-7-8-5-5z" fill="#EFE3E7"/>
<path transform="translate(386,182)" d="m0 0 5 2 5 6 7 3-3 4h-2v9l-2-1-1-5-1-3v5l-2 1-2-11-5-5 1-1-4-2z" fill="#F3E9EB"/>
<path transform="translate(488,695)" d="m0 0 4 2 2 2 4 1 5 8 3 3 7 3 5 6-5-1-12-6-8-10-5-5z" fill="#F0E9EB"/>
<path transform="translate(323,658)" d="m0 0 3 2v3l4 1 1 4v6l-4 1h-6l-1-1v-6l2-2-1-5z" fill="#B1899C"/>
<path transform="translate(500,584)" d="m0 0 3 1-2 30-1 49h-1v-77z" fill="#C7A5B3"/>
<path transform="translate(351,301)" d="m0 0 5 1 2 1 23 1-1 3-3 1h-23l-3-2z" fill="#DDD6DC"/>
<path transform="translate(412,177)" d="m0 0 2 3 1 2v7l-3 9-1 1h-10l-2-1v9h-3l1-1 1-9 5-4 4 1 2-5 4-1-1-6-1-3z" fill="#DDC5CE"/>
<path transform="translate(496,438)" d="m0 0 4 4-1 5h-6l-1 6-7 9h-2l1-7 7-9 3-7z" fill="#E9DEE2"/>
<path transform="translate(306,683)" d="m0 0 6 2-2 4-10 9-2 5-10 5-4-1v-2l9-4 10-11z" fill="#F0EAEC"/>
<path transform="translate(487,435)" d="m0 0 5 1-2 4-8 11-6 7-4-1 1-4 8-8 5-9z" fill="#EBE2E5"/>
<path transform="translate(433,261)" d="m0 0h3l-1 5-7 5-3 4h-22l1-3 16-1 5-2z" fill="#E8DEE3"/>
<path transform="translate(525,356)" d="m0 0 3 1 4 5-3 9-3 10h-3l-1-2 1-2 1-20z" fill="#EDE6E9"/>
<path transform="translate(389,350)" d="m0 0 16 2 1-2 1 5-3 1-2 4-5 1-5-3-3-5z" fill="#EAD1D7"/>
<path transform="translate(247,387)" d="m0 0 1 3-14 15-5 5h-2v2l-11 9-3 3h-3l1-3 10-8 13-13 6-5 3-4h2z" fill="#CFBFC7"/>
<path transform="translate(482,283)" d="m0 0h2l3 6h-4l3 7 3 5 4 7 2 5 2 3-2 3-1-3-4-2-1-7-1-3-4-1-2-7-1-3-1-9z" fill="#B48EA1"/>
<path transform="translate(388,365)" d="m0 0 4 1 1 1h10l4-2v5l-4 5-1 2h-2l-1-2-7-2-4-6z" fill="#E0C7CF"/>
<path transform="translate(73,568)" d="m0 0 2 1-4 4h-2l-2 4h-2l-2 4h-2l-2 4-5 4-4-1 7-8 10-10 5-1z" fill="#150B10"/>
<path transform="translate(359,429)" d="m0 0 5 1 8 7 5 7 2 1-2 4-5-5-10-8-3-4z" fill="#EBDEE3"/>
<path transform="translate(167,470)" d="m0 0h1v6l-3 1-1 3-1-2-3-1zm-8 8m-1 1m-1 1m-1 1m-1 1m-1 1m-1 1m-1 1m-1 1m-1 1m-1 1m-1 1m-1 1m-1 1m-1 1m-1 1m-1 1m-1 1m-1 1m-1 1m-1 1m-1 1m-1 1m-1 1m-1 1m-1 1m-1 1m-1 1m-1 1m-1 1m-1 1m-1 1m-1 1 1 3-2 2-3-1zm-5 5m-1 1m-1 1m-1 1m-1 1m-1 1m-1 1m-1 1m-1 1m-1 1m-1 1m-1 1m-1 1m-1 1m-1 1m-1 1m-1 1m-1 1m-1 1m-1 1m-1 1m-1 1m-1 1m-1 1m-1 1m-1 1m-1 1 1 2-2-1z" fill="#3E202D"/>
<path transform="translate(487,574)" d="m0 0h4v5l-2 1-1 5-1 19h-1v-6h-2l-1-22z" fill="#FBF7F7"/>
<path transform="translate(301,680)" d="m0 0 4 1-6 7-14 13-1 2-7 1v-3l6-2 6-7 7-6 1-2h2z" fill="#EDE6E8"/>
<path transform="translate(486,683)" d="m0 0 4 1 1 1v7l-4 1-1-4h-6l1 2 5 1v2l-6 1-3-2 2-6 2-3z" fill="#F0E6E9"/>
<path transform="translate(173,452)" d="m0 0h6l5 6-2 4-2 2-4-1-4-5v-5z" fill="#F4F0F1"/>
<path transform="translate(347,402)" d="m0 0 4 4 4 10 4 8 3 5h-3l-1 2-3-3h2l-7-12-2-5z" fill="#F9E7E8"/>
<path transform="translate(412,397)" d="m0 0h3l4 1v7l-4 6-6-1 1-7z" fill="#422B3B"/>
<path transform="translate(333,301)" d="m0 0h2l4 8 7 7 9 3v1h-5l-1 2-9-5-4-4-2-3z" fill="#ECDFE4"/>
<path transform="translate(500,322)" d="m0 0 1 2h2l1-2v4l-3 3 4 2 3 9v12l8 2v1h-10l-1-4v-9l-2-6-3-3-2-9z" fill="#AF879B"/>
<path transform="translate(377,451)" d="m0 0 3 4v3l3 1-5 4-7 1-4-4-1-8 5 2v2h-2v3h7z" fill="#B1889C"/>
<path transform="translate(368,168)" d="m0 0 5 2 2 5-9 2-4 3h-2v-5l4-6z" fill="#F9F4F5"/>
<path transform="translate(281,331)" d="m0 0h4l-2 9h-4v23h-3l-2-4 2-5 1-10 1-9z" fill="#B891A3"/>
<path transform="translate(449,316)" d="m0 0h2v8l-4 8-7 8h-8v-3l7-2 8-9z" fill="#E2D6DC"/>
<path transform="translate(433,450)" d="m0 0 2 2-5 9-5 3h-6l-2-1 1-2 2 1 1-8h1l1 5 8-7z" fill="#B0889C"/>
<path transform="translate(476,544)" d="m0 0h2l1 11 2 1v2l4 2 3 1 1-2 1 1 8-1v2l-6 2-4 1h-4l-4-5-4-4-2-8z" fill="#412534"/>
<path transform="translate(441,269)" d="m0 0h2l-1 6-6 10-5 4-4 1v-4l8-7z" fill="#E7DCE0"/>
<path transform="translate(333,337)" d="m0 0h2l2 5 2 2v3h2v2l9-3-3 5-5 3-4-2-3-4z" fill="#CAB0BE"/>
<path transform="translate(483,538)" d="m0 0h1v10h-2l3 5 1 3 14-5h3v-5h1v6l-10 4-6 2h-4l-3-5-1-1v-7z" fill="#EFE0E2"/>
<path transform="translate(449,300)" d="m0 0 2 1-2 9-6 7-8 4h-2l1-4 8-5 5-6z" fill="#E4D7DC"/>
<path transform="translate(494,417)" d="m0 0 3 1-2 9 5 2 1 3-8-1-4-1 1-6z" fill="#E8DFE2"/>
<path transform="translate(502,455)" d="m0 0 2 1-1 7-5 8-3 5-3 1 1-5 2-2 5-13z" fill="#E9E2E4"/>
<path transform="translate(450,336)" d="m0 0h1v8l-3 5-5 4-6-2v-3l5-1 5-4z" fill="#C2A8B7"/>
<path transform="translate(344,248)" d="m0 0h8l5 3 9 1v1h-5v2h-8l-9-5z" fill="#EAE1E4"/>
<path transform="translate(384,209)" d="m0 0h9v2l3 1-4 4h-11l3-4z" fill="#DECBD3"/>
<path transform="translate(416,328)" d="m0 0 4 1 9 6 3 1v2l2 1-6 1-8-6-4-4z" fill="#ECE3E6"/>
<path transform="translate(446,284)" d="m0 0 2 1-1 8-6 8-4 3h-3l1-3 5-4 4-8z" fill="#EBE4E6"/>
<path transform="translate(357,287)" d="m0 0 23 1v3h-22z" fill="#EFE9EB"/>
<path transform="translate(479,275)" d="m0 0 4 1 1 7h-2l-1 2-8-3 1-4h4z" fill="#F1E6E9"/>
<path transform="translate(188,433)" d="m0 0 10 2v1h-5l-1 4-8 4-1-3 3-6z" fill="#EBE3E6"/>
<path transform="translate(433,388)" d="m0 0 2 1v6h-2v2h-2l-2 6-3 3 1-11z" fill="#F4E4E6"/>
<path transform="translate(467,248)" d="m0 0h3l-2 6-5 3-3 1-4 7-3-4v-3h2v2h2l2-5z" fill="#CCB4C1"/>
<path transform="translate(482,580)" d="m0 0 2 1v57l-3 1z" fill="#B38A9E"/>
<path transform="translate(360,349)" d="m0 0v3l-2 2v3l-5 6-4-1-1-2 5-6 6-4z" fill="#D9BFC9"/>
<path transform="translate(364,209)" d="m0 0 3 1 1 6h3l2 4 3 3h-4l-2 2-4-6z" fill="#E7DBE0"/>
<path transform="translate(503,582)" d="m0 0h1v30l-3 3v-13l1-17z" fill="#412534"/>
<path transform="translate(473,263)" d="m0 0h2l2 5 3 1v4l1 2-3 3-3-1 1-4-8-4v-1h5z" fill="#A37D8F"/>
<path transform="translate(479,465)" d="m0 0 1 4-1 2h-2l-2 4-3 3-2 6-3 1-1 3v-4l3-6 3-3 4-7z" fill="#D4C3CC"/>
<path transform="translate(391,333)" d="m0 0h2l5 8v3l-5 1-2-1-1-3v-7z" fill="#C6A4B3"/>
<path transform="translate(307,283)" d="m0 0h2v3h-3l-1 6-3 9-4 1 2-6v-4l2-4h2l1-4z" fill="#543442"/>
<path transform="translate(429,433)" d="m0 0 2 1-1 2 1 4-5 4-6 1 1-4z" fill="#F1E9EB"/>
<path transform="translate(336,285)" d="m0 0 2 1 2 5 8 11v2l-4-1-7-10z" fill="#EDE1E5"/>
<path transform="translate(298,696)" d="m0 0h2l-2 7-10 5-4-1v-2l9-4z" fill="#F0ECED"/>
<path transform="translate(394,385)" d="m0 0h8l2 1v4l-7 1-5-3v-2z" fill="#FEFDFD"/>
<path transform="translate(309,244)" d="m0 0 2 1-2 4-1 9-6 4v-3l1-1 2-10z" fill="#141520"/>
<path transform="translate(384,242)" d="m0 0h12l-1 4-1 2-8-1-2-2z" fill="#53455D"/>
<path transform="translate(358,237)" d="m0 0 8 1-5 5-9 1 1-4z" fill="#503D53"/>
<path transform="translate(400,169)" d="m0 0h5l3 5v1h-12l1-5z" fill="#FDFCFC"/>
<path transform="translate(475,440)" d="m0 0h4l-1 5-4 3h-6l1-4z" fill="#F0EAEC"/>
<path transform="translate(149,416)" d="m0 0 5 1-2 6-5 5h-2l3-11z" fill="#DBD3D6"/>
<path transform="translate(435,388)" d="m0 0h11l6 3v1h-14l-3 1-1-4z" fill="#F5E8E9"/>
<path transform="translate(321,251)" d="m0 0 6 3 3 3v5l-1 2h-2l-6-10z" fill="#7E5F6B"/>
<path transform="translate(419,237)" d="m0 0 4 2v-2l3 1 2 2-2 2-9 3-1-5z" fill="#BE9CAC"/>
<path transform="translate(406,212)" d="m0 0h2l-1 5-3 1-1 5-4 7-2 1 2-5 3-6-6 2 3-3h2v-2h2l2-4z" fill="#C5AAB7"/>
<path transform="translate(405,380)" d="m0 0h2v10l-4 2-4-1 5-1v-4l-10-1v-1l10-1z" fill="#D6BFCA"/>
<path transform="translate(357,189)" d="m0 0 5 5 3 2 9 1-3 3-10-1-4-6z" fill="#AB859A"/>
<path transform="translate(301,680)" d="m0 0 4 1-6 7-6 5-1-3 5-6h2z" fill="#E7DBE0"/>
<path transform="translate(481,674)" d="m0 0 6 1v3h7v1h-17l1-4z" fill="#B78FA2"/>
<path transform="translate(323,652)" d="m0 0 5 1 1 10h-3l-2-4h-3z" fill="#4D2D3C"/>
<path transform="translate(79,558)" d="m0 0 1 4-1 3h-2l-1 3-6 3-2-2z" fill="#311923"/>
<path transform="translate(257,372)" d="m0 0h6l-3 6-4 4-5 3 2-4z" fill="#957083"/>
<path transform="translate(231,381)" d="m0 0 1 2-3 5-11 11-2-1 6-7 2-4 4-2z" fill="#E4D7DC"/>
<path transform="translate(476,257)" d="m0 0 4 5v6h-3l-2-5h-2l-1 3 1-6 3-1z" fill="#EBDEE2"/>
<path transform="translate(483,445)" d="m0 0 1 4-8 9h-3l1-4z" fill="#F4F0F2"/>
<path transform="translate(389,350)" d="m0 0 6 2-1 2 2 3 7 1-2 3-6-1-4-4-2-3z" fill="#AB859A"/>
<path transform="translate(406,445)" d="m0 0h5l2 2-1 3-2-2-5 4-4-1 1-4z" fill="#C0A3B2"/>
<path transform="translate(351,389)" d="m0 0h2v3l-4 4-1 6-3-3-1-5 3-3z" fill="#F3E0E4"/>
<path transform="translate(402,330)" d="m0 0 5 3 8 7 3 4-2 3-11-12-3-3z" fill="#B6ACBB"/>
<path transform="translate(498,553)" d="m0 0 4 1-3 1-1 4-9 2-1-3z" fill="#B1889C"/>
<path transform="translate(137,503)" d="m0 0v3l-10 11h-2l-2 4h-2l2-4 5-6 8-7z" fill="#140A0F"/>
<path transform="translate(497,451)" d="m0 0h2v5l-5 8h-2l1-7z" fill="#E8DEE2"/>
<path transform="translate(181,432)" d="m0 0 3 1-5 10-4 2 1-6z" fill="#EAE2E5"/>
<path transform="translate(308,259)" d="m0 0h1v10l-2 2-3-1v-8z" fill="#FAF2F3"/>
<path transform="translate(413,448)" d="m0 0 7 1 1 4-4 1-3 1-3-1v-4h2z" fill="#FBF2F4"/>
<path transform="translate(471,270)" d="m0 0 4 2-1 3-5 4h-2l1-4h-2l-1-3 5-1z" fill="#F0DDE0"/>
<path transform="translate(461,432)" d="m0 0 3 1v14h-1l-1-7-6-5 4-2z" fill="#EBD8DC"/>
<path transform="translate(383,408)" d="m0 0 3 2h4l6 10-1 3-4-6-3-2v-2l-4-2z" fill="#412635"/>
<path transform="translate(325,667)" d="m0 0h2v5l-3 3-4-1v-6z" fill="#F1E4E6"/>
<path transform="translate(322,544)" d="m0 0 2 1-2 5-1 10-5 3-2-1 1-3h4l-1-5h2l-1-6h3z" fill="#402635"/>
<path transform="translate(428,239)" d="m0 0 5 2v3h-4l-2 3h-2l-3-3v-2l5-2z" fill="#3A293C"/>
<path transform="translate(179,454)" d="m0 0 5 4-2 4-2 2-4-1-2-3h4z" fill="#E0D7DA"/>
<path transform="translate(432,449)" d="m0 0 2 1-9 9-3 1v-6l2-2 4 2v-2z" fill="#412533"/>
<path transform="translate(403,373)" d="m0 0h1l1 8-1 2-2-1 1-3-3 1-6-4v-2h6v3h2z" fill="#442634"/>
<path transform="translate(324,680)" d="m0 0 3 1v6l4 4h-6v-2h-2v-2h2v-3l-3-1z" fill="#CCAFBC"/>
<path transform="translate(323,514)" d="m0 0 4 2-2 6-1 22-2-2z" fill="#3F2839"/>
<path transform="translate(385,177)" d="m0 0 6 1-5 5-3 1-1 2-2-1v-6z" fill="#B48C9F"/>
<path transform="translate(99,541)" d="m0 0h2l-2 4-4 4-5-1 4-5z" fill="#25131B"/>
<path transform="translate(355,387)" d="m0 0h10l5 4 1 3-5-2-3-2-8-1z" fill="#E2D8DE"/>
<path transform="translate(223,411)" d="m0 0 1 3-11 10h-3l1-3 10-8z" fill="#DFD4D8"/>
<path transform="translate(390,369)" d="m0 0 4 2h11l-3 6h-2l-1-2-7-2z" fill="#A9859A"/>
<path transform="translate(507,340)" d="m0 0 2 3v6l1 2 11 1-3 2-10-1-1-1z" fill="#FAE5E7"/>
<path transform="translate(502,326)" d="m0 0 3 1 3 7 3 3h-2l-1 3-4-9-4-2z" fill="#FCE8EA"/>
<path transform="translate(465,448)" d="m0 0h2l-1 4-3 7-4-1 2-5z" fill="#DFD0D6"/>
<path transform="translate(496,440)" d="m0 0 4 2-1 5-5-1v-4z" fill="#F3EAEC"/>
<path transform="translate(379,397)" d="m0 0h3l2 7 2 2-1 1 2 1-1 3-6-8z" fill="#b9a"/>
<path transform="translate(417,399)" d="m0 0h1v7l-3 5h-3l1-5z" fill="#B58DA0"/>
<path transform="translate(488,559)" d="m0 0 2 1 8-1v2l-6 2-4 1h-4l1-3h3z" fill="#402636"/>
<path transform="translate(445,436)" d="m0 0 2 1-1 2h2l1-3 1 2-3 6-1 5-2-3v-8z" fill="#412534"/>
<path transform="translate(487,470)" d="m0 0h2l-1 5-5 5-2-1v-3l4-4h2z" fill="#E3D9DD"/>
<path transform="translate(366,452)" d="m0 0 5 2v2h-2l1 5 3 1-4 1-3-6z" fill="#C09BAC"/>
<path transform="translate(446,284)" d="m0 0 2 1-1 8-4 5v-7z" fill="#D0B6C1"/>
<path transform="translate(482,688)" d="m0 0 4 1 1 4h3v2l-3 1-4-2h3v-2h-5l-1-3z" fill="#412C3E"/>
<path transform="translate(303,572)" d="m0 0 12 4-2 2-7-1h-3z" fill="#B1889C"/>
<path transform="translate(215,399)" d="m0 0v3l-6 7-4 1 1-3h2l2-4z" fill="#DDC8D1"/>
<path transform="translate(89,548)" d="m0 0 4 1-2 4-4 3-1-5z" fill="#1B0E14"/>
<path transform="translate(479,687)" d="m0 0 3 2h-2l1 2 5 1v2l-6 1-3-2z" fill="#C6A4B3"/>
<path transform="translate(279,338)" d="m0 0 3 3-1 4-1 15h-1l-1-6v-14z" fill="#422432"/>
<path transform="translate(412,177)" d="m0 0 2 3 1 2v7l-2 6-1-4 1-7-2-5z" fill="#AC869B"/>
<path transform="translate(330,465)" d="m0 0h2v6l-2 2h-3l-1-2 3-5z" fill="#F6EAEC"/>
<path transform="translate(336,285)" d="m0 0 2 1 2 5 3 5-5-1-2-5z" fill="#C1A8B8"/>
<path transform="translate(476,272)" d="m0 0 1 3-4 6-4-2 5-5z" fill="#412535"/>
<path transform="translate(394,229)" d="m0 0 3 1-1 3-2 1h-14v-1l10-1 4-1z" fill="#E6D4D9"/>
<path transform="translate(384,209)" d="m0 0h9v2l2 1-10 1z" fill="#7D687F"/>
<path transform="translate(277,354)" d="m0 0 2 1v8h-3l-2-4z" fill="#B18CA0"/>
<path transform="translate(322,497)" d="m0 0h2l1 8-3 8-2-1 1-1z" fill="#FBE8E9"/>
<path transform="translate(206,493)" d="m0 0h2v5l-3 2h-4l1-4h4z" fill="#546489"/>
<path transform="translate(329,474)" d="m0 0h4l-2 6-3 1-1 4-1-4 2-3z" fill="#FBE8E9"/>
<path transform="translate(378,453)" d="m0 0 9 1-3 4h-4z" fill="#F0DADE"/>
<path transform="translate(263,361)" d="m0 0h1l2 9 4-1-5 5-2-2-1-6z" fill="#C7A6B4"/>
<path transform="translate(393,333)" d="m0 0h2l3 5 4 3h-2v3h-2l-5-9z" fill="#432330"/>
<path transform="translate(449,316)" d="m0 0h2v8l-2 5-3-2 2-4z" fill="#CFB1BD"/>
<path transform="translate(492,316)" d="m0 0h2l4 4 5 1v3h-4-2l-4-4z" fill="#412432"/>
<path transform="translate(344,315)" d="m0 0 11 4v1h-5l-1 2-6-3z" fill="#AD97A8"/>
<path transform="translate(502,455)" d="m0 0 2 1-1 7h-3v-6z" fill="#F1EDEE"/>
<path transform="translate(371,454)" d="m0 0h2v2l3-1v4l-3 1-4-1v-3h2z" fill="#402635"/>
<path transform="translate(458,260)" d="m0 0 1 2v5l9 1v1h-8l-4-2v-5z" fill="#F6E0E4"/>
<path transform="translate(506,715)" d="m0 0h8l4 5-5-1-7-3z" fill="#E6DBDF"/>
<path transform="translate(476,667)" d="m0 0 2 1 1 4 2 1v2l-3 1-2 2z" fill="#412432"/>
<path transform="translate(483,538)" d="m0 0h1v10l-2 1-2 3v-7z" fill="#F7E8E9"/>
<path transform="translate(469,478)" d="m0 0h2v5l-4 2-1 3v-4z" fill="#EBD9DE"/>
<path transform="translate(338,434)" d="m0 0 5 2 2 7-3-3-1-2-5-1v-2z" fill="#FAE8E9"/>
<path transform="translate(435,388)" d="m0 0h7l-1 3-6 2-1-4z" fill="#FCF1F2"/>
</svg>
