<?xml version="1.0" encoding="UTF-8"?>
<svg version="1.1" viewBox="0 0 800 800" width="200" height="200" xmlns="http://www.w3.org/2000/svg">
<path transform="translate(187,83)" d="m0 0 4 2 3 6 6 8 4 7 1 213 3 4 1 5 6-2 7-6h5l4 5 1 2v12l-6 2-1 2 6-1 8-6 16-8 8-1 2-2h3l-1 3h-3l2 3h2v-3l8-2 7-8 3-7 9-18v-11l-3-4 1-6 2-2-1-5-2-3v-8l3-5 2-8 5-9 8-9h2l2-4 5-3 10-3 7-2v-28l3-7v-20h-2l-1-6 7-8 2-9 4-12 9-10 7-4 13-7h15l7 3 9 3 10 6 8 9 9 19 1 7 3 4-1 5-2 1v9l3 6 2 7 8 17 3 3 15 2 2 2 10 2v2l9 1 11 6 5 5 7 6v2h2l6 8 4 7 4 5v4l-4 1 1 3 7 7v5l-4 1 3 5 7 7 9 7 6 4 7 6v2l4 2 9 6 18 18 9 19v21l-1 3h-2l-1 11-3 3-1 8-3 4-3 6-23 23-16 8-6 1h-21v3l4 2 4 6v7l-7 6-5 2-3 3-1 4 2 6 2 4 2 9 8 15 6 8 3 5 9 10 4 5v6l7 8 9 5 7 7 3 6 6 8 1 8 3 5 2 8 2 6 1 13 2 2 2 13 3 7 2 6 5 10 2 9 2 3 2 13 6 11 1 5v15l-5 7h-2l-1 3-7 1-2-3h-2l-2 3-7-1-1-2h-2l-2 3h-6l-4-4-2 4h-5l-6-5v-12l3-7 3-9 1-1 1-13 3-3-1-6-2-2-3-7-1-1-1-12-3-5-1-7-3-4-2-5-9-10-5-6-3-5-5-6-2-5-6-7-1-10-3-1-1-2-6-2-3-7-10-10v-8l2-3-1-4-1-1-1-11-3-5-3-7-8-16-5-9-4-5-1-8h-2l-5 5-11 6-5-1-1-3h-3l1 6-1 8-18 18h-5v2l-8 7-8 8-5-3-32-32-1-9-7-2-5-3-7-5-1-2-4 2-14 14-2 6-14 14-2 6-3 5v3l3 1 1 3v11l-4 5v4h2l2 5 1 7 3 3v20l-3 4-2 5-10 19-1 11-3 4v42l3 2v2l3 1 1 2v7l-6 11-4 4-37 1-5 3-16 8h-6l-3-3-13-1-6-5v-9l6-7 11-6 8-5 3-1v-2l9-6 5-4h2v-2l8-7 3-4 1-93 3-3-1-6-6-10v-12l2-3h2l2-4 8-7 9-10 2-5 10-11 3-6 5-6 2-6 9-9h2l-7-8-1-1v-8l6-7 6-5 4-7 7-9 4-9 1-23 3-4 2-6 6-1-1-4h-2l-7-8-1-1-1-8-3-5-3-9-1-2-1-21h-10l-4 4-6 14-6 6-2 6-7 7v5l4 2-1 6-4 8-5 5h-7l-8 7-1 1-9 1-1 2-11 1-24 1-2 2-18 2-8 7-5 2 1 8 5 6 2 1v2l3 1 1 6-9 9-6 1h-15l-7-6-3-4v-5l7-7 4-3 1-4-8-9-1-8-3-4-1-16-3-4v-5l5-5 3-4-15 1-3 3-6-1-4-5v-12l5-6 7 1 5 6 7-1 3-3 1-217 6-10 5-6 3-6zm150 161v4l3-1-1-3zm168 40-1 3-4 2-3 2-5 1-1 35-6 6-2 9-6 11-1 3 4-2 4-5 4-8 2-9 15-15 13-8 6-3v-4l-5-6-5-5-3-1-2-4zm-33 28 3 6 1 17h4v-16l-5-7zm-268 28v3l8 3 5 2 3-1-2-4-4-3zm181-4-2 3-18 1-3 7-5 10v3l6 2 11 6h12l2-1 2-7 1-4-6-1v-3l3-1-1-7-3-4 4-2-1-2zm35 8 2 4 3 7-5 1 1 4h2l1 7 1 1h11l5-3 9-1 2-1v-3l-15-1-7-8-7-7z" fill="#201830"/>
<path transform="translate(187,83)" d="m0 0 4 2 3 6 6 8 4 7 1 213 3 4 1 5 6-2 7-6h5l4 5 1 2v12l-6 2-1 2 6-1 8-6 16-8 8-1 2-2h3l-1 3h-3l2 3h2v-3l8-2 7-8 3-7 9-18v-11l-3-4 1-6 2-2-1-5-2-3v-8l3-5 2-8 5-9 8-9h2l2-4 5-3 10-3 7-2v-28l3-7v-20h-2l-1-6 7-8 2-9 4-12 9-10 7-4 13-7h15l7 3 9 3 10 6 8 9 9 19 1 7 3 4-1 5-2 1v9l3 6 2 7 8 17 3 3 15 2 2 2 10 2v2l9 1 11 6 5 5 7 6v2h2l6 8 4 7 4 5v4l-4 1 1 3 7 7v5l-4 1 3 5 7 7 9 7 6 4 4 7v2l4 2v2h-32l-4-5-4-2-7-7v-2l-9-3-5 5-3 2h-5v35l-6 6-2 9-6 11-2 3 4-2-2 5 3 5-2 5-6 1 6 2 1 3v18l-3 5-3 2-8 1-2 2-5 1h-27v-21h-2l-1-4 1-2-5-1v-6l7-1 4-2 5-3 11-1v-3h-15l-7-8-3-3h2l-5-7-4-4-2-5h-2v-3h-2l-3-5v-2h-2l-3-3-11-5 1-10 2-13 2-16 2-1h7l19-7 10-8 5-5 6-5 1-4-4-2-5-5-5 1-11 5-5 5-5 4-12 6-3 1-1 6v9l-5 30-2 4h-2v2l3 1-3 1-10 3-8 8-4 7-2 4-6 2-2 6-1 6v3h-10l-7-7-1-8-3-5-3-9-1-2-1-21h-10l-4 4-6 14-6 6-2 6-7 7v5l4 2-1 6-4 8-5 5h-7l-8 7-1 1-9 1-1 2-11 1-24 1-2 2-18 2-8 7-5 2 1 8 5 6 2 1v2l3 1 1 6-9 9-6 1h-15l-7-6-3-4v-5l7-7 4-3 1-4-8-9-1-8-3-4-1-16-3-4v-5l5-5 3-4-15 1-3 3-6-1-4-5v-12l5-6 7 1 5 6 7-1 3-3 1-217 6-10 5-6 3-6zm150 161v4l3-1-1-3zm135 68 3 6 1 17h4v-16l-5-7zm-268 28v3l8 3 5 2 3-1-2-4-4-3z" fill="#221930"/>
<path transform="translate(187,83)" d="m0 0 4 2 3 6 6 8 4 7 1 213 3 4 1 5 6-2 7-6h5l4 5 1 2v12l-6 2-1 2 6-1 8-6 16-8 8-1 2-2h3l-1 3h-3l1 4 3 1 4 5 4 7 2 12 4 2h10l3-3-1 4-4 4h-7l-8 7-1 1-9 1-1 2-11 1-24 1-2 2-18 2-8 7-5 2 1 8 5 6 2 1v2l3 1 1 6-9 9-6 1h-15l-7-6-3-4v-5l7-7 4-3 1-4-8-9-1-8-3-4-1-16-3-4v-5l5-5 3-4-15 1-3 3-6-1-4-5v-12l5-6 7 1 5 6 7-1 3-3 1-217 6-10 5-6 3-6zm17 257v3l8 3 5 2 3-1-2-4-4-3z" fill="#715A53"/>
<path transform="translate(541,307)" d="m0 0h17l10 1 3 1 5 1 15 15 9 19v21l-1 3h-2l-1 11-3 3-1 8-3 4-3 6-23 23-4 1v-2l-3 2h-8l-1 4-3 1h-16l-8-2-5-2v-2l-4-1-2-2 4-1-2-1v-2l-5-2-3-2v-2l-8-1-3-4-6-12-2-3v-24l1-9 4-12 4-9 7-11 8-7 4-4 13-5z" fill="#6A4D3D"/>
<path transform="translate(500,452)" d="m0 0 4 1 1 7 3 1 1 3v8l6 1 3 11 8 15 6 8 3 5 9 10 4 5v6l7 8 9 5 7 7 3 6 6 8 1 8 3 5 2 8 2 6 1 13 2 2 2 13 3 7 2 6 5 10 2 9 2 3 2 13 6 11 1 5v15l-5 7h-2l-1 3-7 1-2-3h-2l-2 3-7-1-1-2h-2l-2 3h-6l-4-4-2 4h-5l-6-5v-12l3-7 3-9 1-1 1-13 3-3-1-6-2-2-3-7-1-1-1-12-3-5-1-7-3-4-2-5-9-10-5-6-3-5-5-6-2-5-6-7-1-9h2l1 2 5-1 3-2-6-1 1-2 6-3h2v-2l7-6 2-3v-5l-3 3h-2l-1 4-10 7h-11l-8-5-4-6-4-5v-6l3-1 1-8-3-1-1-10-8-17-10-19-3-6-3-5v-7l6-4 15-3z" fill="#2A2338"/>
<path transform="translate(316,499)" d="m0 0 2 1-3 7-3 5v3l3 1 1 3v11l-4 5v4h2l2 5 1 7 3 3v20l-3 4-2 5-10 19-1 11-3 4v42l3 2v2l3 1 1 2v7l-6 11-4 4-37 1-5 3-16 8h-6l-3-3-13-1-6-5v-9l6-7 11-6 8-5 3-1v-2l9-6 5-4h2v-2l8-7 3-4 1-93 3-3-1-7h3l3 3 2 1h13l6-7 2-7 1-7 2 3v10l-1 5 6-2 2-3h2l-1-5 1-5-4-4h-6v-5l7-2 7-10z" fill="#282137"/>
<path transform="translate(376,407)" d="m0 0 4 1 1 1v5h2v-7h2v2l5 2 9 4h16l11-4 1-2 5-2 7 1 4-1 1 8 1 51v19l-7 8-9 8-11 8-5 6-4 1-5-1-18-18-5-4-6-8v-45z" fill="#52866F"/>
<path transform="translate(510,287)" d="m0 0 4 1 7 8 4 2 4 4v2h32l-6-7-1-4 6 4v2l4 2 9 6 1 2-5 1-1-1-16-1h-11l-16 2-13 5-3 1-1 3-8 7-7 12-5 12-2 7-1 9v24l4 6 6 12 6 1 2 1v2l8 4v2l3 1-3 2 4 2v2l5 1 8 2h17l2-1 1-3 5-1 6-1-1 3-11 6-6 1h-21v3l4 2 4 6v7l-7 6-5 2-3 3-1 4 2 8h-6v-9l-1-3-2-1-2-7-10 2-9 3-4 2v7l5 9 19 38v10l4 1v5l-4 4v6l6 7 3 5 6 3h11l5-4 5-3 1-3h2l1-3h2l1-2v7l-8 9h-2v2l-8 4 11 1v1l-8 2-3 2h-4v-3l-5-2-1-2-6-2-3-7-10-10v-8l2-3-1-4-1-1-1-11-3-5-3-7-8-16-5-9-4-5-1-8h-2l-5 5-11 6-4-1 2-2-6-4v-11h-2v5h-1l-1-6-2-42-1-8-13-2 2-3 1 1h27l6-2 1-1 8-1 4-3 1-3v-21h-6v-2l6-2 1-4-3-6 6-9 4-8 2-9 16-16 13-8 6-3-2-4-3-3v-2l-4-2-5-6z" fill="#1F172F"/>
<path transform="translate(188,84)" d="m0 0 3 1 2 8 7 13 1 1v217l-2 1-5-3-5-2 1 3-1 1h-11l-1-125v-92h2l3-6h-2l2-5 3-3h2z" fill="#B6BBCB"/>
<path transform="translate(296,555)" d="m0 0h9v10l-3 18-4 10-3 14-2 10v13l-2 17-2 5-4 2-3-4v-2l-2 1 2 5 2 6-4-2-4-3v2l3 1 3 6 2 2v13l-2 5-3 3-16 1-7 4-16 8h-6l-3-3-13-1-6-5v-9l6-7 11-6 8-5 3-1v-2l9-6 5-4h2v-2l6-4v2h2l1-3 9-1 4-6 4-24 3-27 2-13 4-16z" fill="#262036"/>
<path transform="translate(547,321)" d="m0 0 13 2 10 4 4 3v2h2v2h2l5 11 3 10v9l-3 8-4 11-4 7-6-2v-2l-10-3-4-2-2-5-4 1-2-4-9-3-8-7-5-3-6-9-5-10-1-5 14-10 3-2z" fill="#9E7557"/>
<path transform="translate(326,443)" d="m0 0 5 1 6 4 5 3 5 6 2 1-2 6-8 7-5 5-5 6-3 3-3 6h-2l-1 5-8 9-5 7h-6l1 4h5l5 5-1 10-5 5h-5v-15l-3 11-7 8h-13l-5-3v-2h-3l-2-8-1-1v-12l5-5 8-7 1-2h2l1-3 4-1 3-7 3-5h2l2-4 4-7 4-5 1-2h2l2-5 1-3h2l2-5 6-7h2v-2z" fill="#9D775D"/>
<path transform="translate(222,320)" d="m0 0h5l4 5 1 2v12l-6 2-1 2 6-1 8-6 16-8 8-1 2-2h3l-1 3h-3l1 4 3 1 4 5 4 7 2 12 4 2h10l3-3-1 4-4 4h-7l-8 7-1 1-9 1-1 2-11 1-24 1-2 2h-12l-2-5h-2v-15l-2-11-5-3v-1h7l4 3h5l-4-5-2-1-10-1 1-4 10-1v-4l-3-1v3l-10-2 1-6 5-2 1 5 6-2z" fill="#524A56"/>
<path transform="translate(500,452)" d="m0 0 4 1 1 7 3 1 1 3v8l5 1-1 9 4 4 1 5 3 3 2 8 4 2 3 10 5 1 3 3 3 5 3 4v13l-1 5h-2l-1 4-10 7h-11l-8-5-4-6-4-5v-6l3-1 1-8-3-1-1-10-8-17-10-19-3-6-3-5v-7l6-4 15-3z" fill="#9D785D"/>
<path transform="translate(480,399)" d="m0 0 5 1 8 12 2 7 5 2 9 6 6 3v4l4 2 7 6-2 5h-5l-3-3v-2l-5-1 2 5-2 2-11 1-13 4-4-1-1-5h-2l-2-2 2 7v6l-10 6-6 4-4-2-3-12-6-19-1-5-2-1-2-8v-13l21-3 12-4z" fill="#35154A"/>
<path transform="translate(428,230)" d="m0 0 1 2h2l-1 4-13 13-9 4-8 5-2 3 1 6v9l-5 30-2 4h-2v2l3 1-3 1-10 3-8 8-4 7-2 4-6 2-2 6-3 1-2 6-4 1-3-5-2-2 4 1 1 2 3-1 2-7 7-14-4-1v-2l-6-2h-7l1 9 6 8v2l-6-1-4-10-1-6 2-6-5-5-1-4v-12h3l1 12 4 2 4 3 14 3 9-1-4-2-1-3h6l2 1h6l1-3-4-2v-2h2v-3l-4 3-11-1-10-2-10-8-8-7v-15l3-1 2 6 3 1 1 5h5l1 4 5 2 4 1h5l8 6 7 1v-13l-5 1-16-8-7-5-7-9v-13h2l1 11 8 7 11 7 13 2-1-15-3-9 7-2 15-3 13-5 13-10z" fill="#FCEEDF"/>
<path transform="translate(397,153)" d="m0 0h11l8 4 2 4h-2l1 5-2 12-8 5-6 11-2 2h-3l-1-3 1-6h-3v9l-3 1-3-1v-9h-2v9h-5l-1-1v-8l-2 1-1 8h-4l-2-6-2 3v10l5-3h3v3l4-1v-2l4-1 1 1v6l2 1v-6l5-2 1 2v6h3l-1-7 5 1 1 2h5l2-15 1-3h2v22l-5 4h-4v2l-4 2-20-1-2-1 1-3h2v-2h-5v3l-5-1-3-3-1-3v-13l2-9 2-3h-13v-21l5-3 4-1h10l11 1 1 1z" fill="#FBEEDF"/>
<path transform="translate(557,543)" d="m0 0 6 2 8 8 3 6 6 8 1 8 3 5 2 8 2 6 1 13 2 2 2 13 3 7 2 6 5 10v3l-9-2h-14l-5-11-7-18-10-23-7-16-5-11 1-5 7-8 2-4 3 1v-6h-2z" fill="#514956"/>
<path transform="translate(541,307)" d="m0 0h17l10 1 3 1h3l2 4 8 7 5 6 4 8v5l3 1 1 6-1 1 1 4v16l-5 3 1 1v7l-2 3-5-1 1-9v-21l-3-12-7-13-5-2-1-3-5 1-12-3h-16l-14 4-8 4-3 1 1 3-6 4-2 4h-2l-2 4-4 9-3 5v7h-1l-1 14 1 9 3 9 3 6 3-1v3h-2l2 4 17 9 8 3h7l16-6 8-5 3 1-11 9-11 2-4 1-1 4h-7l-2 1-10-2-7-3 4-2-2-1v-2l-5-2-3-2v-2l-8-1-3-4-6-12-2-3v-24l1-9 4-12 4-9 7-11 8-7 4-4 13-5z" fill="#545165"/>
<path transform="translate(454,236)" d="m0 0h1v11l-3 4h2l-2 7-11 11-10 6-12 5-14 4h-2v12h19l12-2 12-5 5-4 3-5h2l1-3 1 2v8l-7 8-13 6-6 2h-24l-2-1v-2l-2 1-2 7-2 4 6 1 8 5h7l22-4 8-4 8-7 4-5 4-8 2-6h2v11l-7 11-9 9-10 5-5 2-8 1h-9l3 5 7 7h8l13-4 9-7 7-9 2 1v5l-9 10-6 5-5 2-4 2-12 1 6 8 1-1 12-1h7l9-8 2-3 3 1-1 5-6 7-12 6-4 1h-15l-6-4-5-2 2-1-5-7-4-4-2-5h-2v-3h-2l-3-5v-2h-2l-3-3-11-5 1-10 2-13 2-16 2-1h7l19-7 10-8 5-5 6-5 3-5z" fill="#FCEFDF"/>
<path transform="translate(192,344)" d="m0 0h9l7 6 1 5h2l1 4v10l-1 5h2l2 4 3 2-9 1-8 7-5 2 1 8 5 6 2 1v2l3 1 1 6-9 9-6 1h-15l-7-6-3-4v-5l7-7 4-3 1-4-8-9-1-11v-4h7l2-1-9-2v-7l1-1h19l5 3v-5l3 1v-2l-4-1h-10l-1-1 1-7 6-1z" fill="#251B31"/>
<path transform="translate(188,84)" d="m0 0 3 1 2 8 7 13 1 1v217l-2 1-3-1-1-4-1-41-1-22-1-5-1-17-1-96-1-23-3-22 2-6z" fill="#F9F8F9"/>
<path transform="translate(338,395)" d="m0 0 4 3 13 5 17 4 1 3v26l-3 8-6 18-1 5-4-2-5-6 2-4v-3l-6 4-7-7-8-7v-2h-3v-2l-3 1v-2l5-4 8-11 7-10v-3l-3 2-1-1-2 5-1 4-12 16-3 2-9-3v-3l-2-1 6-2h2l-1-6 5-5 6-8 3-1-1-3h2z" fill="#35154A"/>
<path transform="translate(479,354)" d="m0 0v3l-1 2 3 5-2 5-6 1 6 2 1 3v18l-3 5-3 2-8 1-2 2-5 1h-27v-21h-2l-1-4 1-2-5-1v-6l7-1 4-2 5-3 4 1h9l9-2v-2l7-4 6-2z" fill="#272137"/>
<path transform="translate(552,375)" d="m0 0 3 3 1 3 13 5v2l6 2 2-6 4-5-1 5 6-2-1 6 3 1 2-4-1 5-4 3-2 7-3 1 2-5v-1l-4 1-2-4h-2l-1 4-11 11-9 6-13 5-5 2h-7l-12-5-14-8v-3l5-2 8-5 10-9 8-6 9-3 7-1z" fill="#694C3E"/>
<path transform="translate(296,534)" d="m0 0 4 1 1 5-4 2-3 3h-13l-6-1 1 3 5 3 5 1h17l5-3-2 4-4 3-10 2-4 16-2 13-5 41-2 10-5 7-9 1-1 2h5v1h-8l2-5 4-5 1-93 3-3-1-7h3l3 3 2 1h13z" fill="#262036"/>
<path transform="translate(380,103)" d="m0 0h7l1 3-1 27h2l3-1-1-13 2-6 5-2v-2l10 1 4 3 1-2 3 1 7 8 3 5 1 5 4 13 1 5 4 1-2 1v2h2v3l-7-1-4-3-19-4h-31l-14 2-14 4-8 2v-3l14-5 18-3h8v-37z" fill="#B5BACA"/>
<path transform="translate(569,667)" d="m0 0h1l1 11 8-1v-2h18v2l6 2 7 4v1h-6l2 11 2-7 3 1 3 9 1-12h1v15l-5 7h-2l-1 3-7 1-2-3h-2l-2 3-7-1-1-2h-2l-2 3h-6l-4-4-2 4h-5l-6-5v-12l3-7 3-9 1-1 1-10z" fill="#291F34"/>
<path transform="translate(187,83)" d="m0 0h1l1 7-5 5-4 6h2l-3 6h-3v218h9l-1 3-7 1-3 1-1 2h-11l-4-2-1-4-3-3-5 1v2l4 2-2 8h-3l-3-3 2 5 4 2 5-1 1-2h30l-2 6-13 3-1 7h-2l-2-2 1 4 11-1v-7l2-1 1 7 5 2h10l3 2-1 3-2-1-1 4-5-2h-19l-1 7 10 1-3 3h-6l1 3h-2l-1 2-2-3-1-16-3-4v-5l5-5 3-4-15 1-3 3-6-1-4-5v-12l5-6 7 1 5 6 7-1 3-3 1-217 6-10 5-6 3-6z" fill="#1F172F"/>
<path transform="translate(520,257)" d="m0 0 9 2 3 3v5l-4 1 3 5 7 7 9 7 6 4 4 7v2l4 2v2h-32l-4-5-4-2-7-7v-2l-9-3-5 5-3 2h-5l4-1 1-4 1-2h-2v-2l-2-1 2-4h2v-2l5-2 4-8 4-3h2v-2h2v-2z" fill="#1F1630"/>
<path transform="translate(271,340)" d="m0 0 5 5 2 12 4 2h10l3-3-1 4-4 4h-7l-8 7-1 1-9 1-1 2-11 1-24 1-2 2h-12l-2-5h-2v-15l-1-10 4 2h3l-2 1 1 7 10 1 6-1h15l8-3 5-5 4-3 5-1z" fill="#272137"/>
<path transform="translate(574,309)" d="m0 0 7 6 10 10 9 19v21l-1 3h-2l-1 11-3 3-1 8-3 4-3 6-23 23-4 1v-2l-3 2h-8l-1 4-3 1h-16l-8-2-5-2 1-2 11 2 1-1h7l1-3 7-3 10-2 8-7-1-2 8-7 5-5 1-3 3-1 1 5 3-3h2l-1 4-2 4 3-3 2-6 4-2v-3l-3 3-2-2 1-5-5 1 2-12 3-8v-9l-5-15-2-3v-3h-2v-2h-2v-2l-4-2-13-5v-2h-20l-16 4-6 4h-2v-2l8-5 12-4 5-1h16l12 3h5l2 3 5 2 8 15 2 10v21l-1 8 4 2 1-3v-7l-2-2 7-2-1-11v-8l-2-3h2l-1-5-2-1-2-7-5-9-12-12z" fill="#3D333F"/>
<path transform="translate(300,288)" d="m0 0 4 2 4 3v2l4 1 5 4-2 5-4 8-6 10-5 9h-2l-2 9v2l4 2-1 6-3 7-2-1-2 3h-10l-5-5-2-10-6-9-1-4 4 1 5 5 2 1-2-9 5-8 1 2 3-2 6-17h2l1-5 3-6h2z" fill="#9C765B"/>
<path transform="translate(425,156)" d="m0 0 6 4 2 6 5 6 1 6 3 1 8 17 3 3 15 2 5 4v2l7 2-3 3-10 6-7 6h-2l-2 4-2 3h-12l-8-1-1-7 10-6 3-3 1-3-14 7-1-3 1-2 8-2 1-2v-9l-2-2-1 4 1 1v5h-3l-3-8-6-18-2-9-2-4v-6l1-2z" fill="#231B32"/>
<path transform="translate(399,372)" d="m0 0h19l7 6 3 9v12l-3 6-7 6-6 1h-11l-5-2-6-5-3-8v-11l4-8z" fill="#6F5141"/>
<path transform="translate(296,555)" d="m0 0h9v10l-3 18-4 10-3 14-2 10v13l-2 17-2 5-4 2-3-4v-2l-2 1 2 5 2 6-4-2-3-3v-2h-2l-4-4-7-2 1-3 9-1 4-6 4-24 3-27 2-13 4-16z" fill="#514A56"/>
<path transform="translate(485,216)" d="m0 0 4 1 3 2 3-3 4 1 11 9 7 8-1 3v6l-4 5h-2l-2 4-8 3-3 2-8-1-4-3-10-6-1-3-4-2-2-2 1-9 5-5 9-7z" fill="#B5BACA"/>
<path transform="translate(337,397)" d="m0 0 2 2-1 6-1 3-5 4-5 8-3 2v6l-5 2-1 4 10 2 9-11 5-7v-6h2l1-3h3l2-1-1 5-6 9-10 13-4 2 3 1v2h3l6 7 8 7h3l5-3-1 6-1 3 8 7 1-7 5-16 2-5h1v34l-4 1-3-1-1 2-5-3-7-5-1-2-4 2-14 14-2 6-12 12-2-1 3-3 1-4 3-3 3-6 5-5 5-4 6-7 4-3 2-5-3-1-6-7-6-3-5-3h-5v2l-5 4-5 8h-2l-1 5-2 3h-2l-2 5-5 6-4 7-3 2-3 8-3 3-3 1-1 2h-2l-2 4-9 8h-2v14l2 3v6l-2-1-4-8v-12l2-3h2l2-4 8-7 9-10 2-5 10-11 3-6 5-6 2-6 9-9h2l-7-8-1-1v-8l6-7 6-5 4-7 7-9z" fill="#1F1630"/>
<path transform="translate(482,211)" d="m0 0h7l8 4-5 5-4-3h-3l-5 6-8 6-1 2h-2v9l5 4 4 4 14 8 7-1 5-3 5-2 6-7v-8l3-1 1 6-1 4 6-2 3 3v5h-2l-2-4-2-1-1 5-8 7-16 11-6 3h-8l-12-6-9-7-1-5v-24l5-6h2l1-3 11-8z" fill="#514D60"/>
<path transform="translate(345,249)" d="m0 0h2l1 11 8 7 11 7 13 2-1-15-1-5 3 2 1 16 1 38-9 3-4 5-5 3-1 2h2l-2 4-4 4-2-2 3-5-4-1v-2l-6-2h-7l1 9 6 8v2l-6-1-4-10-1-6 2-6-5-5-1-4v-12h3l1 12 4 2 4 3 14 3 9-1-4-2-1-3h6l2 1h6l1-3-4-2v-2h2v-3l-4 3-11-1-10-2-10-8-8-7v-15l3-1 2 6 3 1 1 5h5l1 4 5 2 4 1h5l8 6 7 1v-13l-5 1-16-8-7-5-7-9z" fill="#524C5C"/>
<path transform="translate(370,155)" d="m0 0 5 1 5 4 2 1-1 4-3 4 4-4 4 2 5 10 2 2v4h-8l-5-1-1 5-2 1-1 8h-4l-2-6-2 3v10l5-3h3v3l4-1v-2l4-1 1 1v6l2 1v-6l5-2 1 2v6h3l-1-7 5 1 1 2h5l2-15 1-3h2v22l-5 4h-4v2l-4 2-20-1-2-1 1-3h2v-2h-5v3l-5-1-3-3-1-3v-13l2-9 2-6-5-1-5-4-1-7 4-6 3-2z" fill="#F9ECDE"/>
<path transform="translate(329,215)" d="m0 0h2v36l-7 11-10 10-6-1-11-6-2-2v-7l5-14 7-12 12-12 4 2v2l-1 1 4 2-1 7 1 12z" fill="#4C495D"/>
<path transform="translate(447,424)" d="m0 0h1v5l3 1 6 21 2 5 2 10 3 1 14-9h2l-3-13 2-2 1 4h2l1 5 9-1 5-2 3 1-2 2 3 1v1l-16 3-5 3v7l5 9 19 38v10l4 1v5l-4 4v6l6 7 3 5 6 3h11l5-4 5-3 1-3h2l1-3h2l1-2v7l-8 9h-2v2l-8 4 11 1v1l-8 2-3 2h-4v-3l-5-2-1-2-6-2-3-7-10-10v-8l2-3-1-4-1-1-1-11-3-5-3-7-8-16-5-9-4-5-1-8h-2l-5 5-11 6-4-1 2-2-6-4-1-14-1-3z" fill="#291F34"/>
<path transform="translate(577,334)" d="m0 0 2 3 4 8 3 10v9l-3 8-4 11-4 7-6-2v-2l-10-3-4-2-3-7 1-13 7-8 16-16z" fill="#9D7456"/>
<path transform="translate(438,238)" d="m0 0 4 1 5 5 4 2-2 5-5 4-5 5-9 8-13 5-8 3h-8l-3 26-3 13h-10v-1l7-1-2-1v-2l2-1 3-13 3-20v-12l5-5 13-7 6-5h2l1-3z" fill="#4F4B5E"/>
<path transform="translate(392,322)" d="m0 0h8v2l7 1-2 4-2 2 6 1 1 2 5 2 2 6-6 4-1 3 9-2 1 2v6l2 1h-2v12l-12 1h-16l-2-7-2 1 2-4 1-3h-6l-1-2 3-3 1-3h3l-1 4 6-1-2-9-2-1-1 4-2-1 1-5 5-6-3-1v-5l-5 4h-3v-5l4-3z" fill="#6E5142"/>
<path transform="translate(477,305)" d="m0 0 3 3 2 7 1 4v12h3l-2 11-6 11-4 4-7 3-4 1v2l-9 3h-10l1-2 7-1v-3h-15l-7-8h3l5 3h15l11-4 8-6 3-5v-3h-2l-7 8-4 3h-9l-10 1-2 1-4-6-2-4 13-1 5-3 7-3 9-9 3-4 1-4h2l1 2v17h4l-1-16-4-6z" fill="#20182F"/>
<path transform="translate(462,413)" d="m0 0 4 1 10 26 4 12v6l-10 6-6 4-4-2-3-12-6-19-1-5-2-1-1-13 7-2z" fill="#63427A"/>
<path transform="translate(370,107)" d="m0 0h6l3 2v35l-26 4-6 1v-9l3-8 3-13v-3l5-5 10-3z" fill="#4C495D"/>
<path transform="translate(375,146)" d="m0 0h31l19 4 1 2h-14v2l6 2 1 3v8h-2v10l-1 2-2-1 2-14 1-4-4-4-7-2h-9l-10 3-2 1v-2l-10-1h-10l-8 3v18l-1 3h13l-1 3-2-1h-11l-4-2-2 3h-2v5l-3 1v11l-1 13-3-1-1-3 1-26 2-3 2-15h2l1-12 14-4z" fill="#352D3F"/>
<path transform="translate(192,344)" d="m0 0h9l7 6 1 5h2l1 4v10l-1 5h2l2 4 3 2-9 1-8 7-3-1h2l-1-14-1-3-1-5v10l-5 1h-13l-7-2-1-3h7l2-1-9-2v-7l1-1h19l5 3v-5l3 1v-2l-4-1h-10l-1-1 1-7 6-1z" fill="#292238"/>
<path transform="translate(362,235)" d="m0 0 7 4 8 5 11 5v1l-11 2 3 9v15h-10l-10-5-10-9-3-2v-11l-2-1 2-1h3l3-7 5 2 2-1z" fill="#2A2338"/>
<path transform="translate(227,670)" d="m0 0 10 2v2l1-1h6v2l6 1 7 6-1 6-4 4-1 3-11 5h-6l-3-3-13-1-6-5v-9l6-7z" fill="#322535"/>
<path transform="translate(541,307)" d="m0 0h17l10 1 3 1h3l2 4 8 7 5 6 4 8v5l3 1 1 6-1 1 1 4v16l-5 3 1 1v7l-2 3-5-1 1-9v-21l-3-12-7-13-5-2-1-3-5 1-10-3-2-4h-1l-1 2-5-1 3-1-20-1v-2h-3v-2z" fill="#B3B7C7"/>
<path transform="translate(573,656)" d="m0 0h28l4 5 2-1 2 10 6 11v19l-3-4-2-7-2-1-1 14h-1l-2-10v-8l3-1-4-3-6-3v-2h-18v2l-8 1-2-10-1-3 3-3z" fill="#282038"/>
<path transform="translate(350,411)" d="m0 0 6 1 6 4 4 1 1 4-3 11-4 10-8 13h-3l-14-13v-2h-3v-2l-3 1v-2l5-4 8-11z" fill="#624279"/>
<path transform="translate(476,411)" d="m0 0 7 4 21 21 7 8-1 3-13 3-10 3-4-1-10-25-4-11 1-4z" fill="#63427A"/>
<path transform="translate(491,472)" d="m0 0h6v2h16v8l4 4 1 5 3 3 2 8 4 2 3 10 2 1-10 2-8 3h-3l-6-17-11-23-3-5z" fill="#FCEEDF"/>
<path transform="translate(453,265)" d="m0 0h2l2 13-8 10-10 5-8 3-9 1h-16l-3-1v-12l2 3 8-2 3-2 9-2 8-4 8-5 7-5h5z" fill="#4E4A5E"/>
<path transform="translate(346,374)" d="m0 0 11 2 9 3 1 1v7h2l1-7h8l1 6v18h-9l-8-2-14-4-5-4v-14z" fill="#684C3F"/>
<path transform="translate(318,463)" d="m0 0h8l4 2-6 12-11 15-10 16-3 3-14-12 1-3 4-5 6-4 7-9 3-5 9-9z" fill="#FDEFDF"/>
<path transform="translate(522,518)" d="m0 0h9l5 8 1 3 1 13-6 7-8 1h-7l-5-3h-3l-5-6v-2l3 1 2-2 3 5-3-10-1-2 1-7 10-5z" fill="#FEF0E0"/>
<path transform="translate(455,296)" d="m0 0 2 1-1 4v2l2 2-8 7-7 3-22 4h-7l-10-6-4-1 1-4 3-8h2v2h26l11-3-1 2 5-1z" fill="#524C5C"/>
<path transform="translate(467,300)" d="m0 0 3 1 1 4 1-4h4v10l-4 1 2 4-2 4-1-4-11 12-6 4-13 4h-8l-10-10v-3l17-2 12-5 10-9z" fill="#372D3D"/>
<path transform="translate(334,255)" d="m0 0h1l-1 9-7 24-1 2h-2v3l-4 2-7-1-6-4v-2l-5-2-6-7-3-7 3-2 10 2 3 4v2l3-1 10-10h2v-3l-8 8-2-1 9-9 3-4 7-2z" fill="#37164C"/>
<path transform="translate(191,88)" d="m0 0 4 4 6 9 3 5 1 213 1 2h-2l-1 3h-2l-1-217-3-4-6-12z" fill="#393345"/>
<path transform="translate(454,203)" d="m0 0 8 1 13 4 5 1-3 3-10 6-7 6h-2l-2 4-2 3h-12l-8-1-1-7 10-6 4-4 2-5z" fill="#52846E"/>
<path transform="translate(576,391)" d="m0 0 2 3v2l3-3h2l-1 4-2 4 3-1-1 4-6 7-8 7-7 6h-2v-2l-3 2h-8l-1 4-3 1h-16l-8-2-5-2 1-2 11 2 1-1h7l1-3 7-3 10-2 8-7-1-2 8-7 5-5 1-3z" fill="#504C60"/>
<path transform="translate(299,638)" d="m0 0h1l1 21 3 2v2l3 1 1 2v7l-6 11-4 4h-35v-1l16-1 3-3 1-4 1-13 5-5 9-1z" fill="#342A3C"/>
<path transform="translate(182,395)" d="m0 0h1v8l11 1 1 4h-3l1 3 4 3 6-2-2-4 1-3h2v2l3 1 1 6-9 9-6 1h-15l-7-6-3-4v-5l7-7 4-3 2-3z" fill="#674D41"/>
<path transform="translate(268,512)" d="m0 0 2 1 4-1 10 6 8 4 2 5 3-1 1-8 2 3-1 9-4 6-4 4h-13l-5-3v-2h-3l-2-8-1-1v-12z" fill="#9B7356"/>
<path transform="translate(378,100)" d="m0 0h15l7 3 9 3 10 6 8 9 9 19 1 7 2 3-1 4h-2v-2h-2l1-3-5-1v-6l-7-21-9-9-3 2-3-3-7-1-3-1v2l-5 3-1 9v9l-5 3-1-2 1-30h-7l-1 6-9-1-8 3-2-1 5-3z" fill="#4C485C"/>
<path transform="translate(380,103)" d="m0 0 6 1v13l-1 23h19l17 3 6 5-2 2-8-1-11-2h-31l-14 2-14 4-8 2v-3l14-5 18-3h8v-37z" fill="#FDFCFA"/>
<path transform="translate(222,320)" d="m0 0h5l4 5 1 2v12l-6 2-1 2 6-1 3-3 5 1-1 3-12 6-6 2h-5-4l-2-3-5-3v-1h7l4 3h5l-4-5-2-1-10-1 1-4 10-1v-4l-3-1v3l-10-2 1-6 5-2 1 5 6-2z" fill="#1F172F"/>
<path transform="translate(149,320)" d="m0 0 7 1-1 4-1-2-5 1v2l4 2-2 8h-3l-3-3 2 5 4 2 5-1 1-2h30l-2 6-13 3-1 7h-2l-2-2 1 4 11-1v-7l2-1 1 7 5 2h10l3 2-1 3-2-1-1 4-5-2h-19l-1 7 10 1-3 3h-6l1 3h-2l-1 2-2-3-1-16-3-4v-5l5-5 3-4-15 1-3 3-6-1-4-5v-12z" fill="#251B31"/>
<path transform="translate(294,312)" d="m0 0 7 1-2 9-7 14h2l-1 3-8 7-4 10-4-1-2-10-6-9-1-4 4 1 5 5 2 1-2-9 5-8 1 2 3-2 4-8z" fill="#FDEFDF"/>
<path transform="translate(572,331)" d="m0 0 4 1 1 5-22 22-1 2-1 13-2 3-4-2v-2l-9-3-6-6 1-4 6-4h10l13-16 8-8z" fill="#F5F5F6"/>
<path transform="translate(409,321)" d="m0 0 6 3v-2h2l9 11 7 10 4 5 5 1 1-1 12-1h7l9-8 2-3 3 1-1 5-6 7-12 6-4 1h-15l-6-4-5-2 2-1-5-7-4-4-2-5h-2v-3h-2l-3-5v-2h-2z" fill="#AD8A71"/>
<path transform="translate(392,322)" d="m0 0h8v2l7 1-2 4-2 2 6 1 1 2 5 2 2 6-10 7h-10l-2-1-1-6-2-1-1 4-2-1 1-5 5-6-3-1v-5l-5 4h-3v-5l4-3z" fill="#74594C"/>
<path transform="translate(347,264)" d="m0 0 9 9 15 8 4 2h5v13h-7l-9-6h-8l-6-6v-2h-2l-1 2v-2h-2l-1-5-4-1 4-2h3l2-2h-2z" fill="#2F2639"/>
<path transform="translate(212,330)" d="m0 0 5 1-2 4-10 2-1 6 2 1v2l4 2v7l-2-3-5-6-2-1h-9l-3 3h-4l-1 6-3-1-1-6-1 7-5 2h-6l-2-2 1-4 2 1v2h2v-7l9-3 5-1 2-5-3 1-27-1-1 2v-3l15-1 5-2h9l5 1 12 1 3-2h7z" fill="#241D34"/>
<path transform="translate(256,649)" d="m0 0 1 2 6 1 6 5 1 5-4 1 1 5-4 4v3l-5 2-6-4-4-2v-4h-10l-2-2 4-2v-2l9-6 5-4h2z" fill="#504C5E"/>
<path transform="translate(468,375)" d="m0 0h4l-1 6-4 1-4-1-3 1-2 4v-2l-2 1 1 9 1 3 7-2 2 3h-3v5h-25l-1-6 16-2-5-3-7 1-1-5 2-4h-6l-1 1-1 7h-2v-10l4-2 21-1 2-2z" fill="#A27B5E"/>
<path transform="translate(477,372)" d="m0 0h2l1 3v18l-3 5-3 2-8 1-2 1v-4l2-1-2-1-6 1-2-4-1-8 3-1 2-3 8-1h1l3-1-1-5z" fill="#674C40"/>
<path transform="translate(530,363)" d="m0 0 4 2 6 5 7 3 3 5-1 1-12 2-10 6-5 5h-2l-2 4-7 5-7 2 1-6 9-9h2l1-3 12-12v-8z" fill="#4E4A5E"/>
<path transform="translate(528,276)" d="m0 0 5 3 13 11 6 7-2-6 4 1 3 6v2l4 2v2l-14-1-7-3-10-6-9-7 2-1v-7l1-2 3 1z" fill="#F8EBDD"/>
<path transform="translate(476,286)" d="m0 0 4 3 8 2 2 1v20l2-1v16l-6 5-3-1-2-18-3-7-2 1-1-6-2-2 3-1z" fill="#2B263B"/>
<path transform="translate(399,372)" d="m0 0h19l7 6 3 9v12l-3 6-7 6-6 1h-11l-5-2-6-5-3-8v-11l4-8zm1 4-6 3-3 4v13l3 8 5 4 2 1h13l8-6 3-7-1-11-3-5-6-4z" fill="#BDC2D0"/>
<path transform="translate(471,321)" d="m0 0h2l1 5-1 11-7 8-4 3h-9l-10 1-2 1-4-6-2-4 13-1 5-3 7-3 9-9z" fill="#291E32"/>
<path transform="translate(347,182)" d="m0 0 5 2 2 5 2-6h3v27l-5 3-9 2-3-3 1-17v-8h4z" fill="#2B243B"/>
<path transform="translate(176,107)" d="m0 0h1l1 103v115h-2l-1-2v-87z" fill="#4E4B5F"/>
<path transform="translate(337,295)" d="m0 0 2 1 1 12 4 2 4 3 14 3 9-1-4-2-1-3h6l2 1h6l1-2h2v3l-9 3-4 5-5 3-1 2h2l-2 4-4 4-2-2 3-5-4-1v-2l-6-2h-7l1 9 6 8v2l-6-1-4-10-1-6 2-6-5-5-1-4v-12z" fill="#68514D"/>
<path transform="translate(401,154)" d="m0 0 7 2 5 6v7l-5 5-3 2h-7l-7-6-4-5 1-5 7-5z" fill="#342A3A"/>
<path transform="translate(491,387)" d="m0 0 3 1v8 2l4 3v2l3 1 4 4 15 8 8 3h7l16-6 8-5 3 1-11 9-11 2-4 1-1 4h-7l-2 1-10-2-7-3 4-2-2-1v-2l-5-2-3-2v-2l-8-1-3-4-5-11 1-2v-2z" fill="#B4B9C9"/>
<path transform="translate(354,216)" d="m0 0h5l3 15-13 3-9 4-2 2-2 1-1-3-2-1 1-6 2-4v-7l5-1h12z" fill="#282338"/>
<path transform="translate(523,271)" d="m0 0 5 2 1 3-3 3v-2h-2l-1 9-1 1 11 8 10 6 11 2v1h-25l-4-5-4-2-7-7v-2l-4-1-1-4 8-7z" fill="#947057"/>
<path transform="translate(510,287)" d="m0 0 4 1 7 8 4 2 4 4v2h32l-6-7-1-4 6 4v2l4 2 9 6 1 2-5 1-1-1-16-1h-11l-16 2-13 5-3 1-1 3-9 6-8 8-2-1 16-16 13-8 6-3-2-4-3-3v-2l-4-2-5-6z" fill="#211931"/>
<path transform="translate(532,515)" d="m0 0 4 1 6 8 2 3v13l-1 5h-2l-1 4-10 7h-11l-8-5-1-3 2-2 6 3h9l5-1 5-7-1-12-5-10v-2h-5v-1z" fill="#997257"/>
<path transform="translate(281,501)" d="m0 0 5 1 14 12-2 12-2 2-4-4v-2l-5-2-11-6-4-1-3 2 2-5z" fill="#FDEFDF"/>
<path transform="translate(574,309)" d="m0 0 7 6 10 10 9 19v21l-1 3h-2l-1 11-3 3-1 8-3 4-3 6-3 2 1-9 3-3h2v-3l-3 3-2-2 1-5-3-1 4-12 1-20h1v21l-1 8 4 2 1-3v-7l-2-2 7-2-1-11v-8l-2-3h2l-1-5-2-1-2-7-5-9-12-12z" fill="#494558"/>
<path transform="translate(296,534)" d="m0 0 4 1 1 5-4 2-3 3h-13l-6-1 1 3 5 3 5 1h17l5-3-2 4-2 2h-17l-16-2-1 52h-1l-1-59 3-3-1-7h3l3 3 2 1h13z" fill="#21182F"/>
<path transform="translate(358,255)" d="m0 0 10 1 5 5 4 3 1 9 1 3h-9l-10-5-9-8 1-4z" fill="#4E4A5D"/>
<path transform="translate(425,162)" d="m0 0 3 2 2 7 3 1 1 4h2v3l4 2 1 7 3 9-1 2 4 1v8l-3-1-3-8-1-1-1 4 1 1v5h-3l-3-8-6-18-2-9-2-4v-6z" fill="#B0B4C4"/>
<path transform="translate(447,424)" d="m0 0h1v5l3 1 6 21 2 5 2 10v4l-4 2-6-1-2-2-1-14-1-3z" fill="#36154B"/>
<path transform="translate(510,440)" d="m0 0 6 2 3 4 5 1 2-5 2 1v7l-7 6-5 2-3 3-1 4 2 8h-6v-9l-1-3-2-1-2-7h-6l1-3h2v-2l11-1 1-2z" fill="#1E162F"/>
<path transform="translate(506,266)" d="m0 0 1 3-3 3v3l-6 1v2h-2l-1 4 1 3h2l-2 4h-10l-7-3-2-4-8-6-3-7 4 1 5 3v2h19l4-4 7-4z" fill="#36154B"/>
<path transform="translate(349,153)" d="m0 0 4 1-1 1v20h3l2-2-1 6h13l-1 3-2-1h-11l-4-2-2 3h-2v5l-3 1v11l-1 13-3-1-1-3 1-26 2-3 2-15h2l1-8z" fill="#4F4B60"/>
<path transform="translate(370,155)" d="m0 0 5 1 5 4 2 1-1 4-9 10-3 4v-3l-5-1-5-4-1-7 4-6 3-2z" fill="#362C3B"/>
<path transform="translate(191,88)" d="m0 0 4 4 6 9 3 5v45l-1 168h-1l-1-191-1-21-3-4-6-12z" fill="#1A122B"/>
<path transform="translate(421,208)" d="m0 0 3 3v2l3 1 1 6-4 6-10 10-5 3-13 3-6 2-9-3-3-4 5 1 18-3 9-5 9-10 5-2 1-3-4-1-1-4z" fill="#604277"/>
<path transform="translate(320,446)" d="m0 0v3l-6 9h-2l-1 5-2 3h-2l-2 5-5 6-4 7-3 2-3 8-3 3-3 1-1 2h-2l-2 4-9 8h-2v14l2 3v6l-2-1-4-8v-12l2-3h2l2-4 8-7 9-10 2-5 10-11 3-6 5-6 2-6 5-5z" fill="#292035"/>
<path transform="translate(593,660)" d="m0 0 5 1 2 4 3 1 2 5-1 3-2 1v1h-28l3-5 4-7 8-2z" fill="#4E4A5E"/>
<path transform="translate(600,682)" d="m0 0 4 4 2 9 2-7 3 1 3 9 1-12h1v15l-5 7h-2l-1 3-7 1-1-1-2-10z" fill="#44353E"/>
<path transform="translate(320,493)" d="m0 0v3l-8 9-5 7h-6l1 4h5l5 5-1 10-5 5h-5v-15h-2v-7l-13-11-5-2 2-1 1-3h2l4 5 8 7 5 1h3l4-8 5-6 4-2z" fill="#9C7356"/>
<path transform="translate(412,381)" d="m0 0 5 1 5 5 2 4-1 6-6 5-4 1-3-2-1-4-7-2v-8l4-4 1 5h4v-6z" fill="#9B7355"/>
<path transform="translate(515,260)" d="m0 0 2 1 3 2 4-1 1 4-10 9-9 7h-2v2l-6 2-2-1v-2l-2-1 2-4h2v-2l5-2 4-8 4-3h2v-2z" fill="#624279"/>
<path transform="translate(449,245)" d="m0 0 2 1-2 5-5 4-5 5-9 8-13 5-8 2v-2l-2-1 8-8 4-2h2l2-3 8-1 6-2 6-4z" fill="#5A4E56"/>
<path transform="translate(370,426)" d="m0 0h2v13l-4 10-4 13-1 5-4-2-5-6 15-32z" fill="#63427A"/>
<path transform="translate(331,413)" d="m0 0 12 2-1 4-12 16-3 2-9-3v-3l-2-1 6-2h2l-1-6 5-5z" fill="#603F77"/>
<path transform="translate(594,658)" d="m0 0 6 1 2 1 1 3 5-1 1 8 6 11v19l-3-4-2-7-2-1-1 14h-1l-2-10v-8l3-1-4-3-6-3 4-3 3-1-2-7-5-5-4-2z" fill="#282137"/>
<path transform="translate(472,204)" d="m0 0h6l2 1v2l9 1 11 6 5 5 7 6v2h2l6 8 3 7-2 2h-3v-10l-3-1-7-8-13-10-6-3h-7l-8 4-6 5-7 8-1 21h-1l-1-18-1-2 1-2-2-1 5-5 9-7 9-5-7-2z" fill="#261F35"/>
<path transform="translate(230,671)" d="m0 0 7 1v2l1-1h6v2h-2l-2 4-6 5-5 8-6-1h-3l2-4 5-6 4-2 2-4h-3l-2 4-8 6-2 5h-2v-8l5-7z" fill="#F9F6F4"/>
<path transform="translate(438,238)" d="m0 0 4 1 7 6-2 6h-3l-4 2-6 1-6-2-6 2-1-6 3-1 1-3z" fill="#4E4A5E"/>
<path transform="translate(149,320)" d="m0 0 7 1-1 4-1-2-5 1v2l4 2-2 8h-3l-3-3 2 5 4 2 5-1 1-2h30l-2 6-13 3-3 2 1-5 2-3-15 1-3 3-6-1-4-5v-12z" fill="#231B31"/>
<path transform="translate(541,307)" d="m0 0h17l10 1 3 1h3l2 4 5 4-1 4-5-2v-4l-3-1v2l-4-1-3-2h-12l-1 3-5-1 3-1-20-1v-2h-3v-2z" fill="#EFF0F3"/>
<path transform="translate(293,338)" d="m0 0h2l1 5 4 2-1 6-3 7-2-1-2 3h-10l-4-4 3-1 4-10z" fill="#251E33"/>
<path transform="translate(350,362)" d="m0 0h5l8 4 10 3 4 2 9 1-1 2-4 1v2l-13-1-12-3-8-3-1-5z" fill="#272038"/>
<path transform="translate(323,225)" d="m0 0h1v25l-8 8-3 1v-5l4-6 1-6h-2v4l-3 1-3 5-3-1 2-7 6-10 5-5h3z" fill="#B3B7C7"/>
<path transform="translate(309,537)" d="m0 0h2l-1 5-4 6-3 4h-17l-7-2-4-3v-3h21l2-4 9 1z" fill="#96725A"/>
<path transform="translate(172,276)" d="m0 0h3l1 49h9l-1 3-7 1-3 1-1 2h-11l-4-2-2-7 5 4 7-1 3-3z" fill="#1F1830"/>
<path transform="translate(377,187)" d="m0 0h2l1 8 5 1v-9h2v9h6v-9h3v9h-2v3h5l-4 1 1 7h-3l-1-8-4 2-1 6-3-1v-6h-4v2l-4 1v-3l-5 3h-3l-1-3v-7l2-4 2 1 2 6h2l1-8z" fill="#433642"/>
<path transform="translate(564,634)" d="m0 0h2l1 8 1 5 6 1 5-1 2 3 8-2 6 1 5 5v2l-14 1h-13l-2 1-3-4-3-7-1-1z" fill="#20182F"/>
<path transform="translate(234,344)" d="m0 0 1 2h2v2h-2v2l-5 2-3 4 11-1v2h7l2-1 7-1h3l-6 4-10 1h-10l-10 1-5-2-1-7 14-5z" fill="#4E4A5D"/>
<path transform="translate(546,540)" d="m0 0h1v7l-8 9h-2v2l-8 4 11 1v1l-8 2-3 2h-4v-3l-5-2-1-2-6-2 1-3h12l5-2 9-6 1-3h2l1-3h2z" fill="#251D32"/>
<path transform="translate(150,322)" d="m0 0 5 1v2l3 1 1 4 6 1h8l1-3 8 1-3 2 4 2-7 1-5 2h-15l-1 5-6-1-3-2-1-5 3 1v2h3l1-6 1-2-6-2z" fill="#624C45"/>
<path transform="translate(383,407)" d="m0 0h2v2l5 2 11 5v2l-2 2h14l14-3 3 1-10 4-7 1h-10l-10-2-10-5-1 34h-1l-1-41h1v5h2z" fill="#4E4B5F"/>
<path transform="translate(432,382)" d="m0 0h1v10h2v-7l2-2h7l-1 4-1 5 7-1 6 3-1 2h-12l-1 2-3-1 2 5 19 1v1h-27z" fill="#6C4F41"/>
<path transform="translate(282,322)" d="m0 0 1 2 2 1-2 13 1 5 2 2-5 11-4-1-2-10-6-9-1-4 4 1 5 5 2 1-2-9z" fill="#53434B"/>
<path transform="translate(308,227)" d="m0 0v3l-7 12-5 14v7l8 5 6 3h6l8-8 1 2-5 5-5 6-4 4v-2h-2l-3-5-10-2-2-6-2-3v-8l3-5 2-8 5-9z" fill="#1B132C"/>
<path transform="translate(244,675)" d="m0 0 6 1 6 7-2 5-2 1-1-4h-2l-3 4-2 5-7 1-4-1 1-5 3-5 6-6z" fill="#FBEDDE"/>
<path transform="translate(346,320)" d="m0 0 7 1 4 2v2l4 1-1 4-3 5-2 5-2 7h-1v-6l-4-1h3l-7-10v-9z" fill="#403444"/>
<path transform="translate(369,109)" d="m0 0h4l-1 5 1 5-1 13-3 3-9-5v-9l2-6 5-3z" fill="#B6BBCB"/>
<path transform="translate(341,304)" d="m0 0 8 1 7 2h10l6 2v1l-5 1v2l5 1-1 2-9 1-14-3-8-6z" fill="#282237"/>
<path transform="translate(336,282)" d="m0 0 5 2 8 7 9 4 9 2h12v2l-6 5-17-2-11-8-9-8z" fill="#FDEFDF"/>
<path transform="translate(182,395)" d="m0 0h1v8l1 2h-7l-5 4h-2l2 5 8 6h15l6-5 5-1-2-5-2-4h2v2l3 1 1 6-9 9-6 1h-15l-7-6-3-4v-5l7-7 4-3 2-3z" fill="#292237"/>
<path transform="translate(401,112)" d="m0 0 5 2 4 4 1 5-3 5-2 1h-9l-2-2v-9l3-5z" fill="#FEFEFE"/>
<path transform="translate(289,661)" d="m0 0h10l5 5v9l-3 5-4 4-2-4h2l1-4h2l-1-4h-7l-1-1v-6h-2l-2 6h-2v-5z" fill="#FBEEDF"/>
<path transform="translate(329,213)" d="m0 0 3 1v33h-1v-32h-2l-1 20-2 17h-1l-1-22 1-5-3-2-1 4-1-4 3-1-3-3-7 6-9 6 2-4 4-4h2l2-4 5-3z" fill="#2F2740"/>
<path transform="translate(345,249)" d="m0 0h2l1 11 8 7 11 7 11 3 1 5-7 1-6-4-12-6-9-11z" fill="#FEF0E0"/>
<path transform="translate(589,680)" d="m0 0h6l1 1 1 11v10l-2 1 1 4-3 1-4-1-1-4v-10z" fill="#F5E9DE"/>
<path transform="translate(404,300)" d="m0 0h2v2h2v2h29l-3 3-4 3h-11v2h-3v-2h-6l-1 3v-3l-8 1 2-10z" fill="#272036"/>
<path transform="translate(378,256)" d="m0 0 3 2 1 16v35l-5-3v-2h2v-3l-4 3-2-1 4-4h2v-2l-2 1h-10l-11-3-5-2 4-3 3 2h4l4 3 14 1v-13l-5 1 4-2-1-4-2-2h4l-1-15z" fill="#705750"/>
<path transform="translate(242,675)" d="m0 0h2l-1 4-7 7-3 8h9l2-1 2-5 3-4 3 1 1 3 2-5 1-2 1 5-5 6-1 3-11 5h-6l-2-1-1-6-2-2 6-9 6-5z" fill="#34293A"/>
<path transform="translate(371,439)" d="m0 0h1v34l-4 1-5-3-2-4h2l1-7 5-16z" fill="#36154B"/>
<path transform="translate(517,245)" d="m0 0h4l-1 5-8 7-16 11-6 3h-8l-7-3 1-2 11 3 5-2 2-6 12-6z" fill="#B4B8C7"/>
<path transform="translate(482,211)" d="m0 0h5v3l-10 6-6 5h-2l-1 3-3 2-3 9 1 16 1 4-3-1-1-5v-24l5-6h2l1-3 11-8z" fill="#EBECF0"/>
<path transform="translate(444,437)" d="m0 0h1l1 20 3 1 1 11 6 3-2 3-3-1v-2h-3l1 6-1 8-17 17h-5l4-4 8-7 6-7z" fill="#231A33"/>
<path transform="translate(188,392)" d="m0 0h4l1 5-2 4h5l6 4 1 5v3l-6 2-5-4v-3h3l-1-3-12-1 1-10z" fill="#8C6F5D"/>
<path transform="translate(222,320)" d="m0 0h5l4 5 1 2v12l-3 1-7-2-2-2v-12z" fill="#534952"/>
<path transform="translate(588,680)" d="m0 0h1v27h6v-3l-2-2h4v-10h2v-9h1v10l-1 9 1 7h-3l-2 3-7-1-1-2-8-1 4-2 1-5v-19h1l1 5z" fill="#49373D"/>
<path transform="translate(289,665)" d="m0 0h2l1 6 7 1 1 4h-2l-1 4h-2l2 5-13-1v-18h1v5l2-1z" fill="#A37F65"/>
<path transform="translate(382,165)" d="m0 0 4 2 5 10 2 2v4h-8l-5-1-2 2-1-5-2-1-2 4 1-5z" fill="#825F49"/>
<path transform="translate(403,140)" d="m0 0 15 2 7 4 2 3-7 1-14-3-23-1v-1l11-1-6-1 2-2z" fill="#F0E7DE"/>
<path transform="translate(395,380)" d="m0 0 1 3v15l1 7 4-1h9l8-2 6-4-2 5-8 6h-13l-6-4-3-5-1-4v-13z" fill="#48404E"/>
<path transform="translate(392,322)" d="m0 0h8v2l7 1-1 3-5 2-3 6-4 1-2 7h-3l1-5 5-6-3-1v-5l-5 4h-3v-5l4-3z" fill="#8B6F5F"/>
<path transform="translate(465,367)" d="m0 0 7 1v2l-7 5 1 2-4-1-14 2-5-1v-2l2-1h-2l-1-5 7-1h7l5 2 4-1z" fill="#4E4A5E"/>
<path transform="translate(463,380)" d="m0 0h5v4h3l-1 9-2 2-6 2h-4l-2-4-1-8 3-1 2-3z" fill="#9E7557"/>
<path transform="translate(449,260)" d="m0 0 2 3-7 8-5 4-14 7-11 3-3 2-7 1 1-5 17-5 16-8 10-9z" fill="#382D3B"/>
<path transform="translate(365,216)" d="m0 0 4 1 7 14 6 4 6 2v1l-6 1v-2l-3 1 5 3 4 3-5-1-9-4-5-6-3-5-1-1-1-9z" fill="#35144A"/>
<path transform="translate(362,235)" d="m0 0 7 4 8 5 11 5v1l-11 2-1 2-3-1v-2l-6-2-6-8v-5z" fill="#9F7C64"/>
<path transform="translate(473,336)" d="m0 0 3 1-1 5-6 7-8 4h-16l-4-3 2-2 12-1h7l9-8z" fill="#FAEDDE"/>
<path transform="translate(393,376)" d="m0 0 4 2-5 5v13l3 8 6 4h13l3-1v2l-5 2v1h-11l-5-2-6-5-3-8v-11l4-8z" fill="#B6BBCA"/>
<path transform="translate(329,215)" d="m0 0h2v36l-7 11-10 10v-3l7-10 5-5 2-32z" fill="#B6BBCB"/>
<path transform="translate(485,216)" d="m0 0 4 1 4 3v2l4 1 1 4h2l4 6-1 4-6-2-7-7-7-4 1-7z" fill="#F8F8FA"/>
<path transform="translate(581,680)" d="m0 0 3 1 1 22-2 4-5 1-1-1v-22l2-4z" fill="#FAEDDF"/>
<path transform="translate(192,344)" d="m0 0h9l7 6 3 10v7l-3-4-3-3-3-2 1-3-8-2-3-5z" fill="#F6EADD"/>
<path transform="translate(352,118)" d="m0 0 2 1-3 13v2h-2l-2 16-4 2h-4v3l2 1-2 2v-2h-2l-1-6 7-8 2-9 4-12z" fill="#2B2135"/>
<path transform="translate(191,345)" d="m0 0 3 4 1 4 8 1v4l5 3 2 4v-10l2 4v10l-3 9-2 1-1-16-5-3-4-4h-12l-1-1 1-7 6-1z" fill="#846258"/>
<path transform="translate(360,378)" d="m0 0 6 1 1 1v11l-2 5-6 2v-2l-8-1v-3l12-1 2-9h-2l-2 7-4-1-3-1-1-7 1-1h6z" fill="#604943"/>
<path transform="translate(467,300)" d="m0 0 3 1 1 4 1-4h4v10l-4 1 2 4-2 4-1-4h-3l-4-5-4 1-3 3-2-1 8-8z" fill="#392D3D"/>
<path transform="translate(472,326)" d="m0 0h1v11l-7 8-4 3h-9l-10 1-2 1-1-3 12-1 7-4 2-3h3l2-4z" fill="#291F3A"/>
<path transform="translate(425,156)" d="m0 0 6 4 2 6 5 6 1 6 3 1 1 6 3 6-1 8h-2l-1-6-3-8-1-5-2-1v-3h-2l-2-4h-3l-3-9z" fill="#514F62"/>
<path transform="translate(316,499)" d="m0 0 2 1-3 7-3 5v3l3 1 1 3v11l-4 3v-11l-5-5h-6v-5l7-2 7-10z" fill="#292034"/>
<path transform="translate(337,397)" d="m0 0 2 2-1 6-1 3-5 4-5 8-3 2v6l-5 2-1 4-4-1-2-1 1-4 8-7 6-7 3-6 5-6z" fill="#221A32"/>
<path transform="translate(549,540)" d="m0 0 2 1v12l-5 6-7 3-11 1 1-2 6-3h2v-2l7-6 3-5z" fill="#F7ECE1"/>
<path transform="translate(411,179)" d="m0 0h3v2l-5 2 1 2-1 3-1 11-2 4-5 1-2-5h-5v-3l6-2 6-11z" fill="#302436"/>
<path transform="translate(300,518)" d="m0 0 2 3v10l-1 5 6-2 2-3h2l-1-5 3-4-1 17 2 1v3l-1 3v-2h-2l-2 4-5 2 6-10 1-3-4 4-6-1-2-3v-2l-2-1z" fill="#2F2437"/>
<path transform="translate(339,312)" d="m0 0 5 2 5 3 11 1h3l-3 6-5-1-4-2h-7l1 9 6 8v2l-6-1-4-10-1-6 2-6z" fill="#968682"/>
<path transform="translate(235,666)" d="m0 0h8l5 1 1 4 3 1v3l4 2 1 2-1 2-4-2-4-3-4-1v-2l-9 2 1-2-8-2 2-3z" fill="#2D2234"/>
<path transform="translate(220,322)" d="m0 0 1 2v12l3 2 5 1-4 2h-6l-2-4-2-1 1-4-4-2v3l-10-2 1-6 5-2 1 5 6-2z" fill="#241D33"/>
<path transform="translate(212,330)" d="m0 0 5 1-2 4-10 2-1 6 2 1v2l4 2v7l-2-3-5-6-2-2h2v-4h-15l1-6 13 1 3-2h7z" fill="#9E7557"/>
<path transform="translate(573,656)" d="m0 0h28l4 5 2-1v5l-5-2v-3l-9-1-13 1-8 8-1-3-2-1 2-2z" fill="#1B132C"/>
<path transform="translate(417,355)" d="m0 0 3 1v12h-25l3-2 2-1 2-4 6 2 6-3h2z" fill="#9E775A"/>
<path transform="translate(451,281)" d="m0 0h2l-2 5-9 6-11 4-9 1h-16l-3-1v-12h1l1 11h13l11-1 2-4h2l1-2 6-2 1 1 6-3 2 1z" fill="#6A5551"/>
<path transform="translate(481,467)" d="m0 0 4 5 12 24v2h3l3 5-1 3 4 4 3 9v4h-4l-1-6-6-13-16-32z" fill="#FEF0E0"/>
<path transform="translate(289,491)" d="m0 0h2l-2 5-5 2-1 2h-2l-2 4-9 8h-2v14l2 3v6l-2-1-4-8v-12l2-3h2l2-4 8-7 6-7 4-1z" fill="#41333E"/>
<path transform="translate(379,107)" d="m0 0h1l1 39-20 3-14 4-8 2v-3l14-5 18-3h8z" fill="#B5BACA"/>
<path transform="translate(365,154)" d="m0 0h9l-4 2-7 2-4 6 1 7 6 4 3 1v3h-13v-21l5-3z" fill="#FEF0E0"/>
<path transform="translate(395,351)" d="m0 0h17v9l-13 1-2-2v-2h-2v-2h-2z" fill="#9D7456"/>
<path transform="translate(398,338)" d="m0 0h4v2l6-2-1 3 4 1 5-1-5 5-4 3h-10l-1-1v-7z" fill="#A37C5F"/>
<path transform="translate(446,234)" d="m0 0h2v2l7-1-2 10-3 1-4-2-5-5-5 1-9 3 5-5 5-3z" fill="#2E263A"/>
<path transform="translate(393,152)" d="m0 0h16l9 4 1 3v8h-2v10l-1 2-2-1 2-14 1-4-4-4-7-2h-9l-10 3-2 1v-2l-10-1h-10l-7 1v-2l6-1z" fill="#977055"/>
<path transform="translate(514,473)" d="m0 0 2 2 2 9 8 15 6 8 3 5 1 2-3 1-3-1-4-10-4-4-3-7-3-4-1-4-3-3v-5z" fill="#3F303B"/>
<path transform="translate(425,342)" d="m0 0h4l6 8-1-4 11 6 15 1-3 2-4 1h-15l-6-4-5-2 2-1-4-5z" fill="#876755"/>
<path transform="translate(455,321)" d="m0 0h2v2l5 2-5 5-7 3-6 1v-9l7-3z" fill="#665355"/>
<path transform="translate(283,666)" d="m0 0h1v13l-2 5h-1v-16zm-27 14 6 2 4 3 13 1v1l-16 1-7 4-5 2 2-4 3-4z" fill="#1D152D"/>
<path transform="translate(609,674)" d="m0 0 3 1 3 6v19l-3-4-2-7-2-1-1 14h-1l-2-10v-8h7l-2-5z" fill="#241B31"/>
<path transform="translate(168,345)" d="m0 0 4 2-1 6h-2l-2-2 1 4 5 2-2 11 10 1-3 3h-6l1 3h-2l-1 2-2-3-1-16-3-4v-5z" fill="#20182F"/>
<path transform="translate(438,150)" d="m0 0 2 1-1 5-2 1v9l3 6v7l-2-1-2-7-5-6-2-6-3-2v5l-2 1v-9h2v-2l5 2h7z" fill="#282036"/>
<path transform="translate(600,682)" d="m0 0 4 4 2 12-1 5 3 1-2 4-5-1-3-6z" fill="#FAF8F6"/>
<path transform="translate(351,376)" d="m0 0 9 1 1 3h-7v7l4 1 3 1 1-5 3-3 1 2-3 9h-11l-3-5 1-10z" fill="#6B4D3D"/>
<path transform="translate(303,516)" d="m0 0 5 1 4 4-1 10-5 5-4-1z" fill="#F9ECDE"/>
<path transform="translate(189,360)" d="m0 0 5 2v6h-20l-2-2 1-5h2v2l6-2 1 2z" fill="#FDEFDF"/>
<path transform="translate(337,295)" d="m0 0 2 1 1 12 4 2 4 3 16 4-1 2h-8l-8-2-6-4-4-1-1-4v-12z" fill="#9E7557"/>
<path transform="translate(405,218)" d="m0 0h3l-1 9-5 4h-14v-3h5 2l5-2 1-3h-11l-4-2 14-1z" fill="#C0A691"/>
<path transform="translate(149,320)" d="m0 0 7 1-1 4-1-2-5 1v2l4 2-2 8h-3l-3-3 2 5 4 2h6l-3 4-6-1-4-5v-12z" fill="#2D263B"/>
<path transform="translate(288,315)" d="m0 0 1 2-3 6h-4l-4 7 1 9-4-2-4-4h-7l4-2v-3l8-2 7-8 4-2z" fill="#312638"/>
<path transform="translate(399,372)" d="m0 0h19l7 6v2l-4 1-6-4h-20l2-4z" fill="#F5EADE"/>
<path transform="translate(538,317)" d="m0 0h16l6 2 2 2-5 1-2-1h-18l-16 4-6 4h-2v-2l8-5 12-4z" fill="#272137"/>
<path transform="translate(356,260)" d="m0 0 4 1-1 3 2 3 5-2 5 3-1 3 3-1v4l3 2-9-1-11-7-2-2v-5z" fill="#5F5156"/>
<path transform="translate(455,290)" d="m0 0v3l-1 1h5l1-2 5 2-2 5-4 5-6-1 3-3-1-3-10 5-4-1 4-4 8-5z" fill="#312A3D"/>
<path transform="translate(376,146)" d="m0 0h30l19 4 1 2h-12l-5 1-2-1v-2l-12-1v-1l-19-1z" fill="#413745"/>
<path transform="translate(191,88)" d="m0 0 4 4 6 9 3 5v45h-1l-1-31h-1l-1-13-3-4-6-12z" fill="#2A2237"/>
<path transform="translate(230,671)" d="m0 0 4 1v3h-4l-2 4-8 6-2 5h-2v-8l5-7z" fill="#F9F7F5"/>
<path transform="translate(376,147)" d="m0 0h20v1l11 2v2h-27l-7-1v-1l-6-1v-1z" fill="#1C152D"/>
<path transform="translate(395,136)" d="m0 0h12l6 2 10 4v2l-21-3-12-1-3-1v-2z" fill="#504B5D"/>
<path transform="translate(399,272)" d="m0 0 2 4-3 26-3 13h-10v-1l7-1-2-1v-2l2-1 3-13 3-20z" fill="#765A4C"/>
<path transform="translate(534,514)" d="m0 0 4 2 9 9 1 7 3 5 2 3-4-1-1 6-2-3-3 1v-16l-5-6-3-5z" fill="#302536"/>
<path transform="translate(180,380)" d="m0 0 15 1-2 5-1 1-14 1-2-2v-5z" fill="#F9EFE3"/>
<path transform="translate(268,332)" d="m0 0 4 1 8 8 2 7v7l-4 1-2-7-3-7-4-6z" fill="#F0EDEB"/>
<path transform="translate(380,220)" d="m0 0h9l1 2 11 1-1 4-4 2v1h-7-3l-4-6z" fill="#73584B"/>
<path transform="translate(576,634)" d="m0 0 5 4 2-3v2h6l5 5-1 3-13 1-4-9z" fill="#4E4A5E"/>
<path transform="translate(381,474)" d="m0 0h1v10l4 2 15 14 5 6-1 2-5-3-1-2-6-6v-2l-5-1-6-7-2-4v-8z" fill="#4B485C"/>
<path transform="translate(308,227)" d="m0 0v3l-7 12-5 14-1 6h-3v-8l3-5 2-8 5-9z" fill="#221B32"/>
<path transform="translate(346,320)" d="m0 0 7 1 4 2v2l4 1v3l-8 2-4-3h-3l-2 2v-9z" fill="#22192F"/>
<path transform="translate(234,339)" d="m0 0 5 1-1 3-12 6-6 2h-5-4l-2-3-5-3v-1h7l4 3h5 4l5-2v-2z" fill="#261F35"/>
<path transform="translate(554,293)" d="m0 0 6 4v2l4 2 9 6 1 2-5 1-1-1-16-1 2-4h7l-6-7z" fill="#32293B"/>
<path transform="translate(589,648)" d="m0 0 6 1 5 5-1 2-5-1h-18l1-3 7-3z" fill="#F6EBDE"/>
<path transform="translate(349,408)" d="m0 0 1 4-7 10-10 13-4 2-1 2v-3l9-11 5-7v-6h2l1-3h3z" fill="#2F1543"/>
<path transform="translate(493,407)" d="m0 0 8 2 2 1v2l8 4v2l3 1-3 2 1 2-5-2-4-2v-2l-5-2-5-6z" fill="#616073"/>
<path transform="translate(375,178)" d="m0 0 3 1 1 8-2 1-1 8h-4l-3-7 1-5z" fill="#987054"/>
<path transform="translate(478,443)" d="m0 0 2 4h2l1 5 9-1 5-2 3 1-2 2 3 1v1l-16 3-4 2-4-14z" fill="#281C34"/>
<path transform="translate(537,357)" d="m0 0h1l1 5 5 4 5 7-1 3-1-3-9-3-6-6 1-4z" fill="#B6BBCB"/>
<path transform="translate(536,519)" d="m0 0h2l6 8v13l-2 4-3-1-1-16-2-5z" fill="#FDEFDF"/>
<path transform="translate(293,344)" d="m0 0 3 1-2 12-2 3-8-1-2-1v-2l5-1 1-5 1-2h2v-2h2z" fill="#A58671"/>
<path transform="translate(428,237)" d="m0 0 2 1-12 12-3 4-12 6-3 1-1 3h-2l1-5 6-5 11-5 8-7z" fill="#392D3A"/>
<path transform="translate(557,543)" d="m0 0 6 2 4 8-2 1-1 2-4-2v3l-5 2-4-1 3-4 2-4 3 1v-6h-2z" fill="#504A59"/>
<path transform="translate(560,319)" d="m0 0 11 1 2 3 5 2 4 7-1 2-4-3-1-3-4-1 2 3-4-2-13-5 4-2z" fill="#44363F"/>
<path transform="translate(432,407)" d="m0 0 8 1-1 11-2 1-1-6-7 1h-7l-7 1 16-8z" fill="#4E4B5F"/>
<path transform="translate(347,185)" d="m0 0 3 1-3 22-3 3-1-5v-19h4z" fill="#1D162E"/>
<path transform="translate(414,151)" d="m0 0 12 1v2h-2v11l-2 2h-3l-2-11-5-2v-2z" fill="#1B142C"/>
<path transform="translate(277,356)" d="m0 0 5 3h10l3-3-1 4-4 4h-7l-8 7-3 1-5-1 8-4 3-4v-4l-2 1z" fill="#211930"/>
<path transform="translate(477,305)" d="m0 0 3 3 2 7 1 4v12h3v2l-5-1-1-1-1-12-4-6z" fill="#1C152D"/>
<path transform="translate(436,246)" d="m0 0 3 1v2l5 1-4 3-6 1-6-2-6 2-1-5z" fill="#524A56"/>
<path transform="translate(568,692)" d="m0 0 4 1 1 14-7 1-2-1v-3l5-1-1-3-4-3 1-4z" fill="#F0ECEA"/>
<path transform="translate(176,344)" d="m0 0 4 1-1 9-5 2h-6l-2-2 1-4 2 1v2h2v-7z" fill="#8B6D5E"/>
<path transform="translate(416,233)" d="m0 0 4 2-5 5-6 4-7 1-2-2h-5l1-2 13-3z" fill="#302538"/>
<path transform="translate(299,638)" d="m0 0h1l1 21 3 2v2l3 1 1 2v7l-4 8-4-1 3-5v-9l-5-6z" fill="#3A2F3F"/>
<path transform="translate(574,309)" d="m0 0 7 6 10 10 9 19-1 7h-1l-1-8-4-4-2-7-5-9-12-12z" fill="#2C253A"/>
<path transform="translate(150,322)" d="m0 0 5 1v2l3 1 2 6 6 1v1l-10 1h-4l-1-3 2-4-6-2z" fill="#775847"/>
<path transform="translate(393,187)" d="m0 0h3v9h-2v3h5l-4 1 1 7h-3l-1-8-4 2-1 6-3-1v-7l3-3h6z" fill="#695552"/>
<path transform="translate(378,100)" d="m0 0h13l-2 2-9 1-1 6-9-1-8 3-2-1 5-3z" fill="#251D34"/>
<path transform="translate(584,382)" d="m0 0 2 1-1 5 3 1 2-4-1 5-4 3-2 7-3 1 2-5v-1l-4 1-1-6 5-7z" fill="#B6BBCB"/>
<path transform="translate(587,350)" d="m0 0h1v21l-1 8 4 3v6l-2-1-3 3-2-2 1-5-3-1 4-12z" fill="#4F4C5F"/>
<path transform="translate(471,284)" d="m0 0 3 3 1-2 2 1v12l-4 1-2 6-2-1-1-6 2-3z" fill="#261D32"/>
<path transform="translate(344,183)" d="m0 0 2 1-2 4v11l-1 13-3-1-1-3 1-19 1-4z" fill="#6B687D"/>
<path transform="translate(517,245)" d="m0 0h4l-1 5-8 7-6 4-3-1 4-4 3-5z" fill="#EFF0F2"/>
<path transform="translate(176,333)" d="m0 0h9l3 1v6l2 1-4 1v-3l1-2-3 1-27-1-1 2v-3l15-1z" fill="#2A2338"/>
<path transform="translate(426,125)" d="m0 0 3 4 5 11v7l4 1 1 2-1 4h-2v-2h-2l1-3-5-1v-6l-4-12-1-2z" fill="#4C485C"/>
<path transform="translate(265,644)" d="m0 0 10 1 5 6 4 7v2l-4-2-3-3v-2h-2l-4-4-7-2z" fill="#F8F3EE"/>
<path transform="translate(449,453)" d="m0 0 3 2 3 5 4 6v2l-8 1-2-1z" fill="#63427A"/>
<path transform="translate(171,371)" d="m0 0h12l13 1v3l-4 1h-13l-7-2z" fill="#FAEDDF"/>
<path transform="translate(589,694)" d="m0 0 6 2v-2h2v8l-2 1 1 4-3 1-4-1-1-7z" fill="#FAEEE1"/>
<path transform="translate(532,515)" d="m0 0 4 1 2 3h-2l3 8 1 13-2 2-1-1-1-12-5-10v-2h-5v-1z" fill="#987156"/>
<path transform="translate(463,380)" d="m0 0h5l-1 2h-3l-2 5h-2l1 5 4 2-3 3h-4l-2-4-1-8 3-1 2-3z" fill="#644C43"/>
<path transform="translate(471,321)" d="m0 0h2l1 5-5 5-3 5-3 3v-2l-6-1 12-12z" fill="#251D33"/>
<path transform="translate(403,140)" d="m0 0 6 1-2 4-1 1h-23v-1l11-1-6-1 2-2z" fill="#EEEDED"/>
<path transform="translate(406,325)" d="m0 0v3l-5 2-3 6-4 1-2 7h-3l1-5 5-6-3-1 1-4h5z" fill="#7F6A64"/>
<path transform="translate(474,460)" d="m0 0 2 1-1 3-8 7-10 5-4-1 7-6 12-7z" fill="#241C32"/>
<path transform="translate(222,320)" d="m0 0h5l4 5 1 3-7 1-3 1-1 3-1-1v-8z" fill="#86634D"/>
<path transform="translate(172,360)" d="m0 0h17l-3 2-5 2-1-2-5 1v-2l-2 1 1 5h9l7 1-3 2 9 1v1h-13l-3-2-9-2v-7z" fill="#815F54"/>
<path transform="translate(518,308)" d="m0 0 2 1 1 3-12 4-1 3-9 6-8 8-2-1 16-16z" fill="#2E273C"/>
<path transform="translate(261,645)" d="m0 0 1 2 9 1 5 5-1 3v3l-10-6-3-3-4-1z" fill="#20172D"/>
<path transform="translate(594,370)" d="m0 0h2v9l-3 3-1 8-3 4-3 6-3 2 1-9 3-3h2v-2h2l-1-6 3-5z" fill="#383144"/>
<path transform="translate(585,345)" d="m0 0 2 2v23l-5 14h-2l2-12 3-8z" fill="#342A39"/>
<path transform="translate(409,347)" d="m0 0 1 2 9-2 1 3h-2l-1 2v2h-3l1 3-4-1 1-5-9 1h-7l1-4h10z" fill="#524954"/>
<path transform="translate(346,374)" d="m0 0 4 1 1 2-2 10-3-1v8h-3v-14z" fill="#524A55"/>
<path transform="translate(415,342)" d="m0 0 7 1-2 1 4 6 1 5h-5l-1-8-5 2h-4l1-4z" fill="#292237"/>
<path transform="translate(453,336)" d="m0 0h7l3 1v2l-6 5-6 1-5-2 3-3h3z" fill="#1F162D"/>
<path transform="translate(296,555)" d="m0 0h9v8l-1-3-7 3-3-1v-2h-2l-2 3 1-6z" fill="#4E4B5F"/>
<path transform="translate(366,380)" d="m0 0h1v11l-2 5-6 2v-2l-8-1v-3l12-1z" fill="#54474E"/>
<path transform="translate(340,339)" d="m0 0h3l3 6 3 5v2l3-1 3-6 2 1v7h-10l-7-7z" fill="#42333F"/>
<path transform="translate(520,257)" d="m0 0 9 2 3 3v5l-3-1-1-2-5 1v-2l-4 1v-2l-3 1-1-4z" fill="#371A4B"/>
<path transform="translate(352,118)" d="m0 0 2 1-3 13v2h-2l-1 6-3 1v-8l4-12z" fill="#1F182F"/>
<path transform="translate(525,315)" d="m0 0h6l-1 4-14 7-9 7-2-1 3-6 4-1 12-6-1-3z" fill="#B6BBCB"/>
<path transform="translate(425,156)" d="m0 0 6 4 2 6 4 5-1 2-7-1-3-9z" fill="#7A7A8A"/>
<path transform="translate(398,316)" d="m0 0 6 2 5 3v2h2l2 4-7 1 1-3h-8z" fill="#3A2F3D"/>
<path transform="translate(265,325)" d="m0 0h3l-1 3h-3l-1 4h-10l-8 5-3 1 1-4 12-6 8-1z" fill="#241D34"/>
<path transform="translate(529,276)" d="m0 0 4 1 5 3 9 7 5 3-2 1 3 4-1 3-9-10-11-9z" fill="#68514B"/>
<path transform="translate(418,113)" d="m0 0 4 2 6 8 8 17v7h-2l-2-10-5-10v-2l-3-1-5-9z" fill="#2C263B"/>
<path transform="translate(588,680)" d="m0 0h1v27l-2-3-3-3v-19h1l1 5z" fill="#564345"/>
<path transform="translate(321,421)" d="m0 0 3 1v6l-5 2-1 4-4-1-2-1 1-4z" fill="#2B193B"/>
<path transform="translate(173,375)" d="m0 0h23l-4 4 3 2h-19v5h-1v-6l2-1h8v-2l-7 1v-2h-5z" fill="#695251"/>
<path transform="translate(513,275)" d="m0 0 2 1-3 2zm-3 3h2l-1 5h-2l1 4-5-2-5 5-3 2h-5l4-1 1-4 5-3h2v-2z" fill="#251C33"/>
<path transform="translate(501,539)" d="m0 0 5 3 4 5 3 5 6 3 7 1v1h-12l-2 1-2-6-9-9z" fill="#312636"/>
<path transform="translate(309,537)" d="m0 0h2l-1 5-6 9h-7v-2l8-8h2z" fill="#F7EADD"/>
<path transform="translate(171,375)" d="m0 0 7 1v2l7-1v2l-10 1v6l8 2v1h-8l-3-3z" fill="#231C32"/>
<path transform="translate(172,276)" d="m0 0h3v31h-1l-1-6h-1z" fill="#221B32"/>
<path transform="translate(202,405)" d="m0 0h2v2l3 1 1 6-9 9h-6l6-7 7-2-2-5z" fill="#241C32"/>
<path transform="translate(293,338)" d="m0 0h2l1 5 4 2-1 6-3 7-2-2 1-11-2-1-1 2-1-4 1-1-2-1z" fill="#2D2437"/>
<path transform="translate(455,321)" d="m0 0h2l-1 6-3 1-2-1-1 3-4-1-1 2-1-1v-5l7-3z" fill="#4D4A5E"/>
<path transform="translate(378,237)" d="m0 0 5 1 11-1-1 3 3 2-6 2-9-3z" fill="#63427A"/>
<path transform="translate(365,381)" d="m0 0 1 2-3 9h-11l-1-1v-5l10 3 1-5z" fill="#9E7557"/>
<path transform="translate(596,648)" d="m0 0h7l4 9-1 5-5-5-3-5v-3z" fill="#2C2336"/>
<path transform="translate(339,312)" d="m0 0 5 2 5 3 11 1h3l-3 6-5-1-13-7z" fill="#FEF0E0"/>
<path transform="translate(527,309)" d="m0 0 7 1 3 1h9l4-1 8 1v1l-5 1-1 3-5-1 3-1-20-1v-2h-3z" fill="#B6BBCB"/>
<path transform="translate(382,165)" d="m0 0 4 2 1 6-7 4-2-2 2-7z" fill="#3B2F3C"/>
<path transform="translate(283,666)" d="m0 0h1v13l-2 5h-1v-16zm-3 18m-14 1 13 1v1h-14z" fill="#1A122B"/>
<path transform="translate(198,406)" d="m0 0 4 2 2 4-5 3-4-2-3-2v-3z" fill="#FEF0E0"/>
<path transform="translate(388,348)" d="m0 0h3l-1 4 5-1-2 10-5 2 2-4 1-3h-6l-1-2 3-3z" fill="#433947"/>
<path transform="translate(404,223)" d="m0 0h2v5l-4 3h-14v-3h5 2l6-3z" fill="#FCEEDD"/>
<path transform="translate(354,159)" d="m0 0h1l1 6v10l-2 2v-2l-3 1v-11z" fill="#1A122B"/>
<path transform="translate(608,688)" d="m0 0 3 1 3 10-3 5-3-1z" fill="#F5F5F6"/>
<path transform="translate(397,382)" d="m0 0h2v17l1 6h-3l-2-7v-10z" fill="#AB866A"/>
<path transform="translate(371,381)" d="m0 0h6l-1 12-4-1-2-7z" fill="#9E7557"/>
<path transform="translate(552,540)" d="m0 0 4 2 1 3h2l1 4-1 2h-5l-2 2z" fill="#272137"/>
<path transform="translate(395,380)" d="m0 0 1 3v5h-2v12h-2l-1-4v-13z" fill="#362F41"/>
<path transform="translate(192,328)" d="m0 0h9v4h-17l-3-2 1-1z" fill="#FEF0E0"/>
<path transform="translate(441,299)" d="m0 0 2 1-1 1 2 2-6 2-30-1v-1l24-1z" fill="#543F40"/>
<path transform="translate(329,215)" d="m0 0h2v20l-1 1-1 7h-1v-21z" fill="#F3F4F6"/>
<path transform="translate(276,653)" d="m0 0 5 5 3 1h3v6l-4 1-4-5v-3l-3 1-2-5z" fill="#2B2236"/>
<path transform="translate(506,532)" d="m0 0 4 1 2 6 1 6-5-4-5-1v-6z" fill="#AD8B71"/>
<path transform="translate(424,503)" d="m0 0h6v1h-5v2l-8 7-8 8-3-2 1-5 4 1 5-5z" fill="#2A243A"/>
<path transform="translate(267,512)" d="m0 0 1 2v12l2 3v6l-2-1-4-8v-12z" fill="#292034"/>
<path transform="translate(382,315)" d="m0 0h16v1l-15 1-13 13-2 5-1-3 4-7 9-9z" fill="#4B3A3F"/>
<path transform="translate(337,295)" d="m0 0 2 1 1 12 3 1-1 3h-5l-1-4v-12z" fill="#C1A895"/>
<path transform="translate(469,284)" d="m0 0h2v11l-4 5-3-1 1-5z" fill="#F7EDE3"/>
<path transform="translate(242,675)" d="m0 0h2l-1 4-7 7-3 8-4-3 6-9 6-5z" fill="#6F5245"/>
<path transform="translate(242,679)" d="m0 0 4 2-6 8-4 3-2-1 2-6z" fill="#FAFAFA"/>
<path transform="translate(381,285)" d="m0 0h1v24l-5-3v-2h2v-3l-4 3-2-1 4-4h2l1-2z" fill="#987763"/>
<path transform="translate(464,221)" d="m0 0 3 2-6 6-1 21h-1l-1-18-1-2 1-2-2-1 5-5z" fill="#312B40"/>
<path transform="translate(230,675)" d="m0 0h3l-2 5-6 4-4 5v3l-5-1 2-2 2-5 9-7z" fill="#6E514A"/>
<path transform="translate(559,408)" d="m0 0 3 1-11 9-11 1 1-2 16-7z" fill="#B6BBCB"/>
<path transform="translate(310,313)" d="m0 0 3 1-2 5-6 6-2 6-6 5 1-4h2l2-6 4-5 3-7z" fill="#30283C"/>
<path transform="translate(481,467)" d="m0 0 4 5 12 24-1 2-4-6-9-19-2-2z" fill="#D9D5D5"/>
<path transform="translate(145,333)" d="m0 0 3 1v2l3-1 2-2 3 1v6l-5 1-5-3z" fill="#694F45"/>
<path transform="translate(324,232)" d="m0 0h1l1 12h1v10l-4 2h-2l-3 1 2-4 3-3z" fill="#413D51"/>
<path transform="translate(460,229)" d="m0 0 1 4h2l-1 8 1 14 1 4-3-1-1-5z" fill="#B3B7C7"/>
<path transform="translate(423,187)" d="m0 0 2 4-1 2h2v11l-3 1-3-3 2-7z" fill="#331547"/>
<path transform="translate(564,547)" d="m0 0 7 6 3 6 2 3 1 8-4-4-5-12-4-5z" fill="#272137"/>
<path transform="translate(320,446)" d="m0 0v3l-6 9h-2l-1 5-3-2 1-5 5-5z" fill="#31273A"/>
<path transform="translate(189,391)" d="m0 0h6l3 8 4 6-5-2-6-2 1-9z" fill="#2F2536"/>
<path transform="translate(474,365)" d="m0 0h4l-1 4-4 1 4 3h-3l-1 2-9 1 5-5 3-1v-4z" fill="#322B42"/>
<path transform="translate(183,342)" d="m0 0 5 1-1 3 2 2h-4l-1 6-3-1-1-7-3-2z" fill="#342A3A"/>
<path transform="translate(455,290)" d="m0 0v3 4l-10 5-4-1 4-4 8-5z" fill="#332736"/>
<path transform="translate(350,172)" d="m0 0 2 3h3l2-2-1 6h13l-1 3-2-1h-11l-5-2z" fill="#4A3A41"/>
<path transform="translate(320,493)" d="m0 0v3l-8 9-5 7h-6l3-2h2l4-8 5-6 4-2z" fill="#5A4949"/>
<path transform="translate(487,211)" d="m0 0 6 2 4 3-5 4-4-3h-3l-2 2v-4l4-1z" fill="#4F4C60"/>
<path transform="translate(407,152)" d="m0 0 10 3 2 4v8h-2v10l-1 2-2-1 2-14 1-4-4-4-6-3z" fill="#83614C"/>
<path transform="translate(282,322)" d="m0 0 1 2 2 1-3 11-3 1-2-4 1-5z" fill="#B19D94"/>
<path transform="translate(149,320)" d="m0 0 7 1-1 4-1-2-5 1v2l4 2-1 3h-6l-1-7z" fill="#624A43"/>
<path transform="translate(255,681)" d="m0 0 2 1-1 6-5 3-6 1 1-4 3-4 3 1 1 3 2-5z" fill="#997966"/>
<path transform="translate(300,518)" d="m0 0 2 3v10l-1 5h5v1h-5l-1 2-1-4-2-1z" fill="#31293B"/>
<path transform="translate(203,336)" d="m0 0 2 1-1 6 2 1v2l4 2v7l-2-3-5-6-2-2h2v-4h-15l1-2h13z" fill="#634B48"/>
<path transform="translate(317,552)" d="m0 0h2l1 2v20h-1l-2-7z" fill="#2E263A"/>
<path transform="translate(175,420)" d="m0 0 4 1h15l-1 3h-15l-3-2z" fill="#2F273B"/>
<path transform="translate(349,408)" d="m0 0 1 4-6 9h-2v-9h2l1-3h3z" fill="#241636"/>
<path transform="translate(342,308)" d="m0 0 8 1 3 3 8 3v1l-9-1-7-3z" fill="#574A51"/>
<path transform="translate(490,295)" d="m0 0 2 1v15l-1 8h-1l-1-13v-10z" fill="#221B32"/>
<path transform="translate(337,270)" d="m0 0h2l2 6 2 1-1 4-4 2-2-1v-11z" fill="#AA8971"/>
<path transform="translate(378,171)" d="m0 0 1 4h3l5-2v2l-2 1v3h-6v5h-1l-1-5-2-1-2 4 1-5z" fill="#624E4E"/>
<path transform="translate(412,381)" d="m0 0 5 1 3 2v4l-6 1-2-2-1-5z" fill="#FEF0E0"/>
<path transform="translate(393,355)" d="m0 0h2v2h2l1-2-1 7-2 1-3-1 1 6h15v1h-16l-1-2v-6h2z" fill="#564A53"/>
<path transform="translate(425,342)" d="m0 0h4l6 8v3l3 1-2 1-4-3-5-2 2-1-4-5z" fill="#755B52"/>
<path transform="translate(381,309)" d="m0 0h2v3l-9 3-4 5-3-1 4-4-4-2-1-3h6l2 1h6z" fill="#6D5959"/>
<path transform="translate(510,287)" d="m0 0 4 1 7 8 4 2 4 4-4 1-6-5v-2l-4-2-5-6z" fill="#332D41"/>
<path transform="translate(443,203)" d="m0 0 2 4 2 2-5 5-9 4-1-3 1-2 8-2z" fill="#4C495D"/>
<path transform="translate(251,654)" d="m0 0 2 4-2 5h-6v-3l-2-1z" fill="#231C33"/>
<path transform="translate(268,632)" d="m0 0h1l1 12-5 1-1 2h5v1h-8l2-5 4-5z" fill="#2F2537"/>
<path transform="translate(584,586)" d="m0 0 3 3 1 5v7l-1-2-1 3-4-2 1-4 1-3z" fill="#514B5B"/>
<path transform="translate(204,344)" d="m0 0h7l4 3 4 2-5 3-3-1-2-3-5-3z" fill="#1D152E"/>
<path transform="translate(320,219)" d="m0 0 3 1v2l-1 1 4 2-1 5-2-1-6 1 1-4-1-1v-2h2z" fill="#4E4860"/>
<path transform="translate(555,550)" d="m0 0h6l-1 3 2 1h-2v3l-5 2-4-1 3-4z" fill="#4E4A5E"/>
<path transform="translate(397,360)" d="m0 0h5l-2 6-7 2-1-6h4z" fill="#6E5142"/>
<path transform="translate(472,326)" d="m0 0h1v6l-7 8-3 1 2-5z" fill="#4E4B5F"/>
<path transform="translate(375,182)" d="m0 0 2 1-1 13h-4v-7z" fill="#FEF0E0"/>
<path transform="translate(176,344)" d="m0 0 4 1-1 9-4 1-2-10z" fill="#FEF0E0"/>
<path transform="translate(202,331)" d="m0 0 8 1v1l-6 2-4 1-10-1-2 1v-2l-3-1h17z" fill="#664C41"/>
<path transform="translate(226,332)" d="m0 0h4l1 4-2 4-7-2 2-5z" fill="#6F5141"/>
<path transform="translate(354,290)" d="m0 0 4 2h4l5 5-9-1-7-3z" fill="#655453"/>
<path transform="translate(441,489)" d="m0 0h2l-2 4-10 10h-5l4-4 8-7z" fill="#1C142D"/>
<path transform="translate(189,347)" d="m0 0 4 4v3h-8l-1-4 1-2z" fill="#FCEEDF"/>
<path transform="translate(392,504)" d="m0 0 4 2 12 12-3 1-13-13z" fill="#1F182F"/>
<path transform="translate(394,388)" d="m0 0h1l2 17h3v2l8 1v1h-7l-6-4-2-5z" fill="#67514F"/>
<path transform="translate(212,358)" d="m0 0h2l1 5-1 10v3l-1-2h-2z" fill="#1B132C"/>
<path transform="translate(569,320)" d="m0 0h2l2 3 5 2 4 7-1 2-4-3-1-3-6-3v-3l-4-1z" fill="#4E4E60"/>
<path transform="translate(428,230)" d="m0 0 1 2h2l-1 4-4 3-3-3-2-1 4-4z" fill="#EAE9EB"/>
<path transform="translate(568,692)" d="m0 0 4 1v5l-1 1h-5l-2-4 1-2z" fill="#FEF8F2"/>
<path transform="translate(580,582)" d="m0 0 4 1 1 14-4-3z" fill="#231D34"/>
<path transform="translate(457,343)" d="m0 0h2v3l4 1-1 1h-9l-10 1-2 1-1-3 12-1z" fill="#6B5653"/>
<path transform="translate(572,331)" d="m0 0 4 1 1 5-3 2v-6l-5 3-9 9v-3l10-10z" fill="#F6EDE5"/>
<path transform="translate(321,230)" d="m0 0 2 1 1 4-3 1v3l-3 1-3-2 2-4 4-2z" fill="#FEFCFB"/>
<path transform="translate(307,548)" d="m0 0v3l-3 3h-17v-2l16-1z" fill="#1A122B"/>
<path transform="translate(494,387)" d="m0 0h1l3 11 3 3 2-1v3l-3 1-5-4-3-4h2z" fill="#4F4A5C"/>
<path transform="translate(194,363)" d="m0 0 2 2 1 3v7l-1-4h-9l-3-2 9-2z" fill="#3D313F"/>
<path transform="translate(589,694)" d="m0 0 6 2v-2h2v8l-8-2z" fill="#FAF9F8"/>
<path transform="translate(299,512)" d="m0 0h2l3 7-1 17h-2v-15h-2z" fill="#70564B"/>
<path transform="translate(212,330)" d="m0 0 5 1-2 4-2 1h-10l2-3h7z" fill="#84624E"/>
<path transform="translate(150,322)" d="m0 0 5 1 2 6-6-1-4-3z" fill="#FEF0E0"/>
<path transform="translate(275,649)" d="m0 0h4l5 9v2l-4-2-3-3v-2h-2z" fill="#EEE9E5"/>
<path transform="translate(280,627)" d="m0 0h1v14l-1 2h-2l-1 3v-2l-3-1 4-6z" fill="#4E4B5F"/>
<path transform="translate(576,563)" d="m0 0 4 4 1 8 1 2h-5l-1-2h2l-2-7z" fill="#5E4E51"/>
<path transform="translate(393,495)" d="m0 0 5 2 8 9-1 2-5-3-1-2-6-6z" fill="#4D4A5E"/>
<path transform="translate(360,440)" d="m0 0h2l-1 6-3 6-5 2 2-6z" fill="#2C143F"/>
<path transform="translate(594,370)" d="m0 0h2v9l-3 3-1 8h-3v-2h2l-1-6 3-5z" fill="#342C3E"/>
<path transform="translate(462,375)" d="m0 0 1 2-5 3h-19v-1l12-1 5-2z" fill="#41343E"/>
<path transform="translate(413,373)" d="m0 0h7l5 5v2l-4 1-5-5z" fill="#EEEFF2"/>
<path transform="translate(269,338)" d="m0 0 2 4-1 5-3 2h-5l4-6 2-4z" fill="#4F4A5C"/>
<path transform="translate(428,237)" d="m0 0 2 1-12 12-3 4-3-1-1-2 7-4z" fill="#46373E"/>
<path transform="translate(575,653)" d="m0 0 1 2 4-1h14l5 1v1l-13 1-11-1z" fill="#5D4847"/>
<path transform="translate(598,638)" d="m0 0 2 1 3 6v3l-9-2 3-5z" fill="#4F4A5A"/>
<path transform="translate(464,467)" d="m0 0 2 1-5 6-4 2-4-1 7-6z" fill="#251E35"/>
<path transform="translate(581,402)" d="m0 0 2 1-7 8-8 7v-3l7-8z" fill="#251C31"/>
<path transform="translate(412,336)" d="m0 0h3l2 6-7 1-4-2 3-1v-2z" fill="#6B534B"/>
<path transform="translate(309,536)" d="m0 0h3v3l2 1v3l-1 3v-2h-2l-2 4-5 2 6-10 1-3z" fill="#3B2E3A"/>
<path transform="translate(378,380)" d="m0 0 3 3v16l-1 5h-1z" fill="#272137"/>
<path transform="translate(258,331)" d="m0 0h7l3 3-3 3h-2v-2h-4v-2h-3l-1 2-3-1 2-2z" fill="#504C5E"/>
<path transform="translate(461,310)" d="m0 0 4 1-8 8-4-1 5-5z" fill="#1C152D"/>
<path transform="translate(374,154)" d="m0 0 8 1 2 4-1 3-6-3-3-3z" fill="#E9D6C4"/>
<path transform="translate(290,639)" d="m0 0h1v8l-2 5-4 2-2-4 4-2v-2h3z" fill="#4E4B5F"/>
<path transform="translate(557,422)" d="m0 0h2l-1 3-10 5v-3-3l5-1z" fill="#251F35"/>
<path transform="translate(416,347)" d="m0 0h3l1 3h-2l-1 2v2h-3l1 3-4-1 1-5h2v-3z" fill="#534D5D"/>
<path transform="translate(403,328)" d="m0 0 2 1-2 2 6 1 1 2 4 2-5 2-2-4h-8l2-5z" fill="#544952"/>
<path transform="translate(574,309)" d="m0 0 7 6 10 10-2 4-3-6-12-12z" fill="#322C42"/>
<path transform="translate(343,372)" d="m0 0 6 1-2 2-2 4-1 1-1 13h-1v-17z" fill="#282038"/>
<path transform="translate(406,325)" d="m0 0v3l-6 3h-8l1-3h5z" fill="#FCEEDF"/>
<path transform="translate(364,289)" d="m0 0 9 6-3 1-5-1-4-3v-2z" fill="#4C495D"/>
<path transform="translate(343,277)" d="m0 0 2 3 1 9-7-5-1-4h4z" fill="#5D4D4F"/>
<path transform="translate(356,260)" d="m0 0 4 1-1 3 1 2-1 3-4-2-1-1v-5z" fill="#594D54"/>
<path transform="translate(606,674)" d="m0 0 3 2 2 5-1 3-7-4-2-3 5 1z" fill="#5C5A6C"/>
<path transform="translate(227,670)" d="m0 0 3 2-9 4-4 6h-3v-3l7-6z" fill="#423540"/>
<path transform="translate(298,641)" d="m0 0h1v17l-1 1h-6l4-3z" fill="#1A122B"/>
<path transform="translate(451,338)" d="m0 0 1 2-5 2 5 2 4 1-4 2h-5l-2-3v-4z" fill="#302738"/>
<path transform="translate(501,322)" d="m0 0 2 1-4 5-4 6h-4l2-4z" fill="#1C152D"/>
<path transform="translate(476,286)" d="m0 0 5 4 1 6-4 1-2-4z" fill="#4B4E5D"/>
<path transform="translate(321,259)" d="m0 0h3l-1 4-9 9v-3z" fill="#CBCEDA"/>
<path transform="translate(275,544)" d="m0 0 14 1v1l-9 2 1 2-5-2z" fill="#966F54"/>
<path transform="translate(168,411)" d="m0 0h2l4 5 6 4-2 2-5-2-5-6z" fill="#2B2337"/>
<path transform="translate(176,388)" d="m0 0 7 1 1 5-3 3-5-7z" fill="#1C142D"/>
<path transform="translate(399,372)" d="m0 0h19v1l-13 2h-5z" fill="#B6BBCB"/>
<path transform="translate(191,345)" d="m0 0 3 4 1 4h2l-1 3h-11l-1-4 1 2h8l-3-7z" fill="#916B57"/>
<path transform="translate(461,269)" d="m0 0h1l1 5v9l-3 1-1-3z" fill="#FEF0E0"/>
<path transform="translate(455,260)" d="m0 0h1v8l-1-3h-2v2l-7 1 4-5z" fill="#282238"/>
<path transform="translate(416,233)" d="m0 0 4 2-5 5-6-1 3-3z" fill="#381C49"/>
<path transform="translate(191,88)" d="m0 0 4 4 5 7v2h-2l-1 2-6-12z" fill="#332A3B"/>
<path transform="translate(564,634)" d="m0 0h2l1 8 2 7h-3l-2-3z" fill="#1E162F"/>
<path transform="translate(335,474)" d="m0 0 1 4-3 3-1 5-2-3-3 1v2l-2-1 5-5z" fill="#302739"/>
<path transform="translate(309,460)" d="m0 0 1 4-1 2h-2l-2 5h-3v-3z" fill="#2D2436"/>
<path transform="translate(190,407)" d="m0 0h5l-3 1v3h-12l-1-3h9z" fill="#9E7557"/>
<path transform="translate(181,367)" d="m0 0 9 1-3 2 9 1v1h-13l-3-2z" fill="#765B4D"/>
<path transform="translate(210,355)" d="m0 0 2 4v10l-2 7h-1l-1-13 2 2z" fill="#886651"/>
<path transform="translate(343,331)" d="m0 0 4 2 4 5v2l-6-1-2-6z" fill="#EBE2DA"/>
<path transform="translate(518,312)" d="m0 0 3 1v2l-10 3h-3l4-4z" fill="#989AAB"/>
<path transform="translate(393,306)" d="m0 0 3 1-1 8h-10v-1l7-1-2-1v-2l2-1z" fill="#8D684E"/>
<path transform="translate(173,300)" d="m0 0h1l1 12-1 6h-1l-1-5v-12z" fill="#1A122B"/>
<path transform="translate(378,283)" d="m0 0h2v11l-2-4-4-3v-2l-2-1z" fill="#1A122B"/>
<path transform="translate(515,231)" d="m0 0 4 2 4 9-2 2h-3v-10l-3-1z" fill="#31293C"/>
<path transform="translate(407,195)" d="m0 0 1 4-2 4-5 1-1-3 2-3h5z" fill="#443844"/>
<path transform="translate(387,196)" d="m0 0h3v4l-2 1-1 6-3-1v-7z" fill="#654F4C"/>
<path transform="translate(380,491)" d="m0 0 7 6 6 7h-3l-11-11z" fill="#231C33"/>
<path transform="translate(514,473)" d="m0 0 2 2 1 8-2 2-3-3v-5z" fill="#4B3B42"/>
<path transform="translate(431,398)" d="m0 0h1v5l-8 5-2-1 4-5 2-3z" fill="#322C41"/>
<path transform="translate(398,335)" d="m0 0h3l-1 3-3 3-1 7h-1l-2-9 3-3z" fill="#5C4B4E"/>
<path transform="translate(392,322)" d="m0 0h8v2l6 1-3 2h-7l-1-3z" fill="#5D4F54"/>
<path transform="translate(526,320)" d="m0 0 3 1-5 3-9 5h-2v-2l8-5z" fill="#342F45"/>
<path transform="translate(308,227)" d="m0 0v3l-6 9-2-1 1-5z" fill="#1E172F"/>
<path transform="translate(470,215)" d="m0 0h3l-2 4-4 3-5 1 2-4z" fill="#201931"/>
<path transform="translate(532,514)" d="m0 0m-8 1h8l-1 3-15 2 3-3z" fill="#9E7557"/>
<path transform="translate(478,443)" d="m0 0 2 4h2l1 5 3 1-3 1h-3l-3-9z" fill="#28163A"/>
<path transform="translate(185,399)" d="m0 0h6v2h5l-1 2h-10z" fill="#AB866A"/>
<path transform="translate(364,378)" d="m0 0 13 1v1h-7l-1 7h-2l-1-7z" fill="#272137"/>
<path transform="translate(175,323)" d="m0 0 1 2h9l-1 3-7 1-2-1-1-4z" fill="#272137"/>
<path transform="translate(404,300)" d="m0 0h2v2h2v2h6v2l-8 1-2-1z" fill="#2B2133"/>
<path transform="translate(399,272)" d="m0 0 2 4-2 12-2 1v-9z" fill="#81604C"/>
<path transform="translate(527,268)" d="m0 0 4 5 6 7-8-4-6-6h4z" fill="#2B2237"/>
<path transform="translate(337,219)" d="m0 0 10 1v2h-8l-2 7-1-4v-5z" fill="#4E5461"/>
<path transform="translate(600,682)" d="m0 0 4 4v5l-4 2z" fill="#EEE4DB"/>
<path transform="translate(210,373)" d="m0 0 3 1 2 4 3 2h-9z" fill="#2D2539"/>
<path transform="translate(192,375)" d="m0 0 4 1-4 3 3 2h-8l-1-4z" fill="#4A3A40"/>
<path transform="translate(253,372)" d="m0 0h6l1 3h-16l4-2z" fill="#1B132C"/>
<path transform="translate(196,355)" d="m0 0 4 2-1 3-2-1-1 4-3-1-1-3z" fill="#21172F"/>
<path transform="translate(314,299)" d="m0 0 3 1-2 5-3 7h-1l1-10z" fill="#664E47"/>
<path transform="translate(425,162)" d="m0 0 3 2v7l-3 1-1-9z" fill="#DADCE4"/>
<path transform="translate(532,563)" d="m0 0h8v1l-8 2-3 2h-4l1-4z" fill="#1A122B"/>
<path transform="translate(284,546)" d="m0 0h5v3l-2 1h-6l-2-3z" fill="#FEF0E0"/>
<path transform="translate(202,407)" d="m0 0 4 3v4l-5 2h-5l1-2 6-2-2-4z" fill="#987257"/>
<path transform="translate(435,381)" d="m0 0h5l-4 4-1 7h-2v-10z" fill="#A78064"/>
<path transform="translate(280,347)" d="m0 0h1l1 8-4 1-1-1v-7l3 1z" fill="#FBF6F1"/>
<path transform="translate(412,344)" d="m0 0h7v2h-3v2l-6 1 1-4z" fill="#271D31"/>
<path transform="translate(419,340)" d="m0 0 5 1 5 6v2l-4-2-5-4-2-2z" fill="#211A31"/>
<path transform="translate(428,339)" d="m0 0 3 1 5 9-1 2-6-7v-2h-2z" fill="#CFB49D"/>
<path transform="translate(471,335)" d="m0 0 2 2-7 8-2 1 1-5 3-1 2-4z" fill="#3E303C"/>
<path transform="translate(314,219)" d="m0 0 2 1-3 5-9 6 2-4 4-4h2z" fill="#322738"/>
<path transform="translate(421,208)" d="m0 0 3 3v2l3 1v4h-2v-3l-4-1-1-4z" fill="#6D5670"/>
<path transform="translate(576,708)" d="m0 0h8l-1 4h-6z" fill="#221A31"/>
<path transform="translate(429,405)" d="m0 0 13 1-4 3-6-1-5 1z" fill="#272137"/>
<path transform="translate(491,387)" d="m0 0 3 1v6l-3 1-3-5z" fill="#A4A8B9"/>
<path transform="translate(286,352)" d="m0 0 2 3-3 2-3-1v2l5 1v1h-5l-4-4z" fill="#533F51"/>
<path transform="translate(168,345)" d="m0 0 4 2-1 6h-2l-2-2h-3l1-3z" fill="#2C223D"/>
<path transform="translate(204,321)" d="m0 0h3l-1 3-2 1-2 4-5-2-1-2 4 1v-2l3-1z" fill="#5C5660"/>
<path transform="translate(224,321)" d="m0 0 3 2v2l3 1v1h-9l2-5z" fill="#FEF0E0"/>
<path transform="translate(288,315)" d="m0 0 1 2-3 6-3 1-2-4 6-4z" fill="#4F3E42"/>
<path transform="translate(473,300)" d="m0 0h2v10l-3 1v-10z" fill="#EAE2DB"/>
<path transform="translate(451,281)" d="m0 0h2l-2 5-5 4-2-1 2-5 3 1z" fill="#6D564E"/>
<path transform="translate(433,172)" d="m0 0h5l1 6 3 1-2 2-4-2v-3h-2z" fill="#4F4A5C"/>
<path transform="translate(552,540)" d="m0 0 4 2v2l-2 1 1 3-2 5h-1z" fill="#1C142D"/>
<path transform="translate(506,514)" d="m0 0 2 2 1 7h-4l-1-8z" fill="#FEF0E0"/>
<path transform="translate(500,506)" d="m0 0 4 1 2 3v5l-3-1-3-6z" fill="#FAEBDB"/>
<path transform="translate(475,435)" d="m0 0h2l4 9-1 3-4-4z" fill="#2F1543"/>
<path transform="translate(195,402)" d="m0 0 5 2 2 1v2h-7l-1-2-4-2z" fill="#85624D"/>
<path transform="translate(469,324)" d="m0 0v3l-6 7-3 3-3-2 8-7z" fill="#4C3A3E"/>
<path transform="translate(187,325)" d="m0 0h5l6 2v1l-13 1 2-1z" fill="#8A654D"/>
<path transform="translate(523,267)" d="m0 0m-2 1 2 1-5 6-4 5h-2l2-4z" fill="#231535"/>
<path transform="translate(325,259)" d="m0 0h2l-1 4-8 7-4 2 6-7z" fill="#2E273D"/>
<path transform="translate(295,252)" d="m0 0 1 4-1 6h-3v-8z" fill="#1F182F"/>
<path transform="translate(426,152)" d="m0 0 9 3v1l-8-1-1 7-2 1v-9h2z" fill="#4C495D"/>
<path transform="translate(283,666)" d="m0 0h1v11l-3-1v-8z" fill="#1E172F"/>
<path transform="translate(312,522)" d="m0 0h1l-1 13h-3l-2-1 2-3h2l-1-5z" fill="#66504D"/>
<path transform="translate(241,335)" d="m0 0 2 1 1 3-4 3-2-1-2-3z" fill="#3E374A"/>
<path transform="translate(219,335)" d="m0 0 5 3 5 1-4 2h-6l-2-4h2z" fill="#282238"/>
<path transform="translate(229,328)" d="m0 0h3v11h-2v-8h-3v-2z" fill="#272137"/>
<path transform="translate(575,314)" d="m0 0 4 1 2 4-1 2-5-2z" fill="#E4E6EB"/>
<path transform="translate(550,317)" d="m0 0 9 1 3 3-5 1-1-2-8-1z" fill="#231C34"/>
<path transform="translate(430,313)" d="m0 0 4 1 4 2-15 2v-2z" fill="#705953"/>
<path transform="translate(518,308)" d="m0 0 2 1 1 3-10 2v-2z" fill="#2C253A"/>
<path transform="translate(317,300)" d="m0 0 2 3-2 2-3 7h-3z" fill="#251E35"/>
<path transform="translate(459,275)" d="m0 0h1v7l1 3-3 2-1-2 1-9z" fill="#916D55"/>
<path transform="translate(369,189)" d="m0 0 2 1-2 11-2-1v-7z" fill="#564248"/>
<path transform="translate(229,692)" d="m0 0 3 1-1 4-8-1 1-3z" fill="#221B32"/>
<path transform="translate(225,685)" d="m0 0 3 1 1 6-6-1h-3l1-3 4-2z" fill="#F6EBDF"/>
<path transform="translate(303,606)" d="m0 0h1v7l-3 4-2 4 1-8 1-3h2z" fill="#2F2639"/>
<path transform="translate(457,391)" d="m0 0 1 3h2l1-2 4 2-3 3h-4l-2-4z" fill="#6A4C3D"/>
<path transform="translate(207,363)" d="m0 0 2 3 1 11-3 2z" fill="#564A52"/>
<path transform="translate(402,360)" d="m0 0h9l-1 4-7-1z" fill="#684C3F"/>
<path transform="translate(293,338)" d="m0 0h2l1 5 2 1-3 1-2-1-1 2-1-4 1-1-2-1z" fill="#43353E"/>
<path transform="translate(280,329)" d="m0 0 3 3v9h-3l-2-2z" fill="#8A664E"/>
<path transform="translate(489,333)" d="m0 0h5v3l-3 3-3-1z" fill="#251D34"/>
<path transform="translate(222,320)" d="m0 0h5l4 5 1 3h-2l-5-6-4 1z" fill="#59494D"/>
<path transform="translate(548,289)" d="m0 0 4 1-2 1 3 4-1 3-6-6 1-2z" fill="#8E705E"/>
<path transform="translate(564,547)" d="m0 0 7 6 2 6-3-1-3-5-3-4z" fill="#292338"/>
<path transform="translate(284,497)" d="m0 0h2l4 5-1 2-8-3 2-1z" fill="#7A5D4E"/>
<path transform="translate(352,377)" d="m0 0h8l1 3h-7l-3 3v-5z" fill="#987054"/>
<path transform="translate(171,368)" d="m0 0 10 1-3 3-7-1z" fill="#3F3243"/>
<path transform="translate(598,352)" d="m0 0 2 3v10l-2 2-1-6z" fill="#2F293D"/>
<path transform="translate(292,340)" d="m0 0 2 1-3 1 1 4-2 2-2-3-3 2 2-4z" fill="#312637"/>
<path transform="translate(440,322)" d="m0 0h4l-2 4-5 1-5-2v-1l7-1z" fill="#1A122B"/>
<path transform="translate(372,253)" d="m0 0 6 2 2 7-2 1-2-5-4-3z" fill="#251A2F"/>
<path transform="translate(405,239)" d="m0 0 4 1-5 1v2l-3 1-1-1h-5l1-2z" fill="#36154B"/>
<path transform="translate(393,187)" d="m0 0h3v9h-3z" fill="#6A534C"/>
<path transform="translate(352,166)" d="m0 0h1v6h2v-6h1v9l-2 2v-2h-2z" fill="#2D263A"/>
<path transform="translate(187,83)" d="m0 0h1l1 7-3 3-2-3 1-5z" fill="#2F283C"/>
</svg>
