<?xml version="1.0" encoding="UTF-8"?>
<svg version="1.1" viewBox="0 0 800 800" width="200" height="200" xmlns="http://www.w3.org/2000/svg">
<path transform="translate(145,32)" d="m0 0h8l6 3 8 2 8 4 5 4 4 4v2l4 2 7 7 5 7 6 12 5 6 5 11v11l3 1 1 6v40l-3 4-2 5-2 3-1 11-1 2h-2l-1 4 7 2 7 7 2 1v2l3 1 1 3v19l-3 3v58l2 1 1 3v16l8 2 7 8 5 6 1 8 7 7 2 1h18l1-3 4-4 17-1 4-3 5-2 9-8 2-3h2l5-10 6-7 1-13 6-5 5-2 5-5 6-5 6-3 5-4 2-3v-17l-9-4-16-1-14-4-5-2-1-1-8-1-8-7-7-3-3-4v-8l10-6 8-1 3-3 11-1 5-3 11-1 5-3 13-1 4-3 5-2 3-7 9-17 3-6 5-7 3-5 8-9h2l2-4 12-12h2l2-4 9-7 15-8 9-4h27l16 8 10 6 9 6 7 5v2l7 2 3 6 6 6v2h2l2 4v12l-8 3-4 1-1-9-4-5-30-1-2-4-8 7-9 9-1 2v24l3 6 1 7 12 1 3 1v2l12 1 13 6 10 3 17 9 4 4v5l-7 5-15 7-18 3-1 1-8 1h-19v3l8 2 8 3 20 9 3 2 8 2 9 5 11 11 1 2 1 12 3 4 1 7 9 10 6 10 7 10 8 10 7 13 7 8 2 1 1 3v32l-4 1 1 3 3 2v112l-3 4-1 39-3 6-2 9-4 5-3-1-4-6-7-14-6-10-3-4-9-19-8-16-3-7-2-10-6-13-2-11-2-4v-21l-6 4-7 3-2 3 3 5 4 9 1 11 2 2 2 13 3 7 4 13 1 9 2 2 1 5 1 29 2 1 1 4 1 23 2 2 2 14 2 2 2 13 3 7 2 6 4 13 2 6 2 10 2 5 2 7 2 5 2 6 7 8 20 20 5 4 9 2 4 2 8 2 6 2 11 1 8 3 7 1v4l-4 3-13 2-3 2h-26l-5-2-15-2-6-2-22-2-6-2-19-1 7 9 2 9 7 14v10l-6 6-9 1-2 2-13 1h-17l-10-11-3-2v-43h-19l-2-3h-2l-2 3-15 1v2l-12 5-7 1-3 3-5-4-2-8h-5l-1 1-1 13-6 6-21 1-1 2-11 2-2 2-14 2-1 2-13 1h-18l-2-4h-9l-2-1v-9l10-11 10-6 4-2v-3l-31 1-7 7-11 4h-23v14l-10 10h-8l-2-2-2-6-6-5-1-14-2-1 1-5 1-1v-37l-3-2-1-42-3-2-1-27h-2l-1-2-1-53-3-2-1-27h-2l-1-2-1-45-3-2-1-30-3-2-1-27-3-1-1-38-11-11-3-7-5-10v-32l6-5 5-2v-12l-3-4-1-22-2-5-1-1-1-20-3-4-1-24-7-8-8-8-1-25-9-8-6-3-16-16-8-17v-35l3-4 1-11 3-5 2-9 2-3v-8l-7-13v-8zm35 52-4 6-1 15-3 4v6l3 2 1 10h4l2-11 2-3v-9l7 5 6 10 2 5v9l5 6 3 1 1-1v-12l-3-6-2-8-6-7-2-5-6-7-2-5-4-5zm25 88-1 3-3 1-1 3h4l4-5v-2zm33 187-2 1v47l3 1 1 27 2 1 1 4 1 27 3 1 1 35 3 1 1 35 2 1 1 3v33l1 7 3 2 1 50 3 2 1 34 3 1 1 27 3 1v10l2 6h5l4-3 6-3 10-9 6-7 2-9 6-12 2-8 2-4 1-10 3-6 1-22 3-6 1-14 3-5 1-23 3-6 1-18 3-6 1-22 3-5 2-9 2-6 1-11 3-7 2-12 3-9 3-8 1-9 3-6 2-8 5-10 1-3v-24l-5-12-3 1-1 10-3 10-2 10-3 9-3 7-3 10-1 1-2 13-2 3-2 13-6 6-1 9-3 4-2 13-6 11-2 9-2 3-1 21-3-1-7-9-4-7-1-14-3-6-2-9-2-3-2-13-3-9-5-11-6-12-1-14-3-5-3-7-2-10v-7l-3-4-1-37-6-5-8-4zm283 5-6 7-3 3-2 13-2 7v13l5 1 6-9 8-16 1-1v-8l-3-4-2-6z" fill="#222441"/>
<path transform="translate(145,32)" d="m0 0h8l6 3 8 2 8 4 5 4 4 4v2l4 2 7 7 5 7 6 12 5 6 5 11v11l3 1 1 6v40l-3 4-2 5-2 3-1 11-1 2h-2l-1 4 7 2 7 7 2 1v2l3 1 1 3v19l-3 3v58l2 1 1 3v16l8 2 7 8 5 6 1 8 7 7 2 1h18l1-3 4-4 17-1 4-3 5-2 9-8 2-3h2l5-10 6-7 1-13 6-5 5-2 5-5 6-5 6-3 5-4 2-3v-17l-9-4-16-1-14-4-5-2-1-1-8-1-8-7-7-3-3-4v-8l10-6 8-1 3-3 11-1 5-3 11-1 5-3 13-1 4-3 5-2 3-7 9-17 3-6 5-7 3-5 8-9h2l2-4 12-12h2l2-4 9-7 15-8 9-4h27l16 8 10 6 9 6 7 5v2l7 2 3 6 6 6v2h2l2 4v12l-8 3-4 1-1-9-4-5-30-1-2-4-8 7-9 9-1 2v24l3 6 1 7 12 1 3 1v2l12 1 13 6 8 2v3 9l-1 1-13 1-2 2-17 1h-25l1 1v7l-1 5h-2l-1 5-6 7 2 1v15l-1 5h-2l-2 6-8 13 4-2 7-9 3-5 7-11 4-9 3-5 3-1 2 1v2h3l1 5-2 7-9 12-8 13-8 10v2h2l2-4 12-16 6-7 7-10 5-3 3-3 1 4-2 7-4 11-3 5 4-4 7-11 6-3 2-5 5 2 1 5h8l8 4 14 5 3 3-1 4-7 2-8 3-12 6-10 7-4 3-6 2-3 3-5 3h-5v2h-2v2h-2v2l-10 4h-2v2l-10 5h-3v2l-10 6-22 12-7 4-5 5 6-2 12-8 19-10 20-12 14-7 3-3 7-3 1 4 2 28 4 13 5 8 5 3v10l-3 8-2 11-6 7-12 6-18 5-17 3h-21l3 7v26l-2 5-7-1v-3l4-3v-21l-1-2-28-1-1 5 7 2 1 1 10 1 1 4-2 1-10 1-2 1h-6v9h7l3 3 2-3 12 1 1 4-7 1h-13l-7-1-2-2h-3l-2-4-19-6-7-1-3 1 2-7 3-6v-24l-4-10v-2l-2 1-1 10-3 10-2 10-3 9-3 7-3 10-1 1-2 13-2 3-2 13-4 5-2 1-1 9-3 4-2 13-6 11-2 9-2 3-1 21h-4l-8-10-4-7-1-14-3-6-2-9-2-3-2-13-3-9-5-11-6-12-1-14-3-5-3-7-2-10v-7l-3-4-1-37-5-4-8-4-15-1v40l-2-1v-21h-2l-1-3 2 16 1 16 1 6 1 10 2 19 2 6 2 19 2 3 1 5v30h3v6h-2l1 9v2l1 2 1 14 2 16v9l1 5-3 1 4 14 2 2 1 12 1 31 2 12 2 17 1 13 2 9 1 5 1 16 2 5 1 19 3 1 1 14-6 1-3-4 1-5-1-1v-10l-3-1-1-11-1-3h-2l-2-17 1-2 5 2-1-7-4-5v-2l2-1-1-3v-10l-4-1-1-1 1-7 4 1v-6l-5-1v-3l2-1-2-1v-30l-3-3v-5h2l-3-10v-11l-3-1v-7l-1-9v-12h-2l-2-10v-7l-1-3 1-7v-25l-3-1-1-5v-6l5 1v-11l-1-7-3-4-1-13-4-3v-14l1-2-1-2-4-2 1-10-1-3v-8l-1-7 1-3h-3l-1-4v-21l-1-4 1-5 2-4 4 1 1-7-11 2-7 3-4 2-1-11h-2l-1-5h-2l-2-7 2-6h-2v-5l2-4h2v-2l-4-1v-9l2-5 5-2v-12l-3-4-1-22-2-5-1-1-1-20-3-4-1-24-7-8-8-8-1-25-9-8-6-3-16-16-8-17v-35l3-4 1-11 3-5 2-9 2-3v-8l-7-13v-8zm35 52-4 6-1 15-3 4v6l3 2 1 10h4l2-11 2-3v-9l7 5 6 10 2 5v9l5 6 3 1 1-1v-12l-3-6-2-8-6-7-2-5-6-7-2-5-4-5zm25 88-1 3-3 1-1 3h4l4-5v-2z" fill="#070508"/>
<path transform="translate(521,406)" d="m0 0h9l8 6 6 7v8l-7 4-4 1-4 5-7 4h-2l-1 3-5 4-4 3-13 1v2l-4 4 4-3 16-1 5-2 3 3v2h2l3 9 2-3 1 9h-2l5 25-1 4-1 5 2 1 1-4 3 7 3 8 2 33 3 4 3 25 3 15 3 6-1 10 4 2 1 9 1 5h2l1 4-4 1v3l4-1 2 2 3 15 3 7 3 10 4 8 7 9 6 6v2h2l7 8 5 4-1 3-3-1v-2l-4-1v3l4 1 4 4v2l7 1 4-5 4 2 5 5 1 3h8l3-1h10l8 2-1 3-9 2-5 2-14 1-9-3-12-6-5-6-6-3-4-5-10-10-5-6-5-8-6-12-5-9-7-20-5-11-7-24v6l2 4 2 20 2 12 1 7 2 7v10l-6 5-9 6-4 2-1 2-10 5-13 4-8 4-17 7-9 5h-8v2l-8 2-3 4-7 1-1-2-2 1-1-4 1-3-5-1-3-8-3-23-2-6-1-11-2-4-1-7-1-19-3-11-2-38-2-2-2-45-2-5-2-17-1-1v-8h2v2l8-2 1-6h-2l-3 4h-7l-1-25 1-16v-12l22-1 10-2 1-5 4-1 5 6-1 3v16l3-6 7 2 5 2 7 2 2 2h8l4-5-9 3h-4l1-4 6-5h2l2-4 5-6 1-3-6 4h-2l-1 4-6 6-5-2v-2l-1-4 2-5 7-7 7-1v-3l-7 1-12 12-5 6-4 2-1 2h-3l1-6 6-7 3-6 16-16 3-4 3-1 3-3 9-2 6-2 2 2v3l6-2 8-7h3z" fill="#3B4262"/>
<path transform="translate(526,197)" d="m0 0 7 1 15 8 4 4v5l-7 5-15 7-18 3-1 1-8 1h-19v3l8 2 8 3 20 9 3 2 8 2 9 5 11 11 1 2 1 12 3 4 1 7 9 10 6 10 7 10 8 10 7 13 7 8 2 1 1 3v32l-4 1 1 3 3 2v112l-3 4-1 39-3 6-2 9-4 5-3-1-4-6-7-14-6-10-3-4-9-19-8-16-3-7-2-10-6-13-2-11-2-4v-21l-6 4-7 3-2 3 3 5 4 9-1 10-2-4-2-9h-2l-4-4-4 2-16 1-5 3 2-4 3-1v-2l13-2 4-3h2l2-4 8-6 5-3 4-4 6-2 2-1v-10l-3-1-5-6-5-3-9-1v2l-7 4-5 5h-5l-2-4-7 2 1-6-2-1 2-6h-2l-1 4-11 5-10 2-2 2 9 1 1 2-3 3-7 1-5 2-5 6-9 6h-2v-2l-3 3h-3v2h-4l-2-7v14h-1l-1-31-2-7 2-1h19l25-5 12-4 10-5 5-6 3-14 2-5v-10l-6-4-4-7-4-13-2-28-1-3-8 5-12 7-10 5-10 6-14 8-8 4-16 10-3-1 3-3h2l1-3 11-6 12-7 6-3 8-5h2v-2l11-5h2v-2l9-4h3v-2h2v-2h2v-2l7-2 5-2 1-3 7-3 12-8 9-5 14-6 5-1-1-4-6-3-13-5-6-2-6-1-1-4-5-2-2 5-6 3-9 14-3 1 2-5 3-5 3-13 1-4-8 6-10 14-7 8-8 11-4 4-1-3 9-11 9-15 8-11 1-10h-3v-2l-5 1-5 11-7 12-3 3-3 5-6 8-4 1 2-5 8-14h2v-15l1-5-3-1 4-5h2l2-7h2l1-12-2-1 1-1h25l17-1 2-2 13-1v-9zm-5 167-6 7-3 3-2 13-2 7v13l5 1 6-9 8-16 1-1v-8l-3-4-2-6z" fill="#040305"/>
<path transform="translate(494,402)" d="m0 0h2l-1 6 1 5-1 2-10 2-1 3-4 2-7 8-11 11-4 8-5 6-1 4h3l2-4 5-3 9-10 6-6h7v3l-8 3-6 6-1 7 2-1-1 4 4 1 6-6 1-3 6-4h2l-1 4-7 9-8 6-1 3 12-4 2 1-5 6h-8l-3-3-10-2-7-3-3 8-2-3v-17-3l-3-4h-3l-2 6-10 2h-22l1 13-1 19v21l7-1 3-4 3 1-2 7-8 1v-2h-2l1 8 2 7 1 11 2 5 2 45 2 2 2 38 3 11 1 19 1 7 2 4 2 16 1 3 3 21 3 8 5 1-1 5 3 1v2l8-3 2-3 8-1v-2l8-1 16-8 17-7 7-3 11-4 3-2h3l1-3 5-3 11-7 2-2v-10l-2-7-3-19-2-20-2-4v-8l2 2 8 27 5 11 7 20 9 15 4 8 3 5 4 4v2l4 2 5 5 5 6 6 3 4 5 16 8 9 1 13-2 9-3h2l1-2-8-1h-10l-8 1-3-1-4-5v-2l-6-2-4 5-5-1-2-1v-2l-4-2v-2l-4-1v-3l4 1 1 2h2l-2-4-8-7-1-3h-2l-7-8-4-5-5-7-4-10-3-10-2-6-2-11-5-1v-3l4-1-1-4h-2l-2-7-1-7-3-2v-10l-3-6-4-21-2-19-3-4-2-33-4-11-1-3-1 3-3-1 1-6 1-3-4-22v-3l4 1 2 13 3 7 4 13 1 9 2 2 1 5 1 29 2 1 1 4 1 23 2 2 2 14 2 2 2 13 3 7 2 6 4 13 2 6 2 10 2 5 2 7 2 5 2 6 7 8 20 20 5 4 9 2 4 2 8 2 6 2 11 1 8 3 7 1v4l-4 3-13 2-3 2h-26l-5-2-15-2-6-2-22-2-6-2-19-1 7 9 2 9 7 14v10l-6 6-9 1-2 2-13 1h-17l-10-11-3-2v-43h-19l-2-3h-2l-2 3-15 1v2l-12 5-7 1-3 3-5-4-2-8h-5l-1 1-1 13-6 6-21 1-1 2-11 2-2 2-14 2-1 2-13 1h-18l-2-4h-9l-2-1v-9l10-11 10-6 4-2v-3l-31 1-7 7-7 3h-23l1-2 8-2 10-6 4-2 2-4 7-10 9-22 7-30 3-9 2-7 2-1 1 21-1 15-2 12v7l3 2v2l4 2 5 2 10 2 8 4 5 5 12 3 9 6 7 2-2 3 1 5 3 3h13l1-3 2-1h6l-2-17-3-9v-13h-5l-2 2h-5l-1-6-2-1v33l-1 3h-2l-1-59v-25l1-63 2-2 2-74 2-2v-28l-2-1-2-11h30v2l7-1 1-16 2 1v6h4v-2h3l1-3h2v2l11-7 6-7 9-1 4-1v-3l-11-1 4-4 12-3 9-4z" fill="#040204"/>
<path transform="translate(145,32)" d="m0 0h8l6 3 8 2 8 4 5 4 4 4v2l4 2 7 7 5 7 6 12 5 6 5 11v11l3 1 1 6v40l-3 4-2 5-2 3-1 11-1 2h-2l-1 4 7 2 7 7 2 1v2l3 1 1 3v19l-3 3v58l2 1 1 3v16l8 2 7 8 5 6 1 8 9 9h-2v3h18l3 2 9 1 2 4 2 1 2 11v10h3l1 2v10l-7-1v-2l-7-1-4-2v-2l-8-1-8-2-2 1-10-5-15-1v40l-2-1v-21h-2l-1-3 2 16 1 16 1 6 1 10 2 19 2 6 2 19 2 3 1 5v30h3v6h-2l1 9v2l1 2 1 14 2 16v9l1 5-3 1 4 14 2 2 1 12 1 31 2 12 2 17 1 13 2 9 1 5 1 16 2 5 1 19 3 1 1 14-6 1-3-4 1-5-1-1v-10l-3-1-1-11-1-3h-2l-2-17 1-2 5 2-1-7-4-5v-2l2-1-1-3v-10l-4-1-1-1 1-7 4 1v-6l-5-1v-3l2-1-2-1v-30l-3-3v-5h2l-3-10v-11l-3-1v-7l-1-9v-12h-2l-2-10v-7l-1-3 1-7v-25l-3-1-1-5v-6l5 1v-11l-1-7-3-4-1-13-4-3v-14l1-2-1-2-4-2 1-10-1-3v-8l-1-7 1-3h-3l-1-4v-21l-1-4 1-5 2-4 4 1 1-7-11 2-7 3-4 2-1-11h-2l-1-5h-2l-2-7 2-6h-2v-5l2-4h2v-2l-4-1v-9l2-5 5-2v-12l-3-4-1-22-2-5-1-1-1-20-3-4-1-24-7-8-8-8-1-25-9-8-6-3-16-16-8-17v-35l3-4 1-11 3-5 2-9 2-3v-8l-7-13v-8zm35 52-4 6-1 15-3 4v6l3 2 1 10h4l2-11 2-3v-9l7 5 6 10 2 5v9l5 6 3 1 1-1v-12l-3-6-2-8-6-7-2-5-6-7-2-5-4-5zm25 88-1 3-3 1-1 3h4l4-5v-2z" fill="#0F090C"/>
<path transform="translate(455,84)" d="m0 0h27l16 8 10 6 9 6 7 5v2l7 2 3 6 6 6v2h2l2 4v12l-8 3-4 1-1-9-4-5-30-1-2-4-8 7-9 9-1 2v24l3 6 1 7 12 1 3 1v2l12 1 13 6 8 2v3 9l-1 1-13 1-2 2-17 1h-19l-9-2v-2l-19-2-6-2-19-2v-2l-36-1h-20v4l-17 1 11 2 4 6 1 4v9l-3 1-5-1-19-2-4-3-10-1-3-2-10-2-4-4-2 2-8-4-3-4v-8l10-6 8-1 3-3 11-1 5-3 11-1 5-3 13-1 4-3 5-2 3-7 9-17 3-6 5-7 3-5 8-9h2l2-4 12-12h2l2-4 9-7 15-8z" fill="#050407"/>
<path transform="translate(337,294)" d="m0 0 6 4 4 6 12 11 1 4-1 9-1 1v6l2 5 1 7 2 2v14l-4 17-5 10-5-1 1 5 2 2v11l-3 16-5 12-3 10-3 14-3 13-5 1-1 11-4 8-3 13-5 10-2 9-2 3-2 12-3-1-1-4-3-1-1-4v-49l-3-5-1-70v-29l-1-27-3-5v-3l-3-1-1-5-4-1v-2h-2l1-5 7 2 4 5h2l2-3h8l12 12 1-2-3-1-9-12-5-2 1-2h11l8 4 7 8 3 8 3 5v2h2l3 7 1 7v15h3v-13l-2-13-3-11-7-9-4-4v-2l-4-1-8-6-7-1v-4l15 1-1-4-5-2-1-2 8-10 1-3 4-1 4 2z" fill="#222441"/>
<path transform="translate(527,472)" d="m0 0 4 1 2 13 3 7 4 13 1 9 2 2 1 5 1 29 2 1 1 4 1 23 2 2 2 14 2 2 2 13 3 7 2 6 4 13 2 6 2 10 2 5 2 7 2 5 2 6 7 8 20 20 5 4 9 2 4 2 8 2 6 2 11 1 8 3 7 1v4l-4 3-13 2-3 2h-26l-5-2-15-2-6-2-22-2-6-2-19-1 7 9 2 9 7 14v10l-6 6-9 1-2 2-13 1h-17l-10-11-3-2v-43h-19l-2-3h-2l-2 3-15 1v2l-12 5-7 1-3 3-3-3v-12l-2-5 1-4 3 8 5 1-1 5 3 1v2l8-3 2-3 8-1v-2l8-1 16-8 17-7 7-3 11-4 3-2h3l1-3 5-3 11-7 2-2v-10l-2-7-3-19-2-20-2-4v-8l2 2 8 27 5 11 7 20 9 15 4 8 3 5 4 4v2l4 2 5 5 5 6 6 3 4 5 16 8 9 1 13-2 9-3h2l1-2-8-1h-10l-8 1-3-1-4-5v-2l-6-2-4 5-5-1-2-1v-2l-4-2v-2l-4-1v-3l4 1 1 2h2l-2-4-8-7-1-3h-2l-7-8-4-5-5-7-4-10-3-10-2-6-2-11-5-1v-3l4-1-1-4h-2l-2-7-1-7-3-2v-10l-3-6-4-21-2-19-3-4-2-33-4-11-1-3-1 3-3-1 1-6 1-3-4-22z" fill="#060406"/>
<path transform="translate(494,302)" d="m0 0 2 4 2 28 4 13 5 8 5 3v10l-3 8-2 11-6 7-12 6-18 5-17 3h-21l3 7v26l-2 5-7-1v-3l4-3v-21l-1-2-28-1-1 5 7 2 1 1 10 1 1 4-2 1-10 1-2 1h-6v9h7l3 3 2-3 12 1 1 4-7 1h-13l-7-1-2-3v-20l1-9 4-5 5-1-2-3v-49l9-7 10-5 14-9 16-8 8-5 10-6 14-7 3-3z" fill="#232441"/>
<path transform="translate(201,309)" d="m0 0m-2 1h2v12l3 1v2l-2 2-2 7h2v5l-1 3 1 5h2l1 5h2l1 2v9l5-4 14-4 4 1-1 8-5-1-1 7-1 2 1 4v24h3l1 18 1 4-1 9 4 2 1 3-1 5-1 10 4 2 1 5 1 9 3 5 1 8-1 9-5-1 1 6 1 5 2 1 1 14v16l-1 3 1 6 1 13h2l1 5v11l1 9-1 3 4 1v12l2 5v4h-2l2 6 2 3v27l-1 2 3 1-3 1v3h2l1-2v3h2v6l-4 1v5l4 2 2 15-3-1 2 2 2 4 1 4v4l-5-2 1 10v9h2l2 3 1 11 3 3v8 4l2 5 5-1-1-13-2-1-1-5-1-16-2-3-1-16-2-12-1-2-2-25-2-8-1-9-1-31-1-12-3-5-2-11 2-1-1-5v-10l-1-7-1-8-1-14-2-4h2l-1-9h2l-1-4 1-2h-3l-1-30-2-7-1-1-2-19-2-6-3-24v-9l-1-2-2-27-1-7 1-7h1v12h2l1 21 1-39h1l1 47 2 1 1 4v23l3 1 1 4 1 27 2 1 1 3 1 32 2 1 1 3v32l3 1 1 3v33l1 7 3 2v50l4 2 1 34 2 1 1 4 1 23 2 1 2 15h5l4-3 6-3 10-9 5-6 2-9 6-12 2-8 2-4 1-10 3-6 1-22 3-6 1-14 3-5 1-23 3-6 1-18 3-6 1-22 3-5 2-9 2-6 1-11 3-7 2-12 3-9 3-8 1-9 3-6 2-8 3-1v7l3 2v2l-5 5-5 16-2 8-2 5-1 9-3 9-2 12-2 8-4 23-2 10-1 1-2 23-2 6v11l-3 16-4 1v2h2v10l-3 15-2 15-4 15-3 8-8 20-3 5-12 16-9 6-10 6-1 1h1v14l-9 9h-8l-2-2-2-6-6-5-1-14-2-1 1-5 1-1v-37l-3-2-1-42-3-2-1-27h-2l-1-2-1-53-3-2-1-27h-2l-1-2-1-45-3-2-1-30-3-2-1-27-3-1-1-38-11-11-3-7-5-10v-32z" fill="#09080C"/>
<path transform="translate(521,406)" d="m0 0h9l8 6 6 7v8l-7 4-4 1-4 5-7 4h-2l-1 3-5 4-4 3-13 1v2l-4 4 4-3 16-1 5-2 3 3v2h2l3 9 2-3 1 9h-2l5 25-1 4-1 5 2 1 1-4 3 7 3 8 2 33 3 4 3 25 3 15 3 6-1 10 4 2 1 9 1 5h2l1 4-4 1v3l4-1 2 2 3 15 3 7 3 10 4 8 7 9 6 6v2h2l7 8 5 4-1 3-3-1v-2l-4-1v3l4 1 4 4v2l7 1 4-5 4 2 5 5 1 3h8l3-1h10l8 2-1 3-9 2-5 2-14 1-9-3-12-6-5-6-6-3-4-5-10-10-5-6-5-8-3-6-1-8-4-8-4-10-3-6-2-8-1-2-1-7-2-6-7-18-1-16-5-22-1-4-3-14-5-18-4-7-6-21-6-18-2-2-11-2-1-1h-8l-2 2h-11l-6-2-9-5-4-1-3 1-2 6-2-3v-5h2l1-7 2-2 11 4 7 2 2 2h8l4-5-9 3h-4l1-4 6-5h2l2-4 5-6 1-3-6 4h-2l-1 4-6 6-5-2v-2l-1-4 2-5 7-7 7-1v-3l-7 1-12 12-5 6-4 2-1 2h-3l1-6 6-7 3-6 16-16 3-4 3-1 3-3 9-2 6-2 2 2v3l6-2 8-7h3z" fill="#222440"/>
<path transform="translate(569,359)" d="m0 0 10 1 8 3 11 13 2 5v10l-3 1 3 13 1 11v46l-1 43-2 8-1 24-2 16-3 16h-3l-1-2-1-31-2-1-2-16-2-4-3-17-6-22-5-14-3-7-6-18-9-17-9-10-7-5-10-2 1-5 1-2 7-2-1-1-2-1 1-5 7-5h2v-7l5-5 9-6 9-4z" fill="#222441"/>
<path transform="translate(396,203)" d="m0 0h19v4l-7 2-2 3h-10l1 3 5 4 5 1 1 2 6 1-1-6 10-1-1 5-1 3h6l1-3 4-4 1-7 3-1v-2l4 1v14l-1 8 3-4h2v-13l5-1v2l5-2 5 1v1l-5 1 1 1v5h4v6l-2 1-1 10-1 15-2 4h2l3-14 1-12 1-2h2l2-4 6-9h1v10h-2l-1 5-6 7 2 1v15l-1 5h-2l-2 6-7 11-9 12h-2l-2 4-12 17-9 11-4 4-2-2-1-6h-2l-3-4v-2h-2v-9l6-5 15-8v-2l-17 8-7 2-9-2-9-4-6-10-1-7v-9l6-3 6-7 5-3v-4l-13 13h-5l-1 2-2-5 1-5h2v-2h3l2-5 2-4h2v-10l3-5 2-9 2-4-5-4-8-3 2-2h12l1 5 2 1z" fill="#241C25"/>
<path transform="translate(145,32)" d="m0 0h8l6 3 8 2 8 4 5 4 4 4v2l4 2 7 7 5 7 6 12 5 6 5 11v10l-3 1-6-16-6-9-4-11-6-10-13-13-2-1v-2l-10-3-18-6 3 4 4 1v2l5 2 7 7 4 5 2 17h2v3l7-1 7 7v2l3 1 3 9 4 5 3 3v2h2v3h2l7 18-1 10-4 9-6 8-10 11h-2l-1 7-4 7v18l6 8 1 2-2 2-10-10-1-25-9-8-6-3-16-16-8-17v-35l3-4 1-11 3-5 2-9 2-3v-8l-7-13v-8zm35 52-4 6-1 15-3 4v6l3 2 1 10h4l2-11 2-3v-9l7 5 6 10 2 5v9l5 6 3 1 1-1v-12l-3-6-2-8-6-7-2-5-6-7-2-5-4-5z" fill="#120A0D"/>
<path transform="translate(382,179)" d="m0 0h44l42 6 19 4h6l20 6 7 1h9v3 9l-1 1-13 1-2 2-17 1h-19l-9-2v-2l-19-2-6-2-19-2v-2l-36-1h-20v4l-17 1 11 2 4 6 1 4v9l-3 1-5-1-19-2-4-3-10-1-3-2-10-2-4-4-2 2-8-4-3-4v-8l10-6 8-1 3-3 11-1 5-3 11-1 5-3h11v1l-10 1-2 2 16-2 8-2z" fill="#222440"/>
<path transform="translate(535,279)" d="m0 0h7l6 2v2h-2v4l4 1 2 4 2 1 1-6h1l1 7 4 6v2l3 4 2 7h2l6 11 1 4 4 2 5 3 4 7v6l5 4 6 8 1 2v8l-5-2-6-5-11-4h-9l-14 3-15 6-2 4-7-1-10-9-1-3-3-1-3-4v-2l-4-2-5-6-4-10-1-5v-22l5-8 10-8 5-2 6-4z" fill="#222440"/>
<path transform="translate(442,443)" d="m0 0 4 1 4 5-1 3v19l-3-2v-2l-3 1-3-5-2-3-9 1-1 5v46l2 13 3 37 4 33 5 43 3 31 4 25 2 8v8l-2 1 4 3-1 5-4 2h-4l-1-2-2 1-1-4 1-3-5-1-3-8-3-23-2-6-1-11-2-4-1-7-1-19-3-11-2-38-2-2-2-45-2-5-2-17-1-1v-8h2v2l8-2 1-6h-2l-3 4h-7l-1-25 1-16v-12l22-1 10-2 1-5z" fill="#222441"/>
<path transform="translate(480,236)" d="m0 0 4 1v2h3l1 5-2 7-9 12-8 13-8 10v2h2l2-4 12-16 6-7 7-10 5-3 3-3 1 4-2 7-4 11-3 5 4-4 7-11 6-3 2-5 5 2 1 5h8l8 4 14 5 3 3-1 4-7 2-8 3-12 6-10 7-4 3-6 2-3 3-5 3h-5v2h-2v2h-2v2l-10 4h-2v2l-10 5h-3v2l-10 6-22 12-7 4-4 4-8 5h-3v-7l10-13 7-12 5-6 6-9 5-5 8-11 6-8 7-8 4-5 3-5 7-11 4-9 3-5z" fill="#222542"/>
<path transform="translate(455,84)" d="m0 0h27l16 8 10 6 9 6 7 5v2l7 2 3 6 6 6v2h2l2 4v12l-8 3-4 1-1-9-4-5v-3l-11-1-13 1-8-4-3-3-1-6v-12l-2 1-3 6-2-3-3-6 1 5v3l-4-1v2h-3l2 4-1 3-5-5v-2l-3-1-6-9v-2h-2l6 10 3 10 1 2-4-2-5-6-1 1 2 2v3l-2 1 8 6v2h-3l-2 4-4-4-3-1 1 7 2 3 1 6 2 2-2 1-3-2-1-5-8-2v2l-9-1-13-3h-16l-14 2 2-5 9-10 5-7-7 7v-3l13-13h2l2-4 9-7 15-8zm-53 39 2 1-3 2z" fill="#212340"/>
<path transform="translate(201,312)" d="m0 0h14l3 2 4-1 7-1v2l3 1 1 9 1 4 4-3-1 15h-4l2 12 1 4h15l1 3 8 1 4 5-4 1-10-5-15-1v40l-2-1v-21h-2l-1-3 2 16 1 16 1 6 1 10 2 19 2 6 2 19 2 3 1 5v30h3v6h-2l1 9v2l1 2 1 14 2 16v9l1 5-3 1 4 14 2 2 1 12 1 31 2 12 2 17 1 13 2 9 1 5 1 16 2 5 1 19 3 1 1 14-6 1-3-4 1-5-1-1v-10l-3-1-1-11-1-3h-2l-2-17 1-2 5 2-1-7-4-5v-2l2-1-1-3v-10l-4-1-1-1 1-7 4 1v-6l-5-1v-3l2-1-2-1v-30l-3-3v-5h2l-3-10v-11l-3-1v-7l-1-9v-12h-2l-2-10v-7l-1-3 1-7v-25l-3-1-1-5v-6l5 1v-11l-1-7-3-4-1-13-4-3v-14l1-2-1-2-4-2 1-10-1-3v-8l-1-7 1-3h-3l-1-4v-21l-1-4 1-5 2-4 4 1 1-7-11 2-7 3-4 2-1-11h-2l-1-5h-2l-2-7 2-6h-2v-5l2-4h2v-2l-4-1v-9z" fill="#64362F"/>
<path transform="translate(306,324)" d="m0 0h11l8 4 6 7 2 9 3 4 3 5 1 10-1 4 1 27-2 12-4 13-2 2-1-5v-4h-3l-3-9-2-7-1-10h-2v54 3 28l-2 5-2-4-1-22-2-10v-5l-2-5v-7l1-2v-4h-2l-1 2-1-1-1-37-1-2-2 6h-2l-1-4-2-2-1-30-3-5v-3l-3-1-1-5-4-1v-2h-2l1-5 7 2 4 5h2l2-3h8l12 12 1-2-3-1-9-12-5-2z" fill="#3B4262"/>
<path transform="translate(484,320)" d="m0 0 7 1-3 15-2 5-2 3h-2l-2 4-7 6-10 6-21 7 16-3 8-3 16-10 2-2 6-1 2 10-2 5-4 7-9 7-7 5-4 2h-3l-1 3-6 1h-24-2-5l-2-5v-29l9-6h4v-2l5-2h3v-2l12-6 12-8 7-1 1-3 5-2 2 1z" fill="#3B4262"/>
<path transform="translate(493,497)" d="m0 0 2 1 7 25 6 35 4 22 7 37 1 19-2 5 1 7 4 24v15l-6 3-3-1-3-11-3-5-6-21-2-10-4-39-1-15v-15h-2l-1-18v-35z" fill="#676E88"/>
<path transform="translate(399,488)" d="m0 0h1v35l-1 41-1 1-1 63v84h2l1-36 3 1v6l6-2 4-1 2 1 1 13 3 9 1 6v11l-8 2-1 2-14 1-4-6 1-4 1-1-7-3-7-7 2-8v-32l1-16 3-4 1-11v-25l1-25 2-3 1-12-1-25 1-17 1-12 3-12 2-13z" fill="#3B4161"/>
<path transform="translate(526,197)" d="m0 0 7 1 15 8 4 4v5l-7 5-15 7-18 3-1 1-8 1h-19v3l8 2 8 3 20 9 3 2 8 2 9 5 9 9h-3l-6-3-13-5-6-2-6-1-1-4-5-2-2 5-6 3-9 14-3 1 2-5 3-5 3-13 1-4-8 6-10 14-7 8-8 11-4 4-1-3 9-11 9-15 8-11 1-10h-3v-2l-5 1-5 11-7 12-3 3-3 5-6 8-4 1 2-5 8-14h2v-15l1-5-3-1 4-5h2l2-7h2l1-12-2-1 1-1h25l17-1 2-2 13-1v-9z" fill="#060407"/>
<path transform="translate(382,489)" d="m0 0 2 1 1 5h2l1 26h-3l-1 3 4 1 1 5-2 21-2 2-2 20-1 1-1 16-1 48-1 18-1 2-2 24-1 6h-3l-1 9v2l1 4-5-1-2-7-1-5 1-3-1-13-1-7v-37l2-22 4-26 1-9 2-12 2-20v-21l2-13 1-12 3-5z" fill="#3B4262"/>
<path transform="translate(521,406)" d="m0 0h9l8 6 6 7v8l-7 4-4 1-4 5-7 4h-2l-1 3-5 4-4 3-13 1v2l-8 4-6 5-7 5h-4l1-4 6-5h2l2-4 5-6 1-3-6 4h-2l-1 4-6 6-5-2v-2l-1-4 2-5 7-7 7-1v-3l-7 1-12 12-5 6-4 2-1 2h-3l1-6 6-7 3-6 16-16 3-4 3-1 3-3 9-2 6-2 2 2v3l6-2 8-7h3z" fill="#FBB488"/>
<path transform="translate(402,182)" d="m0 0h27v2l10 2 5 2 9 1 4 2 1 3 4 1v3h2l1-3 5 2 5-3 10 2v2h7l1 3 4 2 3 4v2l4-1 1-3 4-1h18v4l-11 1-3 3-17 1h-19l-9-2v-2l-19-2-6-2-19-2v-2l-36-1h-20l-1 3h-24l-10-1-1-1-12-2-1-2h9l14 1 5 1 2-1v-3l10-2 3-3 8-1h3l11-2 4-2 13-2z" fill="#3B4262"/>
<path transform="translate(153,44)" d="m0 0 6 5 7 12 1 9 4 14v19l-2 2v9l2 2 4 16 3 8 1 4 2-3 1 1 1 10 1 4v10l-4 1-15-8-3-6-2-2-5-2-1-3h-2v-6l-4-6-3-4-1-3 1-28 3-7 1-15 3-3 1-9 2-4v-7l-2-5z" fill="#A94C3C"/>
<path transform="translate(356,264)" d="m0 0h3l4 19 3 6v-7l-2-9v-7l1-2h2l1 3 3 1 4 16 4 7v2l7 2 5 1 4 6 5 6v2l3 1 3 3v2h2v6l1 4h2l-1 7-7 8-7-1-10-8-10-7-10-8-28-28-1-6 6-9 8-7z" fill="#222441"/>
<path transform="translate(201,309)" d="m0 0m-2 1h2v12l3 1v2l-2 2-2 7h2v5l-1 3 1 5h2l1 5h2l1 2v9l5-4 14-4 3 1h-2v2l-5 1-1 8-1 33-2 6h2l2 6 1 25 3 3v6l2 1 1 7 2 2 2 59 2 5 1 6v10h2v11l2 12-1 1 1 15-1 8 1 1 3 20 1 19 3 9 3 31 2 9 1 36 2 27 1 7-8-6-1-1-1-14-2-1 1-5 1-1v-37l-3-2-1-42-3-2-1-27h-2l-1-2-1-53-3-2-1-27h-2l-1-2-1-45-3-2-1-30-3-2-1-27-3-1-1-38-11-11-3-7-5-10v-32z" fill="#050406"/>
<path transform="translate(365,322)" d="m0 0 4 1 11 7 13 10 8 4v58l-1 4-12-3-8-4-12-7-1-24v-28h-2l-1-17z" fill="#222441"/>
<path transform="translate(420,459)" d="m0 0 3 1 1 2v39l1 12v22l-1 42 1 3-1 4v14l2 12 2 21 2 7-1 5 2 1 3 8 2 20 1 6-1 4 2 2 1 8 1 5 3 10 2 11h3v-5h2l3 3-2 4-7 1-1-2-2 1-1-4 1-3-5-1-3-8-3-23-2-6-1-11-2-4-1-7-1-19-3-11-2-38-2-2-2-45-2-5-2-17-1-1v-8h2v2l8-2 1-6h-2l-3 4h-6l1-4h-1v-26h10l1-11h-8l-1-2 1-2z" fill="#3C4362"/>
<path transform="translate(448,212)" d="m0 0 1 2 5-2 5 1v1l-5 1 1 1v5h4v6l-2 1-1 10-1 15-2 4h2l3-14 1-12 1-2h2l2-4 6-9h1v10h-2l-1 5-6 7 2 1v15l-1 5h-2l-2 6-7 11-9 12h-2l-2 4-12 17-9 11-4 4-2-2-1-6h-2l-3-4v-2h-2v-9l6-5 15-8v-2l-17 8-7 2-9-2-6-2 2-1v-5l7 3 7 1 1-2 8 1v-2h2v-2h2l-1-4h3v2h2l1-2 4-2h3v4h4l1-8 1-3h-4l-1-5 8 1 3-6 6-9 5-9 2-6v-10l-3-4-3-7-2-1v-3z" fill="#382E42"/>
<path transform="translate(226,304)" d="m0 0h8l8 7 3 12 3 4v9l-1 7h6l-1-11 4 2 10 1h8l3 2 9 1 2 4 2 1 2 11v10h3l1 2v10l-7-1v-2l-7-1-4-2v-2l-8-1-6-1-4-5-8-2-1-2-15-1-3-9v-7h4v-13l-3 1-1-2-1-17-4 2h-7l-3-1 2-4z" fill="#B9553F"/>
<path transform="translate(228,356)" d="m0 0 3 1-1 7-5-1-1 7-1 2 1 4v24h3l1 18 1 4-1 9 4 2 1 3-1 5-1 10 4 2 1 5 1 9 3 5 1 8-1 9-5-1 1 6 1 5 2 1 1 14v16l-1 3 1 6 1 13h2l1 5v11l1 9-1 3 4 1v12l2 5v4h-2l2 6 2 3v27l-1 2 3 1-3 1v3h2l1-2v3h2v6l-4 1v5l4 2 2 15-3-1 2 2 2 4 1 4v4l-5-2 1 10v9h2l2 3 1 11 3 3v8 4l2 5 2 2h-3l-1 4-6-1-2-2-2-16-1-18-1-36-2-9-3-31-3-9-1-19-3-20-1-3 1-10-1-11 1-4-2-9v-9l1-2h-2l-2-16-2-5-2-59-2-2-1-7-1-1v-6l-3-1-1-7-1-20-1-6h-2l1-6 1-33 2-8 5-1z" fill="#270E10"/>
<path transform="translate(148,36)" d="m0 0 8 1 2 2 16 5 2 1v2l4 2 13 13 7 13 3 9 5 7 6 16 2 4v24l-1 14-5 7-5 5-7 8-3 5-3 3-4 6v7l4 4 5 6 7 4h7v3h-17l-7-6-3-5v-18l5-9 1-5 8-7 8-10 4-8 2-8-1-7-5-13v-3h-2v-3h-2l-1-4-4-2-4-6-2-7-9-9-5 1-2-1v-3h-2l-1-2-2-15-11-12-4-2v-2l-5-1z" fill="#E9955B"/>
<path transform="translate(553,377)" d="m0 0 11 1 10 5 7 6 6 11 4 10 1 8 1 1 2 10v7l-1 3-4 1-4-11h-2v7l5 19 3 16 2 10 2 8v7h-2l-5-20-2-7-3-9-4-9-2-8-2-9-1-9-3 1-6-10-1-5h-2l-3-5-2-1v-3l-4-1-2-3-9-5-1-3h-4l1-5 1 3 2-2-1-2 3-4h6z" fill="#3B4262"/>
<path transform="translate(465,92)" d="m0 0h7l12 2 4-1 6 5 1 3h-3l-1 3-4 2v5l-2 1-4-9 1 5v3l-4-1v2h-3l2 4-1 3-5-5v-2l-3-1-6-9v-2h-2l6 10 3 10 1 2-4-2-5-6-1 1 2 2v3l-2 1 8 6v2h-3l-2 4-4-4-3-1 1 7 2 3 1 6 2 2-2 1-3-2-1-5-8-2v2h-6l-2-3-12-2-2-2h-8l-3-2 2-3 2 1 1-2-2-1 4-6 2 2 4-3 2-6h2l1-3h3l1-4 2-2 5-2 4-2h6v-3l5-3z" fill="#3B4262"/>
<path transform="translate(201,312)" d="m0 0h14l3 2 4-1 7-1v2l3 1 1 9 1 4 4-3-1 15h-4l2 12 1 4h15l1 3 8 1 4 5-4 1-10-5-15-1v40l-2-1v-21h-2l-1-21-3-1-14 4-3 3h-2l-1-11h-2l-1-5h-2l-2-7 2-6h-2v-5l2-4h2v-2l-4-1v-9z" fill="#12090B"/>
<path transform="translate(152,41)" d="m0 0h3v2l5 2 7 7 4 5 2 17h2v3l7-1 7 7v2l3 1 3 9 4 5 3 3v2h2v3h2l7 18-1 10-4 9-6 8-10 11h-2v5h-1l-1-8v-17l-3-7v-15l2-9 4-1 4 1 5 11v9l4 4v2h3v-12l-3-6-2-8-6-7-2-5-6-7-2-5-3-4h-3l-3 5-1 15-3 4v6l3 2v10h-3l-3-11-2-2v-9l2-2v-19l-4-16-2-9-7-11-3-3-2 3z" fill="#130B0E"/>
<path transform="translate(235,360)" d="m0 0h1l1 47 2 1 1 4v23l3 1 1 4 1 27 2 1 1 3 1 32 2 1 1 3v32l3 1 1 3v33l1 7 3 2v47l-1 5 3 30v5l-2-2-2-25-2-8-1-9-1-31-1-12-3-5-2-11 2-1-1-5v-10l-1-7-1-8-1-14-2-4h2l-1-9h2l-1-4 1-2h-3l-1-30-2-7-1-1-2-19-2-6-3-24v-9l-1-2-2-27-1-7 1-7h1v12h2l1 21z" fill="#0F0F16"/>
<path transform="translate(396,203)" d="m0 0h19v4l-7 2-2 3h-10l1 3 5 4 5 1 1 2 6 1-1-6 10-1-1 5-1 3h6l1-3 4-4 1-7 3-1v-2l4 1v14l-2 7-4 18-5 5-4-5-6-4v-2l-4-1-3-1-1-8-5-1-2 4-6 3h-2v2l-7 2h-5v-10l3-5 2-9 2-4-5-4-8-3 2-2h12l1 5 2 1z" fill="#EC985B"/>
<path transform="translate(426,139)" d="m0 0h11l9 4 1 3 5 5v2l-5 2-1-1-10-1 9 4v2l5 2 1 5-6 1-5 6 5 2v3l-9-1-7-2h-27l-3-1v-3l5-3 4-1-5-6-5 1 3-4v-4h7l1-5 6 1-3-2 1-2 3-2 7-2z" fill="#3B4262"/>
<path transform="translate(547,297)" d="m0 0 2 4 3-1 1 7 1 5 7 2 6 12 1 10-3 1v2l3-1 1 2h8l1 3-14 3-9 4-6 1 2-5 3-4 1-3h-2v2l-5 4h-2v2l-6 4-3-1v-8l-1-3 3-6 6-7 2-5h2l-1-5-5 9h-2l-2 4-7 10-1 2h-2v-12l3-6 4-6h2l1-4 4-9h2v-5z" fill="#3D4464"/>
<path transform="translate(476,89)" d="m0 0h9l16 9 5 3 10 5 1 5 4 2 9 6v2h2l5 5 4 7v9l1 2-6 2-4 1-1-9-4-5v-3l-11-1-13 1-8-4-3-3-1-6v-12l-2 1-2 3-1-4 5-2 3-3-4-5-8-4-1 2-5-3z" fill="#222441"/>
<path transform="translate(460,100)" d="m0 0h2l7 11 6 5v-1-3l4-3h3l-3-7 2-1 5 10 3-6h2l2 18 5 4 7 2 14-1 8 2v2h-30l-2-4-8 7-7 6v-5l2-4h-2l-2-3-2 11h-3l-2 6 1 5-2 1-3-2-6-1-12-6-5-2 4-1v-2l8 1 2 6h2l-3-8-2-6 1-3 4 1 3 3 1-4 4 1-5-5-4-3 1-2 2 1-3-5-1-2 4 1 6 7v-1l-3-10-5-8z" fill="#222441"/>
<path transform="translate(395,259)" d="m0 0h6l5 3 10 5 3 3 7 4 5-3 2 1-2 11h-4v-4l-5 3-5 1v-2h-3l1 4h-2v2h-2v2h-8l-1 1h-7l-5-2-1-1-1 4h-2v-5l-3-4v-13l3-7h3l6-1z" fill="#FCFCFC"/>
<path transform="translate(462,240)" d="m0 0h1l1 14-1 5h-2l-2 6-7 11-9 12h-2l-2 4-12 17-9 11-4 4-2-2-1-6h-2l-3-4v-2h-2v-9l6-5 25-12 7-6h2v-4l5-4 3-6 4-1v-7l3-10h2v-5z" fill="#B24E3D"/>
<path transform="translate(217,241)" d="m0 0 2 1 1 7v13l1 17 3 4 1 9v10l-1 1 2 2-7 3-1 2h10l4-1 1 2v13h-1l-1-9-2-1v-2l-9 2-3 1-2-2-13-1v-1h12l-3-16-4-21-2-12v-17l4-1 3 1v-2z" fill="#240E11"/>
<path transform="translate(261,364)" d="m0 0 17 4v1l-8-1 1 3 1 25 2 10 6 25 6 21 8 19 1 13-5-2-2-1-3-9-4-9-5-10-1-14-3-5-3-7-2-10v-7l-3-4-1-37-2-2z" fill="#07060A"/>
<path transform="translate(165,72)" d="m0 0 2 1v4h2l2 7v19l-2 2v9l2 2 4 16 2 4v10l3 1 3 10v8h-1l-2-7-17-8-1-3-3-1-3-8-2-5-3-1-3-4-1-10 2-10 3-2v11l2 10 2 2v4l4-1 3 6 4 3v2h2l1 4 2 1-2-10-5-7-4-12-2-7 1-11h2l1-13z" fill="#E89259"/>
<path transform="translate(417,138)" d="m0 0h16v1l-9 1-2 4-5 1-4 1v2h3l-1 3-6-1-1 4-6 1-1 5h3l4 5v2l-5 3-4 1 3 3h28l9 3-4 1-12-1h-30l-12 1-2-2 1-11 8-15 4-5 3-2 8-2 7-2z" fill="#222441"/>
<path transform="translate(172,68)" d="m0 0 4 2 1 2 7 3 4 3v2h3v2l4 2 8 9 4 9 2 5 2 9 1 3 3 1 1 15-1 14-5 7-5 5-7 8-3 5-3 3-4 6v7l4 4 5 6 7 4h7v3h-17l-7-6-3-5v-18l5-9 1-5 8-7 8-10 4-8 2-8-1-7-5-13v-3h-2v-3h-2l-1-4-4-2-4-6-2-7-9-9-5 1-2-1v-3h-2z" fill="#D3724A"/>
<path transform="translate(533,684)" d="m0 0h2l1 18 3 6v7l1 4h-4v-3l-16 1-13 5-3 3v-14l2-13 2-2 10-3 4-1v-2l8-2v-2z" fill="#B24F3D"/>
<path transform="translate(521,406)" d="m0 0h9l8 6 6 7v8l-7 4-4 1-4 5-7 4h-2l-1 3-5 4-4 3-13 1v2l-8 4-6 5-7 5h-4l1-4 6-5h2l2-4 5-6v-8l3-1 3 3 6 2v2l5-1 6-5 4-5 6-4 5-4 9-2v-6l-5-5-1-6-10 4-5 5-3 2-4 2h-3l-3-3-5-1h-11l2-2 9-2 6-2 2 2v3l6-2 8-7h3z" fill="#D26F49"/>
<path transform="translate(306,324)" d="m0 0h11l8 4 1 2-8-2h-4l4 7 5 5 8 10v11l-2-2-2-5-2-3-3-1-2-4-7-1 1 9 1 2 1 16v19h-2l-3-9-2-7-1-1v-22l-6-7-5-1 3 4 1 16 1 5 1 6h-2v2h2l-1 3-2-1-1-3-1-27-3-5v-3l-3-1-1-5-4-1v-2h-2l1-5 7 2 4 5h2l2-3h8l12 12 1-2-3-1-9-12-5-2z" fill="#21233F"/>
<path transform="translate(400,676)" d="m0 0 3 1v6l6-2 4-1 2 1 1 13 3 9 1 6v11l-8 2-1 2-14 1-4-6 1-4 4-2 1-4z" fill="#B14F3D"/>
<path transform="translate(197,180)" d="m0 0h5l8 7 5 2 9 9v16l-3 4-1 13-3 6-2 2h-8l-3-2v-4l-2-1v-2h-2v-17h6l2 5 9-6v-16h-5l-1 3h-5l-1-3-7-2-1-3z" fill="#FAC995"/>
<path transform="translate(527,472)" d="m0 0 4 1 2 13 3 7 4 13 1 9 2 2 1 5 1 29 2 1 1 4 1 23 2 2 2 14 2 2 2 13 3 7 2 6 4 13 2 6 2 10 2 5 2 7 2 5v5l-3-1-4-10-3-10-2-6-2-11-5-1v-3l4-1-1-4h-2l-2-7-1-7-3-2v-10l-3-6-4-21-2-19-3-4-2-33-4-11-1-3-1 3-3-1 1-6 1-3-4-22z" fill="#09080D"/>
<path transform="translate(446,144)" d="m0 0 5 2 9 5 5 5 6 8 3 10 2 5-6 2h-17l-14-2v-1h6l-2-3-4-2 4-5 2-2 5-1-3-5-2-1v-2l-9-2v-2h10l2 1 4-1-3-5-3-2z" fill="#222441"/>
<path transform="translate(520,732)" d="m0 0h19l12 9 4 8v3l-3-1-3-5-6-4 2 5 4 4 3 4v6l-3 1-4-7-5-5-1-5-2-1v8l4 2 3 3v4h-6l-7-11-3-3 3 8v9l-5-2-7-7-4-5v-2h-2l-1-4 3-1 1-3 4-2z" fill="#FBC58C"/>
<path transform="translate(401,408)" d="m0 0h30l4 3 1 4v26l-2 5-7-1v-3l4-3v-21l-1-2-28-1-1 5 7 2 1 1 10 1 1 4-2 1-10 1-2 1h-6v9h7l3 3 2-3 12 1 1 4-7 1h-13l-7-1-2-3v-20l1-9z" fill="#F2AE76"/>
<path transform="translate(402,414)" d="m0 0 28 1 2 3v21l-3 3-4 1-1-1-12-1-3 3-2-3-7-1v-9l8-2 12-1-1-3-10-1-2-2-7-2 1-5z" fill="#0C0506"/>
<path transform="translate(396,203)" d="m0 0h19v4l-7 2-2 3h-10l1 3 5 4 5 1 1 4 9 1 1 3h-10v2h-2l-2 4-6 3h-2v2l-7 2h-5v-10l3-5 2-9 2-4-5-4-8-3 2-2h12l1 5 2 1z" fill="#904638"/>
<path transform="translate(537,602)" d="m0 0 2 1-1 9 2 4 2 20 2 12 1 7 2 7v10l-6 5-5 3-2-1v-4l-2-8v-30l1-19 3-15z" fill="#222441"/>
<path transform="translate(538,271)" d="m0 0 1 4-10 3-5 3-16 10-2 2-6 2-3 3-5 3h-5v2h-2v2h-2v2l-10 4h-2v2l-10 5h-3v2l-10 6-22 12-7 4-4 4-8 5h-3v-5l5-4 5-2 3-1 2-5 4-4 5 2 1-3h2l1-3 2 1v2h2l1-3 3-4h2l6-3 6-1 20-11 5-2 4-4 9-3 1-5 9-4 5-4 2-4 3-1 1-2h2l1-3 6-1v4l4-4z" fill="#414766"/>
<path transform="translate(358,716)" d="m0 0 5 1 8 7 2 3v6l-3 2-8 1-3 1v3h9l-1 2-5 1-17 1-1-2 1-5h2l1-4 3-5-7 3-4 1v7l-5 1v-7l-2 1-2 5-3-1 2-6 5-5 2-3h4v3h3v-6l1-1 10-1z" fill="#FDC68E"/>
<path transform="translate(481,422)" d="m0 0h1l-1 7-1 3 8-5 3 7 4 2v2h2l-1 5-5-1v-2l-2 1-2 6-4 3h-2l-1 4-6 6-5-2v-2l-1-4 2-5 7-7 7-1v-3l-7 1-12 12-5 6-4 2-1 2h-3l1-6 6-7 3-6 13-13z" fill="#FDC888"/>
<path transform="translate(597,392)" d="m0 0h2v3l5 2v112l-3 4-1 39-3 6-2 9h-3l2-14 2-16 1-24 2-8 1-43v-46l-2-15z" fill="#0B0B13"/>
<path transform="translate(533,289)" d="m0 0h7l2 3-1 11-6 12-7 10-4 5h-2l-1-5h-2v5h-2l-1 4-1-4v-10l3-11 1-2 2-1 3-9 4-5z" fill="#3B4262"/>
<path transform="translate(163,60)" d="m0 0 3 1 1 9 1 7-2-4-4 28h-2v11l2 7 4 12 5 7 1 10-3-1v-4h-2l-5-5-2-6-4 1-2-5-2-3-1-16-1-1-2 10-2-4v-5l4-4 2-10 4-12 4 2 3-7v-10h2l-3-5z" fill="#D6714A"/>
<path transform="translate(252,332)" d="m0 0 4 2 10 1h8l3 2v2l6 1 1 1v15l-1 4-12-1-14-7-3-3-1-12z" fill="#FDB68A"/>
<path transform="translate(405,185)" d="m0 0h16l-1 4-5 2-9 2h-5l1 2 7 1h12l4 2h8l3 2 16 2 4 2 16 3 6 1 12 1 1 2-7 1-13-1-7-2-20-3-1-1-19-2v-2l-36-1h-20l-1 3h-24l-1-2 25-2 1-1h7v-2l3 1 19-1-1-5 4-3z" fill="#666D87"/>
<path transform="translate(536,203)" d="m0 0 12 6 2 7-3 2h-5l-10 5-17 3-13 2h-17l-2-2-1-4 11-2h8l4-1v-2l9-1 2 4 6-2v-5l8-1 10-1-1-2-8-2v-3z" fill="#212340"/>
<path transform="translate(532,398)" d="m0 0 10 2 8 7 7 11 2 4v6h2l1 7 4 9 2 3 6 22 5 16 4 19h-2l-4-9-5-19-5-14-3-7-6-18-9-17-9-10-2-1-1-3-6-4z" fill="#3B4261"/>
<path transform="translate(412,115)" d="m0 0v3l-11 12-5 8 5-2 9-1h16l7 2v1l-23 2-9 3-7 2-5 5-8 15-1 11 2 4-15 2-15 3h-5l3-4 10-1 6-4 5-2 3-7 9-17 3-6 5-7 3-5 12-11z" fill="#040306"/>
<path transform="translate(444,216)" d="m0 0 4 2 4 9 1 1v10l-4 10-6 9-3 5-4 7-6-1-3-2 1-5 3-2 3-8 6-12 3-13z" fill="#FCFCFC"/>
<path transform="translate(228,356)" d="m0 0 3 1-1 7-5-1-1 7-1 2 1 4v24h3l1 18 1 4-1 9 4 2 1 3-1 5v11l1 2v14h2l-1 9 1 22 3 2v8l-2-1-1-6-1 13h-1l-2-59-2-2-1-7-1-1v-6l-3-1-1-7-1-20-1-6h-2l1-6 1-33 2-8 5-1z" fill="#230F14"/>
<path transform="translate(148,36)" d="m0 0 8 1 2 2 16 5 2 1v2l4 2 13 13 6 12v5l-3-3-7-11-4-3 4 6 1 3-4-2-6-4-7-1-1-7-13-12-4-2v-2l-5-1z" fill="#FBC58A"/>
<path transform="translate(444,206)" d="m0 0 11 1 13 2v2l3 1 1 2v7l-2-4-5 8-3 4h-2l-1 14-4 14h-2l1-4 1-21 1-6 2 1 1-6h-4l-2-7 4-1-8 1-5-1v13h-2l-2 4-2 1 2-18z" fill="#140D11"/>
<path transform="translate(480,236)" d="m0 0 4 1v2h3l1 5-2 7-9 12-6 10-1-2 2-5-6 1-2 6-5 6h-2l-1 4-4 4h-2l-1 2h-2l-4 3 2-4 6-8 7-8 4-5 3-5 7-11 4-9 3-5z" fill="#222441"/>
<path transform="translate(459,414)" d="m0 0 1 2v4l4-2 3-2h12l1 2-3 3-7 1-5 2-5 6-9 6h-2v-2l-3 3h-3v2h-4l-1-6 1-13h7l5-4 7-1z" fill="#24243F"/>
<path transform="translate(468,266)" d="m0 0h4l-2 9-9 11-5 4-5 6h-2l-2 6-4 4h-2l-2 4-7 8-5 4h-3l1-5h2l2-5 6-10 7-10 7-5 3-2 4-3 1-3h2l1-3h2v-4l4-5z" fill="#3B4261"/>
<path transform="translate(467,93)" d="m0 0 17 1 4-1 6 5 1 3h-3l-1 3-4 2v5l-2 1-4-9 1 5v3l-4-1v2h-3l2 4-1 3-5-5v-2l-3-1-6-9-2-7 5 1z" fill="#3C4363"/>
<path transform="translate(592,708)" d="m0 0 4 1 7 4 3 2h4l4-5 4 2 5 5 1 3h8l3-1h10l8 2-1 3-9 2-5 2-14 1-9-3-12-6-5-6-6-5z" fill="#363C5B"/>
<path transform="translate(372,401)" d="m0 0 5 1 12 5 1 3h2v8l2 12v4l-5 1-4-2-1-8-4-2-8-8-1-6z" fill="#240D10"/>
<path transform="translate(563,362)" d="m0 0 10 1 3 2v2l5 1 8 12 2 2 2 6h-4l-6-2-4-2-3-3-10-5-12-3-1-4 9-4z" fill="#3C4363"/>
<path transform="translate(261,679)" d="m0 0h2l1 5 1 16 2 5 1 19 3 1 1 14-6 1-3-4 1-5-1-1v-10l-3-1-1-11-1-3h-2l-2-17 1-2 5 2-1-5 2-1z" fill="#613530"/>
<path transform="translate(519,734)" d="m0 0 2 4-2 2h-3l-1 4h-3l1 4h2l5 7v2l5 2 1 3 4 1v-8l-2-4v-4l3 1 6 10 1 3h6l-1-6-4-2-3-3 1-6 3 1 2 6 7 8v3h2v2h-8l-1 3h-5l-1-1v-6l-3-1-1 6-4 2-7-1-4 1v-5l-3-1-5-8v-5h2l-1-4-2-1 5-7z" fill="#C25D43"/>
<path transform="translate(206,339)" d="m0 0h21l1 4-3 5h3v5l-2 2-6 2-2 2-6 2-4 2-1-11h-2l-1-5h-2l-2-7z" fill="#331515"/>
<path transform="translate(373,345)" d="m0 0 4 2v-2l5 2 1 4h3l1 6h3v2h2l1 8 2 3-1 8-3 2-5-2-10-13-2-8-1-1z" fill="#3B4262"/>
<path transform="translate(455,84)" d="m0 0h27l16 8 10 6 9 6 7 5v2l7 2 3 6 6 6v2h2l2 4v12l-4-1v-9l-4-7-4-3v-2h-2v-2l-5-2-8-6-2-5-13-6-8-5-12-6-15-1h-12l-9 2v-2z" fill="#08070C"/>
<path transform="translate(532,699)" d="m0 0 4 5 2 1 1 9 1 5h-4v-3l-16 1-13 5-2 1 1-4 5-7 4-8 1-1 7-1 3-2z" fill="#DB7A4F"/>
<path transform="translate(266,366)" d="m0 0 8 1 4 2-8-1 1 3 1 25 2 10 6 25 6 21 8 19 1 13-5-2-1-10-4-11-5-16-6-20-6-23v-33l1-2z" fill="#232440"/>
<path transform="translate(406,238)" d="m0 0 6 3 9 5 7 8v6l-4 3-7-1-8-7-6-3-5-2-1-9 10 1v-2l-2-1z" fill="#FDFDFD"/>
<path transform="translate(448,212)" d="m0 0 1 2 5-2 5 1v1l-5 1 1 1v5h4v6l-2 1-1 10-1 12-2 2-2-1-2 8-4 6h-3v5l-5 4-5 9-1-4 2-7h-4l-1-5 8 1 3-6 6-9 5-9 2-6v-10l-3-4-3-7-2-1v-3z" fill="#676E88"/>
<path transform="translate(223,226)" d="m0 0h1l1 53 2 1 1 3v16l8 2 7 8 5 6 1 8 9 9h-2l-1 2-3-2 1 4v7h-6v-16l-3-4-3-12-4-3v-2l-3-1-11-1 1-2v-10l-1-9-3-4-1-18 2-4 1 13z" fill="#1D1823"/>
<path transform="translate(406,230)" d="m0 0 5 1 1 8 4 1 3 1v2l4 2 5 5 3 1v2h-2v5l-2-4-7-8-8-4-4-3v-2l-5 2-8 3h-2v2h2v2l-8 7-7 7h-5l-1 2-2-5 1-5h2v-2h3l2-5 2-4 14-2v-2l8-4z" fill="#28202D"/>
<path transform="translate(188,112)" d="m0 0 4 1 3 8 4 18-1 6-2 7-3 6h-3l-2-14-3-7v-15l2-9z" fill="#E69058"/>
<path transform="translate(445,278)" d="m0 0 2 1-1 5-3 4h-2l-2 4-12 17-9 11-4 4-2-2-1-6h-2l-1-5 5-4 6-2 3 1 1-5 5-4 3-4h2l-1-3 4-4v2h2l2-5z" fill="#D8744A"/>
<path transform="translate(145,117)" d="m0 0h1v5h2l2 7 5 6 3 4 2 7 3 3 17 8 2 2-3-12-2-1v-6l2 4 2-3 1 1 1 10 1 4v10l-4 1-15-8-3-6-2-2-5-2-1-3h-2v-6l-4-6-3-4-1-3v-7z" fill="#BE5540"/>
<path transform="translate(547,556)" d="m0 0h1l1 23 2 2 2 14 2 2 2 13 3 7 2 6 4 13 2 6 2 10 2 5 2 7 2 5v5l-3-1-4-10-3-10-2-6-2-11-5-1v-3l4-1-1-4h-2l-2-7-1-7-3-2v-10l-3-6-3-17z" fill="#0A0A11"/>
<path transform="translate(479,268)" d="m0 0 1 2-1 3 5-2 3-1-1 5-3 1-2 5h-2l-2 4-6 7-8 7-3 3h-2l-1 3-10 7-1-2 9-12 3-1 3-4 3-8 10-13z" fill="#393F5F"/>
<path transform="translate(521,406)" d="m0 0h9l8 6 6 7v8l-7 4-3-1v-2h2l-2-10-4-3-1-6-10 4-5 5-3 2-4 2h-3l-3-3-5-1h-11l2-2 9-2 6-2 2 2v3l6-2 8-7h3z" fill="#9F493A"/>
<path transform="translate(253,686)" d="m0 0 2 3 1 7v9h2l2 3 1 11 3 3v8 4l2 5 2 2h-3l-1 4-6-1-2-2-2-16-1-18z" fill="#240E11"/>
<path transform="translate(401,408)" d="m0 0h30l4 3 1 4v26l-2 5-7-1v-3l4-3v-21l-1-2-27-2 1-3 2-1-5-1z" fill="#F9C082"/>
<path transform="translate(437,119)" d="m0 0 5 1 9 4 1 1v7l-1 4-10 2-5-2-6-2-1-7 2-7z" fill="#666D87"/>
<path transform="translate(365,705)" d="m0 0 10 3 9 7 8 10v3l4 2v5h-3v-2h-2v-3l-10-3-10-9-4-5v-2l-8-1 5-4z" fill="#250E12"/>
<path transform="translate(193,113)" d="m0 0h2l5 11v9l4 4v2h5l-2 8-12 14-3 3h-2v5h-1l-1-8 1-13h1l1 10 3-3 2-9 2-4-2-10-3-13-1-5z" fill="#110B0F"/>
<path transform="translate(395,256)" d="m0 0h9l4 1v3l4 2 7 6 5 1v3l4 1-3 2-9-6v-2l-7-2-8-5-6-1v2l-6 2-2-1-3 7v13l3 4-1 5-3-1-6-10-1-14 3-2 1 3 1-2h2l2-5 2-3h7z" fill="#646A85"/>
<path transform="translate(165,72)" d="m0 0 2 1v4h2l2 7v19l-2 2v9l1 1v5l-2 1-4-4-3-11 1-10z" fill="#F8BF84"/>
<path transform="translate(389,219)" d="m0 0h5v2h2l5 5 4 5-2 4-7 2v2l-7 2h-5v-10l3-5z" fill="#F4A97B"/>
<path transform="translate(235,360)" d="m0 0h1l1 47 2 1 1 4v23l3 1 1 4 1 28-3-1-5-32-3-27z" fill="#11111C"/>
<path transform="translate(306,324)" d="m0 0h11l8 4 1 2-8-2h-4l4 7 5 5 8 10v11l-2-2-2-5-2-3-3-1-2-4-7-1-2 1v-3l-4-2-4-4-1-4 3-1 8 3 7 8 2-2-3-1-9-12-5-2z" fill="#222441"/>
<path transform="translate(494,102)" d="m0 0 4 2 1-1 4 1 3 4 5 3 12 3 7 5v2h2l4 6-1 2-6-5-5-3-1-3-4-1-2-1v3l2 4-4-2-10-4h-4l-3-4-3-1-2-4z" fill="#3B4262"/>
<path transform="translate(497,399)" d="m0 0h7l-1 14-6 1-2 1 1-6-2-1 2-6h-2l-1 4-11 5-10 2-6 4-2-5 1-4 21-5 10-3z" fill="#231725"/>
<path transform="translate(533,294)" d="m0 0h2l1 2h3l1 5-2 3-2 6-5 9-6 3-2-10 1-7 2-7h3l1-3z" fill="#676E88"/>
<path transform="translate(539,434)" d="m0 0 3 3 3 19 4 16 3 11 4 9 9 23 11 22v2l-4-2-13-28-6-14-3-10v-5h-2l-4-13-3-12z" fill="#222441"/>
<path transform="translate(217,197)" d="m0 0 2 1v16l-5 2 1 6-7 5 1 4h2l2-3 3 1-3 5-2 3 1 2-7-1-1-5-2-1v-2h-2v-17h6l2 5 9-6z" fill="#AF4E3D"/>
<path transform="translate(429,140)" d="m0 0 9 1 6 3v2l-5 2-7 2-4 6 7 1-1 3h-14l-3-2 8-16z" fill="#666D87"/>
<path transform="translate(327,488)" d="m0 0h1v12l-7 14-2 9-2 3-1 21h-4l-8-10v-3h3l2 4 2 1 1-12 3-5 2-9 5-10 3-13z" fill="#09090F"/>
<path transform="translate(571,348)" d="m0 0 6 1 4-1 4 2h3v2h2v7l-12-3-24 3-5 1 2-4 3-3 9-4z" fill="#39405F"/>
<path transform="translate(436,207)" d="m0 0 4 1v14l-2 7-4 18-5 5-4-5-3-3 2-1 3-8 7-6 3-3 1-9-6 2 1-9 3-1z" fill="#D3724B"/>
<path transform="translate(516,297)" d="m0 0h3l-1 5-7 22-3 2-1 5-3 1-1-4v-9l1-9 5-9z" fill="#3C4363"/>
<path transform="translate(511,264)" d="m0 0h5l1 5-4 3-5 2-8 7-4 2-5 5-6 4-4 3h-2l1-5 3 1 1-5h3l3-4 2-6h3l1-4 3-2h6l3-5z" fill="#3C4363"/>
<path transform="translate(450,103)" d="m0 0h9l4 6v2l-8-1 1 7-1 3-4 1-6-2-6-5 1-4 6-6z" fill="#676E88"/>
<path transform="translate(574,674)" d="m0 0 4 1 7 8 20 20 5 4 7 1-3 1-2 4-2 3-5-1-2-1v-2l-4-2v-2l-4-1v-3l4 1 1 2h2l-2-4-8-7-1-3h-2l-7-8-4-5z" fill="#050406"/>
<path transform="translate(309,198)" d="m0 0 12 2 11 1v2h9l7 1-4 3h-4v6l-2 3-5-1-3-7h-7l-1-5-6 1h-7l-5-3 4-2z" fill="#020102"/>
<path transform="translate(172,68)" d="m0 0 4 2 1 2 7 3 4 3v2h3v2l4 2 8 9 4 9 1 7-4-1v-3h-2l-1-4-4-2-4-6-2-7-9-9-5 1-2-1v-3h-2z" fill="#AD4C3C"/>
<path transform="translate(251,621)" d="m0 0h1v17l-1 2 3 1-3 1v3h2l1-2v3h2v6l-4 1v5l4 2 2 15-3-1 2 2 2 4 1 4v4l-5-2-1 2-1-2-1-14-2-9-1-34z" fill="#471C1B"/>
<path transform="translate(201,312)" d="m0 0h14l2 2 6 2 2 6-3 1h-21l-1-1v-9z" fill="#F6B886"/>
<path transform="translate(213,253)" d="m0 0 5 2 2 7 1 17 1 1v18l-4-4-2-8-1-10-3-16z" fill="#653730"/>
<path transform="translate(538,271)" d="m0 0 1 4-10 3-5 3-16 10-4 2v-2l-12 6 1-4 9-4 5-4 2-4 3-1 1-2h2l1-3 6-1v4l4-4z" fill="#3E4563"/>
<path transform="translate(322,319)" d="m0 0h7l9 5 9 8 2 5-1 4-2 2-8-7-7-6-5-7-4-2z" fill="#3C4363"/>
<path transform="translate(425,198)" d="m0 0h8l3 2 16 2 4 2 16 3 6 1 12 1 1 2-7 1-13-1-7-2-20-3-1-1-19-2v-2h-2v-2z" fill="#666D87"/>
<path transform="translate(520,732)" d="m0 0h19l6 4-4 1v2h-3v-2h-3v-2l-3 3v2l-5 3-1 2h-6l-4 4-3-1-1-4 3-1 1-3 4-2z" fill="#F9B084"/>
<path transform="translate(525,720)" d="m0 0h10l3 4 7 1 1 4-16-2-5-1-9 2-9 4-1 8 5-2-1 4v2l2 4-1 3-1-2-2 2-1-8-3-1v-8l2-6 4-1 6-3h2v-2z" fill="#242036"/>
<path transform="translate(551,318)" d="m0 0 4 3 2 9h2v5l-6 3-6 6-5 1-2-5 6-5 2-14z" fill="#676E88"/>
<path transform="translate(526,437)" d="m0 0m-1 1m-1 1 2 2-5 5 3 5 4 9-1 10-2-4-2-9h-2l-4-4-4 2-16 1-5 3 2-4 3-1v-2l13-2 4-3h2l2-4z" fill="#0E090C"/>
<path transform="translate(489,105)" d="m0 0h2l2 18 5 4 7 2 14-1 8 2v2h-30l-2-4-8 7h-2v-2h2l1-27z" fill="#0C0C13"/>
<path transform="translate(477,436)" d="m0 0h7v3l-8 3-6 6-1 7 2-1-1 4 4 1 6-6 1-3 6-4h2l-1 4-7 9-8 6-2-2v-3l-4-1-2-4-10 3 2-3 5-3 9-10z" fill="#431F1D"/>
<path transform="translate(404,237)" d="m0 0h4l-1 2v3l-10-1 2 9 8 3 3 2v3l3 1v3l-5-2v-3h-13l-2 1-6-1-4 8h-2l-1 3-2-3-2 1 1-3 5-2 6-7 5-3 2-7h-2v-2l3-2 7-2z" fill="#303553"/>
<path transform="translate(462,240)" d="m0 0h1l1 14-1 5h-2l-2 6-7 11-5 5-2-2-4 3 1-4h2v-4l5-4 3-6 4-1v-7l3-10h2v-5z" fill="#D36F49"/>
<path transform="translate(424,279)" d="m0 0 3 1h-2l-1 6-17 9-8 1-7-2-6-2 2-1v-5l7 3 7 1 1-2 8 1v-2h2v-2h2l-1-4h3v2h2l1-2z" fill="#676E88"/>
<path transform="translate(231,451)" d="m0 0 4 2 1 5 1 9 3 5 1 8-1 9-5-1 1 6 1 5 2 1 1 9-1 5-2-2 1-11-4-2-1-28 2-3h-2l-1-14z" fill="#471C1B"/>
<path transform="translate(476,89)" d="m0 0h9l16 9 5 3 10 5 1 5 3 1-4 1-6-2-8-5-1-2-1 2h-2l-4-5-3-5-9-5-1 2-5-3z" fill="#252845"/>
<path transform="translate(243,338)" d="m0 0h3v9l1 5 2 1-1 2h-6l-6 1-3-9v-7z" fill="#E48C56"/>
<path transform="translate(219,199)" d="m0 0h1l1 14 1 4-1 1-1 13-3 6-2 2-4-1v-3l3-3 1-3h-2l-2 3-4-2 1-4 6-4-1-6 3-2h3z" fill="#E18A56"/>
<path transform="translate(465,454)" d="m0 0 2 2 1 3 3 1 1 8 12-4 2 1-5 6h-8l-3-3-10-2-7-3 2-5 7-3z" fill="#020102"/>
<path transform="translate(470,216)" d="m0 0h1v10h-2l-1 5-6 7 2 1v5l-2-3-1 5h-2l-1 8-2 5h-2v3l-2 1-4 7h-3l1-4h2l1-4 3-3v-2h3l3-14 1-12 1-2h2l2-4z" fill="#411D1C"/>
<path transform="translate(313,344)" d="m0 0 6 1 4 7v18l-1 2-5-1-3-15-2-7z" fill="#676E88"/>
<path transform="translate(151,106)" d="m0 0 1 3 1 16 3 4v4l4-1 3 6 4 3-2 7-7-5-4-10-3-1-3-4-1-10 2-10z" fill="#EEA063"/>
<path transform="translate(208,107)" d="m0 0h1l2 9 1 3 3 1 1 15-1 14-5 7-5 5-2 1 1-6 8-16-2-1 2-8-1-7-5-13 1-3z" fill="#DC7F51"/>
<path transform="translate(598,513)" d="m0 0h2v39l-3 6-2 9h-3l2-14 2-16 1-23z" fill="#0D0D15"/>
<path transform="translate(371,726)" d="m0 0 2 1v6l-3 2-8 1-3 1v3h9l-1 2-5 1-17 1v-3l10-2v-5l3-3 3-4 10 1z" fill="#D6754C"/>
<path transform="translate(160,101)" d="m0 0h1l4 16 4 3 2-4 4 18-4 3-5-5-4-10-2-4-1-7z" fill="#EA975B"/>
<path transform="translate(513,103)" d="m0 0 6 2 5 4v2l7 2 3 6 6 6v2h2l2 4v12l-4-1v-9l-4-7-4-3v-2h-2v-2l-5-2-8-6-2-5-2-1z" fill="#0C0C13"/>
<path transform="translate(433,704)" d="m0 0 3 4 2 4 4 1-1 5 3 1v2l8-3 2-3 8-1 13 1v1l-15 1v2l-12 5-7 1-3 3-3-3v-12l-2-5zm29 8 3 1-3 1z" fill="#1D1E2D"/>
<path transform="translate(213,250)" d="m0 0 5 2 2 5-1 4-2-6-4-2v9l4 21v9l2 1 2 4 1-15h1v18l-4-1-1-3h-3l-2-12v-7l-1-5-2-1-1-15 1-3h2z" fill="#451C1C"/>
<path transform="translate(226,304)" d="m0 0h8l8 7 3 12 2 2v7l-4-1-5-17-2-5-7-2v2h-2v2l-9-1 2-4z" fill="#F7E5D8"/>
<path transform="translate(494,402)" d="m0 0h2l-1 6 1 5-1 2-10 3-4 1v-2l-13-1 4-4 12-3 9-4z" fill="#050204"/>
<path transform="translate(309,211)" d="m0 0 4 4 10 2 7 3h6l4 3 13 1 5 4h-16l-14-4-5-2-1-1-8-1-6-5z" fill="#0D0D15"/>
<path transform="translate(537,744)" d="m0 0 3 1 2 6 7 8v3h2v2h-8l-1 3h-5l-1-1v-6l-5-1-3-8v-4l3 1 6 10 1 3h6l-1-6-4-2-3-3z" fill="#68312A"/>
<path transform="translate(254,689)" d="m0 0h1l1 7v9h2l2 3 1 11 3 3v8 4l2 5 2 2h-3v2l-5-1-3-3v-9h1l1 5h3l-1-7 1-6-3-1-1-7h-2l1 4-2 3-1-14z" fill="#471C1B"/>
<path transform="translate(301,398)" d="m0 0 3 2 1 21 1 5v4h-3l1 4-1 2 2 1v11 3l-1 6-2-1-1-6z" fill="#3B4262"/>
<path transform="translate(554,387)" d="m0 0 5 1 13 13v4l-4 1-8-4-1-3h-2l-4-4-1-6z" fill="#676E88"/>
<path transform="translate(240,308)" d="m0 0 4 2 4 5 1 8 9 9h-2l-1 2-3-2 1 4v7h-6v-16l-3-4-3-12z" fill="#170F14"/>
<path transform="translate(230,366)" d="m0 0h1v12h2l1 21 4 36 3 17 2 18-3-3-2-19-2-6-3-24v-9l-1-2-2-27-1-7z" fill="#2C1011"/>
<path transform="translate(518,704)" d="m0 0h5l2 4h6v2l4 2 1 3-13 1-9 3h-4l2-5 9-4-5-3v-2z" fill="#FCC58F"/>
<path transform="translate(185,188)" d="m0 0 6 4 4 6 9 6h7v3h-17l-7-6-2-6z" fill="#E58E57"/>
<path transform="translate(250,568)" d="m0 0h1l1 11 3 5 2 20 1 25 3 25 1 18-2-2-2-25-2-8-1-9-1-31-1-12-3-5-2-11z" fill="#2F1112"/>
<path transform="translate(504,290)" d="m0 0 2 1-6 4-3 3-5 3h-5v2h-2v2h-2v2l-10 4h-2v2l-10 5h-3v2l-8 3-2-1 9-6 12-6 6-4 4-1 4-4 10-5z" fill="#575D79"/>
<path transform="translate(467,416)" d="m0 0h12l1 2-3 3-7 1-5 2-5 6-9 6-2-1 4-6 11-11z" fill="#EFBB8E"/>
<path transform="translate(399,416)" d="m0 0 2 4 7 2 1 1 10 1 1 4-2 1-10 1-2 1h-6v9h-1z" fill="#CB6E49"/>
<path transform="translate(229,307)" d="m0 0 5 1 3 3 3 7 4 13 2 2-7 1-2-7-3 1-1-2-1-17-5 2v-2h2z" fill="#C05841"/>
<path transform="translate(393,212)" d="m0 0 8 6 6 2 1 4 9 1 1 3h-10v2h-2l-1 2-4-5-5-4v-2h-2v-2h-5l4-2v-2z" fill="#AD4E3D"/>
<path transform="translate(418,230)" d="m0 0 2 1 11-1-1 2h-2l-1 4-3 8-5-1v-2l-4-1-3-1v-7z" fill="#FDB98A"/>
<path transform="translate(533,289)" d="m0 0h7l2 3-1 11-6 12-2 1 1-4 2-3 3-9-2-4h-3l1-2-5 2-1 2-3 1-2 8-2 1-1-3 3-8 4-5z" fill="#3C4363"/>
<path transform="translate(381,244)" d="m0 0h10l-1 4-6 5-6 7h-3l-1 2-2-5 1-5h2v-2h3l2-5z" fill="#6F768E"/>
<path transform="translate(150,78)" d="m0 0h3v12h-2v4l2 1-2 10-4 4v13h-1l-1-5v-18l3-7 1-12z" fill="#C35A42"/>
<path transform="translate(559,300)" d="m0 0 4 1 5 6 4 7 7 10 8 10 1 4-4-2-1-3-5-3-3-2-6-12-1-3h-2l-5-10z" fill="#0A0A10"/>
<path transform="translate(556,379)" d="m0 0 8 1 10 5 5 5v2h-8l-9-5h-3v-2h-2z" fill="#676E88"/>
<path transform="translate(547,321)" d="m0 0h1l-1 14-3 2-2 4 1 3h3v3l-6 4-3-1v-8l-1-3 3-6 6-7z" fill="#3C4363"/>
<path transform="translate(450,277)" d="m0 0 2 1-2 5-10 13-4 6-5 5-6 9h-2l-2 4-5 3 2-4 12-15 9-13 6-7z" fill="#190C0C"/>
<path transform="translate(545,302)" d="m0 0h3v8l-4 10-8 10-3 5-2-1 2-7 6-10 4-8z" fill="#676E88"/>
<path transform="translate(467,93)" d="m0 0h5l2 6 2 4-1 5-5-2 1 4-4-3-3-5-4-5v-2l5 1z" fill="#666D87"/>
<path transform="translate(234,501)" d="m0 0 2 1 2 12h2v16l-1 3 1 6 1 13h2l-1 4h-2l-2-9v-9l1-2h-2l-2-16-1-2z" fill="#2E1213"/>
<path transform="translate(569,368)" d="m0 0h8l6 5 4 7-1 3-3 1-4-5-2-2-10-4v-4z" fill="#676E88"/>
<path transform="translate(225,339)" d="m0 0 3 1-1 4-10 3-7 4h-4v-2h2v-8l3-1z" fill="#FABC82"/>
<path transform="translate(425,163)" d="m0 0h5l1 5v3l-4 2h-13l1-7 3-2z" fill="#676E88"/>
<path transform="translate(207,328)" d="m0 0h11l2 6-1 2h-10l-9-2v-5z" fill="#DC8C61"/>
<path transform="translate(243,572)" d="m0 0 2 1-1 7 4 1v12l2 5v4h-2v5h-1l-2-7-2-3-1-6v-17z" fill="#481D1B"/>
<path transform="translate(525,430)" d="m0 0h3v3l2 1-1 3-7 4h-2l-1 3-3 3h-5l-3 1v-3l5-2 1-4 3-2h3l2-4z" fill="#BB523F"/>
<path transform="translate(466,288)" d="m0 0 3 1-2 4-6 8-3 1-1 3-10 7-1-2 9-12 3-1 4-7z" fill="#3D4464"/>
<path transform="translate(297,344)" d="m0 0h5l6 6-1 14h-4l-2-4v-10l-4-4z" fill="#676E88"/>
<path transform="translate(592,708)" d="m0 0 4 1 8 5 3 3 9 2 5 6-1 1h-5l-12-6-5-6-6-5z" fill="#2A2E4C"/>
<path transform="translate(339,285)" d="m0 0 4 1 4 6 5 5 2 3 3 1 1 4h3v2h2l-1 4-5-5-5-3-14-14z" fill="#373D5B"/>
<path transform="translate(410,256)" d="m0 0 4 2 5 4h5l5-4 1 3h-2l1 11h-5v-3h-5l-7-6v-4l-2-1z" fill="#3B3F59"/>
<path transform="translate(188,112)" d="m0 0h1l-1 10h2l1 4-1 7v15l-2-4-3-7v-15l2-9z" fill="#B9503E"/>
<path transform="translate(569,679)" d="m0 0 5 5 7 8 10 12-2 3-5-4-6-7-5-6-4-6z" fill="#3A4160"/>
<path transform="translate(568,463)" d="m0 0 5 4 6 18 4 19h-2l-4-9-5-19-4-11z" fill="#313655"/>
<path transform="translate(611,713)" d="m0 0 1 2 4-1 3 5 3 3 1 2 6 2v-2h3v2l6 1v1l-14 1-7-2 3-3-4-3v-2l-9-1-3-2 1-2 5 1z" fill="#222441"/>
<path transform="translate(337,724)" d="m0 0h3l2 5 4 1-5 2h-1v7l-5 1v-7l-2 1-2 5-3-1 2-6 5-5z" fill="#FCE0C3"/>
<path transform="translate(210,140)" d="m0 0h2l-1 5-7 13-2 6-6 2v-7l10-12z" fill="#FBC183"/>
<path transform="translate(525,720)" d="m0 0h10l3 4 7 1 1 4-16-2-10-2 1-3z" fill="#25243D"/>
<path transform="translate(197,180)" d="m0 0h5l1 2-2 2-1 2 2 1v3l4 1 4 3-1 4 2 1h-5l-1-3-7-2-1-3z" fill="#B8513E"/>
<path transform="translate(224,350)" d="m0 0h4l-1 4-7 3-2 2-6 2-4 2 1-7 4-4 9-1z" fill="#F7DDCA"/>
<path transform="translate(460,213)" d="m0 0 4 1-1 7-2 2-2 6-1 1-2 20h-1v-18l1-6 2 1 1-6h-4l-2-7z" fill="#32364F"/>
<path transform="translate(148,36)" d="m0 0 8 1 2 2 11 3v3 3l-6 1-6-5-2-1v-2l-5-1z" fill="#E7925A"/>
<path transform="translate(543,304)" d="m0 0h1l-1 8-8 14-2 2-1 6 5-4-2 5-4 6h-2v-12l3-6 4-6h2l1-4z" fill="#3C4363"/>
<path transform="translate(246,507)" d="m0 0h2v14l2 18 1 5 1 24-2-3-1-2v-10l-1-7-1-8-1-14-2-4h2l-1-9h2z" fill="#2C151D"/>
<path transform="translate(306,192)" d="m0 0h7l-1 3-10 4-1 7 1 4 2 1-5-1-3-4v-8l5-3z" fill="#09090E"/>
<path transform="translate(413,307)" d="m0 0h4v7l1 6-4 4-2-2-1-6h-2l-1-5z" fill="#E58E57"/>
<path transform="translate(433,95)" d="m0 0h2l-2 4-15 12-3 4-5 3-6 5 2-4 12-12h2l2-4 9-7zm-31 28 2 1-3 2z" fill="#1F212B"/>
<path transform="translate(304,332)" d="m0 0 9 3 4 7 2 3h-6l-2 1v-3l-4-2-4-4-1-4z" fill="#3A4060"/>
<path transform="translate(419,216)" d="m0 0h4l-1 5-1 3h6l1-3 1 2-4 4h-8l-9-3v-1h6l-1-6z" fill="#4B3640"/>
<path transform="translate(259,632)" d="m0 0 1 3 3 1v34l-2-3-3-32z" fill="#040306"/>
<path transform="translate(470,216)" d="m0 0h1v10h-2l-1 5-5 5-3-1v-6h2l2-4z" fill="#DD8252"/>
<path transform="translate(480,417)" d="m0 0 1 2 4-1-1 2-4 2-7 8-5-3-5 1-1 2-2-1 6-7 9-1 4-1z" fill="#431F1D"/>
<path transform="translate(454,410)" d="m0 0 4 1v3l-1 1-11 2-3 2h-5v-6l2-1h12z" fill="#222340"/>
<path transform="translate(387,328)" d="m0 0 4 1 6 5h6v7l-7-1-10-8z" fill="#363C5C"/>
<path transform="translate(445,278)" d="m0 0 2 1-1 5-3 4h-2l-2 4-4 6h-2v-6l-1-2 4-4v2h2l2-5z" fill="#DE8052"/>
<path transform="translate(423,429)" d="m0 0h4l1 7-3 3-8-2-5 1-2-5 2-1 10-1z" fill="#222441"/>
<path transform="translate(535,426)" d="m0 0 1 2h-2l-1 4-2 3-2-1-1-4-5 3-3 4-6 3-1 3-8 6-2 1-3-3 5-1 6-5 4-5 6-4 5-4z" fill="#E38853"/>
<path transform="translate(324,320)" d="m0 0 6 1 7 4 4 9v2l-4-1-6-5-5-7-2-1z" fill="#666D87"/>
<path transform="translate(436,207)" d="m0 0 4 1v14l-4 14-1-4 3-12v-3l-6 2 1-9 3-1z" fill="#BB513F"/>
<path transform="translate(398,204)" d="m0 0h17v3l-7 2-1 2h-10l-1-2z" fill="#D8754B"/>
<path transform="translate(541,743)" d="m0 0 3 1 1 3 4 4 3 4v6l-3 1-4-7-5-5z" fill="#F9E6D7"/>
<path transform="translate(347,728)" d="m0 0h4l-2 5-2 4h-2v4l-4-1-6 1 4-3v-6l7-3z" fill="#4B2623"/>
<path transform="translate(485,453)" d="m0 0h2l1 6-5 4-7 5h-4l1-4 6-5h2l2-4z" fill="#F5AA7B"/>
<path transform="translate(477,440)" d="m0 0 2 1-3 3 1 8-3 5-4 2v-3h-2l1-8z" fill="#BF5841"/>
<path transform="translate(222,372)" d="m0 0 2 4v24h3l1 18 1 4-1 8h-1l-3-26-2-4z" fill="#471C1B"/>
<path transform="translate(202,334)" d="m0 0 16 2v2h8l-1 2h-24z" fill="#361817"/>
<path transform="translate(222,322)" d="m0 0 3 1-8 2 1 3-17 1 1-4h2v-2z" fill="#341616"/>
<path transform="translate(200,313)" d="m0 0 1 3 6-1 1 7 10-1v-2l7 1v2l-3 1h-21l-1-1z" fill="#D27651"/>
<path transform="translate(502,400)" d="m0 0h1v13l-6 1-2 1 1-6-2-1 3-7h3v2h2z" fill="#250E11"/>
<path transform="translate(219,194)" d="m0 0 4 2 1 2v16l-1 2h-2l-1-3-1-14-3-4z" fill="#F6B97C"/>
<path transform="translate(153,44)" d="m0 0 6 5 6 10-2 1 1 3-4-1-5-8-2-5z" fill="#B54F3E"/>
<path transform="translate(435,441)" d="m0 0h1v7l-7 1v-2h-30l-2-1 1-2 7 1h13l6-1 1-2h2v3h7z" fill="#532522"/>
<path transform="translate(232,457)" d="m0 0h1v11h2l-1 9 1 22 3 2v8l-2-1-1-6-1 13h-1l-1-37z" fill="#240D0F"/>
<path transform="translate(440,274)" d="m0 0 2 1-2 4-1 3-10 6-3 1-2-5 1-4h2v3h5l1-3z" fill="#2C2236"/>
<path transform="translate(433,704)" d="m0 0 3 4 2 4 4 1-1 5 3 1 1 3-5 2-3 1-1 2-1-2v-12l-2-5z" fill="#252745"/>
<path transform="translate(254,689)" d="m0 0h1l1 7v9h2l2 3 1 9-2 2-1-5h-2l1 4-2 3-1-14z" fill="#461B1A"/>
<path transform="translate(500,412)" d="m0 0 4 2v3h5l-2 5h-3l-3-3-5-1h-11l2-2 9-2z" fill="#954E3A"/>
<path transform="translate(534,125)" d="m0 0 4 2 3 6v9l1 2h-5l-2-12-3-4 1-2h1z" fill="#383E5E"/>
<path transform="translate(478,302)" d="m0 0 3 1-2 3-7 3-12 7-4-1v-2h3l-2-2 5-3h5l1-2v2l6-3h2v-2z" fill="#3C4363"/>
<path transform="translate(514,267)" d="m0 0h2l-2 4-6 3-8 7-6 3 2-6 7-6h4l1-2 4-2z" fill="#676E88"/>
<path transform="translate(444,209)" d="m0 0 2 1v3h-2v13h-2l-2 4-2 1 2-18 1-2h3z" fill="#0F0B10"/>
<path transform="translate(537,744)" d="m0 0 3 1 2 6 7 8v3h2v2h-7l-1-9-4-2-3-3z" fill="#814031"/>
<path transform="translate(295,337)" d="m0 0 5 5 1 2h-4l3 4 1 16 1 5 1 6h-2v2h2l-1 3-2-1-1-3-1-27-2-2z" fill="#2F3453"/>
<path transform="translate(242,342)" d="m0 0 2 4-3 9-5 1-1-2v-6l2-3h3v-2z" fill="#FBB487"/>
<path transform="translate(416,411)" d="m0 0h9l6 3 1 4-2-2-18-1-7-1v-2z" fill="#DB8151"/>
<path transform="translate(247,327)" d="m0 0h1v9l-1 7h-1v-5l-9 2v-11l2-1v6l7-2z" fill="#B04E3E"/>
<path transform="translate(378,264)" d="m0 0 2 3 2-2-1 12 1 6-2 2-3-5-1-14z" fill="#3A4160"/>
<path transform="translate(475,95)" d="m0 0h8l8 3-1 5-7-1-8-5z" fill="#727890"/>
<path transform="translate(357,735)" d="m0 0h4v2h-2v3h9l-1 2-5 1-17 1v-3l12-2z" fill="#6A3937"/>
<path transform="translate(302,430)" d="m0 0 2 4-1 2 2 1v11 3l-1 6-2-1-1-6v-16z" fill="#3C4363"/>
<path transform="translate(528,132)" d="m0 0 7 1 2 4v8l-2 2h-3l-1-9-3-4z" fill="#0B0B12"/>
<path transform="translate(486,93)" d="m0 0 5 2 4 5-3 1-1 3-4 2v5l-2 1-4-9 1-3 3 2h5v-4l-7-2z" fill="#3C4363"/>
<path transform="translate(412,440)" d="m0 0 12 1 1 4-7 1h-13l3-1 1-2z" fill="#E08E5F"/>
<path transform="translate(466,445)" d="m0 0 2 1-8 9-4 2-1 2h-3l1-6 5-5 4-1z" fill="#F1A371"/>
<path transform="translate(319,197)" d="m0 0h9l14 1 5 2v1l-5 1h-9l-1-1-12-2z" fill="#3E4565"/>
<path transform="translate(163,60)" d="m0 0 3 1 1 9 1 7-2-4-3 23h-1l-1-13 2-5v-10h2l-3-5z" fill="#E58B55"/>
<path transform="translate(477,436)" d="m0 0h7v3l-8 3-6 6-2 7-2-8z" fill="#703B33"/>
<path transform="translate(391,418)" d="m0 0 2 3 1 13-5 1-2-2v-3h2v-2l-2-1 2-6h2z" fill="#22233E"/>
<path transform="translate(320,307)" d="m0 0 2 4 4 2 1 4h-10l-5-1 6-7z" fill="#020102"/>
<path transform="translate(145,117)" d="m0 0h1v5h2l1 8 6 8-2 8h-1v-6l-4-6-3-4-1-3v-7z" fill="#743A31"/>
<path transform="translate(404,237)" d="m0 0h4l-1 2v3l-10-1 2 9 7 2v1l-8-1-4-2 1-6h-2v-2l3-2 7-2z" fill="#404461"/>
<path transform="translate(210,107)" d="m0 0 5 1 1 3v9l-5-1-2-5z" fill="#F6BE82"/>
<path transform="translate(514,706)" d="m0 0 1 2 6 1 1 2-9 3-2 5-1 2-5 2 1-4 5-7z" fill="#DB7C4E"/>
<path transform="translate(396,653)" d="m0 0h1v59l2 1-4 2-3-3h4z" fill="#26243E"/>
<path transform="translate(523,408)" d="m0 0h5l-4 3-5 2-5 5-3 2h-3l2-5 5-5z" fill="#E68F57"/>
<path transform="translate(425,285)" d="m0 0 1 4-19 9 1-5z" fill="#181522"/>
<path transform="translate(195,199)" d="m0 0 6 3 3 2h7v3h-17l-2-2h3z" fill="#CF6F49"/>
<path transform="translate(368,198)" d="m0 0m-1 1 1 3-1 1h-24l-1-2z" fill="#6B728B"/>
<path transform="translate(401,409)" d="m0 0h7l-4 2-2 4-3 1-1 16-2-2 1-17z" fill="#FCF8F6"/>
<path transform="translate(150,96)" d="m0 0h1v9l-4 4v13h-1l-1-5v-18l2 3 1-5z" fill="#A84B3B"/>
<path transform="translate(152,41)" d="m0 0h3v2l5 2 7 7-1 2-4 1-7-9-1-1-2 3z" fill="#411B1A"/>
<path transform="translate(433,299)" d="m0 0 4 2-5 4-6 10-3 1-2 4-5 3 2-4 12-15z" fill="#1B0E0F"/>
<path transform="translate(520,268)" d="m0 0h15l2 2-3 2-7-1-9 2h-2v-3z" fill="#020102"/>
<path transform="translate(241,555)" d="m0 0 3 2v15l-1 2h-2l-2-8v-6z" fill="#2A1115"/>
<path transform="translate(217,307)" d="m0 0 2 1-1 2h10l4-1 1 2v13h-1l-1-9-2-1v-2l-9 2-3 1-2-3h2z" fill="#62322B"/>
<path transform="translate(517,114)" d="m0 0 5 1 8 4v2h2l4 6-1 2-6-5-5-3-1-3-4-1z" fill="#767B92"/>
<path transform="translate(635,719)" d="m0 0h10l8 2-1 3-10 2v-3l-4-1z" fill="#2E314E"/>
<path transform="translate(534,680)" d="m0 0m-1 1m-1 1m-1 1 1 3h-2v2l-5 2h-3v2l-9 4h-4l1-3 11-4 3-2h3l1-3z" fill="#0D0506"/>
<path transform="translate(219,199)" d="m0 0h1l1 14 1 4h-3l-1 8-4-2-1-7 3-2h3z" fill="#DD7D4F"/>
<path transform="translate(497,399)" d="m0 0h7l-2 1v3h-2v-2h-3l-1 2-2-1-1 4-5 2h-3v-2l-3-2 14-4z" fill="#23131C"/>
<path transform="translate(271,353)" d="m0 0 11 2 1 5-12-1-2-3z" fill="#FEC88A"/>
<path transform="translate(206,339)" d="m0 0 5 1-3 1v8h-2l-1 2-1-4h-2l-2-7z" fill="#A45B41"/>
<path transform="translate(330,313)" d="m0 0h5l1 3h3l1-2 4 6v3l-8-2v-2h-2v-2l-3-1z" fill="#3B4262"/>
<path transform="translate(530,408)" d="m0 0 5 1 7 8v7l-4-4-2-4-3-2v-2h-2z" fill="#D7744A"/>
<path transform="translate(224,327)" d="m0 0h3l1 7-1 2h-8l-1-8 5 1z" fill="#804332"/>
<path transform="translate(454,250)" d="m0 0 1 3-2 6-4 4-1 3-4 2-2 2v-5l3-1 4-7 2-6z" fill="#2F3352"/>
<path transform="translate(489,440)" d="m0 0h2l3 4-2 7-2 4-1 3-2-3-1-4 2-2v-8z" fill="#DE8251"/>
<path transform="translate(561,350)" d="m0 0m-2 1 5 1-2 4-8 3-5 1 2-4 3-3z" fill="#454C6A"/>
<path transform="translate(201,312)" d="m0 0h14v4l-4 2-4-1v-2l-6 1z" fill="#F8D8BE"/>
<path transform="translate(382,241)" d="m0 0 4 1h5l4 2v2l-8 7-7 7-1-3 4-2 2-4 5-4 1-3-7 1-3-2z" fill="#23263B"/>
<path transform="translate(504,290)" d="m0 0 2 1-6 4-3 3-5 3h-5v2h-2v2l-4-1 4-4 8-4z" fill="#6D728B"/>
<path transform="translate(345,720)" d="m0 0h9l-3 1v4l5-2-1 3h-2l-1 3v-2h-7l-1-6z" fill="#EDC1A7"/>
<path transform="translate(402,461)" d="m0 0h1v27l-4-1 1-6 1-19z" fill="#3B4262"/>
<path transform="translate(393,246)" d="m0 0 2 4-4 4-5 3-4 5-5 1 6-7z" fill="#020102"/>
<path transform="translate(459,424)" d="m0 0 4 2-5 5-7 5-2-1 4-6z" fill="#EA976C"/>
<path transform="translate(168,154)" d="m0 0 4 2 4 5v2l5 2 1 2-6-2-11-6z" fill="#62342D"/>
<path transform="translate(213,142)" d="m0 0h2v7l-5 7-5 5-2 1 1-6 3-1 1-3 3-3 1-5z" fill="#BB5D42"/>
<path transform="translate(418,500)" d="m0 0 3 1-2 7-8 1v-2h-2v5h-1v-6l8-3z" fill="#141425"/>
<path transform="translate(466,288)" d="m0 0 3 1-2 4-3 4-5 3-4 3 1-5 5-5 1-3z" fill="#646B86"/>
<path transform="translate(635,720)" d="m0 0 4 2 3 1-1 4h-7l-2-1v-2h-3v2l-2-1 1-2z" fill="#3E4564"/>
<path transform="translate(229,307)" d="m0 0 5 1 3 3 2 3v3l-3 1-2 4-2-13-5 2v-2h2z" fill="#DE8358"/>
<path transform="translate(576,483)" d="m0 0h2l4 16 1 5h-2l-4-9-1-4z" fill="#353B5B"/>
<path transform="translate(475,427)" d="m0 0v3l-4 5-6 5-1 7h-2l-1 2-2-1 2-7z" fill="#F9B580"/>
<path transform="translate(415,263)" d="m0 0 5 1 6 2v2h3v4h-5v-3h-5l-4-4z" fill="#0B0B13"/>
<path transform="translate(419,226)" d="m0 0h8l-1 3-12 2h-2v5h-1v-5h-3v-3l7-1z" fill="#D26D48"/>
<path transform="translate(396,203)" d="m0 0h19v1l-12 1h-5l-1 5 9 1v1h-10l-1 3-2-5h2z" fill="#532724"/>
<path transform="translate(152,95)" d="m0 0h3l-1 9-4 4-2 10-2-4v-5l4-4z" fill="#E48954"/>
<path transform="translate(487,446)" d="m0 0h2l-1 4-7 9-3 1-1-2 2-1v-3l2-4z" fill="#512825"/>
<path transform="translate(398,236)" d="m0 0h5l-1 4-9 2-1 2-2-1h-7l1-2 12-2v-2z" fill="#190D12"/>
<path transform="translate(174,74)" d="m0 0 1 3 7-1 7 7v2l3 1 1 5-3-2v-3h-2l-4-5-10-2z" fill="#5A2E29"/>
<path transform="translate(538,752)" d="m0 0 5 3 1 6h-6l-3-5 1-3z" fill="#FCE7D3"/>
<path transform="translate(504,734)" d="m0 0 2 1v5l5-2-1 4v2l2 4-1 3-1-2-2 2-1-8-3-1z" fill="#4C2D30"/>
<path transform="translate(518,704)" d="m0 0h5l2 4 4 1v2h-5l-4 1 1-2-5-3v-2z" fill="#FDB88B"/>
<path transform="translate(457,410)" d="m0 0 3 1-1 4-9 3-4 3h-6v3h-2v-5l12-4 7-1v-3z" fill="#260E0F"/>
<path transform="translate(395,251)" d="m0 0 12 2 3 2v3l3 1v3l-5-2v-3h-4v-2l-6-1z" fill="#0F1019"/>
<path transform="translate(406,230)" d="m0 0 5 1 1 8-9-1v-2l-2-1z" fill="#2C1A1D"/>
<path transform="translate(495,105)" d="m0 0 8 4v2l4 1-1 4-5-2-7-6z" fill="#676E88"/>
<path transform="translate(543,742)" d="m0 0 5 2 4 4 1 3 2 2h-3l-1 2-4-6-3-2z" fill="#3E2020"/>
<path transform="translate(484,464)" d="m0 0 2 1-5 6h-8l-3-4 2-2v3z" fill="#0C0405"/>
<path transform="translate(228,356)" d="m0 0 3 1-1 7-5-1-1 7-2 1v-9l1-3 5-1z" fill="#2F1C27"/>
<path transform="translate(521,406)" d="m0 0h9l2 2h-2l1 4h2l2 3-1 3-4-3-2-6-11 1 1-2h3z" fill="#592C27"/>
<path transform="translate(465,408)" d="m0 0h7v3l-2 4-4 2-2-5z" fill="#231521"/>
<path transform="translate(230,366)" d="m0 0h1v12h2v21h-1l-2-19-1-7z" fill="#371515"/>
<path transform="translate(430,300)" d="m0 0h2l-2 5-7 9h-2v-4l6-8z" fill="#EA955D"/>
<path transform="translate(458,230)" d="m0 0h1v13l-4 14h-2l2-7 2-19z" fill="#040102"/>
<path transform="translate(414,464)" d="m0 0h5v10l-2 1-5-1 3-1 1-5-4-1v-2z" fill="#020103"/>
<path transform="translate(236,439)" d="m0 0 3 1 4 27-1 3-2-3-2-19z" fill="#321314"/>
<path transform="translate(435,415)" d="m0 0h1v26l-2 5-7-1v-3h6l1-2z" fill="#DE8050"/>
<path transform="translate(191,125)" d="m0 0h1v13l-1 19 2 1h-3l-1-30z" fill="#D7724A"/>
<path transform="translate(546,739)" d="m0 0 4 1 5 9v3l-3-1-3-5-5-5z" fill="#F9E1CD"/>
<path transform="translate(536,653)" d="m0 0 4 2-1 3h-2l2 5v9l-2 2-2-5 1-5z" fill="#3C4363"/>
<path transform="translate(385,408)" d="m0 0 6 3 1 6-4 2-3-6z" fill="#925642"/>
<path transform="translate(216,347)" d="m0 0 1 2h-2v2h7l-4 2-5-1-1 3-4 3-1-6-2-1 9-3z" fill="#532A28"/>
<path transform="translate(444,206)" d="m0 0 11 1v1h-8l1 2 9 1-3 2-5 1-3-1-1-3-3 1z" fill="#272A47"/>
<path transform="translate(166,135)" d="m0 0 5 3 1 10-3-1v-4h-2l-2-3z" fill="#CA6345"/>
<path transform="translate(581,685)" d="m0 0 4 2 4 4v2h2l4 7h-3l-11-13z" fill="#383D5C"/>
<path transform="translate(558,659)" d="m0 0 4 2 4 11v2h-2l-6-10z" fill="#404665"/>
<path transform="translate(386,247)" d="m0 0 1 3-4 5-5 5h-3l-1 2v-3l6-8 5-3z" fill="#FDFDFD"/>
<path transform="translate(349,731)" d="m0 0 4 2-1 6-3 2h-4v-4h2l1-4z" fill="#FCECDB"/>
<path transform="translate(575,689)" d="m0 0 5 5 5 6 4 2 2 3-2 2-5-4-6-7-3-5z" fill="#5D647F"/>
<path transform="translate(432,691)" d="m0 0 5 2v6l1 2v6h-2l-1-7-2 2z" fill="#262946"/>
<path transform="translate(552,644)" d="m0 0 3 1 4 11-1 5-2-2-4-11z" fill="#353B5B"/>
<path transform="translate(544,405)" d="m0 0 6 5 1 6-1 2-4-4-3-5z" fill="#676E88"/>
<path transform="translate(462,240)" d="m0 0h1l1 12h-3l-4 4 2-10h2v-5z" fill="#9D493A"/>
<path transform="translate(399,227)" d="m0 0 4 1 2 5-2 2h-5l-2-6 3 1z" fill="#F9B082"/>
<path transform="translate(187,113)" d="m0 0 1 4-1 10 1 10 1 1v6l-2-4-2-3v-15z" fill="#63352F"/>
<path transform="translate(211,329)" d="m0 0 6 1-1 4-2 1h-6l-1-5z" fill="#FDFBFA"/>
<path transform="translate(171,116)" d="m0 0 5 1v10h-3l-2-6z" fill="#150F16"/>
<path transform="translate(416,374)" d="m0 0 3 1 1 7-2 10-2-4z" fill="#3C4363"/>
<path transform="translate(417,357)" d="m0 0 2 1 1 9-2 5-2 1-1-4 1-11z" fill="#3C4363"/>
<path transform="translate(516,128)" d="m0 0 11 2-1 2-22-1 1-2z" fill="#020102"/>
<path transform="translate(156,83)" d="m0 0 4 2 1 2-3 11-2-1-1-12z" fill="#E18452"/>
<path transform="translate(337,729)" d="m0 0 3 1v9l-5 1v-7l-2-1 4-1z" fill="#CDA495"/>
<path transform="translate(393,415)" d="m0 0h3l-1 18-2-3-2-13z" fill="#020102"/>
<path transform="translate(373,298)" d="m0 0 1 4h3l1 4 5 2-2 3-5-2-4-5z" fill="#3B4262"/>
<path transform="translate(434,217)" d="m0 0h4l1 3-2 7-1-3-3 1-2-6z" fill="#D9754B"/>
<path transform="translate(538,271)" d="m0 0 1 4-10 3-2 1v-3l-2-1 9-3z" fill="#3B4160"/>
<path transform="translate(442,226)" d="m0 0 1 3-3 13-2 2 1-10-3 1 1-6h3z" fill="#3B3A52"/>
<path transform="translate(195,162)" d="m0 0 2 1v2l4-1-3 5h-3l-1 2h-2l-1-6z" fill="#E99459"/>
<path transform="translate(525,435)" d="m0 0 4 1-5 4-4 1-1 3-4 3-1-4 3-3 5-2z" fill="#5B322F"/>
<path transform="translate(243,346)" d="m0 0 3 1 1 5 2 1-1 2h-7z" fill="#DA794D"/>
<path transform="translate(250,568)" d="m0 0h1l1 11 3 5v13h-1l-1-12-3-5-2-11z" fill="#341517"/>
<path transform="translate(492,455)" d="m0 0 2 1-3 4h-2v2h-2v2l-10 3 4-4 6-4z" fill="#421E1C"/>
<path transform="translate(436,207)" d="m0 0 4 1v14l-4 14-1-4 3-12v-11z" fill="#884036"/>
<path transform="translate(465,448)" d="m0 0h2l1 3-1 5-2-1-10 3 2-3 5-3z" fill="#3A1918"/>
<path transform="translate(535,426)" d="m0 0 1 2h-2l-1 4-2 3-2-1-2-5 2-2z" fill="#DA784D"/>
<path transform="translate(240,322)" d="m0 0 2 3 2 6 2 2-7 1v-9z" fill="#E28552"/>
<path transform="translate(433,95)" d="m0 0h2l-2 4-10 8-4 2 6-7 4-5z" fill="#050509"/>
<path transform="translate(238,533)" d="m0 0 2 2v9l1 8h2l-1 4h-2l-2-9z" fill="#341619"/>
<path transform="translate(413,391)" d="m0 0 2 1-1 4-4 4-2-1v-6z" fill="#020103"/>
<path transform="translate(299,364)" d="m0 0 3 1v8l1 2h-2v2h2l-1 3-2-1-1-3z" fill="#222441"/>
<path transform="translate(425,280)" d="m0 0h2v3h5l1 3-7 3-2-5z" fill="#322F47"/>
<path transform="translate(542,217)" d="m0 0h5v2l-11 5-4-1 4-3z" fill="#0C0D15"/>
<path transform="translate(189,148)" d="m0 0h1l1 10h2l1 4-4 2v5h-1l-1-8z" fill="#4A2422"/>
<path transform="translate(518,116)" d="m0 0 5 2 3 4 4 2-2 1-2-1v2l-4-2-4-5z" fill="#3B4161"/>
<path transform="translate(453,717)" d="m0 0m-1 1m-1 1m-3 1h3v3l-10 2-3 3-1-3 4-3z" fill="#14141C"/>
<path transform="translate(592,708)" d="m0 0 4 1 8 5 2 4-6-2-8-7z" fill="#676E88"/>
<path transform="translate(228,432)" d="m0 0 4 1 1 3-1 5-1 10h-1l-1-14z" fill="#471C1B"/>
<path transform="translate(240,319)" d="m0 0 2 1v4l5 1v7l-4-1-3-9z" fill="#F6BE89"/>
<path transform="translate(393,251)" d="m0 0 5 2 6 2v1h-7-3-7l1-2z" fill="#242744"/>
<path transform="translate(419,216)" d="m0 0h4l-1 4-5 4-2-3 1-4z" fill="#FDFDFD"/>
<path transform="translate(195,142)" d="m0 0h2l-2 13-3 1 1-9z" fill="#F6B77B"/>
<path transform="translate(347,728)" d="m0 0h4l-2 5-3 4-1-2-3 1v-2h2l-1-3z" fill="#4F2727"/>
<path transform="translate(524,721)" d="m0 0h7l4 2-3 1h-6l-1 1h-5l1-3z" fill="#75575B"/>
<path transform="translate(539,672)" d="m0 0 4 1v3l-7 4-2-1 1-4z" fill="#292D4B"/>
<path transform="translate(248,546)" d="m0 0h2l1 6 1 16-2-3-1-2v-10z" fill="#341314"/>
<path transform="translate(477,440)" d="m0 0 2 1-3 3 1 8-2 3v-6l-4 2v-5z" fill="#DB8054"/>
<path transform="translate(350,283)" d="m0 0 6 2 2-2 1 3-1 2 3 1-1 3-5-3z" fill="#3C4363"/>
<path transform="translate(379,735)" d="m0 0 4 4-3 1h-8v-3z" fill="#20223D"/>
<path transform="translate(241,574)" d="m0 0 2 1-1 16h-1l-1-7-1-3z" fill="#230E11"/>
<path transform="translate(305,518)" d="m0 0h2l1 4-1 6 1 4h-3l-1-2z" fill="#3C4363"/>
<path transform="translate(233,499)" d="m0 0 5 2v8l-2-1-1-6-1 13h-1z" fill="#231017"/>
<path transform="translate(335,353)" d="m0 0h1v11h-3l-1-9z" fill="#676E88"/>
<path transform="translate(555,342)" d="m0 0h1l1 7-8 2 2-5z" fill="#3C4363"/>
<path transform="translate(413,314)" d="m0 0 4 4-1 5-3 1-2-5v-4z" fill="#F5AD7E"/>
<path transform="translate(354,300)" d="m0 0 3 1 1 4h3v2h2l-1 4-5-5-4-2z" fill="#394060"/>
<path transform="translate(210,224)" d="m0 0 4 1-2 6h-4l-1-4z" fill="#FDF1E3"/>
<path transform="translate(398,204)" d="m0 0h15l-3 2h-10l1 5-5-1z" fill="#BC533F"/>
<path transform="translate(176,70)" d="m0 0 9 4 5 3v2l4 2-1 2-2-1v-2h-3v-2l-12-6z" fill="#D9754B"/>
<path transform="translate(163,60)" d="m0 0 3 1 1 9 1 7-3-6-2 1v-4h2l-3-5z" fill="#D4734A"/>
<path transform="translate(538,711)" d="m0 0 2 8h-4v-3h-13v-1l13-1z" fill="#A0786E"/>
<path transform="translate(259,672)" d="m0 0h3v12l-4-4z" fill="#803F34"/>
<path transform="translate(381,410)" d="m0 0 3 1v10h-3l-2-2 1-8z" fill="#222441"/>
<path transform="translate(470,216)" d="m0 0h1v10h-2l-1 5-2 2 1-5 1-4-1-3z" fill="#A94F3C"/>
<path transform="translate(216,209)" d="m0 0h2l-1 4-6 4-3 1-2-4 8-1z" fill="#4F2723"/>
<path transform="translate(177,140)" d="m0 0 2 4 2-3 1 1 1 15-2-4-2-6-2-1z" fill="#C76044"/>
<path transform="translate(540,133)" d="m0 0h1v9l1 2h-5l-1-10 3 3z" fill="#292C4A"/>
<path transform="translate(169,127)" d="m0 0 2 1v2h2l1 5-3 2-3-4v-5z" fill="#FFCB8A"/>
<path transform="translate(486,93)" d="m0 0 5 2 4 5-4 1-1-3-7-2z" fill="#3B4262"/>
<path transform="translate(544,756)" d="m0 0h3l2 3v3h2v2h-7z" fill="#4F2624"/>
<path transform="translate(361,727)" d="m0 0 5 1 3 2-5 2h-5l1-4z" fill="#A8543E"/>
<path transform="translate(507,446)" d="m0 0 1 2 3-2h3v2l-4 3h-10l4-2z" fill="#D06A47"/>
<path transform="translate(398,420)" d="m0 0h1v20h-2l-1-10h1z" fill="#FECF94"/>
<path transform="translate(454,410)" d="m0 0 4 1v3l-1 1h-7l-2-2 5-2z" fill="#392A3B"/>
<path transform="translate(225,339)" d="m0 0 3 1-1 4-9 2v-2h3v-2l-2-2z" fill="#E3905F"/>
<path transform="translate(519,263)" d="m0 0 6 1 5-1 1 4-6 1-3-2h-3z" fill="#3C4363"/>
<path transform="translate(408,237)" d="m0 0 11 4v2l2 1-3 1-6-3-4-3z" fill="#322D3D"/>
<path transform="translate(382,733)" d="m0 0 9 1-3 3h-7l-1-3z" fill="#230D10"/>
<path transform="translate(623,718)" d="m0 0 1 2h11l-3 3h-4l-1 2-4-2-1-3z" fill="#222441"/>
<path transform="translate(466,445)" d="m0 0 2 1-8 9-4 1v-3h2l2-3h2v-3z" fill="#D8764C"/>
<path transform="translate(503,414)" d="m0 0 1 3h5l-2 5h-3l-3-3 1-4z" fill="#582C2C"/>
<path transform="translate(243,338)" d="m0 0h3v5h-2v-3h-4v2l-5 2-1-4z" fill="#D26D48"/>
<path transform="translate(252,332)" d="m0 0 8 4h-4l-1 13h-1l-1-12z" fill="#EBB190"/>
<path transform="translate(393,229)" d="m0 0 5 3v3l3 1-5 1v2l-2-1 1-5h-2z" fill="#C56545"/>
<path transform="translate(184,178)" d="m0 0 1 4h2v7h-1v8l-2-1z" fill="#B2553E"/>
<path transform="translate(523,408)" d="m0 0h5l-4 3-8 1-7 6 2-4 4-4z" fill="#B96244"/>
<path transform="translate(382,282)" d="m0 0h2l3 4-1 5-3-1-2-3z" fill="#5C637D"/>
<path transform="translate(383,265)" d="m0 0 1 4-1 13-2-2-1-4 2-10z" fill="#676E88"/>
<path transform="translate(378,264)" d="m0 0 1 2v14h-2l-1-14z" fill="#636A84"/>
<path transform="translate(339,184)" d="m0 0h7v2l-9 2h-5l2-3z" fill="#050407"/>
<path transform="translate(320,332)" d="m0 0 7 4 1 7-2-1v-2l-4-2z" fill="#676E88"/>
<path transform="translate(201,203)" d="m0 0 6 1h4v3h-13l3-1z" fill="#B85941"/>
<path transform="translate(203,190)" d="m0 0 5 2 2 2-1 4 2 1h-5z" fill="#E38853"/>
<path transform="translate(153,44)" d="m0 0 5 4 1 8-2-1v-2h-2l-2-4z" fill="#CC6545"/>
<path transform="translate(152,41)" d="m0 0h3v2l5 2-2 4-4-4-2 3z" fill="#65342D"/>
<path transform="translate(656,720)" d="m0 0h7v4l-4 2v-2l-3-1z" fill="#19192B"/>
<path transform="translate(526,700)" d="m0 0h5l2 3-6 2-3-2v-2z" fill="#E79057"/>
<path transform="translate(538,408)" d="m0 0 6 1 3 5 1 4-5-4z" fill="#2A2E4C"/>
<path transform="translate(380,204)" d="m0 0h9l-3 1 2 4-9-2-1-2z" fill="#703830"/>
<path transform="translate(323,188)" d="m0 0h7l-4 3-11 2 3-4z" fill="#040306"/>
<path transform="translate(212,141)" d="m0 0 1 3-2 7-3 1-1 4h-2l2-5z" fill="#E18552"/>
<path transform="translate(156,56)" d="m0 0 4 4 1 6h-3v-4l-3 1z" fill="#5C302C"/>
<path transform="translate(334,729)" d="m0 0v3l-3 7-3-1 2-6z" fill="#F5D1BB"/>
<path transform="translate(594,698)" d="m0 0 8 6v4l-3-1-1-3-4-3z" fill="#2C304F"/>
<path transform="translate(234,501)" d="m0 0 2 1 1 7-1 8-2-2z" fill="#491D1C"/>
<path transform="translate(530,408)" d="m0 0 5 1 3 7-5-2v-2h-2z" fill="#CC6646"/>
<path transform="translate(197,180)" d="m0 0h5l1 2-2 2-1 2 2 1-1 2-4-4z" fill="#E08854"/>
<path transform="translate(519,734)" d="m0 0 2 4-2 2h-3l-1 4-3-1h2l2-7z" fill="#E58B55"/>
<path transform="translate(337,721)" d="m0 0 4 2-8 4-5 4 2-4z" fill="#1A1C2A"/>
<path transform="translate(606,717)" d="m0 0 10 2-2 4-5-2v-2l-4-1z" fill="#3C4363"/>
<path transform="translate(404,696)" d="m0 0 3 1v6h-4v-6z" fill="#FEE1BF"/>
<path transform="translate(464,681)" d="m0 0 3 1v9l-3-1z" fill="#222441"/>
<path transform="translate(409,466)" d="m0 0 7 2-1 4-5-1z" fill="#656A83"/>
<path transform="translate(457,316)" d="m0 0h2l-1 4-8 3-2-1z" fill="#6D738A"/>
<path transform="translate(449,258)" d="m0 0v3l-1 5-4 2-2 2v-5l3-1 3-5z" fill="#353B5A"/>
<path transform="translate(390,228)" d="m0 0h5l1 2h-2l-1 3h2v5h-2v-2l-4-1 2-1z" fill="#EA965A"/>
<path transform="translate(521,765)" d="m0 0 8 1h3l-1 2h-13z" fill="#5A2E29"/>
<path transform="translate(418,724)" d="m0 0h3v6l-5 1 1-6z" fill="#1F213C"/>
<path transform="translate(537,604)" d="m0 0 2 2 2 7-1 4-3-5z" fill="#020102"/>
<path transform="translate(572,473)" d="m0 0 4 3 1 7-2 3-3-10z" fill="#2E3251"/>
<path transform="translate(497,399)" d="m0 0h7l-2 1v3h-2v-2h-3l-1 2-4 1v-3z" fill="#222441"/>
<path transform="translate(450,261)" d="m0 0h1v5l-3 4h-3l1-4h2l1-4z" fill="#080304"/>
<path transform="translate(454,259)" d="m0 0h2l1 4-5 1-1 4-3 3 2-5 2-4h2z" fill="#944336"/>
<path transform="translate(217,241)" d="m0 0 2 1v2l-7 3-5-1 2-2 3 1v-2z" fill="#222441"/>
<path transform="translate(439,233)" d="m0 0 1 2-2 10-2-2v-8z" fill="#0C080B"/>
<path transform="translate(460,229)" d="m0 0 2 3 2-3h2l-1 5-4 2-1-1z" fill="#D17049"/>
<path transform="translate(213,142)" d="m0 0h2v7l-3 3-1-6z" fill="#A04B3A"/>
<path transform="translate(538,761)" d="m0 0h7l-3 6h-5v-2h4v-3z" fill="#DD8053"/>
<path transform="translate(340,724)" d="m0 0 1 3h3l1-2v2h7l-1 3v-2l-10 2z" fill="#C8785A"/>
<path transform="translate(397,702)" d="m0 0 3 1-1 9h-2z" fill="#110607"/>
<path transform="translate(487,446)" d="m0 0h2l-1 4-4 4v-3l-3 1v-2z" fill="#703B34"/>
<path transform="translate(402,414)" d="m0 0h10v1h-9l-1 4 5 1v1h-6l-1-5z" fill="#5C2D28"/>
<path transform="translate(413,374)" d="m0 0 2 2v3l-7 1v-3h3v-2z" fill="#030204"/>
<path transform="translate(404,237)" d="m0 0h4l-1 2v3l-10-1v-1l6-2z" fill="#697089"/>
<path transform="translate(208,107)" d="m0 0h1l2 9v6l-2-3-3-8 1-3z" fill="#D97A4E"/>
</svg>
